<?xml version="1.0" encoding="utf-8" standalone="no"?>
<!DOCTYPE svg PUBLIC "-//W3C//DTD SVG 1.1//EN"
  "http://www.w3.org/Graphics/SVG/1.1/DTD/svg11.dtd">
<svg xmlns:xlink="http://www.w3.org/1999/xlink" width="851.62615pt" height="706.503281pt" viewBox="0 0 851.62615 706.503281" xmlns="http://www.w3.org/2000/svg" version="1.1">
 <metadata>
  <rdf:RDF xmlns:dc="http://purl.org/dc/elements/1.1/" xmlns:cc="http://creativecommons.org/ns#" xmlns:rdf="http://www.w3.org/1999/02/22-rdf-syntax-ns#">
   <cc:Work>
    <dc:type rdf:resource="http://purl.org/dc/dcmitype/StillImage"/>
    <dc:date>2026-01-10T17:11:58.740302</dc:date>
    <dc:format>image/svg+xml</dc:format>
    <dc:creator>
     <cc:Agent>
      <dc:title>Matplotlib v3.10.8, https://matplotlib.org/</dc:title>
     </cc:Agent>
    </dc:creator>
   </cc:Work>
  </rdf:RDF>
 </metadata>
 <defs>
  <style type="text/css">*{stroke-linejoin: round; stroke-linecap: butt}</style>
 </defs>
 <g id="figure_1">
  <g id="patch_1">
   <path d="M 0 706.503281 
L 851.62615 706.503281 
L 851.62615 0 
L 0 0 
z
" style="fill: #ffffff"/>
  </g>
  <g id="axes_1">
   <g id="patch_2">
    <path d="M 52.88875 324.88 
L 417.524649 324.88 
L 417.524649 49.02 
L 52.88875 49.02 
z
" style="fill: #ffffff"/>
   </g>
   <g id="PathCollection_1">
    <defs>
     <path id="m326b63eb64" d="M 0 3.872983 
C 1.027127 3.872983 2.012324 3.464901 2.738613 2.738613 
C 3.464901 2.012324 3.872983 1.027127 3.872983 0 
C 3.872983 -1.027127 3.464901 -2.012324 2.738613 -2.738613 
C 2.012324 -3.464901 1.027127 -3.872983 0 -3.872983 
C -1.027127 -3.872983 -2.012324 -3.464901 -2.738613 -2.738613 
C -3.464901 -2.012324 -3.872983 -1.027127 -3.872983 0 
C -3.872983 1.027127 -3.464901 2.012324 -2.738613 2.738613 
C -2.012324 3.464901 -1.027127 3.872983 0 3.872983 
z
" style="stroke: #ffffff; stroke-opacity: 0.7"/>
    </defs>
    <g clip-path="url(#p3a5472eb8a)">
     <use xlink:href="#m326b63eb64" x="164.173732" y="312.340909" style="fill: #e74c3c; fill-opacity: 0.7; stroke: #ffffff; stroke-opacity: 0.7"/>
     <use xlink:href="#m326b63eb64" x="247.045528" y="169.364548" style="fill: #e74c3c; fill-opacity: 0.7; stroke: #ffffff; stroke-opacity: 0.7"/>
     <use xlink:href="#m326b63eb64" x="152.334904" y="182.843144" style="fill: #e74c3c; fill-opacity: 0.7; stroke: #ffffff; stroke-opacity: 0.7"/>
     <use xlink:href="#m326b63eb64" x="152.334904" y="185.636984" style="fill: #e74c3c; fill-opacity: 0.7; stroke: #ffffff; stroke-opacity: 0.7"/>
     <use xlink:href="#m326b63eb64" x="294.400839" y="223.324329" style="fill: #e74c3c; fill-opacity: 0.7; stroke: #ffffff; stroke-opacity: 0.7"/>
     <use xlink:href="#m326b63eb64" x="235.2067" y="163.496143" style="fill: #e74c3c; fill-opacity: 0.7; stroke: #ffffff; stroke-opacity: 0.7"/>
     <use xlink:href="#m326b63eb64" x="69.463109" y="165.515257" style="fill: #e74c3c; fill-opacity: 0.7; stroke: #ffffff; stroke-opacity: 0.7"/>
     <use xlink:href="#m326b63eb64" x="223.367872" y="221.042468" style="fill: #e74c3c; fill-opacity: 0.7; stroke: #ffffff; stroke-opacity: 0.7"/>
     <use xlink:href="#m326b63eb64" x="223.367872" y="153.856582" style="fill: #e74c3c; fill-opacity: 0.7; stroke: #ffffff; stroke-opacity: 0.7"/>
     <use xlink:href="#m326b63eb64" x="116.818421" y="306.436519" style="fill: #e74c3c; fill-opacity: 0.7; stroke: #ffffff; stroke-opacity: 0.7"/>
     <use xlink:href="#m326b63eb64" x="152.334904" y="230.513123" style="fill: #e74c3c; fill-opacity: 0.7; stroke: #ffffff; stroke-opacity: 0.7"/>
     <use xlink:href="#m326b63eb64" x="199.690216" y="185.886588" style="fill: #e74c3c; fill-opacity: 0.7; stroke: #ffffff; stroke-opacity: 0.7"/>
     <use xlink:href="#m326b63eb64" x="128.657249" y="306.065548" style="fill: #e74c3c; fill-opacity: 0.7; stroke: #ffffff; stroke-opacity: 0.7"/>
     <use xlink:href="#m326b63eb64" x="329.917323" y="61.559091" style="fill: #e74c3c; fill-opacity: 0.7; stroke: #ffffff; stroke-opacity: 0.7"/>
     <use xlink:href="#m326b63eb64" x="235.2067" y="94.413993" style="fill: #e74c3c; fill-opacity: 0.7; stroke: #ffffff; stroke-opacity: 0.7"/>
     <use xlink:href="#m326b63eb64" x="258.884356" y="165.626648" style="fill: #e74c3c; fill-opacity: 0.7; stroke: #ffffff; stroke-opacity: 0.7"/>
     <use xlink:href="#m326b63eb64" x="353.594979" y="105.282698" style="fill: #e74c3c; fill-opacity: 0.7; stroke: #ffffff; stroke-opacity: 0.7"/>
     <use xlink:href="#m326b63eb64" x="341.756151" y="177.882469" style="fill: #e74c3c; fill-opacity: 0.7; stroke: #ffffff; stroke-opacity: 0.7"/>
     <use xlink:href="#m326b63eb64" x="282.562011" y="126.028222" style="fill: #e74c3c; fill-opacity: 0.7; stroke: #ffffff; stroke-opacity: 0.7"/>
     <use xlink:href="#m326b63eb64" x="341.756151" y="156.404245" style="fill: #e74c3c; fill-opacity: 0.7; stroke: #ffffff; stroke-opacity: 0.7"/>
     <use xlink:href="#m326b63eb64" x="294.400839" y="211.055689" style="fill: #e74c3c; fill-opacity: 0.7; stroke: #ffffff; stroke-opacity: 0.7"/>
     <use xlink:href="#m326b63eb64" x="187.851388" y="169.523486" style="fill: #e74c3c; fill-opacity: 0.7; stroke: #ffffff; stroke-opacity: 0.7"/>
     <use xlink:href="#m326b63eb64" x="400.95029" y="160.4819" style="fill: #e74c3c; fill-opacity: 0.7; stroke: #ffffff; stroke-opacity: 0.7"/>
    </g>
   </g>
   <g id="matplotlib.axis_1">
    <g id="xtick_1">
     <g id="line2d_1">
      <defs>
       <path id="mc6966687c6" d="M 0 0 
L 0 3.5 
" style="stroke: #000000; stroke-width: 0.8"/>
      </defs>
      <g>
       <use xlink:href="#mc6966687c6" x="57.624281" y="324.88" style="stroke: #000000; stroke-width: 0.8"/>
      </g>
     </g>
     <g id="text_1">
      <!-- 10 -->
      <g transform="translate(51.50725 339.753594) scale(0.11 -0.11)">
       <defs>
        <path id="ArialMT-31" d="M 2384 0 
L 1822 0 
L 1822 3584 
Q 1619 3391 1289 3197 
Q 959 3003 697 2906 
L 697 3450 
Q 1169 3672 1522 3987 
Q 1875 4303 2022 4600 
L 2384 4600 
L 2384 0 
z
" transform="scale(0.015625)"/>
        <path id="ArialMT-30" d="M 266 2259 
Q 266 3072 433 3567 
Q 600 4063 929 4331 
Q 1259 4600 1759 4600 
Q 2128 4600 2406 4451 
Q 2684 4303 2865 4023 
Q 3047 3744 3150 3342 
Q 3253 2941 3253 2259 
Q 3253 1453 3087 958 
Q 2922 463 2592 192 
Q 2263 -78 1759 -78 
Q 1097 -78 719 397 
Q 266 969 266 2259 
z
M 844 2259 
Q 844 1131 1108 757 
Q 1372 384 1759 384 
Q 2147 384 2411 759 
Q 2675 1134 2675 2259 
Q 2675 3391 2411 3762 
Q 2147 4134 1753 4134 
Q 1366 4134 1134 3806 
Q 844 3388 844 2259 
z
" transform="scale(0.015625)"/>
       </defs>
       <use xlink:href="#ArialMT-31"/>
       <use xlink:href="#ArialMT-30" transform="translate(55.615234 0)"/>
      </g>
     </g>
    </g>
    <g id="xtick_2">
     <g id="line2d_2">
      <g>
       <use xlink:href="#mc6966687c6" x="116.818421" y="324.88" style="stroke: #000000; stroke-width: 0.8"/>
      </g>
     </g>
     <g id="text_2">
      <!-- 15 -->
      <g transform="translate(110.701389 339.753594) scale(0.11 -0.11)">
       <defs>
        <path id="ArialMT-35" d="M 266 1200 
L 856 1250 
Q 922 819 1161 601 
Q 1400 384 1738 384 
Q 2144 384 2425 690 
Q 2706 997 2706 1503 
Q 2706 1984 2436 2262 
Q 2166 2541 1728 2541 
Q 1456 2541 1237 2417 
Q 1019 2294 894 2097 
L 366 2166 
L 809 4519 
L 3088 4519 
L 3088 3981 
L 1259 3981 
L 1013 2750 
Q 1425 3038 1878 3038 
Q 2478 3038 2890 2622 
Q 3303 2206 3303 1553 
Q 3303 931 2941 478 
Q 2500 -78 1738 -78 
Q 1113 -78 717 272 
Q 322 622 266 1200 
z
" transform="scale(0.015625)"/>
       </defs>
       <use xlink:href="#ArialMT-31"/>
       <use xlink:href="#ArialMT-35" transform="translate(55.615234 0)"/>
      </g>
     </g>
    </g>
    <g id="xtick_3">
     <g id="line2d_3">
      <g>
       <use xlink:href="#mc6966687c6" x="176.01256" y="324.88" style="stroke: #000000; stroke-width: 0.8"/>
      </g>
     </g>
     <g id="text_3">
      <!-- 20 -->
      <g transform="translate(169.895529 339.753594) scale(0.11 -0.11)">
       <defs>
        <path id="ArialMT-32" d="M 3222 541 
L 3222 0 
L 194 0 
Q 188 203 259 391 
Q 375 700 629 1000 
Q 884 1300 1366 1694 
Q 2113 2306 2375 2664 
Q 2638 3022 2638 3341 
Q 2638 3675 2398 3904 
Q 2159 4134 1775 4134 
Q 1369 4134 1125 3890 
Q 881 3647 878 3216 
L 300 3275 
Q 359 3922 746 4261 
Q 1134 4600 1788 4600 
Q 2447 4600 2831 4234 
Q 3216 3869 3216 3328 
Q 3216 3053 3103 2787 
Q 2991 2522 2730 2228 
Q 2469 1934 1863 1422 
Q 1356 997 1212 845 
Q 1069 694 975 541 
L 3222 541 
z
" transform="scale(0.015625)"/>
       </defs>
       <use xlink:href="#ArialMT-32"/>
       <use xlink:href="#ArialMT-30" transform="translate(55.615234 0)"/>
      </g>
     </g>
    </g>
    <g id="xtick_4">
     <g id="line2d_4">
      <g>
       <use xlink:href="#mc6966687c6" x="235.2067" y="324.88" style="stroke: #000000; stroke-width: 0.8"/>
      </g>
     </g>
     <g id="text_4">
      <!-- 25 -->
      <g transform="translate(229.089668 339.753594) scale(0.11 -0.11)">
       <use xlink:href="#ArialMT-32"/>
       <use xlink:href="#ArialMT-35" transform="translate(55.615234 0)"/>
      </g>
     </g>
    </g>
    <g id="xtick_5">
     <g id="line2d_5">
      <g>
       <use xlink:href="#mc6966687c6" x="294.400839" y="324.88" style="stroke: #000000; stroke-width: 0.8"/>
      </g>
     </g>
     <g id="text_5">
      <!-- 30 -->
      <g transform="translate(288.283808 339.753594) scale(0.11 -0.11)">
       <defs>
        <path id="ArialMT-33" d="M 269 1209 
L 831 1284 
Q 928 806 1161 595 
Q 1394 384 1728 384 
Q 2125 384 2398 659 
Q 2672 934 2672 1341 
Q 2672 1728 2419 1979 
Q 2166 2231 1775 2231 
Q 1616 2231 1378 2169 
L 1441 2663 
Q 1497 2656 1531 2656 
Q 1891 2656 2178 2843 
Q 2466 3031 2466 3422 
Q 2466 3731 2256 3934 
Q 2047 4138 1716 4138 
Q 1388 4138 1169 3931 
Q 950 3725 888 3313 
L 325 3413 
Q 428 3978 793 4289 
Q 1159 4600 1703 4600 
Q 2078 4600 2393 4439 
Q 2709 4278 2876 4000 
Q 3044 3722 3044 3409 
Q 3044 3113 2884 2869 
Q 2725 2625 2413 2481 
Q 2819 2388 3044 2092 
Q 3269 1797 3269 1353 
Q 3269 753 2831 336 
Q 2394 -81 1725 -81 
Q 1122 -81 723 278 
Q 325 638 269 1209 
z
" transform="scale(0.015625)"/>
       </defs>
       <use xlink:href="#ArialMT-33"/>
       <use xlink:href="#ArialMT-30" transform="translate(55.615234 0)"/>
      </g>
     </g>
    </g>
    <g id="xtick_6">
     <g id="line2d_6">
      <g>
       <use xlink:href="#mc6966687c6" x="353.594979" y="324.88" style="stroke: #000000; stroke-width: 0.8"/>
      </g>
     </g>
     <g id="text_6">
      <!-- 35 -->
      <g transform="translate(347.477948 339.753594) scale(0.11 -0.11)">
       <use xlink:href="#ArialMT-33"/>
       <use xlink:href="#ArialMT-35" transform="translate(55.615234 0)"/>
      </g>
     </g>
    </g>
    <g id="xtick_7">
     <g id="line2d_7">
      <g>
       <use xlink:href="#mc6966687c6" x="412.789118" y="324.88" style="stroke: #000000; stroke-width: 0.8"/>
      </g>
     </g>
     <g id="text_7">
      <!-- 40 -->
      <g transform="translate(406.672087 339.753594) scale(0.11 -0.11)">
       <defs>
        <path id="ArialMT-34" d="M 2069 0 
L 2069 1097 
L 81 1097 
L 81 1613 
L 2172 4581 
L 2631 4581 
L 2631 1613 
L 3250 1613 
L 3250 1097 
L 2631 1097 
L 2631 0 
L 2069 0 
z
M 2069 1613 
L 2069 3678 
L 634 1613 
L 2069 1613 
z
" transform="scale(0.015625)"/>
       </defs>
       <use xlink:href="#ArialMT-34"/>
       <use xlink:href="#ArialMT-30" transform="translate(55.615234 0)"/>
      </g>
     </g>
    </g>
    <g id="text_8">
     <!-- PSYRATS Score -->
     <g transform="translate(182.816075 355.960781) scale(0.14 -0.14)">
      <defs>
       <path id="ArialMT-50" d="M 494 0 
L 494 4581 
L 2222 4581 
Q 2678 4581 2919 4538 
Q 3256 4481 3484 4323 
Q 3713 4166 3852 3881 
Q 3991 3597 3991 3256 
Q 3991 2672 3619 2267 
Q 3247 1863 2275 1863 
L 1100 1863 
L 1100 0 
L 494 0 
z
M 1100 2403 
L 2284 2403 
Q 2872 2403 3119 2622 
Q 3366 2841 3366 3238 
Q 3366 3525 3220 3729 
Q 3075 3934 2838 4000 
Q 2684 4041 2272 4041 
L 1100 4041 
L 1100 2403 
z
" transform="scale(0.015625)"/>
       <path id="ArialMT-53" d="M 288 1472 
L 859 1522 
Q 900 1178 1048 958 
Q 1197 738 1509 602 
Q 1822 466 2213 466 
Q 2559 466 2825 569 
Q 3091 672 3220 851 
Q 3350 1031 3350 1244 
Q 3350 1459 3225 1620 
Q 3100 1781 2813 1891 
Q 2628 1963 1997 2114 
Q 1366 2266 1113 2400 
Q 784 2572 623 2826 
Q 463 3081 463 3397 
Q 463 3744 659 4045 
Q 856 4347 1234 4503 
Q 1613 4659 2075 4659 
Q 2584 4659 2973 4495 
Q 3363 4331 3572 4012 
Q 3781 3694 3797 3291 
L 3216 3247 
Q 3169 3681 2898 3903 
Q 2628 4125 2100 4125 
Q 1550 4125 1298 3923 
Q 1047 3722 1047 3438 
Q 1047 3191 1225 3031 
Q 1400 2872 2139 2705 
Q 2878 2538 3153 2413 
Q 3553 2228 3743 1945 
Q 3934 1663 3934 1294 
Q 3934 928 3725 604 
Q 3516 281 3123 101 
Q 2731 -78 2241 -78 
Q 1619 -78 1198 103 
Q 778 284 539 648 
Q 300 1013 288 1472 
z
" transform="scale(0.015625)"/>
       <path id="ArialMT-59" d="M 1784 0 
L 1784 1941 
L 19 4581 
L 756 4581 
L 1659 3200 
Q 1909 2813 2125 2425 
Q 2331 2784 2625 3234 
L 3513 4581 
L 4219 4581 
L 2391 1941 
L 2391 0 
L 1784 0 
z
" transform="scale(0.015625)"/>
       <path id="ArialMT-52" d="M 503 0 
L 503 4581 
L 2534 4581 
Q 3147 4581 3465 4457 
Q 3784 4334 3975 4021 
Q 4166 3709 4166 3331 
Q 4166 2844 3850 2509 
Q 3534 2175 2875 2084 
Q 3116 1969 3241 1856 
Q 3506 1613 3744 1247 
L 4541 0 
L 3778 0 
L 3172 953 
Q 2906 1366 2734 1584 
Q 2563 1803 2427 1890 
Q 2291 1978 2150 2013 
Q 2047 2034 1813 2034 
L 1109 2034 
L 1109 0 
L 503 0 
z
M 1109 2559 
L 2413 2559 
Q 2828 2559 3062 2645 
Q 3297 2731 3419 2920 
Q 3541 3109 3541 3331 
Q 3541 3656 3305 3865 
Q 3069 4075 2559 4075 
L 1109 4075 
L 1109 2559 
z
" transform="scale(0.015625)"/>
       <path id="ArialMT-41" d="M -9 0 
L 1750 4581 
L 2403 4581 
L 4278 0 
L 3588 0 
L 3053 1388 
L 1138 1388 
L 634 0 
L -9 0 
z
M 1313 1881 
L 2866 1881 
L 2388 3150 
Q 2169 3728 2063 4100 
Q 1975 3659 1816 3225 
L 1313 1881 
z
" transform="scale(0.015625)"/>
       <path id="ArialMT-54" d="M 1659 0 
L 1659 4041 
L 150 4041 
L 150 4581 
L 3781 4581 
L 3781 4041 
L 2266 4041 
L 2266 0 
L 1659 0 
z
" transform="scale(0.015625)"/>
       <path id="ArialMT-20" transform="scale(0.015625)"/>
       <path id="ArialMT-63" d="M 2588 1216 
L 3141 1144 
Q 3050 572 2676 248 
Q 2303 -75 1759 -75 
Q 1078 -75 664 370 
Q 250 816 250 1647 
Q 250 2184 428 2587 
Q 606 2991 970 3192 
Q 1334 3394 1763 3394 
Q 2303 3394 2647 3120 
Q 2991 2847 3088 2344 
L 2541 2259 
Q 2463 2594 2264 2762 
Q 2066 2931 1784 2931 
Q 1359 2931 1093 2626 
Q 828 2322 828 1663 
Q 828 994 1084 691 
Q 1341 388 1753 388 
Q 2084 388 2306 591 
Q 2528 794 2588 1216 
z
" transform="scale(0.015625)"/>
       <path id="ArialMT-6f" d="M 213 1659 
Q 213 2581 725 3025 
Q 1153 3394 1769 3394 
Q 2453 3394 2887 2945 
Q 3322 2497 3322 1706 
Q 3322 1066 3130 698 
Q 2938 331 2570 128 
Q 2203 -75 1769 -75 
Q 1072 -75 642 372 
Q 213 819 213 1659 
z
M 791 1659 
Q 791 1022 1069 705 
Q 1347 388 1769 388 
Q 2188 388 2466 706 
Q 2744 1025 2744 1678 
Q 2744 2294 2464 2611 
Q 2184 2928 1769 2928 
Q 1347 2928 1069 2612 
Q 791 2297 791 1659 
z
" transform="scale(0.015625)"/>
       <path id="ArialMT-72" d="M 416 0 
L 416 3319 
L 922 3319 
L 922 2816 
Q 1116 3169 1280 3281 
Q 1444 3394 1641 3394 
Q 1925 3394 2219 3213 
L 2025 2691 
Q 1819 2813 1613 2813 
Q 1428 2813 1281 2702 
Q 1134 2591 1072 2394 
Q 978 2094 978 1738 
L 978 0 
L 416 0 
z
" transform="scale(0.015625)"/>
       <path id="ArialMT-65" d="M 2694 1069 
L 3275 997 
Q 3138 488 2766 206 
Q 2394 -75 1816 -75 
Q 1088 -75 661 373 
Q 234 822 234 1631 
Q 234 2469 665 2931 
Q 1097 3394 1784 3394 
Q 2450 3394 2872 2941 
Q 3294 2488 3294 1666 
Q 3294 1616 3291 1516 
L 816 1516 
Q 847 969 1125 678 
Q 1403 388 1819 388 
Q 2128 388 2347 550 
Q 2566 713 2694 1069 
z
M 847 1978 
L 2700 1978 
Q 2663 2397 2488 2606 
Q 2219 2931 1791 2931 
Q 1403 2931 1139 2672 
Q 875 2413 847 1978 
z
" transform="scale(0.015625)"/>
      </defs>
      <use xlink:href="#ArialMT-50"/>
      <use xlink:href="#ArialMT-53" transform="translate(66.699219 0)"/>
      <use xlink:href="#ArialMT-59" transform="translate(133.398438 0)"/>
      <use xlink:href="#ArialMT-52" transform="translate(200.097656 0)"/>
      <use xlink:href="#ArialMT-41" transform="translate(272.314453 0)"/>
      <use xlink:href="#ArialMT-54" transform="translate(331.638672 0)"/>
      <use xlink:href="#ArialMT-53" transform="translate(392.722656 0)"/>
      <use xlink:href="#ArialMT-20" transform="translate(459.421875 0)"/>
      <use xlink:href="#ArialMT-53" transform="translate(487.205078 0)"/>
      <use xlink:href="#ArialMT-63" transform="translate(553.904297 0)"/>
      <use xlink:href="#ArialMT-6f" transform="translate(603.904297 0)"/>
      <use xlink:href="#ArialMT-72" transform="translate(659.519531 0)"/>
      <use xlink:href="#ArialMT-65" transform="translate(692.820312 0)"/>
     </g>
    </g>
   </g>
   <g id="matplotlib.axis_2">
    <g id="ytick_1">
     <g id="line2d_8">
      <defs>
       <path id="m0ba01f3e0d" d="M 0 0 
L -3.5 0 
" style="stroke: #000000; stroke-width: 0.8"/>
      </defs>
      <g>
       <use xlink:href="#m0ba01f3e0d" x="52.88875" y="313.538475" style="stroke: #000000; stroke-width: 0.8"/>
      </g>
     </g>
     <g id="text_9">
      <!-- −0.4 -->
      <g transform="translate(24.174063 317.475272) scale(0.11 -0.11)">
       <defs>
        <path id="ArialMT-2212" d="M 3381 1997 
L 356 1997 
L 356 2522 
L 3381 2522 
L 3381 1997 
z
" transform="scale(0.015625)"/>
        <path id="ArialMT-2e" d="M 581 0 
L 581 641 
L 1222 641 
L 1222 0 
L 581 0 
z
" transform="scale(0.015625)"/>
       </defs>
       <use xlink:href="#ArialMT-2212"/>
       <use xlink:href="#ArialMT-30" transform="translate(58.398438 0)"/>
       <use xlink:href="#ArialMT-2e" transform="translate(114.013672 0)"/>
       <use xlink:href="#ArialMT-34" transform="translate(141.796875 0)"/>
      </g>
     </g>
    </g>
    <g id="ytick_2">
     <g id="line2d_9">
      <g>
       <use xlink:href="#m0ba01f3e0d" x="52.88875" y="277.312881" style="stroke: #000000; stroke-width: 0.8"/>
      </g>
     </g>
     <g id="text_10">
      <!-- −0.3 -->
      <g transform="translate(24.174063 281.249678) scale(0.11 -0.11)">
       <use xlink:href="#ArialMT-2212"/>
       <use xlink:href="#ArialMT-30" transform="translate(58.398438 0)"/>
       <use xlink:href="#ArialMT-2e" transform="translate(114.013672 0)"/>
       <use xlink:href="#ArialMT-33" transform="translate(141.796875 0)"/>
      </g>
     </g>
    </g>
    <g id="ytick_3">
     <g id="line2d_10">
      <g>
       <use xlink:href="#m0ba01f3e0d" x="52.88875" y="241.087287" style="stroke: #000000; stroke-width: 0.8"/>
      </g>
     </g>
     <g id="text_11">
      <!-- −0.2 -->
      <g transform="translate(24.174063 245.024084) scale(0.11 -0.11)">
       <use xlink:href="#ArialMT-2212"/>
       <use xlink:href="#ArialMT-30" transform="translate(58.398438 0)"/>
       <use xlink:href="#ArialMT-2e" transform="translate(114.013672 0)"/>
       <use xlink:href="#ArialMT-32" transform="translate(141.796875 0)"/>
      </g>
     </g>
    </g>
    <g id="ytick_4">
     <g id="line2d_11">
      <g>
       <use xlink:href="#m0ba01f3e0d" x="52.88875" y="204.861693" style="stroke: #000000; stroke-width: 0.8"/>
      </g>
     </g>
     <g id="text_12">
      <!-- −0.1 -->
      <g transform="translate(24.174063 208.79849) scale(0.11 -0.11)">
       <use xlink:href="#ArialMT-2212"/>
       <use xlink:href="#ArialMT-30" transform="translate(58.398438 0)"/>
       <use xlink:href="#ArialMT-2e" transform="translate(114.013672 0)"/>
       <use xlink:href="#ArialMT-31" transform="translate(141.796875 0)"/>
      </g>
     </g>
    </g>
    <g id="ytick_5">
     <g id="line2d_12">
      <g>
       <use xlink:href="#m0ba01f3e0d" x="52.88875" y="168.636099" style="stroke: #000000; stroke-width: 0.8"/>
      </g>
     </g>
     <g id="text_13">
      <!-- 0.0 -->
      <g transform="translate(30.59875 172.572896) scale(0.11 -0.11)">
       <use xlink:href="#ArialMT-30"/>
       <use xlink:href="#ArialMT-2e" transform="translate(55.615234 0)"/>
       <use xlink:href="#ArialMT-30" transform="translate(83.398438 0)"/>
      </g>
     </g>
    </g>
    <g id="ytick_6">
     <g id="line2d_13">
      <g>
       <use xlink:href="#m0ba01f3e0d" x="52.88875" y="132.410505" style="stroke: #000000; stroke-width: 0.8"/>
      </g>
     </g>
     <g id="text_14">
      <!-- 0.1 -->
      <g transform="translate(30.59875 136.347302) scale(0.11 -0.11)">
       <use xlink:href="#ArialMT-30"/>
       <use xlink:href="#ArialMT-2e" transform="translate(55.615234 0)"/>
       <use xlink:href="#ArialMT-31" transform="translate(83.398438 0)"/>
      </g>
     </g>
    </g>
    <g id="ytick_7">
     <g id="line2d_14">
      <g>
       <use xlink:href="#m0ba01f3e0d" x="52.88875" y="96.184911" style="stroke: #000000; stroke-width: 0.8"/>
      </g>
     </g>
     <g id="text_15">
      <!-- 0.2 -->
      <g transform="translate(30.59875 100.121708) scale(0.11 -0.11)">
       <use xlink:href="#ArialMT-30"/>
       <use xlink:href="#ArialMT-2e" transform="translate(55.615234 0)"/>
       <use xlink:href="#ArialMT-32" transform="translate(83.398438 0)"/>
      </g>
     </g>
    </g>
    <g id="ytick_8">
     <g id="line2d_15">
      <g>
       <use xlink:href="#m0ba01f3e0d" x="52.88875" y="59.959317" style="stroke: #000000; stroke-width: 0.8"/>
      </g>
     </g>
     <g id="text_16">
      <!-- 0.3 -->
      <g transform="translate(30.59875 63.896114) scale(0.11 -0.11)">
       <use xlink:href="#ArialMT-30"/>
       <use xlink:href="#ArialMT-2e" transform="translate(55.615234 0)"/>
       <use xlink:href="#ArialMT-33" transform="translate(83.398438 0)"/>
      </g>
     </g>
    </g>
    <g id="text_17">
     <!-- R_STG_posterior Activation -->
     <g transform="translate(17.391563 273.319062) rotate(-90) scale(0.14 -0.14)">
      <defs>
       <path id="ArialMT-5f" d="M -97 -1272 
L -97 -866 
L 3631 -866 
L 3631 -1272 
L -97 -1272 
z
" transform="scale(0.015625)"/>
       <path id="ArialMT-47" d="M 2638 1797 
L 2638 2334 
L 4578 2338 
L 4578 638 
Q 4131 281 3656 101 
Q 3181 -78 2681 -78 
Q 2006 -78 1454 211 
Q 903 500 622 1047 
Q 341 1594 341 2269 
Q 341 2938 620 3517 
Q 900 4097 1425 4378 
Q 1950 4659 2634 4659 
Q 3131 4659 3532 4498 
Q 3934 4338 4162 4050 
Q 4391 3763 4509 3300 
L 3963 3150 
Q 3859 3500 3706 3700 
Q 3553 3900 3268 4020 
Q 2984 4141 2638 4141 
Q 2222 4141 1919 4014 
Q 1616 3888 1430 3681 
Q 1244 3475 1141 3228 
Q 966 2803 966 2306 
Q 966 1694 1177 1281 
Q 1388 869 1791 669 
Q 2194 469 2647 469 
Q 3041 469 3416 620 
Q 3791 772 3984 944 
L 3984 1797 
L 2638 1797 
z
" transform="scale(0.015625)"/>
       <path id="ArialMT-70" d="M 422 -1272 
L 422 3319 
L 934 3319 
L 934 2888 
Q 1116 3141 1344 3267 
Q 1572 3394 1897 3394 
Q 2322 3394 2647 3175 
Q 2972 2956 3137 2557 
Q 3303 2159 3303 1684 
Q 3303 1175 3120 767 
Q 2938 359 2589 142 
Q 2241 -75 1856 -75 
Q 1575 -75 1351 44 
Q 1128 163 984 344 
L 984 -1272 
L 422 -1272 
z
M 931 1641 
Q 931 1000 1190 694 
Q 1450 388 1819 388 
Q 2194 388 2461 705 
Q 2728 1022 2728 1688 
Q 2728 2322 2467 2637 
Q 2206 2953 1844 2953 
Q 1484 2953 1207 2617 
Q 931 2281 931 1641 
z
" transform="scale(0.015625)"/>
       <path id="ArialMT-73" d="M 197 991 
L 753 1078 
Q 800 744 1014 566 
Q 1228 388 1613 388 
Q 2000 388 2187 545 
Q 2375 703 2375 916 
Q 2375 1106 2209 1216 
Q 2094 1291 1634 1406 
Q 1016 1563 777 1677 
Q 538 1791 414 1992 
Q 291 2194 291 2438 
Q 291 2659 392 2848 
Q 494 3038 669 3163 
Q 800 3259 1026 3326 
Q 1253 3394 1513 3394 
Q 1903 3394 2198 3281 
Q 2494 3169 2634 2976 
Q 2775 2784 2828 2463 
L 2278 2388 
Q 2241 2644 2061 2787 
Q 1881 2931 1553 2931 
Q 1166 2931 1000 2803 
Q 834 2675 834 2503 
Q 834 2394 903 2306 
Q 972 2216 1119 2156 
Q 1203 2125 1616 2013 
Q 2213 1853 2448 1751 
Q 2684 1650 2818 1456 
Q 2953 1263 2953 975 
Q 2953 694 2789 445 
Q 2625 197 2315 61 
Q 2006 -75 1616 -75 
Q 969 -75 630 194 
Q 291 463 197 991 
z
" transform="scale(0.015625)"/>
       <path id="ArialMT-74" d="M 1650 503 
L 1731 6 
Q 1494 -44 1306 -44 
Q 1000 -44 831 53 
Q 663 150 594 308 
Q 525 466 525 972 
L 525 2881 
L 113 2881 
L 113 3319 
L 525 3319 
L 525 4141 
L 1084 4478 
L 1084 3319 
L 1650 3319 
L 1650 2881 
L 1084 2881 
L 1084 941 
Q 1084 700 1114 631 
Q 1144 563 1211 522 
Q 1278 481 1403 481 
Q 1497 481 1650 503 
z
" transform="scale(0.015625)"/>
       <path id="ArialMT-69" d="M 425 3934 
L 425 4581 
L 988 4581 
L 988 3934 
L 425 3934 
z
M 425 0 
L 425 3319 
L 988 3319 
L 988 0 
L 425 0 
z
" transform="scale(0.015625)"/>
       <path id="ArialMT-76" d="M 1344 0 
L 81 3319 
L 675 3319 
L 1388 1331 
Q 1503 1009 1600 663 
Q 1675 925 1809 1294 
L 2547 3319 
L 3125 3319 
L 1869 0 
L 1344 0 
z
" transform="scale(0.015625)"/>
       <path id="ArialMT-61" d="M 2588 409 
Q 2275 144 1986 34 
Q 1697 -75 1366 -75 
Q 819 -75 525 192 
Q 231 459 231 875 
Q 231 1119 342 1320 
Q 453 1522 633 1644 
Q 813 1766 1038 1828 
Q 1203 1872 1538 1913 
Q 2219 1994 2541 2106 
Q 2544 2222 2544 2253 
Q 2544 2597 2384 2738 
Q 2169 2928 1744 2928 
Q 1347 2928 1158 2789 
Q 969 2650 878 2297 
L 328 2372 
Q 403 2725 575 2942 
Q 747 3159 1072 3276 
Q 1397 3394 1825 3394 
Q 2250 3394 2515 3294 
Q 2781 3194 2906 3042 
Q 3031 2891 3081 2659 
Q 3109 2516 3109 2141 
L 3109 1391 
Q 3109 606 3145 398 
Q 3181 191 3288 0 
L 2700 0 
Q 2613 175 2588 409 
z
M 2541 1666 
Q 2234 1541 1622 1453 
Q 1275 1403 1131 1340 
Q 988 1278 909 1158 
Q 831 1038 831 891 
Q 831 666 1001 516 
Q 1172 366 1500 366 
Q 1825 366 2078 508 
Q 2331 650 2450 897 
Q 2541 1088 2541 1459 
L 2541 1666 
z
" transform="scale(0.015625)"/>
       <path id="ArialMT-6e" d="M 422 0 
L 422 3319 
L 928 3319 
L 928 2847 
Q 1294 3394 1984 3394 
Q 2284 3394 2536 3286 
Q 2788 3178 2913 3003 
Q 3038 2828 3088 2588 
Q 3119 2431 3119 2041 
L 3119 0 
L 2556 0 
L 2556 2019 
Q 2556 2363 2490 2533 
Q 2425 2703 2258 2804 
Q 2091 2906 1866 2906 
Q 1506 2906 1245 2678 
Q 984 2450 984 1813 
L 984 0 
L 422 0 
z
" transform="scale(0.015625)"/>
      </defs>
      <use xlink:href="#ArialMT-52"/>
      <use xlink:href="#ArialMT-5f" transform="translate(72.216797 0)"/>
      <use xlink:href="#ArialMT-53" transform="translate(127.832031 0)"/>
      <use xlink:href="#ArialMT-54" transform="translate(194.53125 0)"/>
      <use xlink:href="#ArialMT-47" transform="translate(255.615234 0)"/>
      <use xlink:href="#ArialMT-5f" transform="translate(333.398438 0)"/>
      <use xlink:href="#ArialMT-70" transform="translate(389.013672 0)"/>
      <use xlink:href="#ArialMT-6f" transform="translate(444.628906 0)"/>
      <use xlink:href="#ArialMT-73" transform="translate(500.244141 0)"/>
      <use xlink:href="#ArialMT-74" transform="translate(550.244141 0)"/>
      <use xlink:href="#ArialMT-65" transform="translate(578.027344 0)"/>
      <use xlink:href="#ArialMT-72" transform="translate(633.642578 0)"/>
      <use xlink:href="#ArialMT-69" transform="translate(666.943359 0)"/>
      <use xlink:href="#ArialMT-6f" transform="translate(689.160156 0)"/>
      <use xlink:href="#ArialMT-72" transform="translate(744.775391 0)"/>
      <use xlink:href="#ArialMT-20" transform="translate(778.076172 0)"/>
      <use xlink:href="#ArialMT-41" transform="translate(800.359375 0)"/>
      <use xlink:href="#ArialMT-63" transform="translate(867.058594 0)"/>
      <use xlink:href="#ArialMT-74" transform="translate(917.058594 0)"/>
      <use xlink:href="#ArialMT-69" transform="translate(944.841797 0)"/>
      <use xlink:href="#ArialMT-76" transform="translate(967.058594 0)"/>
      <use xlink:href="#ArialMT-61" transform="translate(1017.058594 0)"/>
      <use xlink:href="#ArialMT-74" transform="translate(1072.673828 0)"/>
      <use xlink:href="#ArialMT-69" transform="translate(1100.457031 0)"/>
      <use xlink:href="#ArialMT-6f" transform="translate(1122.673828 0)"/>
      <use xlink:href="#ArialMT-6e" transform="translate(1178.289062 0)"/>
     </g>
    </g>
   </g>
   <g id="line2d_16">
    <path d="M 69.463109 248.597314 
L 400.95029 118.82102 
" clip-path="url(#p3a5472eb8a)" style="fill: none; stroke-dasharray: 7.4,3.2; stroke-dashoffset: 0; stroke: #000000; stroke-width: 2"/>
   </g>
   <g id="patch_3">
    <path d="M 52.88875 324.88 
L 52.88875 49.02 
" style="fill: none; stroke: #000000; stroke-width: 0.8; stroke-linejoin: miter; stroke-linecap: square"/>
   </g>
   <g id="patch_4">
    <path d="M 52.88875 324.88 
L 417.524649 324.88 
" style="fill: none; stroke: #000000; stroke-width: 0.8; stroke-linejoin: miter; stroke-linecap: square"/>
   </g>
   <g id="text_18">
    <g id="patch_5">
     <path d="M 71.120545 87.846594 
L 117.298201 87.846594 
Q 120.598201 87.846594 120.598201 84.546594 
L 120.598201 62.813 
Q 120.598201 59.513 117.298201 59.513 
L 71.120545 59.513 
Q 67.820545 59.513 67.820545 62.813 
L 67.820545 84.546594 
Q 67.820545 87.846594 71.120545 87.846594 
z
" style="fill: #ffffff; opacity: 0.8; stroke: #000000; stroke-linejoin: miter"/>
    </g>
    <!-- r = 0.54* -->
    <g transform="translate(71.120545 70.686594) scale(0.11 -0.11)">
     <defs>
      <path id="ArialMT-3d" d="M 3381 2694 
L 356 2694 
L 356 3219 
L 3381 3219 
L 3381 2694 
z
M 3381 1303 
L 356 1303 
L 356 1828 
L 3381 1828 
L 3381 1303 
z
" transform="scale(0.015625)"/>
      <path id="ArialMT-2a" d="M 200 3741 
L 344 4184 
Q 841 4009 1066 3881 
Q 1006 4447 1003 4659 
L 1456 4659 
Q 1447 4350 1384 3884 
Q 1706 4047 2122 4184 
L 2266 3741 
Q 1869 3609 1488 3566 
Q 1678 3400 2025 2975 
L 1650 2709 
Q 1469 2956 1222 3381 
Q 991 2941 816 2709 
L 447 2975 
Q 809 3422 966 3566 
Q 563 3644 200 3741 
z
" transform="scale(0.015625)"/>
     </defs>
     <use xlink:href="#ArialMT-72"/>
     <use xlink:href="#ArialMT-20" transform="translate(33.300781 0)"/>
     <use xlink:href="#ArialMT-3d" transform="translate(61.083984 0)"/>
     <use xlink:href="#ArialMT-20" transform="translate(119.482422 0)"/>
     <use xlink:href="#ArialMT-30" transform="translate(147.265625 0)"/>
     <use xlink:href="#ArialMT-2e" transform="translate(202.880859 0)"/>
     <use xlink:href="#ArialMT-35" transform="translate(230.664062 0)"/>
     <use xlink:href="#ArialMT-34" transform="translate(286.279297 0)"/>
     <use xlink:href="#ArialMT-2a" transform="translate(341.894531 0)"/>
    </g>
    <!-- p = 0.009 -->
    <g transform="translate(71.120545 82.360344) scale(0.11 -0.11)">
     <defs>
      <path id="ArialMT-39" d="M 350 1059 
L 891 1109 
Q 959 728 1153 556 
Q 1347 384 1650 384 
Q 1909 384 2104 503 
Q 2300 622 2425 820 
Q 2550 1019 2634 1356 
Q 2719 1694 2719 2044 
Q 2719 2081 2716 2156 
Q 2547 1888 2255 1720 
Q 1963 1553 1622 1553 
Q 1053 1553 659 1965 
Q 266 2378 266 3053 
Q 266 3750 677 4175 
Q 1088 4600 1706 4600 
Q 2153 4600 2523 4359 
Q 2894 4119 3086 3673 
Q 3278 3228 3278 2384 
Q 3278 1506 3087 986 
Q 2897 466 2520 194 
Q 2144 -78 1638 -78 
Q 1100 -78 759 220 
Q 419 519 350 1059 
z
M 2653 3081 
Q 2653 3566 2395 3850 
Q 2138 4134 1775 4134 
Q 1400 4134 1122 3828 
Q 844 3522 844 3034 
Q 844 2597 1108 2323 
Q 1372 2050 1759 2050 
Q 2150 2050 2401 2323 
Q 2653 2597 2653 3081 
z
" transform="scale(0.015625)"/>
     </defs>
     <use xlink:href="#ArialMT-70"/>
     <use xlink:href="#ArialMT-20" transform="translate(55.615234 0)"/>
     <use xlink:href="#ArialMT-3d" transform="translate(83.398438 0)"/>
     <use xlink:href="#ArialMT-20" transform="translate(141.796875 0)"/>
     <use xlink:href="#ArialMT-30" transform="translate(169.580078 0)"/>
     <use xlink:href="#ArialMT-2e" transform="translate(225.195312 0)"/>
     <use xlink:href="#ArialMT-30" transform="translate(252.978516 0)"/>
     <use xlink:href="#ArialMT-30" transform="translate(308.59375 0)"/>
     <use xlink:href="#ArialMT-39" transform="translate(364.208984 0)"/>
    </g>
   </g>
   <g id="text_19">
    <!-- R STG posterior -->
    <g transform="translate(177.4167 43.02) scale(0.16 -0.16)">
     <use xlink:href="#ArialMT-52"/>
     <use xlink:href="#ArialMT-20" transform="translate(72.216797 0)"/>
     <use xlink:href="#ArialMT-53" transform="translate(100 0)"/>
     <use xlink:href="#ArialMT-54" transform="translate(166.699219 0)"/>
     <use xlink:href="#ArialMT-47" transform="translate(227.783203 0)"/>
     <use xlink:href="#ArialMT-20" transform="translate(305.566406 0)"/>
     <use xlink:href="#ArialMT-70" transform="translate(333.349609 0)"/>
     <use xlink:href="#ArialMT-6f" transform="translate(388.964844 0)"/>
     <use xlink:href="#ArialMT-73" transform="translate(444.580078 0)"/>
     <use xlink:href="#ArialMT-74" transform="translate(494.580078 0)"/>
     <use xlink:href="#ArialMT-65" transform="translate(522.363281 0)"/>
     <use xlink:href="#ArialMT-72" transform="translate(577.978516 0)"/>
     <use xlink:href="#ArialMT-69" transform="translate(611.279297 0)"/>
     <use xlink:href="#ArialMT-6f" transform="translate(633.496094 0)"/>
     <use xlink:href="#ArialMT-72" transform="translate(689.111328 0)"/>
    </g>
   </g>
  </g>
  <g id="axes_2">
   <g id="patch_6">
    <path d="M 478.40875 324.88 
L 843.044649 324.88 
L 843.044649 49.02 
L 478.40875 49.02 
z
" style="fill: #ffffff"/>
   </g>
   <g id="PathCollection_2">
    <g clip-path="url(#pa059102be8)">
     <use xlink:href="#m326b63eb64" x="589.693732" y="133.264557" style="fill: #e74c3c; fill-opacity: 0.7; stroke: #ffffff; stroke-opacity: 0.7"/>
     <use xlink:href="#m326b63eb64" x="672.565528" y="187.928405" style="fill: #e74c3c; fill-opacity: 0.7; stroke: #ffffff; stroke-opacity: 0.7"/>
     <use xlink:href="#m326b63eb64" x="577.854904" y="147.939118" style="fill: #e74c3c; fill-opacity: 0.7; stroke: #ffffff; stroke-opacity: 0.7"/>
     <use xlink:href="#m326b63eb64" x="577.854904" y="197.684269" style="fill: #e74c3c; fill-opacity: 0.7; stroke: #ffffff; stroke-opacity: 0.7"/>
     <use xlink:href="#m326b63eb64" x="719.920839" y="159.992315" style="fill: #e74c3c; fill-opacity: 0.7; stroke: #ffffff; stroke-opacity: 0.7"/>
     <use xlink:href="#m326b63eb64" x="660.7267" y="147.809498" style="fill: #e74c3c; fill-opacity: 0.7; stroke: #ffffff; stroke-opacity: 0.7"/>
     <use xlink:href="#m326b63eb64" x="494.983109" y="178.670615" style="fill: #e74c3c; fill-opacity: 0.7; stroke: #ffffff; stroke-opacity: 0.7"/>
     <use xlink:href="#m326b63eb64" x="648.887872" y="312.340909" style="fill: #e74c3c; fill-opacity: 0.7; stroke: #ffffff; stroke-opacity: 0.7"/>
     <use xlink:href="#m326b63eb64" x="648.887872" y="135.577375" style="fill: #e74c3c; fill-opacity: 0.7; stroke: #ffffff; stroke-opacity: 0.7"/>
     <use xlink:href="#m326b63eb64" x="542.338421" y="285.804652" style="fill: #e74c3c; fill-opacity: 0.7; stroke: #ffffff; stroke-opacity: 0.7"/>
     <use xlink:href="#m326b63eb64" x="577.854904" y="251.276682" style="fill: #e74c3c; fill-opacity: 0.7; stroke: #ffffff; stroke-opacity: 0.7"/>
     <use xlink:href="#m326b63eb64" x="625.210216" y="168.510346" style="fill: #e74c3c; fill-opacity: 0.7; stroke: #ffffff; stroke-opacity: 0.7"/>
     <use xlink:href="#m326b63eb64" x="554.177249" y="297.662982" style="fill: #e74c3c; fill-opacity: 0.7; stroke: #ffffff; stroke-opacity: 0.7"/>
     <use xlink:href="#m326b63eb64" x="755.437323" y="140.103918" style="fill: #e74c3c; fill-opacity: 0.7; stroke: #ffffff; stroke-opacity: 0.7"/>
     <use xlink:href="#m326b63eb64" x="660.7267" y="77.097545" style="fill: #e74c3c; fill-opacity: 0.7; stroke: #ffffff; stroke-opacity: 0.7"/>
     <use xlink:href="#m326b63eb64" x="684.404356" y="147.740708" style="fill: #e74c3c; fill-opacity: 0.7; stroke: #ffffff; stroke-opacity: 0.7"/>
     <use xlink:href="#m326b63eb64" x="779.114979" y="64.064326" style="fill: #e74c3c; fill-opacity: 0.7; stroke: #ffffff; stroke-opacity: 0.7"/>
     <use xlink:href="#m326b63eb64" x="767.276151" y="61.559091" style="fill: #e74c3c; fill-opacity: 0.7; stroke: #ffffff; stroke-opacity: 0.7"/>
     <use xlink:href="#m326b63eb64" x="708.082011" y="216.193086" style="fill: #e74c3c; fill-opacity: 0.7; stroke: #ffffff; stroke-opacity: 0.7"/>
     <use xlink:href="#m326b63eb64" x="767.276151" y="220.120429" style="fill: #e74c3c; fill-opacity: 0.7; stroke: #ffffff; stroke-opacity: 0.7"/>
     <use xlink:href="#m326b63eb64" x="719.920839" y="137.168952" style="fill: #e74c3c; fill-opacity: 0.7; stroke: #ffffff; stroke-opacity: 0.7"/>
     <use xlink:href="#m326b63eb64" x="613.371388" y="208.328918" style="fill: #e74c3c; fill-opacity: 0.7; stroke: #ffffff; stroke-opacity: 0.7"/>
     <use xlink:href="#m326b63eb64" x="826.47029" y="191.872839" style="fill: #e74c3c; fill-opacity: 0.7; stroke: #ffffff; stroke-opacity: 0.7"/>
    </g>
   </g>
   <g id="matplotlib.axis_3">
    <g id="xtick_8">
     <g id="line2d_17">
      <g>
       <use xlink:href="#mc6966687c6" x="483.144281" y="324.88" style="stroke: #000000; stroke-width: 0.8"/>
      </g>
     </g>
     <g id="text_20">
      <!-- 10 -->
      <g transform="translate(477.02725 339.753594) scale(0.11 -0.11)">
       <use xlink:href="#ArialMT-31"/>
       <use xlink:href="#ArialMT-30" transform="translate(55.615234 0)"/>
      </g>
     </g>
    </g>
    <g id="xtick_9">
     <g id="line2d_18">
      <g>
       <use xlink:href="#mc6966687c6" x="542.338421" y="324.88" style="stroke: #000000; stroke-width: 0.8"/>
      </g>
     </g>
     <g id="text_21">
      <!-- 15 -->
      <g transform="translate(536.221389 339.753594) scale(0.11 -0.11)">
       <use xlink:href="#ArialMT-31"/>
       <use xlink:href="#ArialMT-35" transform="translate(55.615234 0)"/>
      </g>
     </g>
    </g>
    <g id="xtick_10">
     <g id="line2d_19">
      <g>
       <use xlink:href="#mc6966687c6" x="601.53256" y="324.88" style="stroke: #000000; stroke-width: 0.8"/>
      </g>
     </g>
     <g id="text_22">
      <!-- 20 -->
      <g transform="translate(595.415529 339.753594) scale(0.11 -0.11)">
       <use xlink:href="#ArialMT-32"/>
       <use xlink:href="#ArialMT-30" transform="translate(55.615234 0)"/>
      </g>
     </g>
    </g>
    <g id="xtick_11">
     <g id="line2d_20">
      <g>
       <use xlink:href="#mc6966687c6" x="660.7267" y="324.88" style="stroke: #000000; stroke-width: 0.8"/>
      </g>
     </g>
     <g id="text_23">
      <!-- 25 -->
      <g transform="translate(654.609668 339.753594) scale(0.11 -0.11)">
       <use xlink:href="#ArialMT-32"/>
       <use xlink:href="#ArialMT-35" transform="translate(55.615234 0)"/>
      </g>
     </g>
    </g>
    <g id="xtick_12">
     <g id="line2d_21">
      <g>
       <use xlink:href="#mc6966687c6" x="719.920839" y="324.88" style="stroke: #000000; stroke-width: 0.8"/>
      </g>
     </g>
     <g id="text_24">
      <!-- 30 -->
      <g transform="translate(713.803808 339.753594) scale(0.11 -0.11)">
       <use xlink:href="#ArialMT-33"/>
       <use xlink:href="#ArialMT-30" transform="translate(55.615234 0)"/>
      </g>
     </g>
    </g>
    <g id="xtick_13">
     <g id="line2d_22">
      <g>
       <use xlink:href="#mc6966687c6" x="779.114979" y="324.88" style="stroke: #000000; stroke-width: 0.8"/>
      </g>
     </g>
     <g id="text_25">
      <!-- 35 -->
      <g transform="translate(772.997948 339.753594) scale(0.11 -0.11)">
       <use xlink:href="#ArialMT-33"/>
       <use xlink:href="#ArialMT-35" transform="translate(55.615234 0)"/>
      </g>
     </g>
    </g>
    <g id="xtick_14">
     <g id="line2d_23">
      <g>
       <use xlink:href="#mc6966687c6" x="838.309118" y="324.88" style="stroke: #000000; stroke-width: 0.8"/>
      </g>
     </g>
     <g id="text_26">
      <!-- 40 -->
      <g transform="translate(832.192087 339.753594) scale(0.11 -0.11)">
       <use xlink:href="#ArialMT-34"/>
       <use xlink:href="#ArialMT-30" transform="translate(55.615234 0)"/>
      </g>
     </g>
    </g>
    <g id="text_27">
     <!-- PSYRATS Score -->
     <g transform="translate(608.336075 355.960781) scale(0.14 -0.14)">
      <use xlink:href="#ArialMT-50"/>
      <use xlink:href="#ArialMT-53" transform="translate(66.699219 0)"/>
      <use xlink:href="#ArialMT-59" transform="translate(133.398438 0)"/>
      <use xlink:href="#ArialMT-52" transform="translate(200.097656 0)"/>
      <use xlink:href="#ArialMT-41" transform="translate(272.314453 0)"/>
      <use xlink:href="#ArialMT-54" transform="translate(331.638672 0)"/>
      <use xlink:href="#ArialMT-53" transform="translate(392.722656 0)"/>
      <use xlink:href="#ArialMT-20" transform="translate(459.421875 0)"/>
      <use xlink:href="#ArialMT-53" transform="translate(487.205078 0)"/>
      <use xlink:href="#ArialMT-63" transform="translate(553.904297 0)"/>
      <use xlink:href="#ArialMT-6f" transform="translate(603.904297 0)"/>
      <use xlink:href="#ArialMT-72" transform="translate(659.519531 0)"/>
      <use xlink:href="#ArialMT-65" transform="translate(692.820312 0)"/>
     </g>
    </g>
   </g>
   <g id="matplotlib.axis_4">
    <g id="ytick_9">
     <g id="line2d_24">
      <g>
       <use xlink:href="#m0ba01f3e0d" x="478.40875" y="299.970363" style="stroke: #000000; stroke-width: 0.8"/>
      </g>
     </g>
     <g id="text_28">
      <!-- −0.2 -->
      <g transform="translate(449.694062 303.90716) scale(0.11 -0.11)">
       <use xlink:href="#ArialMT-2212"/>
       <use xlink:href="#ArialMT-30" transform="translate(58.398438 0)"/>
       <use xlink:href="#ArialMT-2e" transform="translate(114.013672 0)"/>
       <use xlink:href="#ArialMT-32" transform="translate(141.796875 0)"/>
      </g>
     </g>
    </g>
    <g id="ytick_10">
     <g id="line2d_25">
      <g>
       <use xlink:href="#m0ba01f3e0d" x="478.40875" y="244.924894" style="stroke: #000000; stroke-width: 0.8"/>
      </g>
     </g>
     <g id="text_29">
      <!-- −0.1 -->
      <g transform="translate(449.694062 248.861691) scale(0.11 -0.11)">
       <use xlink:href="#ArialMT-2212"/>
       <use xlink:href="#ArialMT-30" transform="translate(58.398438 0)"/>
       <use xlink:href="#ArialMT-2e" transform="translate(114.013672 0)"/>
       <use xlink:href="#ArialMT-31" transform="translate(141.796875 0)"/>
      </g>
     </g>
    </g>
    <g id="ytick_11">
     <g id="line2d_26">
      <g>
       <use xlink:href="#m0ba01f3e0d" x="478.40875" y="189.879425" style="stroke: #000000; stroke-width: 0.8"/>
      </g>
     </g>
     <g id="text_30">
      <!-- 0.0 -->
      <g transform="translate(456.11875 193.816222) scale(0.11 -0.11)">
       <use xlink:href="#ArialMT-30"/>
       <use xlink:href="#ArialMT-2e" transform="translate(55.615234 0)"/>
       <use xlink:href="#ArialMT-30" transform="translate(83.398438 0)"/>
      </g>
     </g>
    </g>
    <g id="ytick_12">
     <g id="line2d_27">
      <g>
       <use xlink:href="#m0ba01f3e0d" x="478.40875" y="134.833956" style="stroke: #000000; stroke-width: 0.8"/>
      </g>
     </g>
     <g id="text_31">
      <!-- 0.1 -->
      <g transform="translate(456.11875 138.770753) scale(0.11 -0.11)">
       <use xlink:href="#ArialMT-30"/>
       <use xlink:href="#ArialMT-2e" transform="translate(55.615234 0)"/>
       <use xlink:href="#ArialMT-31" transform="translate(83.398438 0)"/>
      </g>
     </g>
    </g>
    <g id="ytick_13">
     <g id="line2d_28">
      <g>
       <use xlink:href="#m0ba01f3e0d" x="478.40875" y="79.788488" style="stroke: #000000; stroke-width: 0.8"/>
      </g>
     </g>
     <g id="text_32">
      <!-- 0.2 -->
      <g transform="translate(456.11875 83.725284) scale(0.11 -0.11)">
       <use xlink:href="#ArialMT-30"/>
       <use xlink:href="#ArialMT-2e" transform="translate(55.615234 0)"/>
       <use xlink:href="#ArialMT-32" transform="translate(83.398438 0)"/>
      </g>
     </g>
    </g>
    <g id="text_33">
     <!-- R_MTG Activation -->
     <g transform="translate(442.911562 243.355781) rotate(-90) scale(0.14 -0.14)">
      <defs>
       <path id="ArialMT-4d" d="M 475 0 
L 475 4581 
L 1388 4581 
L 2472 1338 
Q 2622 884 2691 659 
Q 2769 909 2934 1394 
L 4031 4581 
L 4847 4581 
L 4847 0 
L 4263 0 
L 4263 3834 
L 2931 0 
L 2384 0 
L 1059 3900 
L 1059 0 
L 475 0 
z
" transform="scale(0.015625)"/>
      </defs>
      <use xlink:href="#ArialMT-52"/>
      <use xlink:href="#ArialMT-5f" transform="translate(72.216797 0)"/>
      <use xlink:href="#ArialMT-4d" transform="translate(127.832031 0)"/>
      <use xlink:href="#ArialMT-54" transform="translate(211.132812 0)"/>
      <use xlink:href="#ArialMT-47" transform="translate(272.216797 0)"/>
      <use xlink:href="#ArialMT-20" transform="translate(350 0)"/>
      <use xlink:href="#ArialMT-41" transform="translate(372.283203 0)"/>
      <use xlink:href="#ArialMT-63" transform="translate(438.982422 0)"/>
      <use xlink:href="#ArialMT-74" transform="translate(488.982422 0)"/>
      <use xlink:href="#ArialMT-69" transform="translate(516.765625 0)"/>
      <use xlink:href="#ArialMT-76" transform="translate(538.982422 0)"/>
      <use xlink:href="#ArialMT-61" transform="translate(588.982422 0)"/>
      <use xlink:href="#ArialMT-74" transform="translate(644.597656 0)"/>
      <use xlink:href="#ArialMT-69" transform="translate(672.380859 0)"/>
      <use xlink:href="#ArialMT-6f" transform="translate(694.597656 0)"/>
      <use xlink:href="#ArialMT-6e" transform="translate(750.212891 0)"/>
     </g>
    </g>
   </g>
   <g id="line2d_29">
    <path d="M 494.983109 231.528512 
L 826.47029 121.589642 
" clip-path="url(#pa059102be8)" style="fill: none; stroke-dasharray: 7.4,3.2; stroke-dashoffset: 0; stroke: #000000; stroke-width: 2"/>
   </g>
   <g id="patch_7">
    <path d="M 478.40875 324.88 
L 478.40875 49.02 
" style="fill: none; stroke: #000000; stroke-width: 0.8; stroke-linejoin: miter; stroke-linecap: square"/>
   </g>
   <g id="patch_8">
    <path d="M 478.40875 324.88 
L 843.044649 324.88 
" style="fill: none; stroke: #000000; stroke-width: 0.8; stroke-linejoin: miter; stroke-linecap: square"/>
   </g>
   <g id="text_34">
    <g id="patch_9">
     <path d="M 496.640545 87.846594 
L 542.818201 87.846594 
Q 546.118201 87.846594 546.118201 84.546594 
L 546.118201 62.813 
Q 546.118201 59.513 542.818201 59.513 
L 496.640545 59.513 
Q 493.340545 59.513 493.340545 62.813 
L 493.340545 84.546594 
Q 493.340545 87.846594 496.640545 87.846594 
z
" style="fill: #ffffff; opacity: 0.8; stroke: #000000; stroke-linejoin: miter"/>
    </g>
    <!-- r = 0.42* -->
    <g transform="translate(496.640545 70.686594) scale(0.11 -0.11)">
     <use xlink:href="#ArialMT-72"/>
     <use xlink:href="#ArialMT-20" transform="translate(33.300781 0)"/>
     <use xlink:href="#ArialMT-3d" transform="translate(61.083984 0)"/>
     <use xlink:href="#ArialMT-20" transform="translate(119.482422 0)"/>
     <use xlink:href="#ArialMT-30" transform="translate(147.265625 0)"/>
     <use xlink:href="#ArialMT-2e" transform="translate(202.880859 0)"/>
     <use xlink:href="#ArialMT-34" transform="translate(230.664062 0)"/>
     <use xlink:href="#ArialMT-32" transform="translate(286.279297 0)"/>
     <use xlink:href="#ArialMT-2a" transform="translate(341.894531 0)"/>
    </g>
    <!-- p = 0.043 -->
    <g transform="translate(496.640545 82.360344) scale(0.11 -0.11)">
     <use xlink:href="#ArialMT-70"/>
     <use xlink:href="#ArialMT-20" transform="translate(55.615234 0)"/>
     <use xlink:href="#ArialMT-3d" transform="translate(83.398438 0)"/>
     <use xlink:href="#ArialMT-20" transform="translate(141.796875 0)"/>
     <use xlink:href="#ArialMT-30" transform="translate(169.580078 0)"/>
     <use xlink:href="#ArialMT-2e" transform="translate(225.195312 0)"/>
     <use xlink:href="#ArialMT-30" transform="translate(252.978516 0)"/>
     <use xlink:href="#ArialMT-34" transform="translate(308.59375 0)"/>
     <use xlink:href="#ArialMT-33" transform="translate(364.208984 0)"/>
    </g>
   </g>
   <g id="text_35">
    <!-- R MTG -->
    <g transform="translate(634.9542 43.02) scale(0.16 -0.16)">
     <use xlink:href="#ArialMT-52"/>
     <use xlink:href="#ArialMT-20" transform="translate(72.216797 0)"/>
     <use xlink:href="#ArialMT-4d" transform="translate(100 0)"/>
     <use xlink:href="#ArialMT-54" transform="translate(183.300781 0)"/>
     <use xlink:href="#ArialMT-47" transform="translate(244.384766 0)"/>
    </g>
   </g>
  </g>
  <g id="axes_3">
   <g id="patch_10">
    <path d="M 52.88875 665.44 
L 417.524649 665.44 
L 417.524649 389.58 
L 52.88875 389.58 
z
" style="fill: #ffffff"/>
   </g>
   <g id="PathCollection_3">
    <g clip-path="url(#pa97cb9a7d5)">
     <use xlink:href="#m326b63eb64" x="164.173732" y="435.148263" style="fill: #e74c3c; fill-opacity: 0.7; stroke: #ffffff; stroke-opacity: 0.7"/>
     <use xlink:href="#m326b63eb64" x="247.045528" y="491.623309" style="fill: #e74c3c; fill-opacity: 0.7; stroke: #ffffff; stroke-opacity: 0.7"/>
     <use xlink:href="#m326b63eb64" x="152.334904" y="519.318855" style="fill: #e74c3c; fill-opacity: 0.7; stroke: #ffffff; stroke-opacity: 0.7"/>
     <use xlink:href="#m326b63eb64" x="152.334904" y="541.457907" style="fill: #e74c3c; fill-opacity: 0.7; stroke: #ffffff; stroke-opacity: 0.7"/>
     <use xlink:href="#m326b63eb64" x="294.400839" y="553.253358" style="fill: #e74c3c; fill-opacity: 0.7; stroke: #ffffff; stroke-opacity: 0.7"/>
     <use xlink:href="#m326b63eb64" x="235.2067" y="530.765743" style="fill: #e74c3c; fill-opacity: 0.7; stroke: #ffffff; stroke-opacity: 0.7"/>
     <use xlink:href="#m326b63eb64" x="69.463109" y="509.283235" style="fill: #e74c3c; fill-opacity: 0.7; stroke: #ffffff; stroke-opacity: 0.7"/>
     <use xlink:href="#m326b63eb64" x="223.367872" y="551.250567" style="fill: #e74c3c; fill-opacity: 0.7; stroke: #ffffff; stroke-opacity: 0.7"/>
     <use xlink:href="#m326b63eb64" x="223.367872" y="547.730874" style="fill: #e74c3c; fill-opacity: 0.7; stroke: #ffffff; stroke-opacity: 0.7"/>
     <use xlink:href="#m326b63eb64" x="116.818421" y="652.900909" style="fill: #e74c3c; fill-opacity: 0.7; stroke: #ffffff; stroke-opacity: 0.7"/>
     <use xlink:href="#m326b63eb64" x="152.334904" y="599.199351" style="fill: #e74c3c; fill-opacity: 0.7; stroke: #ffffff; stroke-opacity: 0.7"/>
     <use xlink:href="#m326b63eb64" x="199.690216" y="511.098192" style="fill: #e74c3c; fill-opacity: 0.7; stroke: #ffffff; stroke-opacity: 0.7"/>
     <use xlink:href="#m326b63eb64" x="128.657249" y="565.789977" style="fill: #e74c3c; fill-opacity: 0.7; stroke: #ffffff; stroke-opacity: 0.7"/>
     <use xlink:href="#m326b63eb64" x="329.917323" y="426.65325" style="fill: #e74c3c; fill-opacity: 0.7; stroke: #ffffff; stroke-opacity: 0.7"/>
     <use xlink:href="#m326b63eb64" x="235.2067" y="402.119091" style="fill: #e74c3c; fill-opacity: 0.7; stroke: #ffffff; stroke-opacity: 0.7"/>
     <use xlink:href="#m326b63eb64" x="258.884356" y="530.008076" style="fill: #e74c3c; fill-opacity: 0.7; stroke: #ffffff; stroke-opacity: 0.7"/>
     <use xlink:href="#m326b63eb64" x="353.594979" y="489.50506" style="fill: #e74c3c; fill-opacity: 0.7; stroke: #ffffff; stroke-opacity: 0.7"/>
     <use xlink:href="#m326b63eb64" x="341.756151" y="534.735748" style="fill: #e74c3c; fill-opacity: 0.7; stroke: #ffffff; stroke-opacity: 0.7"/>
     <use xlink:href="#m326b63eb64" x="282.562011" y="512.871326" style="fill: #e74c3c; fill-opacity: 0.7; stroke: #ffffff; stroke-opacity: 0.7"/>
     <use xlink:href="#m326b63eb64" x="341.756151" y="512.250885" style="fill: #e74c3c; fill-opacity: 0.7; stroke: #ffffff; stroke-opacity: 0.7"/>
     <use xlink:href="#m326b63eb64" x="294.400839" y="562.257996" style="fill: #e74c3c; fill-opacity: 0.7; stroke: #ffffff; stroke-opacity: 0.7"/>
     <use xlink:href="#m326b63eb64" x="187.851388" y="588.260737" style="fill: #e74c3c; fill-opacity: 0.7; stroke: #ffffff; stroke-opacity: 0.7"/>
     <use xlink:href="#m326b63eb64" x="400.95029" y="537.584206" style="fill: #e74c3c; fill-opacity: 0.7; stroke: #ffffff; stroke-opacity: 0.7"/>
    </g>
   </g>
   <g id="matplotlib.axis_5">
    <g id="xtick_15">
     <g id="line2d_30">
      <g>
       <use xlink:href="#mc6966687c6" x="57.624281" y="665.44" style="stroke: #000000; stroke-width: 0.8"/>
      </g>
     </g>
     <g id="text_36">
      <!-- 10 -->
      <g transform="translate(51.50725 680.313594) scale(0.11 -0.11)">
       <use xlink:href="#ArialMT-31"/>
       <use xlink:href="#ArialMT-30" transform="translate(55.615234 0)"/>
      </g>
     </g>
    </g>
    <g id="xtick_16">
     <g id="line2d_31">
      <g>
       <use xlink:href="#mc6966687c6" x="116.818421" y="665.44" style="stroke: #000000; stroke-width: 0.8"/>
      </g>
     </g>
     <g id="text_37">
      <!-- 15 -->
      <g transform="translate(110.701389 680.313594) scale(0.11 -0.11)">
       <use xlink:href="#ArialMT-31"/>
       <use xlink:href="#ArialMT-35" transform="translate(55.615234 0)"/>
      </g>
     </g>
    </g>
    <g id="xtick_17">
     <g id="line2d_32">
      <g>
       <use xlink:href="#mc6966687c6" x="176.01256" y="665.44" style="stroke: #000000; stroke-width: 0.8"/>
      </g>
     </g>
     <g id="text_38">
      <!-- 20 -->
      <g transform="translate(169.895529 680.313594) scale(0.11 -0.11)">
       <use xlink:href="#ArialMT-32"/>
       <use xlink:href="#ArialMT-30" transform="translate(55.615234 0)"/>
      </g>
     </g>
    </g>
    <g id="xtick_18">
     <g id="line2d_33">
      <g>
       <use xlink:href="#mc6966687c6" x="235.2067" y="665.44" style="stroke: #000000; stroke-width: 0.8"/>
      </g>
     </g>
     <g id="text_39">
      <!-- 25 -->
      <g transform="translate(229.089668 680.313594) scale(0.11 -0.11)">
       <use xlink:href="#ArialMT-32"/>
       <use xlink:href="#ArialMT-35" transform="translate(55.615234 0)"/>
      </g>
     </g>
    </g>
    <g id="xtick_19">
     <g id="line2d_34">
      <g>
       <use xlink:href="#mc6966687c6" x="294.400839" y="665.44" style="stroke: #000000; stroke-width: 0.8"/>
      </g>
     </g>
     <g id="text_40">
      <!-- 30 -->
      <g transform="translate(288.283808 680.313594) scale(0.11 -0.11)">
       <use xlink:href="#ArialMT-33"/>
       <use xlink:href="#ArialMT-30" transform="translate(55.615234 0)"/>
      </g>
     </g>
    </g>
    <g id="xtick_20">
     <g id="line2d_35">
      <g>
       <use xlink:href="#mc6966687c6" x="353.594979" y="665.44" style="stroke: #000000; stroke-width: 0.8"/>
      </g>
     </g>
     <g id="text_41">
      <!-- 35 -->
      <g transform="translate(347.477948 680.313594) scale(0.11 -0.11)">
       <use xlink:href="#ArialMT-33"/>
       <use xlink:href="#ArialMT-35" transform="translate(55.615234 0)"/>
      </g>
     </g>
    </g>
    <g id="xtick_21">
     <g id="line2d_36">
      <g>
       <use xlink:href="#mc6966687c6" x="412.789118" y="665.44" style="stroke: #000000; stroke-width: 0.8"/>
      </g>
     </g>
     <g id="text_42">
      <!-- 40 -->
      <g transform="translate(406.672087 680.313594) scale(0.11 -0.11)">
       <use xlink:href="#ArialMT-34"/>
       <use xlink:href="#ArialMT-30" transform="translate(55.615234 0)"/>
      </g>
     </g>
    </g>
    <g id="text_43">
     <!-- PSYRATS Score -->
     <g transform="translate(182.816075 696.520781) scale(0.14 -0.14)">
      <use xlink:href="#ArialMT-50"/>
      <use xlink:href="#ArialMT-53" transform="translate(66.699219 0)"/>
      <use xlink:href="#ArialMT-59" transform="translate(133.398438 0)"/>
      <use xlink:href="#ArialMT-52" transform="translate(200.097656 0)"/>
      <use xlink:href="#ArialMT-41" transform="translate(272.314453 0)"/>
      <use xlink:href="#ArialMT-54" transform="translate(331.638672 0)"/>
      <use xlink:href="#ArialMT-53" transform="translate(392.722656 0)"/>
      <use xlink:href="#ArialMT-20" transform="translate(459.421875 0)"/>
      <use xlink:href="#ArialMT-53" transform="translate(487.205078 0)"/>
      <use xlink:href="#ArialMT-63" transform="translate(553.904297 0)"/>
      <use xlink:href="#ArialMT-6f" transform="translate(603.904297 0)"/>
      <use xlink:href="#ArialMT-72" transform="translate(659.519531 0)"/>
      <use xlink:href="#ArialMT-65" transform="translate(692.820312 0)"/>
     </g>
    </g>
   </g>
   <g id="matplotlib.axis_6">
    <g id="ytick_14">
     <g id="line2d_37">
      <g>
       <use xlink:href="#m0ba01f3e0d" x="52.88875" y="647.626088" style="stroke: #000000; stroke-width: 0.8"/>
      </g>
     </g>
     <g id="text_44">
      <!-- −0.3 -->
      <g transform="translate(24.174063 651.562885) scale(0.11 -0.11)">
       <use xlink:href="#ArialMT-2212"/>
       <use xlink:href="#ArialMT-30" transform="translate(58.398438 0)"/>
       <use xlink:href="#ArialMT-2e" transform="translate(114.013672 0)"/>
       <use xlink:href="#ArialMT-33" transform="translate(141.796875 0)"/>
      </g>
     </g>
    </g>
    <g id="ytick_15">
     <g id="line2d_38">
      <g>
       <use xlink:href="#m0ba01f3e0d" x="52.88875" y="599.000113" style="stroke: #000000; stroke-width: 0.8"/>
      </g>
     </g>
     <g id="text_45">
      <!-- −0.2 -->
      <g transform="translate(24.174063 602.936909) scale(0.11 -0.11)">
       <use xlink:href="#ArialMT-2212"/>
       <use xlink:href="#ArialMT-30" transform="translate(58.398438 0)"/>
       <use xlink:href="#ArialMT-2e" transform="translate(114.013672 0)"/>
       <use xlink:href="#ArialMT-32" transform="translate(141.796875 0)"/>
      </g>
     </g>
    </g>
    <g id="ytick_16">
     <g id="line2d_39">
      <g>
       <use xlink:href="#m0ba01f3e0d" x="52.88875" y="550.374137" style="stroke: #000000; stroke-width: 0.8"/>
      </g>
     </g>
     <g id="text_46">
      <!-- −0.1 -->
      <g transform="translate(24.174063 554.310934) scale(0.11 -0.11)">
       <use xlink:href="#ArialMT-2212"/>
       <use xlink:href="#ArialMT-30" transform="translate(58.398438 0)"/>
       <use xlink:href="#ArialMT-2e" transform="translate(114.013672 0)"/>
       <use xlink:href="#ArialMT-31" transform="translate(141.796875 0)"/>
      </g>
     </g>
    </g>
    <g id="ytick_17">
     <g id="line2d_40">
      <g>
       <use xlink:href="#m0ba01f3e0d" x="52.88875" y="501.748162" style="stroke: #000000; stroke-width: 0.8"/>
      </g>
     </g>
     <g id="text_47">
      <!-- 0.0 -->
      <g transform="translate(30.59875 505.684959) scale(0.11 -0.11)">
       <use xlink:href="#ArialMT-30"/>
       <use xlink:href="#ArialMT-2e" transform="translate(55.615234 0)"/>
       <use xlink:href="#ArialMT-30" transform="translate(83.398438 0)"/>
      </g>
     </g>
    </g>
    <g id="ytick_18">
     <g id="line2d_41">
      <g>
       <use xlink:href="#m0ba01f3e0d" x="52.88875" y="453.122187" style="stroke: #000000; stroke-width: 0.8"/>
      </g>
     </g>
     <g id="text_48">
      <!-- 0.1 -->
      <g transform="translate(30.59875 457.058984) scale(0.11 -0.11)">
       <use xlink:href="#ArialMT-30"/>
       <use xlink:href="#ArialMT-2e" transform="translate(55.615234 0)"/>
       <use xlink:href="#ArialMT-31" transform="translate(83.398438 0)"/>
      </g>
     </g>
    </g>
    <g id="ytick_19">
     <g id="line2d_42">
      <g>
       <use xlink:href="#m0ba01f3e0d" x="52.88875" y="404.496212" style="stroke: #000000; stroke-width: 0.8"/>
      </g>
     </g>
     <g id="text_49">
      <!-- 0.2 -->
      <g transform="translate(30.59875 408.433009) scale(0.11 -0.11)">
       <use xlink:href="#ArialMT-30"/>
       <use xlink:href="#ArialMT-2e" transform="translate(55.615234 0)"/>
       <use xlink:href="#ArialMT-32" transform="translate(83.398438 0)"/>
      </g>
     </g>
    </g>
    <g id="text_50">
     <!-- R_Heschl Activation -->
     <g transform="translate(17.391563 589.760781) rotate(-90) scale(0.14 -0.14)">
      <defs>
       <path id="ArialMT-48" d="M 513 0 
L 513 4581 
L 1119 4581 
L 1119 2700 
L 3500 2700 
L 3500 4581 
L 4106 4581 
L 4106 0 
L 3500 0 
L 3500 2159 
L 1119 2159 
L 1119 0 
L 513 0 
z
" transform="scale(0.015625)"/>
       <path id="ArialMT-68" d="M 422 0 
L 422 4581 
L 984 4581 
L 984 2938 
Q 1378 3394 1978 3394 
Q 2347 3394 2619 3248 
Q 2891 3103 3008 2847 
Q 3125 2591 3125 2103 
L 3125 0 
L 2563 0 
L 2563 2103 
Q 2563 2525 2380 2717 
Q 2197 2909 1863 2909 
Q 1613 2909 1392 2779 
Q 1172 2650 1078 2428 
Q 984 2206 984 1816 
L 984 0 
L 422 0 
z
" transform="scale(0.015625)"/>
       <path id="ArialMT-6c" d="M 409 0 
L 409 4581 
L 972 4581 
L 972 0 
L 409 0 
z
" transform="scale(0.015625)"/>
      </defs>
      <use xlink:href="#ArialMT-52"/>
      <use xlink:href="#ArialMT-5f" transform="translate(72.216797 0)"/>
      <use xlink:href="#ArialMT-48" transform="translate(127.832031 0)"/>
      <use xlink:href="#ArialMT-65" transform="translate(200.048828 0)"/>
      <use xlink:href="#ArialMT-73" transform="translate(255.664062 0)"/>
      <use xlink:href="#ArialMT-63" transform="translate(305.664062 0)"/>
      <use xlink:href="#ArialMT-68" transform="translate(355.664062 0)"/>
      <use xlink:href="#ArialMT-6c" transform="translate(411.279297 0)"/>
      <use xlink:href="#ArialMT-20" transform="translate(433.496094 0)"/>
      <use xlink:href="#ArialMT-41" transform="translate(455.779297 0)"/>
      <use xlink:href="#ArialMT-63" transform="translate(522.478516 0)"/>
      <use xlink:href="#ArialMT-74" transform="translate(572.478516 0)"/>
      <use xlink:href="#ArialMT-69" transform="translate(600.261719 0)"/>
      <use xlink:href="#ArialMT-76" transform="translate(622.478516 0)"/>
      <use xlink:href="#ArialMT-61" transform="translate(672.478516 0)"/>
      <use xlink:href="#ArialMT-74" transform="translate(728.09375 0)"/>
      <use xlink:href="#ArialMT-69" transform="translate(755.876953 0)"/>
      <use xlink:href="#ArialMT-6f" transform="translate(778.09375 0)"/>
      <use xlink:href="#ArialMT-6e" transform="translate(833.708984 0)"/>
     </g>
    </g>
   </g>
   <g id="line2d_43">
    <path d="M 69.463109 555.511199 
L 400.95029 496.738266 
" clip-path="url(#pa97cb9a7d5)" style="fill: none; stroke-dasharray: 7.4,3.2; stroke-dashoffset: 0; stroke: #000000; stroke-width: 2"/>
   </g>
   <g id="patch_11">
    <path d="M 52.88875 665.44 
L 52.88875 389.58 
" style="fill: none; stroke: #000000; stroke-width: 0.8; stroke-linejoin: miter; stroke-linecap: square"/>
   </g>
   <g id="patch_12">
    <path d="M 52.88875 665.44 
L 417.524649 665.44 
" style="fill: none; stroke: #000000; stroke-width: 0.8; stroke-linejoin: miter; stroke-linecap: square"/>
   </g>
   <g id="text_51">
    <g id="patch_13">
     <path d="M 71.120545 428.406594 
L 117.298201 428.406594 
Q 120.598201 428.406594 120.598201 425.106594 
L 120.598201 403.373 
Q 120.598201 400.073 117.298201 400.073 
L 71.120545 400.073 
Q 67.820545 400.073 67.820545 403.373 
L 67.820545 425.106594 
Q 67.820545 428.406594 71.120545 428.406594 
z
" style="fill: #ffffff; opacity: 0.8; stroke: #000000; stroke-linejoin: miter"/>
    </g>
    <!-- r = 0.28 -->
    <g transform="translate(71.120545 411.246594) scale(0.11 -0.11)">
     <defs>
      <path id="ArialMT-38" d="M 1131 2484 
Q 781 2613 612 2850 
Q 444 3088 444 3419 
Q 444 3919 803 4259 
Q 1163 4600 1759 4600 
Q 2359 4600 2725 4251 
Q 3091 3903 3091 3403 
Q 3091 3084 2923 2848 
Q 2756 2613 2416 2484 
Q 2838 2347 3058 2040 
Q 3278 1734 3278 1309 
Q 3278 722 2862 322 
Q 2447 -78 1769 -78 
Q 1091 -78 675 323 
Q 259 725 259 1325 
Q 259 1772 486 2073 
Q 713 2375 1131 2484 
z
M 1019 3438 
Q 1019 3113 1228 2906 
Q 1438 2700 1772 2700 
Q 2097 2700 2305 2904 
Q 2513 3109 2513 3406 
Q 2513 3716 2298 3927 
Q 2084 4138 1766 4138 
Q 1444 4138 1231 3931 
Q 1019 3725 1019 3438 
z
M 838 1322 
Q 838 1081 952 856 
Q 1066 631 1291 507 
Q 1516 384 1775 384 
Q 2178 384 2440 643 
Q 2703 903 2703 1303 
Q 2703 1709 2433 1975 
Q 2163 2241 1756 2241 
Q 1359 2241 1098 1978 
Q 838 1716 838 1322 
z
" transform="scale(0.015625)"/>
     </defs>
     <use xlink:href="#ArialMT-72"/>
     <use xlink:href="#ArialMT-20" transform="translate(33.300781 0)"/>
     <use xlink:href="#ArialMT-3d" transform="translate(61.083984 0)"/>
     <use xlink:href="#ArialMT-20" transform="translate(119.482422 0)"/>
     <use xlink:href="#ArialMT-30" transform="translate(147.265625 0)"/>
     <use xlink:href="#ArialMT-2e" transform="translate(202.880859 0)"/>
     <use xlink:href="#ArialMT-32" transform="translate(230.664062 0)"/>
     <use xlink:href="#ArialMT-38" transform="translate(286.279297 0)"/>
    </g>
    <!-- p = 0.200 -->
    <g transform="translate(71.120545 422.920344) scale(0.11 -0.11)">
     <use xlink:href="#ArialMT-70"/>
     <use xlink:href="#ArialMT-20" transform="translate(55.615234 0)"/>
     <use xlink:href="#ArialMT-3d" transform="translate(83.398438 0)"/>
     <use xlink:href="#ArialMT-20" transform="translate(141.796875 0)"/>
     <use xlink:href="#ArialMT-30" transform="translate(169.580078 0)"/>
     <use xlink:href="#ArialMT-2e" transform="translate(225.195312 0)"/>
     <use xlink:href="#ArialMT-32" transform="translate(252.978516 0)"/>
     <use xlink:href="#ArialMT-30" transform="translate(308.59375 0)"/>
     <use xlink:href="#ArialMT-30" transform="translate(364.208984 0)"/>
    </g>
   </g>
   <g id="text_52">
    <!-- R Heschl -->
    <g transform="translate(202.7542 383.58) scale(0.16 -0.16)">
     <use xlink:href="#ArialMT-52"/>
     <use xlink:href="#ArialMT-20" transform="translate(72.216797 0)"/>
     <use xlink:href="#ArialMT-48" transform="translate(100 0)"/>
     <use xlink:href="#ArialMT-65" transform="translate(172.216797 0)"/>
     <use xlink:href="#ArialMT-73" transform="translate(227.832031 0)"/>
     <use xlink:href="#ArialMT-63" transform="translate(277.832031 0)"/>
     <use xlink:href="#ArialMT-68" transform="translate(327.832031 0)"/>
     <use xlink:href="#ArialMT-6c" transform="translate(383.447266 0)"/>
    </g>
   </g>
  </g>
  <g id="axes_4">
   <g id="patch_14">
    <path d="M 478.40875 665.44 
L 843.044649 665.44 
L 843.044649 389.58 
L 478.40875 389.58 
z
" style="fill: #ffffff"/>
   </g>
   <g id="PathCollection_4">
    <g clip-path="url(#pc1ec18984d)">
     <use xlink:href="#m326b63eb64" x="589.693732" y="527.664127" style="fill: #e74c3c; fill-opacity: 0.7; stroke: #ffffff; stroke-opacity: 0.7"/>
     <use xlink:href="#m326b63eb64" x="672.565528" y="532.742102" style="fill: #e74c3c; fill-opacity: 0.7; stroke: #ffffff; stroke-opacity: 0.7"/>
     <use xlink:href="#m326b63eb64" x="577.854904" y="544.79861" style="fill: #e74c3c; fill-opacity: 0.7; stroke: #ffffff; stroke-opacity: 0.7"/>
     <use xlink:href="#m326b63eb64" x="577.854904" y="474.214285" style="fill: #e74c3c; fill-opacity: 0.7; stroke: #ffffff; stroke-opacity: 0.7"/>
     <use xlink:href="#m326b63eb64" x="719.920839" y="576.880283" style="fill: #e74c3c; fill-opacity: 0.7; stroke: #ffffff; stroke-opacity: 0.7"/>
     <use xlink:href="#m326b63eb64" x="660.7267" y="626.355658" style="fill: #e74c3c; fill-opacity: 0.7; stroke: #ffffff; stroke-opacity: 0.7"/>
     <use xlink:href="#m326b63eb64" x="494.983109" y="529.120839" style="fill: #e74c3c; fill-opacity: 0.7; stroke: #ffffff; stroke-opacity: 0.7"/>
     <use xlink:href="#m326b63eb64" x="648.887872" y="586.679544" style="fill: #e74c3c; fill-opacity: 0.7; stroke: #ffffff; stroke-opacity: 0.7"/>
     <use xlink:href="#m326b63eb64" x="648.887872" y="532.271962" style="fill: #e74c3c; fill-opacity: 0.7; stroke: #ffffff; stroke-opacity: 0.7"/>
     <use xlink:href="#m326b63eb64" x="542.338421" y="652.900909" style="fill: #e74c3c; fill-opacity: 0.7; stroke: #ffffff; stroke-opacity: 0.7"/>
     <use xlink:href="#m326b63eb64" x="577.854904" y="643.647548" style="fill: #e74c3c; fill-opacity: 0.7; stroke: #ffffff; stroke-opacity: 0.7"/>
     <use xlink:href="#m326b63eb64" x="625.210216" y="402.119091" style="fill: #e74c3c; fill-opacity: 0.7; stroke: #ffffff; stroke-opacity: 0.7"/>
     <use xlink:href="#m326b63eb64" x="554.177249" y="488.374297" style="fill: #e74c3c; fill-opacity: 0.7; stroke: #ffffff; stroke-opacity: 0.7"/>
     <use xlink:href="#m326b63eb64" x="755.437323" y="527.553058" style="fill: #e74c3c; fill-opacity: 0.7; stroke: #ffffff; stroke-opacity: 0.7"/>
     <use xlink:href="#m326b63eb64" x="660.7267" y="415.759063" style="fill: #e74c3c; fill-opacity: 0.7; stroke: #ffffff; stroke-opacity: 0.7"/>
     <use xlink:href="#m326b63eb64" x="684.404356" y="548.621645" style="fill: #e74c3c; fill-opacity: 0.7; stroke: #ffffff; stroke-opacity: 0.7"/>
     <use xlink:href="#m326b63eb64" x="779.114979" y="562.077453" style="fill: #e74c3c; fill-opacity: 0.7; stroke: #ffffff; stroke-opacity: 0.7"/>
     <use xlink:href="#m326b63eb64" x="767.276151" y="616.666441" style="fill: #e74c3c; fill-opacity: 0.7; stroke: #ffffff; stroke-opacity: 0.7"/>
     <use xlink:href="#m326b63eb64" x="708.082011" y="539.636119" style="fill: #e74c3c; fill-opacity: 0.7; stroke: #ffffff; stroke-opacity: 0.7"/>
     <use xlink:href="#m326b63eb64" x="767.276151" y="616.288061" style="fill: #e74c3c; fill-opacity: 0.7; stroke: #ffffff; stroke-opacity: 0.7"/>
     <use xlink:href="#m326b63eb64" x="719.920839" y="610.043933" style="fill: #e74c3c; fill-opacity: 0.7; stroke: #ffffff; stroke-opacity: 0.7"/>
     <use xlink:href="#m326b63eb64" x="613.371388" y="567.166297" style="fill: #e74c3c; fill-opacity: 0.7; stroke: #ffffff; stroke-opacity: 0.7"/>
     <use xlink:href="#m326b63eb64" x="826.47029" y="571.90215" style="fill: #e74c3c; fill-opacity: 0.7; stroke: #ffffff; stroke-opacity: 0.7"/>
    </g>
   </g>
   <g id="matplotlib.axis_7">
    <g id="xtick_22">
     <g id="line2d_44">
      <g>
       <use xlink:href="#mc6966687c6" x="483.144281" y="665.44" style="stroke: #000000; stroke-width: 0.8"/>
      </g>
     </g>
     <g id="text_53">
      <!-- 10 -->
      <g transform="translate(477.02725 680.313594) scale(0.11 -0.11)">
       <use xlink:href="#ArialMT-31"/>
       <use xlink:href="#ArialMT-30" transform="translate(55.615234 0)"/>
      </g>
     </g>
    </g>
    <g id="xtick_23">
     <g id="line2d_45">
      <g>
       <use xlink:href="#mc6966687c6" x="542.338421" y="665.44" style="stroke: #000000; stroke-width: 0.8"/>
      </g>
     </g>
     <g id="text_54">
      <!-- 15 -->
      <g transform="translate(536.221389 680.313594) scale(0.11 -0.11)">
       <use xlink:href="#ArialMT-31"/>
       <use xlink:href="#ArialMT-35" transform="translate(55.615234 0)"/>
      </g>
     </g>
    </g>
    <g id="xtick_24">
     <g id="line2d_46">
      <g>
       <use xlink:href="#mc6966687c6" x="601.53256" y="665.44" style="stroke: #000000; stroke-width: 0.8"/>
      </g>
     </g>
     <g id="text_55">
      <!-- 20 -->
      <g transform="translate(595.415529 680.313594) scale(0.11 -0.11)">
       <use xlink:href="#ArialMT-32"/>
       <use xlink:href="#ArialMT-30" transform="translate(55.615234 0)"/>
      </g>
     </g>
    </g>
    <g id="xtick_25">
     <g id="line2d_47">
      <g>
       <use xlink:href="#mc6966687c6" x="660.7267" y="665.44" style="stroke: #000000; stroke-width: 0.8"/>
      </g>
     </g>
     <g id="text_56">
      <!-- 25 -->
      <g transform="translate(654.609668 680.313594) scale(0.11 -0.11)">
       <use xlink:href="#ArialMT-32"/>
       <use xlink:href="#ArialMT-35" transform="translate(55.615234 0)"/>
      </g>
     </g>
    </g>
    <g id="xtick_26">
     <g id="line2d_48">
      <g>
       <use xlink:href="#mc6966687c6" x="719.920839" y="665.44" style="stroke: #000000; stroke-width: 0.8"/>
      </g>
     </g>
     <g id="text_57">
      <!-- 30 -->
      <g transform="translate(713.803808 680.313594) scale(0.11 -0.11)">
       <use xlink:href="#ArialMT-33"/>
       <use xlink:href="#ArialMT-30" transform="translate(55.615234 0)"/>
      </g>
     </g>
    </g>
    <g id="xtick_27">
     <g id="line2d_49">
      <g>
       <use xlink:href="#mc6966687c6" x="779.114979" y="665.44" style="stroke: #000000; stroke-width: 0.8"/>
      </g>
     </g>
     <g id="text_58">
      <!-- 35 -->
      <g transform="translate(772.997948 680.313594) scale(0.11 -0.11)">
       <use xlink:href="#ArialMT-33"/>
       <use xlink:href="#ArialMT-35" transform="translate(55.615234 0)"/>
      </g>
     </g>
    </g>
    <g id="xtick_28">
     <g id="line2d_50">
      <g>
       <use xlink:href="#mc6966687c6" x="838.309118" y="665.44" style="stroke: #000000; stroke-width: 0.8"/>
      </g>
     </g>
     <g id="text_59">
      <!-- 40 -->
      <g transform="translate(832.192087 680.313594) scale(0.11 -0.11)">
       <use xlink:href="#ArialMT-34"/>
       <use xlink:href="#ArialMT-30" transform="translate(55.615234 0)"/>
      </g>
     </g>
    </g>
    <g id="text_60">
     <!-- PSYRATS Score -->
     <g transform="translate(608.336075 696.520781) scale(0.14 -0.14)">
      <use xlink:href="#ArialMT-50"/>
      <use xlink:href="#ArialMT-53" transform="translate(66.699219 0)"/>
      <use xlink:href="#ArialMT-59" transform="translate(133.398438 0)"/>
      <use xlink:href="#ArialMT-52" transform="translate(200.097656 0)"/>
      <use xlink:href="#ArialMT-41" transform="translate(272.314453 0)"/>
      <use xlink:href="#ArialMT-54" transform="translate(331.638672 0)"/>
      <use xlink:href="#ArialMT-53" transform="translate(392.722656 0)"/>
      <use xlink:href="#ArialMT-20" transform="translate(459.421875 0)"/>
      <use xlink:href="#ArialMT-53" transform="translate(487.205078 0)"/>
      <use xlink:href="#ArialMT-63" transform="translate(553.904297 0)"/>
      <use xlink:href="#ArialMT-6f" transform="translate(603.904297 0)"/>
      <use xlink:href="#ArialMT-72" transform="translate(659.519531 0)"/>
      <use xlink:href="#ArialMT-65" transform="translate(692.820312 0)"/>
     </g>
    </g>
   </g>
   <g id="matplotlib.axis_8">
    <g id="ytick_20">
     <g id="line2d_51">
      <g>
       <use xlink:href="#m0ba01f3e0d" x="478.40875" y="648.673928" style="stroke: #000000; stroke-width: 0.8"/>
      </g>
     </g>
     <g id="text_61">
      <!-- −0.2 -->
      <g transform="translate(449.694062 652.610725) scale(0.11 -0.11)">
       <use xlink:href="#ArialMT-2212"/>
       <use xlink:href="#ArialMT-30" transform="translate(58.398438 0)"/>
       <use xlink:href="#ArialMT-2e" transform="translate(114.013672 0)"/>
       <use xlink:href="#ArialMT-32" transform="translate(141.796875 0)"/>
      </g>
     </g>
    </g>
    <g id="ytick_21">
     <g id="line2d_52">
      <g>
       <use xlink:href="#m0ba01f3e0d" x="478.40875" y="591.148259" style="stroke: #000000; stroke-width: 0.8"/>
      </g>
     </g>
     <g id="text_62">
      <!-- −0.1 -->
      <g transform="translate(449.694062 595.085056) scale(0.11 -0.11)">
       <use xlink:href="#ArialMT-2212"/>
       <use xlink:href="#ArialMT-30" transform="translate(58.398438 0)"/>
       <use xlink:href="#ArialMT-2e" transform="translate(114.013672 0)"/>
       <use xlink:href="#ArialMT-31" transform="translate(141.796875 0)"/>
      </g>
     </g>
    </g>
    <g id="ytick_22">
     <g id="line2d_53">
      <g>
       <use xlink:href="#m0ba01f3e0d" x="478.40875" y="533.62259" style="stroke: #000000; stroke-width: 0.8"/>
      </g>
     </g>
     <g id="text_63">
      <!-- 0.0 -->
      <g transform="translate(456.11875 537.559387) scale(0.11 -0.11)">
       <use xlink:href="#ArialMT-30"/>
       <use xlink:href="#ArialMT-2e" transform="translate(55.615234 0)"/>
       <use xlink:href="#ArialMT-30" transform="translate(83.398438 0)"/>
      </g>
     </g>
    </g>
    <g id="ytick_23">
     <g id="line2d_54">
      <g>
       <use xlink:href="#m0ba01f3e0d" x="478.40875" y="476.096922" style="stroke: #000000; stroke-width: 0.8"/>
      </g>
     </g>
     <g id="text_64">
      <!-- 0.1 -->
      <g transform="translate(456.11875 480.033719) scale(0.11 -0.11)">
       <use xlink:href="#ArialMT-30"/>
       <use xlink:href="#ArialMT-2e" transform="translate(55.615234 0)"/>
       <use xlink:href="#ArialMT-31" transform="translate(83.398438 0)"/>
      </g>
     </g>
    </g>
    <g id="ytick_24">
     <g id="line2d_55">
      <g>
       <use xlink:href="#m0ba01f3e0d" x="478.40875" y="418.571253" style="stroke: #000000; stroke-width: 0.8"/>
      </g>
     </g>
     <g id="text_65">
      <!-- 0.2 -->
      <g transform="translate(456.11875 422.50805) scale(0.11 -0.11)">
       <use xlink:href="#ArialMT-30"/>
       <use xlink:href="#ArialMT-2e" transform="translate(55.615234 0)"/>
       <use xlink:href="#ArialMT-32" transform="translate(83.398438 0)"/>
      </g>
     </g>
    </g>
    <g id="text_66">
     <!-- L_STG_posterior Activation -->
     <g transform="translate(442.911562 612.716406) rotate(-90) scale(0.14 -0.14)">
      <defs>
       <path id="ArialMT-4c" d="M 469 0 
L 469 4581 
L 1075 4581 
L 1075 541 
L 3331 541 
L 3331 0 
L 469 0 
z
" transform="scale(0.015625)"/>
      </defs>
      <use xlink:href="#ArialMT-4c"/>
      <use xlink:href="#ArialMT-5f" transform="translate(55.615234 0)"/>
      <use xlink:href="#ArialMT-53" transform="translate(111.230469 0)"/>
      <use xlink:href="#ArialMT-54" transform="translate(177.929688 0)"/>
      <use xlink:href="#ArialMT-47" transform="translate(239.013672 0)"/>
      <use xlink:href="#ArialMT-5f" transform="translate(316.796875 0)"/>
      <use xlink:href="#ArialMT-70" transform="translate(372.412109 0)"/>
      <use xlink:href="#ArialMT-6f" transform="translate(428.027344 0)"/>
      <use xlink:href="#ArialMT-73" transform="translate(483.642578 0)"/>
      <use xlink:href="#ArialMT-74" transform="translate(533.642578 0)"/>
      <use xlink:href="#ArialMT-65" transform="translate(561.425781 0)"/>
      <use xlink:href="#ArialMT-72" transform="translate(617.041016 0)"/>
      <use xlink:href="#ArialMT-69" transform="translate(650.341797 0)"/>
      <use xlink:href="#ArialMT-6f" transform="translate(672.558594 0)"/>
      <use xlink:href="#ArialMT-72" transform="translate(728.173828 0)"/>
      <use xlink:href="#ArialMT-20" transform="translate(761.474609 0)"/>
      <use xlink:href="#ArialMT-41" transform="translate(783.757812 0)"/>
      <use xlink:href="#ArialMT-63" transform="translate(850.457031 0)"/>
      <use xlink:href="#ArialMT-74" transform="translate(900.457031 0)"/>
      <use xlink:href="#ArialMT-69" transform="translate(928.240234 0)"/>
      <use xlink:href="#ArialMT-76" transform="translate(950.457031 0)"/>
      <use xlink:href="#ArialMT-61" transform="translate(1000.457031 0)"/>
      <use xlink:href="#ArialMT-74" transform="translate(1056.072266 0)"/>
      <use xlink:href="#ArialMT-69" transform="translate(1083.855469 0)"/>
      <use xlink:href="#ArialMT-6f" transform="translate(1106.072266 0)"/>
      <use xlink:href="#ArialMT-6e" transform="translate(1161.6875 0)"/>
     </g>
    </g>
   </g>
   <g id="line2d_56">
    <path d="M 494.983109 527.825723 
L 826.47029 576.25626 
" clip-path="url(#pc1ec18984d)" style="fill: none; stroke-dasharray: 7.4,3.2; stroke-dashoffset: 0; stroke: #000000; stroke-width: 2"/>
   </g>
   <g id="patch_15">
    <path d="M 478.40875 665.44 
L 478.40875 389.58 
" style="fill: none; stroke: #000000; stroke-width: 0.8; stroke-linejoin: miter; stroke-linecap: square"/>
   </g>
   <g id="patch_16">
    <path d="M 478.40875 665.44 
L 843.044649 665.44 
" style="fill: none; stroke: #000000; stroke-width: 0.8; stroke-linejoin: miter; stroke-linecap: square"/>
   </g>
   <g id="text_67">
    <g id="patch_17">
     <path d="M 496.640545 428.406594 
L 542.818201 428.406594 
Q 546.118201 428.406594 546.118201 425.106594 
L 546.118201 403.373 
Q 546.118201 400.073 542.818201 400.073 
L 496.640545 400.073 
Q 493.340545 400.073 493.340545 403.373 
L 493.340545 425.106594 
Q 493.340545 428.406594 496.640545 428.406594 
z
" style="fill: #ffffff; opacity: 0.8; stroke: #000000; stroke-linejoin: miter"/>
    </g>
    <!-- r = -0.20 -->
    <g transform="translate(496.640545 411.246594) scale(0.11 -0.11)">
     <defs>
      <path id="ArialMT-2d" d="M 203 1375 
L 203 1941 
L 1931 1941 
L 1931 1375 
L 203 1375 
z
" transform="scale(0.015625)"/>
     </defs>
     <use xlink:href="#ArialMT-72"/>
     <use xlink:href="#ArialMT-20" transform="translate(33.300781 0)"/>
     <use xlink:href="#ArialMT-3d" transform="translate(61.083984 0)"/>
     <use xlink:href="#ArialMT-20" transform="translate(119.482422 0)"/>
     <use xlink:href="#ArialMT-2d" transform="translate(147.265625 0)"/>
     <use xlink:href="#ArialMT-30" transform="translate(180.566406 0)"/>
     <use xlink:href="#ArialMT-2e" transform="translate(236.181641 0)"/>
     <use xlink:href="#ArialMT-32" transform="translate(263.964844 0)"/>
     <use xlink:href="#ArialMT-30" transform="translate(319.580078 0)"/>
    </g>
    <!-- p = 0.371 -->
    <g transform="translate(496.640545 422.920344) scale(0.11 -0.11)">
     <defs>
      <path id="ArialMT-37" d="M 303 3981 
L 303 4522 
L 3269 4522 
L 3269 4084 
Q 2831 3619 2401 2847 
Q 1972 2075 1738 1259 
Q 1569 684 1522 0 
L 944 0 
Q 953 541 1156 1306 
Q 1359 2072 1739 2783 
Q 2119 3494 2547 3981 
L 303 3981 
z
" transform="scale(0.015625)"/>
     </defs>
     <use xlink:href="#ArialMT-70"/>
     <use xlink:href="#ArialMT-20" transform="translate(55.615234 0)"/>
     <use xlink:href="#ArialMT-3d" transform="translate(83.398438 0)"/>
     <use xlink:href="#ArialMT-20" transform="translate(141.796875 0)"/>
     <use xlink:href="#ArialMT-30" transform="translate(169.580078 0)"/>
     <use xlink:href="#ArialMT-2e" transform="translate(225.195312 0)"/>
     <use xlink:href="#ArialMT-33" transform="translate(252.978516 0)"/>
     <use xlink:href="#ArialMT-37" transform="translate(308.59375 0)"/>
     <use xlink:href="#ArialMT-31" transform="translate(364.208984 0)"/>
    </g>
   </g>
   <g id="text_68">
    <!-- L STG posterior -->
    <g transform="translate(604.56545 383.58) scale(0.16 -0.16)">
     <use xlink:href="#ArialMT-4c"/>
     <use xlink:href="#ArialMT-20" transform="translate(51.865234 0)"/>
     <use xlink:href="#ArialMT-53" transform="translate(79.648438 0)"/>
     <use xlink:href="#ArialMT-54" transform="translate(146.347656 0)"/>
     <use xlink:href="#ArialMT-47" transform="translate(207.431641 0)"/>
     <use xlink:href="#ArialMT-20" transform="translate(285.214844 0)"/>
     <use xlink:href="#ArialMT-70" transform="translate(312.998047 0)"/>
     <use xlink:href="#ArialMT-6f" transform="translate(368.613281 0)"/>
     <use xlink:href="#ArialMT-73" transform="translate(424.228516 0)"/>
     <use xlink:href="#ArialMT-74" transform="translate(474.228516 0)"/>
     <use xlink:href="#ArialMT-65" transform="translate(502.011719 0)"/>
     <use xlink:href="#ArialMT-72" transform="translate(557.626953 0)"/>
     <use xlink:href="#ArialMT-69" transform="translate(590.927734 0)"/>
     <use xlink:href="#ArialMT-6f" transform="translate(613.144531 0)"/>
     <use xlink:href="#ArialMT-72" transform="translate(668.759766 0)"/>
    </g>
   </g>
  </g>
  <g id="text_69">
   <!-- PSYRATS Correlations - Sentences Vs Reversed -->
   <g transform="translate(265.247344 17.220937) scale(0.14 -0.14)">
    <defs>
     <path id="Arial-BoldMT-50" d="M 466 0 
L 466 4581 
L 1950 4581 
Q 2794 4581 3050 4513 
Q 3444 4409 3709 4064 
Q 3975 3719 3975 3172 
Q 3975 2750 3822 2462 
Q 3669 2175 3433 2011 
Q 3197 1847 2953 1794 
Q 2622 1728 1994 1728 
L 1391 1728 
L 1391 0 
L 466 0 
z
M 1391 3806 
L 1391 2506 
L 1897 2506 
Q 2444 2506 2628 2578 
Q 2813 2650 2917 2803 
Q 3022 2956 3022 3159 
Q 3022 3409 2875 3571 
Q 2728 3734 2503 3775 
Q 2338 3806 1838 3806 
L 1391 3806 
z
" transform="scale(0.015625)"/>
     <path id="Arial-BoldMT-53" d="M 231 1491 
L 1131 1578 
Q 1213 1125 1461 912 
Q 1709 700 2131 700 
Q 2578 700 2804 889 
Q 3031 1078 3031 1331 
Q 3031 1494 2936 1608 
Q 2841 1722 2603 1806 
Q 2441 1863 1863 2006 
Q 1119 2191 819 2459 
Q 397 2838 397 3381 
Q 397 3731 595 4036 
Q 794 4341 1167 4500 
Q 1541 4659 2069 4659 
Q 2931 4659 3367 4281 
Q 3803 3903 3825 3272 
L 2900 3231 
Q 2841 3584 2645 3739 
Q 2450 3894 2059 3894 
Q 1656 3894 1428 3728 
Q 1281 3622 1281 3444 
Q 1281 3281 1419 3166 
Q 1594 3019 2269 2859 
Q 2944 2700 3267 2529 
Q 3591 2359 3773 2064 
Q 3956 1769 3956 1334 
Q 3956 941 3737 597 
Q 3519 253 3119 86 
Q 2719 -81 2122 -81 
Q 1253 -81 787 320 
Q 322 722 231 1491 
z
" transform="scale(0.015625)"/>
     <path id="Arial-BoldMT-59" d="M 1669 0 
L 1669 1928 
L -9 4581 
L 1075 4581 
L 2153 2769 
L 3209 4581 
L 4275 4581 
L 2591 1922 
L 2591 0 
L 1669 0 
z
" transform="scale(0.015625)"/>
     <path id="Arial-BoldMT-52" d="M 469 0 
L 469 4581 
L 2416 4581 
Q 3150 4581 3483 4457 
Q 3816 4334 4016 4018 
Q 4216 3703 4216 3297 
Q 4216 2781 3912 2445 
Q 3609 2109 3006 2022 
Q 3306 1847 3501 1637 
Q 3697 1428 4028 894 
L 4588 0 
L 3481 0 
L 2813 997 
Q 2456 1531 2325 1670 
Q 2194 1809 2047 1861 
Q 1900 1913 1581 1913 
L 1394 1913 
L 1394 0 
L 469 0 
z
M 1394 2644 
L 2078 2644 
Q 2744 2644 2909 2700 
Q 3075 2756 3169 2893 
Q 3263 3031 3263 3238 
Q 3263 3469 3139 3611 
Q 3016 3753 2791 3791 
Q 2678 3806 2116 3806 
L 1394 3806 
L 1394 2644 
z
" transform="scale(0.015625)"/>
     <path id="Arial-BoldMT-41" d="M 4597 0 
L 3591 0 
L 3191 1041 
L 1359 1041 
L 981 0 
L 0 0 
L 1784 4581 
L 2763 4581 
L 4597 0 
z
M 2894 1813 
L 2263 3513 
L 1644 1813 
L 2894 1813 
z
" transform="scale(0.015625)"/>
     <path id="Arial-BoldMT-54" d="M 1497 0 
L 1497 3806 
L 138 3806 
L 138 4581 
L 3778 4581 
L 3778 3806 
L 2422 3806 
L 2422 0 
L 1497 0 
z
" transform="scale(0.015625)"/>
     <path id="Arial-BoldMT-20" transform="scale(0.015625)"/>
     <path id="Arial-BoldMT-43" d="M 3397 1684 
L 4294 1400 
Q 4088 650 3608 286 
Q 3128 -78 2391 -78 
Q 1478 -78 890 545 
Q 303 1169 303 2250 
Q 303 3394 893 4026 
Q 1484 4659 2447 4659 
Q 3288 4659 3813 4163 
Q 4125 3869 4281 3319 
L 3366 3100 
Q 3284 3456 3026 3662 
Q 2769 3869 2400 3869 
Q 1891 3869 1573 3503 
Q 1256 3138 1256 2319 
Q 1256 1450 1568 1081 
Q 1881 713 2381 713 
Q 2750 713 3015 947 
Q 3281 1181 3397 1684 
z
" transform="scale(0.015625)"/>
     <path id="Arial-BoldMT-6f" d="M 256 1706 
Q 256 2144 472 2553 
Q 688 2963 1083 3178 
Q 1478 3394 1966 3394 
Q 2719 3394 3200 2905 
Q 3681 2416 3681 1669 
Q 3681 916 3195 420 
Q 2709 -75 1972 -75 
Q 1516 -75 1102 131 
Q 688 338 472 736 
Q 256 1134 256 1706 
z
M 1156 1659 
Q 1156 1166 1390 903 
Q 1625 641 1969 641 
Q 2313 641 2545 903 
Q 2778 1166 2778 1666 
Q 2778 2153 2545 2415 
Q 2313 2678 1969 2678 
Q 1625 2678 1390 2415 
Q 1156 2153 1156 1659 
z
" transform="scale(0.015625)"/>
     <path id="Arial-BoldMT-72" d="M 1300 0 
L 422 0 
L 422 3319 
L 1238 3319 
L 1238 2847 
Q 1447 3181 1614 3287 
Q 1781 3394 1994 3394 
Q 2294 3394 2572 3228 
L 2300 2463 
Q 2078 2606 1888 2606 
Q 1703 2606 1575 2504 
Q 1447 2403 1373 2137 
Q 1300 1872 1300 1025 
L 1300 0 
z
" transform="scale(0.015625)"/>
     <path id="Arial-BoldMT-65" d="M 2381 1056 
L 3256 909 
Q 3088 428 2723 176 
Q 2359 -75 1813 -75 
Q 947 -75 531 491 
Q 203 944 203 1634 
Q 203 2459 634 2926 
Q 1066 3394 1725 3394 
Q 2466 3394 2894 2905 
Q 3322 2416 3303 1406 
L 1103 1406 
Q 1113 1016 1316 798 
Q 1519 581 1822 581 
Q 2028 581 2168 693 
Q 2309 806 2381 1056 
z
M 2431 1944 
Q 2422 2325 2234 2523 
Q 2047 2722 1778 2722 
Q 1491 2722 1303 2513 
Q 1116 2303 1119 1944 
L 2431 1944 
z
" transform="scale(0.015625)"/>
     <path id="Arial-BoldMT-6c" d="M 459 0 
L 459 4581 
L 1338 4581 
L 1338 0 
L 459 0 
z
" transform="scale(0.015625)"/>
     <path id="Arial-BoldMT-61" d="M 1116 2306 
L 319 2450 
Q 453 2931 781 3162 
Q 1109 3394 1756 3394 
Q 2344 3394 2631 3255 
Q 2919 3116 3036 2902 
Q 3153 2688 3153 2116 
L 3144 1091 
Q 3144 653 3186 445 
Q 3228 238 3344 0 
L 2475 0 
Q 2441 88 2391 259 
Q 2369 338 2359 363 
Q 2134 144 1878 34 
Q 1622 -75 1331 -75 
Q 819 -75 523 203 
Q 228 481 228 906 
Q 228 1188 362 1408 
Q 497 1628 739 1745 
Q 981 1863 1438 1950 
Q 2053 2066 2291 2166 
L 2291 2253 
Q 2291 2506 2166 2614 
Q 2041 2722 1694 2722 
Q 1459 2722 1328 2630 
Q 1197 2538 1116 2306 
z
M 2291 1594 
Q 2122 1538 1756 1459 
Q 1391 1381 1278 1306 
Q 1106 1184 1106 997 
Q 1106 813 1243 678 
Q 1381 544 1594 544 
Q 1831 544 2047 700 
Q 2206 819 2256 991 
Q 2291 1103 2291 1419 
L 2291 1594 
z
" transform="scale(0.015625)"/>
     <path id="Arial-BoldMT-74" d="M 1981 3319 
L 1981 2619 
L 1381 2619 
L 1381 1281 
Q 1381 875 1398 808 
Q 1416 741 1477 697 
Q 1538 653 1625 653 
Q 1747 653 1978 738 
L 2053 56 
Q 1747 -75 1359 -75 
Q 1122 -75 931 4 
Q 741 84 652 211 
Q 563 338 528 553 
Q 500 706 500 1172 
L 500 2619 
L 97 2619 
L 97 3319 
L 500 3319 
L 500 3978 
L 1381 4491 
L 1381 3319 
L 1981 3319 
z
" transform="scale(0.015625)"/>
     <path id="Arial-BoldMT-69" d="M 459 3769 
L 459 4581 
L 1338 4581 
L 1338 3769 
L 459 3769 
z
M 459 0 
L 459 3319 
L 1338 3319 
L 1338 0 
L 459 0 
z
" transform="scale(0.015625)"/>
     <path id="Arial-BoldMT-6e" d="M 3478 0 
L 2600 0 
L 2600 1694 
Q 2600 2231 2544 2389 
Q 2488 2547 2361 2634 
Q 2234 2722 2056 2722 
Q 1828 2722 1647 2597 
Q 1466 2472 1398 2265 
Q 1331 2059 1331 1503 
L 1331 0 
L 453 0 
L 453 3319 
L 1269 3319 
L 1269 2831 
Q 1703 3394 2363 3394 
Q 2653 3394 2893 3289 
Q 3134 3184 3257 3021 
Q 3381 2859 3429 2653 
Q 3478 2447 3478 2063 
L 3478 0 
z
" transform="scale(0.015625)"/>
     <path id="Arial-BoldMT-73" d="M 150 947 
L 1031 1081 
Q 1088 825 1259 692 
Q 1431 559 1741 559 
Q 2081 559 2253 684 
Q 2369 772 2369 919 
Q 2369 1019 2306 1084 
Q 2241 1147 2013 1200 
Q 950 1434 666 1628 
Q 272 1897 272 2375 
Q 272 2806 612 3100 
Q 953 3394 1669 3394 
Q 2350 3394 2681 3172 
Q 3013 2950 3138 2516 
L 2309 2363 
Q 2256 2556 2107 2659 
Q 1959 2763 1684 2763 
Q 1338 2763 1188 2666 
Q 1088 2597 1088 2488 
Q 1088 2394 1175 2328 
Q 1294 2241 1995 2081 
Q 2697 1922 2975 1691 
Q 3250 1456 3250 1038 
Q 3250 581 2869 253 
Q 2488 -75 1741 -75 
Q 1063 -75 667 200 
Q 272 475 150 947 
z
" transform="scale(0.015625)"/>
     <path id="Arial-BoldMT-2d" d="M 359 1222 
L 359 2100 
L 2084 2100 
L 2084 1222 
L 359 1222 
z
" transform="scale(0.015625)"/>
     <path id="Arial-BoldMT-63" d="M 3353 2338 
L 2488 2181 
Q 2444 2441 2289 2572 
Q 2134 2703 1888 2703 
Q 1559 2703 1364 2476 
Q 1169 2250 1169 1719 
Q 1169 1128 1367 884 
Q 1566 641 1900 641 
Q 2150 641 2309 783 
Q 2469 925 2534 1272 
L 3397 1125 
Q 3263 531 2881 228 
Q 2500 -75 1859 -75 
Q 1131 -75 698 384 
Q 266 844 266 1656 
Q 266 2478 700 2936 
Q 1134 3394 1875 3394 
Q 2481 3394 2839 3133 
Q 3197 2872 3353 2338 
z
" transform="scale(0.015625)"/>
     <path id="Arial-BoldMT-56" d="M 1634 0 
L -3 4581 
L 1000 4581 
L 2159 1191 
L 3281 4581 
L 4263 4581 
L 2622 0 
L 1634 0 
z
" transform="scale(0.015625)"/>
     <path id="Arial-BoldMT-76" d="M 1372 0 
L 34 3319 
L 956 3319 
L 1581 1625 
L 1763 1059 
Q 1834 1275 1853 1344 
Q 1897 1484 1947 1625 
L 2578 3319 
L 3481 3319 
L 2163 0 
L 1372 0 
z
" transform="scale(0.015625)"/>
     <path id="Arial-BoldMT-64" d="M 3503 0 
L 2688 0 
L 2688 488 
Q 2484 203 2207 64 
Q 1931 -75 1650 -75 
Q 1078 -75 670 386 
Q 263 847 263 1672 
Q 263 2516 659 2955 
Q 1056 3394 1663 3394 
Q 2219 3394 2625 2931 
L 2625 4581 
L 3503 4581 
L 3503 0 
z
M 1159 1731 
Q 1159 1200 1306 963 
Q 1519 619 1900 619 
Q 2203 619 2415 876 
Q 2628 1134 2628 1647 
Q 2628 2219 2422 2470 
Q 2216 2722 1894 2722 
Q 1581 2722 1370 2473 
Q 1159 2225 1159 1731 
z
" transform="scale(0.015625)"/>
    </defs>
    <use xlink:href="#Arial-BoldMT-50"/>
    <use xlink:href="#Arial-BoldMT-53" transform="translate(66.699219 0)"/>
    <use xlink:href="#Arial-BoldMT-59" transform="translate(133.398438 0)"/>
    <use xlink:href="#Arial-BoldMT-52" transform="translate(200.097656 0)"/>
    <use xlink:href="#Arial-BoldMT-41" transform="translate(272.314453 0)"/>
    <use xlink:href="#Arial-BoldMT-54" transform="translate(337.15625 0)"/>
    <use xlink:href="#Arial-BoldMT-53" transform="translate(398.240234 0)"/>
    <use xlink:href="#Arial-BoldMT-20" transform="translate(464.939453 0)"/>
    <use xlink:href="#Arial-BoldMT-43" transform="translate(492.722656 0)"/>
    <use xlink:href="#Arial-BoldMT-6f" transform="translate(564.939453 0)"/>
    <use xlink:href="#Arial-BoldMT-72" transform="translate(626.023438 0)"/>
    <use xlink:href="#Arial-BoldMT-72" transform="translate(664.939453 0)"/>
    <use xlink:href="#Arial-BoldMT-65" transform="translate(703.855469 0)"/>
    <use xlink:href="#Arial-BoldMT-6c" transform="translate(759.470703 0)"/>
    <use xlink:href="#Arial-BoldMT-61" transform="translate(787.253906 0)"/>
    <use xlink:href="#Arial-BoldMT-74" transform="translate(842.869141 0)"/>
    <use xlink:href="#Arial-BoldMT-69" transform="translate(876.169922 0)"/>
    <use xlink:href="#Arial-BoldMT-6f" transform="translate(903.953125 0)"/>
    <use xlink:href="#Arial-BoldMT-6e" transform="translate(965.037109 0)"/>
    <use xlink:href="#Arial-BoldMT-73" transform="translate(1026.121094 0)"/>
    <use xlink:href="#Arial-BoldMT-20" transform="translate(1081.736328 0)"/>
    <use xlink:href="#Arial-BoldMT-2d" transform="translate(1109.519531 0)"/>
    <use xlink:href="#Arial-BoldMT-20" transform="translate(1142.820312 0)"/>
    <use xlink:href="#Arial-BoldMT-53" transform="translate(1170.603516 0)"/>
    <use xlink:href="#Arial-BoldMT-65" transform="translate(1237.302734 0)"/>
    <use xlink:href="#Arial-BoldMT-6e" transform="translate(1292.917969 0)"/>
    <use xlink:href="#Arial-BoldMT-74" transform="translate(1354.001953 0)"/>
    <use xlink:href="#Arial-BoldMT-65" transform="translate(1387.302734 0)"/>
    <use xlink:href="#Arial-BoldMT-6e" transform="translate(1442.917969 0)"/>
    <use xlink:href="#Arial-BoldMT-63" transform="translate(1504.001953 0)"/>
    <use xlink:href="#Arial-BoldMT-65" transform="translate(1559.617188 0)"/>
    <use xlink:href="#Arial-BoldMT-73" transform="translate(1615.232422 0)"/>
    <use xlink:href="#Arial-BoldMT-20" transform="translate(1670.847656 0)"/>
    <use xlink:href="#Arial-BoldMT-56" transform="translate(1698.630859 0)"/>
    <use xlink:href="#Arial-BoldMT-73" transform="translate(1765.330078 0)"/>
    <use xlink:href="#Arial-BoldMT-20" transform="translate(1820.945312 0)"/>
    <use xlink:href="#Arial-BoldMT-52" transform="translate(1848.728516 0)"/>
    <use xlink:href="#Arial-BoldMT-65" transform="translate(1920.945312 0)"/>
    <use xlink:href="#Arial-BoldMT-76" transform="translate(1976.560547 0)"/>
    <use xlink:href="#Arial-BoldMT-65" transform="translate(2032.175781 0)"/>
    <use xlink:href="#Arial-BoldMT-72" transform="translate(2087.791016 0)"/>
    <use xlink:href="#Arial-BoldMT-73" transform="translate(2126.707031 0)"/>
    <use xlink:href="#Arial-BoldMT-65" transform="translate(2182.322266 0)"/>
    <use xlink:href="#Arial-BoldMT-64" transform="translate(2237.9375 0)"/>
   </g>
  </g>
 </g>
 <defs>
  <clipPath id="p3a5472eb8a">
   <rect x="52.88875" y="49.02" width="364.635899" height="275.86"/>
  </clipPath>
  <clipPath id="pa059102be8">
   <rect x="478.40875" y="49.02" width="364.635899" height="275.86"/>
  </clipPath>
  <clipPath id="pa97cb9a7d5">
   <rect x="52.88875" y="389.58" width="364.635899" height="275.86"/>
  </clipPath>
  <clipPath id="pc1ec18984d">
   <rect x="478.40875" y="389.58" width="364.635899" height="275.86"/>
  </clipPath>
 </defs>
</svg>
