<?xml version="1.0" encoding="utf-8" standalone="no"?>
<!DOCTYPE svg PUBLIC "-//W3C//DTD SVG 1.1//EN"
  "http://www.w3.org/Graphics/SVG/1.1/DTD/svg11.dtd">
<svg xmlns:xlink="http://www.w3.org/1999/xlink" width="996.572969pt" height="420.821332pt" viewBox="0 0 996.572969 420.821332" xmlns="http://www.w3.org/2000/svg" version="1.1">
 <metadata>
  <rdf:RDF xmlns:dc="http://purl.org/dc/elements/1.1/" xmlns:cc="http://creativecommons.org/ns#" xmlns:rdf="http://www.w3.org/1999/02/22-rdf-syntax-ns#">
   <cc:Work>
    <dc:type rdf:resource="http://purl.org/dc/dcmitype/StillImage"/>
    <dc:date>2026-01-10T17:11:57.470719</dc:date>
    <dc:format>image/svg+xml</dc:format>
    <dc:creator>
     <cc:Agent>
      <dc:title>Matplotlib v3.10.8, https://matplotlib.org/</dc:title>
     </cc:Agent>
    </dc:creator>
   </cc:Work>
  </rdf:RDF>
 </metadata>
 <defs>
  <style type="text/css">*{stroke-linejoin: round; stroke-linecap: butt}</style>
 </defs>
 <g id="figure_1">
  <g id="patch_1">
   <path d="M 0 420.821332 
L 996.572969 420.821332 
L 996.572969 0 
L 0 0 
z
" style="fill: #ffffff"/>
  </g>
  <g id="axes_1">
   <g id="patch_2">
    <path d="M 59.169844 339.001683 
L 989.372969 339.001683 
L 989.372969 24.6525 
L 59.169844 24.6525 
z
" style="fill: #ffffff"/>
   </g>
   <g id="patch_3">
    <path d="M 101.451804 205.330518 
L 119.444127 205.330518 
L 119.444127 278.729266 
L 101.451804 278.729266 
z
" clip-path="url(#p4e9e3048e7)" style="fill: #3498db; opacity: 0.8; stroke: #ffffff; stroke-width: 0.5; stroke-linejoin: miter"/>
   </g>
   <g id="patch_4">
    <path d="M 173.421098 205.330518 
L 191.413421 205.330518 
L 191.413421 212.493891 
L 173.421098 212.493891 
z
" clip-path="url(#p4e9e3048e7)" style="fill: #3498db; opacity: 0.8; stroke: #ffffff; stroke-width: 0.5; stroke-linejoin: miter"/>
   </g>
   <g id="patch_5">
    <path d="M 245.390392 205.330518 
L 263.382715 205.330518 
L 263.382715 171.581974 
L 245.390392 171.581974 
z
" clip-path="url(#p4e9e3048e7)" style="fill: #3498db; opacity: 0.8; stroke: #ffffff; stroke-width: 0.5; stroke-linejoin: miter"/>
   </g>
   <g id="patch_6">
    <path d="M 317.359686 205.330518 
L 335.352009 205.330518 
L 335.352009 186.423847 
L 317.359686 186.423847 
z
" clip-path="url(#p4e9e3048e7)" style="fill: #3498db; opacity: 0.8; stroke: #ffffff; stroke-width: 0.5; stroke-linejoin: miter"/>
   </g>
   <g id="patch_7">
    <path d="M 389.32898 205.330518 
L 407.321303 205.330518 
L 407.321303 191.492941 
L 389.32898 191.492941 
z
" clip-path="url(#p4e9e3048e7)" style="fill: #3498db; opacity: 0.8; stroke: #ffffff; stroke-width: 0.5; stroke-linejoin: miter"/>
   </g>
   <g id="patch_8">
    <path d="M 461.298274 205.330518 
L 479.290597 205.330518 
L 479.290597 187.605124 
L 461.298274 187.605124 
z
" clip-path="url(#p4e9e3048e7)" style="fill: #3498db; opacity: 0.8; stroke: #ffffff; stroke-width: 0.5; stroke-linejoin: miter"/>
   </g>
   <g id="patch_9">
    <path d="M 533.267568 205.330518 
L 551.259892 205.330518 
L 551.259892 301.694336 
L 533.267568 301.694336 
z
" clip-path="url(#p4e9e3048e7)" style="fill: #3498db; opacity: 0.8; stroke: #ffffff; stroke-width: 0.5; stroke-linejoin: miter"/>
   </g>
   <g id="patch_10">
    <path d="M 605.236862 205.330518 
L 623.229186 205.330518 
L 623.229186 237.002361 
L 605.236862 237.002361 
z
" clip-path="url(#p4e9e3048e7)" style="fill: #3498db; opacity: 0.8; stroke: #ffffff; stroke-width: 0.5; stroke-linejoin: miter"/>
   </g>
   <g id="patch_11">
    <path d="M 677.206156 205.330518 
L 695.19848 205.330518 
L 695.19848 233.173045 
L 677.206156 233.173045 
z
" clip-path="url(#p4e9e3048e7)" style="fill: #3498db; opacity: 0.8; stroke: #ffffff; stroke-width: 0.5; stroke-linejoin: miter"/>
   </g>
   <g id="patch_12">
    <path d="M 749.17545 205.330518 
L 767.167774 205.330518 
L 767.167774 212.390096 
L 749.17545 212.390096 
z
" clip-path="url(#p4e9e3048e7)" style="fill: #3498db; opacity: 0.8; stroke: #ffffff; stroke-width: 0.5; stroke-linejoin: miter"/>
   </g>
   <g id="patch_13">
    <path d="M 821.144744 205.330518 
L 839.137068 205.330518 
L 839.137068 259.985067 
L 821.144744 259.985067 
z
" clip-path="url(#p4e9e3048e7)" style="fill: #3498db; opacity: 0.8; stroke: #ffffff; stroke-width: 0.5; stroke-linejoin: miter"/>
   </g>
   <g id="patch_14">
    <path d="M 893.114038 205.330518 
L 911.106362 205.330518 
L 911.106362 292.472991 
L 893.114038 292.472991 
z
" clip-path="url(#p4e9e3048e7)" style="fill: #3498db; opacity: 0.8; stroke: #ffffff; stroke-width: 0.5; stroke-linejoin: miter"/>
   </g>
   <g id="patch_15">
    <path d="M 119.444127 205.330518 
L 137.436451 205.330518 
L 137.436451 289.261968 
L 119.444127 289.261968 
z
" clip-path="url(#p4e9e3048e7)" style="fill: #e67e22; opacity: 0.8; stroke: #ffffff; stroke-width: 0.5; stroke-linejoin: miter"/>
   </g>
   <g id="patch_16">
    <path d="M 191.413421 205.330518 
L 209.405745 205.330518 
L 209.405745 261.311175 
L 191.413421 261.311175 
z
" clip-path="url(#p4e9e3048e7)" style="fill: #e67e22; opacity: 0.8; stroke: #ffffff; stroke-width: 0.5; stroke-linejoin: miter"/>
   </g>
   <g id="patch_17">
    <path d="M 263.382715 205.330518 
L 281.375039 205.330518 
L 281.375039 229.404284 
L 263.382715 229.404284 
z
" clip-path="url(#p4e9e3048e7)" style="fill: #e67e22; opacity: 0.8; stroke: #ffffff; stroke-width: 0.5; stroke-linejoin: miter"/>
   </g>
   <g id="patch_18">
    <path d="M 335.352009 205.330518 
L 353.344333 205.330518 
L 353.344333 201.238353 
L 335.352009 201.238353 
z
" clip-path="url(#p4e9e3048e7)" style="fill: #e67e22; opacity: 0.8; stroke: #ffffff; stroke-width: 0.5; stroke-linejoin: miter"/>
   </g>
   <g id="patch_19">
    <path d="M 407.321303 205.330518 
L 425.313627 205.330518 
L 425.313627 189.273127 
L 407.321303 189.273127 
z
" clip-path="url(#p4e9e3048e7)" style="fill: #e67e22; opacity: 0.8; stroke: #ffffff; stroke-width: 0.5; stroke-linejoin: miter"/>
   </g>
   <g id="patch_20">
    <path d="M 479.290597 205.330518 
L 497.282921 205.330518 
L 497.282921 267.164732 
L 479.290597 267.164732 
z
" clip-path="url(#p4e9e3048e7)" style="fill: #e67e22; opacity: 0.8; stroke: #ffffff; stroke-width: 0.5; stroke-linejoin: miter"/>
   </g>
   <g id="patch_21">
    <path d="M 551.259892 205.330518 
L 569.252215 205.330518 
L 569.252215 271.336516 
L 551.259892 271.336516 
z
" clip-path="url(#p4e9e3048e7)" style="fill: #e67e22; opacity: 0.8; stroke: #ffffff; stroke-width: 0.5; stroke-linejoin: miter"/>
   </g>
   <g id="patch_22">
    <path d="M 623.229186 205.330518 
L 641.221509 205.330518 
L 641.221509 235.86714 
L 623.229186 235.86714 
z
" clip-path="url(#p4e9e3048e7)" style="fill: #e67e22; opacity: 0.8; stroke: #ffffff; stroke-width: 0.5; stroke-linejoin: miter"/>
   </g>
   <g id="patch_23">
    <path d="M 695.19848 205.330518 
L 713.190803 205.330518 
L 713.190803 245.770867 
L 695.19848 245.770867 
z
" clip-path="url(#p4e9e3048e7)" style="fill: #e67e22; opacity: 0.8; stroke: #ffffff; stroke-width: 0.5; stroke-linejoin: miter"/>
   </g>
   <g id="patch_24">
    <path d="M 767.167774 205.330518 
L 785.160097 205.330518 
L 785.160097 230.433106 
L 767.167774 230.433106 
z
" clip-path="url(#p4e9e3048e7)" style="fill: #e67e22; opacity: 0.8; stroke: #ffffff; stroke-width: 0.5; stroke-linejoin: miter"/>
   </g>
   <g id="patch_25">
    <path d="M 839.137068 205.330518 
L 857.129391 205.330518 
L 857.129391 235.566539 
L 839.137068 235.566539 
z
" clip-path="url(#p4e9e3048e7)" style="fill: #e67e22; opacity: 0.8; stroke: #ffffff; stroke-width: 0.5; stroke-linejoin: miter"/>
   </g>
   <g id="patch_26">
    <path d="M 911.106362 205.330518 
L 929.098685 205.330518 
L 929.098685 250.540687 
L 911.106362 250.540687 
z
" clip-path="url(#p4e9e3048e7)" style="fill: #e67e22; opacity: 0.8; stroke: #ffffff; stroke-width: 0.5; stroke-linejoin: miter"/>
   </g>
   <g id="patch_27">
    <path d="M 137.436451 205.330518 
L 155.428774 205.330518 
L 155.428774 236.559365 
L 137.436451 236.559365 
z
" clip-path="url(#p4e9e3048e7)" style="fill: #e74c3c; opacity: 0.8; stroke: #ffffff; stroke-width: 0.5; stroke-linejoin: miter"/>
   </g>
   <g id="patch_28">
    <path d="M 209.405745 205.330518 
L 227.398068 205.330518 
L 227.398068 170.738819 
L 209.405745 170.738819 
z
" clip-path="url(#p4e9e3048e7)" style="fill: #e74c3c; opacity: 0.8; stroke: #ffffff; stroke-width: 0.5; stroke-linejoin: miter"/>
   </g>
   <g id="patch_29">
    <path d="M 281.375039 205.330518 
L 299.367362 205.330518 
L 299.367362 76.75477 
L 281.375039 76.75477 
z
" clip-path="url(#p4e9e3048e7)" style="fill: #e74c3c; opacity: 0.8; stroke: #ffffff; stroke-width: 0.5; stroke-linejoin: miter"/>
   </g>
   <g id="patch_30">
    <path d="M 353.344333 205.330518 
L 371.336656 205.330518 
L 371.336656 159.093372 
L 353.344333 159.093372 
z
" clip-path="url(#p4e9e3048e7)" style="fill: #e74c3c; opacity: 0.8; stroke: #ffffff; stroke-width: 0.5; stroke-linejoin: miter"/>
   </g>
   <g id="patch_31">
    <path d="M 425.313627 205.330518 
L 443.30595 205.330518 
L 443.30595 173.485517 
L 425.313627 173.485517 
z
" clip-path="url(#p4e9e3048e7)" style="fill: #e74c3c; opacity: 0.8; stroke: #ffffff; stroke-width: 0.5; stroke-linejoin: miter"/>
   </g>
   <g id="patch_32">
    <path d="M 497.282921 205.330518 
L 515.275244 205.330518 
L 515.275244 150.12771 
L 497.282921 150.12771 
z
" clip-path="url(#p4e9e3048e7)" style="fill: #e74c3c; opacity: 0.8; stroke: #ffffff; stroke-width: 0.5; stroke-linejoin: miter"/>
   </g>
   <g id="patch_33">
    <path d="M 569.252215 205.330518 
L 587.244539 205.330518 
L 587.244539 247.34246 
L 569.252215 247.34246 
z
" clip-path="url(#p4e9e3048e7)" style="fill: #e74c3c; opacity: 0.8; stroke: #ffffff; stroke-width: 0.5; stroke-linejoin: miter"/>
   </g>
   <g id="patch_34">
    <path d="M 641.221509 205.330518 
L 659.213833 205.330518 
L 659.213833 216.775217 
L 641.221509 216.775217 
z
" clip-path="url(#p4e9e3048e7)" style="fill: #e74c3c; opacity: 0.8; stroke: #ffffff; stroke-width: 0.5; stroke-linejoin: miter"/>
   </g>
   <g id="patch_35">
    <path d="M 713.190803 205.330518 
L 731.183127 205.330518 
L 731.183127 182.143557 
L 713.190803 182.143557 
z
" clip-path="url(#p4e9e3048e7)" style="fill: #e74c3c; opacity: 0.8; stroke: #ffffff; stroke-width: 0.5; stroke-linejoin: miter"/>
   </g>
   <g id="patch_36">
    <path d="M 785.160097 205.330518 
L 803.152421 205.330518 
L 803.152421 197.162798 
L 785.160097 197.162798 
z
" clip-path="url(#p4e9e3048e7)" style="fill: #e74c3c; opacity: 0.8; stroke: #ffffff; stroke-width: 0.5; stroke-linejoin: miter"/>
   </g>
   <g id="patch_37">
    <path d="M 857.129391 205.330518 
L 875.121715 205.330518 
L 875.121715 228.712977 
L 857.129391 228.712977 
z
" clip-path="url(#p4e9e3048e7)" style="fill: #e74c3c; opacity: 0.8; stroke: #ffffff; stroke-width: 0.5; stroke-linejoin: miter"/>
   </g>
   <g id="patch_38">
    <path d="M 929.098685 205.330518 
L 947.091009 205.330518 
L 947.091009 254.997843 
L 929.098685 254.997843 
z
" clip-path="url(#p4e9e3048e7)" style="fill: #e74c3c; opacity: 0.8; stroke: #ffffff; stroke-width: 0.5; stroke-linejoin: miter"/>
   </g>
   <g id="matplotlib.axis_1">
    <g id="xtick_1">
     <g id="line2d_1">
      <defs>
       <path id="mfe316c0f32" d="M 0 0 
L 0 3.5 
" style="stroke: #000000; stroke-width: 0.8"/>
      </defs>
      <g>
       <use xlink:href="#mfe316c0f32" x="128.440289" y="339.001683" style="stroke: #000000; stroke-width: 0.8"/>
      </g>
     </g>
     <g id="text_1">
      <!-- L -->
      <g transform="translate(110.174329 354.095845) rotate(-45) scale(0.09 -0.09)">
       <defs>
        <path id="ArialMT-4c" d="M 469 0 
L 469 4581 
L 1075 4581 
L 1075 541 
L 3331 541 
L 3331 0 
L 469 0 
z
" transform="scale(0.015625)"/>
       </defs>
       <use xlink:href="#ArialMT-4c"/>
      </g>
      <!-- STG -->
      <g transform="translate(107.362453 370.369886) rotate(-45) scale(0.09 -0.09)">
       <defs>
        <path id="ArialMT-53" d="M 288 1472 
L 859 1522 
Q 900 1178 1048 958 
Q 1197 738 1509 602 
Q 1822 466 2213 466 
Q 2559 466 2825 569 
Q 3091 672 3220 851 
Q 3350 1031 3350 1244 
Q 3350 1459 3225 1620 
Q 3100 1781 2813 1891 
Q 2628 1963 1997 2114 
Q 1366 2266 1113 2400 
Q 784 2572 623 2826 
Q 463 3081 463 3397 
Q 463 3744 659 4045 
Q 856 4347 1234 4503 
Q 1613 4659 2075 4659 
Q 2584 4659 2973 4495 
Q 3363 4331 3572 4012 
Q 3781 3694 3797 3291 
L 3216 3247 
Q 3169 3681 2898 3903 
Q 2628 4125 2100 4125 
Q 1550 4125 1298 3923 
Q 1047 3722 1047 3438 
Q 1047 3191 1225 3031 
Q 1400 2872 2139 2705 
Q 2878 2538 3153 2413 
Q 3553 2228 3743 1945 
Q 3934 1663 3934 1294 
Q 3934 928 3725 604 
Q 3516 281 3123 101 
Q 2731 -78 2241 -78 
Q 1619 -78 1198 103 
Q 778 284 539 648 
Q 300 1013 288 1472 
z
" transform="scale(0.015625)"/>
        <path id="ArialMT-54" d="M 1659 0 
L 1659 4041 
L 150 4041 
L 150 4581 
L 3781 4581 
L 3781 4041 
L 2266 4041 
L 2266 0 
L 1659 0 
z
" transform="scale(0.015625)"/>
        <path id="ArialMT-47" d="M 2638 1797 
L 2638 2334 
L 4578 2338 
L 4578 638 
Q 4131 281 3656 101 
Q 3181 -78 2681 -78 
Q 2006 -78 1454 211 
Q 903 500 622 1047 
Q 341 1594 341 2269 
Q 341 2938 620 3517 
Q 900 4097 1425 4378 
Q 1950 4659 2634 4659 
Q 3131 4659 3532 4498 
Q 3934 4338 4162 4050 
Q 4391 3763 4509 3300 
L 3963 3150 
Q 3859 3500 3706 3700 
Q 3553 3900 3268 4020 
Q 2984 4141 2638 4141 
Q 2222 4141 1919 4014 
Q 1616 3888 1430 3681 
Q 1244 3475 1141 3228 
Q 966 2803 966 2306 
Q 966 1694 1177 1281 
Q 1388 869 1791 669 
Q 2194 469 2647 469 
Q 3041 469 3416 620 
Q 3791 772 3984 944 
L 3984 1797 
L 2638 1797 
z
" transform="scale(0.015625)"/>
       </defs>
       <use xlink:href="#ArialMT-53"/>
       <use xlink:href="#ArialMT-54" transform="translate(66.699219 0)"/>
       <use xlink:href="#ArialMT-47" transform="translate(127.783203 0)"/>
      </g>
      <!-- posterior -->
      <g transform="translate(102.417655 388.776848) rotate(-45) scale(0.09 -0.09)">
       <defs>
        <path id="ArialMT-70" d="M 422 -1272 
L 422 3319 
L 934 3319 
L 934 2888 
Q 1116 3141 1344 3267 
Q 1572 3394 1897 3394 
Q 2322 3394 2647 3175 
Q 2972 2956 3137 2557 
Q 3303 2159 3303 1684 
Q 3303 1175 3120 767 
Q 2938 359 2589 142 
Q 2241 -75 1856 -75 
Q 1575 -75 1351 44 
Q 1128 163 984 344 
L 984 -1272 
L 422 -1272 
z
M 931 1641 
Q 931 1000 1190 694 
Q 1450 388 1819 388 
Q 2194 388 2461 705 
Q 2728 1022 2728 1688 
Q 2728 2322 2467 2637 
Q 2206 2953 1844 2953 
Q 1484 2953 1207 2617 
Q 931 2281 931 1641 
z
" transform="scale(0.015625)"/>
        <path id="ArialMT-6f" d="M 213 1659 
Q 213 2581 725 3025 
Q 1153 3394 1769 3394 
Q 2453 3394 2887 2945 
Q 3322 2497 3322 1706 
Q 3322 1066 3130 698 
Q 2938 331 2570 128 
Q 2203 -75 1769 -75 
Q 1072 -75 642 372 
Q 213 819 213 1659 
z
M 791 1659 
Q 791 1022 1069 705 
Q 1347 388 1769 388 
Q 2188 388 2466 706 
Q 2744 1025 2744 1678 
Q 2744 2294 2464 2611 
Q 2184 2928 1769 2928 
Q 1347 2928 1069 2612 
Q 791 2297 791 1659 
z
" transform="scale(0.015625)"/>
        <path id="ArialMT-73" d="M 197 991 
L 753 1078 
Q 800 744 1014 566 
Q 1228 388 1613 388 
Q 2000 388 2187 545 
Q 2375 703 2375 916 
Q 2375 1106 2209 1216 
Q 2094 1291 1634 1406 
Q 1016 1563 777 1677 
Q 538 1791 414 1992 
Q 291 2194 291 2438 
Q 291 2659 392 2848 
Q 494 3038 669 3163 
Q 800 3259 1026 3326 
Q 1253 3394 1513 3394 
Q 1903 3394 2198 3281 
Q 2494 3169 2634 2976 
Q 2775 2784 2828 2463 
L 2278 2388 
Q 2241 2644 2061 2787 
Q 1881 2931 1553 2931 
Q 1166 2931 1000 2803 
Q 834 2675 834 2503 
Q 834 2394 903 2306 
Q 972 2216 1119 2156 
Q 1203 2125 1616 2013 
Q 2213 1853 2448 1751 
Q 2684 1650 2818 1456 
Q 2953 1263 2953 975 
Q 2953 694 2789 445 
Q 2625 197 2315 61 
Q 2006 -75 1616 -75 
Q 969 -75 630 194 
Q 291 463 197 991 
z
" transform="scale(0.015625)"/>
        <path id="ArialMT-74" d="M 1650 503 
L 1731 6 
Q 1494 -44 1306 -44 
Q 1000 -44 831 53 
Q 663 150 594 308 
Q 525 466 525 972 
L 525 2881 
L 113 2881 
L 113 3319 
L 525 3319 
L 525 4141 
L 1084 4478 
L 1084 3319 
L 1650 3319 
L 1650 2881 
L 1084 2881 
L 1084 941 
Q 1084 700 1114 631 
Q 1144 563 1211 522 
Q 1278 481 1403 481 
Q 1497 481 1650 503 
z
" transform="scale(0.015625)"/>
        <path id="ArialMT-65" d="M 2694 1069 
L 3275 997 
Q 3138 488 2766 206 
Q 2394 -75 1816 -75 
Q 1088 -75 661 373 
Q 234 822 234 1631 
Q 234 2469 665 2931 
Q 1097 3394 1784 3394 
Q 2450 3394 2872 2941 
Q 3294 2488 3294 1666 
Q 3294 1616 3291 1516 
L 816 1516 
Q 847 969 1125 678 
Q 1403 388 1819 388 
Q 2128 388 2347 550 
Q 2566 713 2694 1069 
z
M 847 1978 
L 2700 1978 
Q 2663 2397 2488 2606 
Q 2219 2931 1791 2931 
Q 1403 2931 1139 2672 
Q 875 2413 847 1978 
z
" transform="scale(0.015625)"/>
        <path id="ArialMT-72" d="M 416 0 
L 416 3319 
L 922 3319 
L 922 2816 
Q 1116 3169 1280 3281 
Q 1444 3394 1641 3394 
Q 1925 3394 2219 3213 
L 2025 2691 
Q 1819 2813 1613 2813 
Q 1428 2813 1281 2702 
Q 1134 2591 1072 2394 
Q 978 2094 978 1738 
L 978 0 
L 416 0 
z
" transform="scale(0.015625)"/>
        <path id="ArialMT-69" d="M 425 3934 
L 425 4581 
L 988 4581 
L 988 3934 
L 425 3934 
z
M 425 0 
L 425 3319 
L 988 3319 
L 988 0 
L 425 0 
z
" transform="scale(0.015625)"/>
       </defs>
       <use xlink:href="#ArialMT-70"/>
       <use xlink:href="#ArialMT-6f" transform="translate(55.615234 0)"/>
       <use xlink:href="#ArialMT-73" transform="translate(111.230469 0)"/>
       <use xlink:href="#ArialMT-74" transform="translate(161.230469 0)"/>
       <use xlink:href="#ArialMT-65" transform="translate(189.013672 0)"/>
       <use xlink:href="#ArialMT-72" transform="translate(244.628906 0)"/>
       <use xlink:href="#ArialMT-69" transform="translate(277.929688 0)"/>
       <use xlink:href="#ArialMT-6f" transform="translate(300.146484 0)"/>
       <use xlink:href="#ArialMT-72" transform="translate(355.761719 0)"/>
      </g>
     </g>
    </g>
    <g id="xtick_2">
     <g id="line2d_2">
      <g>
       <use xlink:href="#mfe316c0f32" x="200.409583" y="339.001683" style="stroke: #000000; stroke-width: 0.8"/>
      </g>
     </g>
     <g id="text_2">
      <!-- L -->
      <g transform="translate(182.143623 354.095845) rotate(-45) scale(0.09 -0.09)">
       <use xlink:href="#ArialMT-4c"/>
      </g>
      <!-- STG -->
      <g transform="translate(179.331747 370.369886) rotate(-45) scale(0.09 -0.09)">
       <use xlink:href="#ArialMT-53"/>
       <use xlink:href="#ArialMT-54" transform="translate(66.699219 0)"/>
       <use xlink:href="#ArialMT-47" transform="translate(127.783203 0)"/>
      </g>
      <!-- anterior -->
      <g transform="translate(177.568929 385.594867) rotate(-45) scale(0.09 -0.09)">
       <defs>
        <path id="ArialMT-61" d="M 2588 409 
Q 2275 144 1986 34 
Q 1697 -75 1366 -75 
Q 819 -75 525 192 
Q 231 459 231 875 
Q 231 1119 342 1320 
Q 453 1522 633 1644 
Q 813 1766 1038 1828 
Q 1203 1872 1538 1913 
Q 2219 1994 2541 2106 
Q 2544 2222 2544 2253 
Q 2544 2597 2384 2738 
Q 2169 2928 1744 2928 
Q 1347 2928 1158 2789 
Q 969 2650 878 2297 
L 328 2372 
Q 403 2725 575 2942 
Q 747 3159 1072 3276 
Q 1397 3394 1825 3394 
Q 2250 3394 2515 3294 
Q 2781 3194 2906 3042 
Q 3031 2891 3081 2659 
Q 3109 2516 3109 2141 
L 3109 1391 
Q 3109 606 3145 398 
Q 3181 191 3288 0 
L 2700 0 
Q 2613 175 2588 409 
z
M 2541 1666 
Q 2234 1541 1622 1453 
Q 1275 1403 1131 1340 
Q 988 1278 909 1158 
Q 831 1038 831 891 
Q 831 666 1001 516 
Q 1172 366 1500 366 
Q 1825 366 2078 508 
Q 2331 650 2450 897 
Q 2541 1088 2541 1459 
L 2541 1666 
z
" transform="scale(0.015625)"/>
        <path id="ArialMT-6e" d="M 422 0 
L 422 3319 
L 928 3319 
L 928 2847 
Q 1294 3394 1984 3394 
Q 2284 3394 2536 3286 
Q 2788 3178 2913 3003 
Q 3038 2828 3088 2588 
Q 3119 2431 3119 2041 
L 3119 0 
L 2556 0 
L 2556 2019 
Q 2556 2363 2490 2533 
Q 2425 2703 2258 2804 
Q 2091 2906 1866 2906 
Q 1506 2906 1245 2678 
Q 984 2450 984 1813 
L 984 0 
L 422 0 
z
" transform="scale(0.015625)"/>
       </defs>
       <use xlink:href="#ArialMT-61"/>
       <use xlink:href="#ArialMT-6e" transform="translate(55.615234 0)"/>
       <use xlink:href="#ArialMT-74" transform="translate(111.230469 0)"/>
       <use xlink:href="#ArialMT-65" transform="translate(139.013672 0)"/>
       <use xlink:href="#ArialMT-72" transform="translate(194.628906 0)"/>
       <use xlink:href="#ArialMT-69" transform="translate(227.929688 0)"/>
       <use xlink:href="#ArialMT-6f" transform="translate(250.146484 0)"/>
       <use xlink:href="#ArialMT-72" transform="translate(305.761719 0)"/>
      </g>
     </g>
    </g>
    <g id="xtick_3">
     <g id="line2d_3">
      <g>
       <use xlink:href="#mfe316c0f32" x="272.378877" y="339.001683" style="stroke: #000000; stroke-width: 0.8"/>
      </g>
     </g>
     <g id="text_3">
      <!-- L -->
      <g transform="translate(260.843999 354.095845) rotate(-45) scale(0.09 -0.09)">
       <use xlink:href="#ArialMT-4c"/>
      </g>
      <!-- MTG -->
      <g transform="translate(256.976103 371.425906) rotate(-45) scale(0.09 -0.09)">
       <defs>
        <path id="ArialMT-4d" d="M 475 0 
L 475 4581 
L 1388 4581 
L 2472 1338 
Q 2622 884 2691 659 
Q 2769 909 2934 1394 
L 4031 4581 
L 4847 4581 
L 4847 0 
L 4263 0 
L 4263 3834 
L 2931 0 
L 2384 0 
L 1059 3900 
L 1059 0 
L 475 0 
z
" transform="scale(0.015625)"/>
       </defs>
       <use xlink:href="#ArialMT-4d"/>
       <use xlink:href="#ArialMT-54" transform="translate(83.300781 0)"/>
       <use xlink:href="#ArialMT-47" transform="translate(144.384766 0)"/>
      </g>
     </g>
    </g>
    <g id="xtick_4">
     <g id="line2d_4">
      <g>
       <use xlink:href="#mfe316c0f32" x="344.348171" y="339.001683" style="stroke: #000000; stroke-width: 0.8"/>
      </g>
     </g>
     <g id="text_4">
      <!-- L -->
      <g transform="translate(326.007633 354.095845) rotate(-45) scale(0.09 -0.09)">
       <use xlink:href="#ArialMT-4c"/>
      </g>
      <!-- IFG -->
      <g transform="translate(325.67273 367.892913) rotate(-45) scale(0.09 -0.09)">
       <defs>
        <path id="ArialMT-49" d="M 597 0 
L 597 4581 
L 1203 4581 
L 1203 0 
L 597 0 
z
" transform="scale(0.015625)"/>
        <path id="ArialMT-46" d="M 525 0 
L 525 4581 
L 3616 4581 
L 3616 4041 
L 1131 4041 
L 1131 2622 
L 3281 2622 
L 3281 2081 
L 1131 2081 
L 1131 0 
L 525 0 
z
" transform="scale(0.015625)"/>
       </defs>
       <use xlink:href="#ArialMT-49"/>
       <use xlink:href="#ArialMT-46" transform="translate(27.783203 0)"/>
       <use xlink:href="#ArialMT-47" transform="translate(88.867188 0)"/>
      </g>
      <!-- triangularis -->
      <g transform="translate(311.884015 395.143792) rotate(-45) scale(0.09 -0.09)">
       <defs>
        <path id="ArialMT-67" d="M 319 -275 
L 866 -356 
Q 900 -609 1056 -725 
Q 1266 -881 1628 -881 
Q 2019 -881 2231 -725 
Q 2444 -569 2519 -288 
Q 2563 -116 2559 434 
Q 2191 0 1641 0 
Q 956 0 581 494 
Q 206 988 206 1678 
Q 206 2153 378 2554 
Q 550 2956 876 3175 
Q 1203 3394 1644 3394 
Q 2231 3394 2613 2919 
L 2613 3319 
L 3131 3319 
L 3131 450 
Q 3131 -325 2973 -648 
Q 2816 -972 2473 -1159 
Q 2131 -1347 1631 -1347 
Q 1038 -1347 672 -1080 
Q 306 -813 319 -275 
z
M 784 1719 
Q 784 1066 1043 766 
Q 1303 466 1694 466 
Q 2081 466 2343 764 
Q 2606 1063 2606 1700 
Q 2606 2309 2336 2618 
Q 2066 2928 1684 2928 
Q 1309 2928 1046 2623 
Q 784 2319 784 1719 
z
" transform="scale(0.015625)"/>
        <path id="ArialMT-75" d="M 2597 0 
L 2597 488 
Q 2209 -75 1544 -75 
Q 1250 -75 995 37 
Q 741 150 617 320 
Q 494 491 444 738 
Q 409 903 409 1263 
L 409 3319 
L 972 3319 
L 972 1478 
Q 972 1038 1006 884 
Q 1059 663 1231 536 
Q 1403 409 1656 409 
Q 1909 409 2131 539 
Q 2353 669 2445 892 
Q 2538 1116 2538 1541 
L 2538 3319 
L 3100 3319 
L 3100 0 
L 2597 0 
z
" transform="scale(0.015625)"/>
        <path id="ArialMT-6c" d="M 409 0 
L 409 4581 
L 972 4581 
L 972 0 
L 409 0 
z
" transform="scale(0.015625)"/>
       </defs>
       <use xlink:href="#ArialMT-74"/>
       <use xlink:href="#ArialMT-72" transform="translate(27.783203 0)"/>
       <use xlink:href="#ArialMT-69" transform="translate(61.083984 0)"/>
       <use xlink:href="#ArialMT-61" transform="translate(83.300781 0)"/>
       <use xlink:href="#ArialMT-6e" transform="translate(138.916016 0)"/>
       <use xlink:href="#ArialMT-67" transform="translate(194.53125 0)"/>
       <use xlink:href="#ArialMT-75" transform="translate(250.146484 0)"/>
       <use xlink:href="#ArialMT-6c" transform="translate(305.761719 0)"/>
       <use xlink:href="#ArialMT-61" transform="translate(327.978516 0)"/>
       <use xlink:href="#ArialMT-72" transform="translate(383.59375 0)"/>
       <use xlink:href="#ArialMT-69" transform="translate(416.894531 0)"/>
       <use xlink:href="#ArialMT-73" transform="translate(439.111328 0)"/>
      </g>
     </g>
    </g>
    <g id="xtick_5">
     <g id="line2d_5">
      <g>
       <use xlink:href="#mfe316c0f32" x="416.317465" y="339.001683" style="stroke: #000000; stroke-width: 0.8"/>
      </g>
     </g>
     <g id="text_5">
      <!-- L -->
      <g transform="translate(398.051505 354.095845) rotate(-45) scale(0.09 -0.09)">
       <use xlink:href="#ArialMT-4c"/>
      </g>
      <!-- IFG -->
      <g transform="translate(397.716602 367.892913) rotate(-45) scale(0.09 -0.09)">
       <use xlink:href="#ArialMT-49"/>
       <use xlink:href="#ArialMT-46" transform="translate(27.783203 0)"/>
       <use xlink:href="#ArialMT-47" transform="translate(88.867188 0)"/>
      </g>
      <!-- opercularis -->
      <g transform="translate(383.927887 395.143792) rotate(-45) scale(0.09 -0.09)">
       <defs>
        <path id="ArialMT-63" d="M 2588 1216 
L 3141 1144 
Q 3050 572 2676 248 
Q 2303 -75 1759 -75 
Q 1078 -75 664 370 
Q 250 816 250 1647 
Q 250 2184 428 2587 
Q 606 2991 970 3192 
Q 1334 3394 1763 3394 
Q 2303 3394 2647 3120 
Q 2991 2847 3088 2344 
L 2541 2259 
Q 2463 2594 2264 2762 
Q 2066 2931 1784 2931 
Q 1359 2931 1093 2626 
Q 828 2322 828 1663 
Q 828 994 1084 691 
Q 1341 388 1753 388 
Q 2084 388 2306 591 
Q 2528 794 2588 1216 
z
" transform="scale(0.015625)"/>
       </defs>
       <use xlink:href="#ArialMT-6f"/>
       <use xlink:href="#ArialMT-70" transform="translate(55.615234 0)"/>
       <use xlink:href="#ArialMT-65" transform="translate(111.230469 0)"/>
       <use xlink:href="#ArialMT-72" transform="translate(166.845703 0)"/>
       <use xlink:href="#ArialMT-63" transform="translate(200.146484 0)"/>
       <use xlink:href="#ArialMT-75" transform="translate(250.146484 0)"/>
       <use xlink:href="#ArialMT-6c" transform="translate(305.761719 0)"/>
       <use xlink:href="#ArialMT-61" transform="translate(327.978516 0)"/>
       <use xlink:href="#ArialMT-72" transform="translate(383.59375 0)"/>
       <use xlink:href="#ArialMT-69" transform="translate(416.894531 0)"/>
       <use xlink:href="#ArialMT-73" transform="translate(439.111328 0)"/>
      </g>
     </g>
    </g>
    <g id="xtick_6">
     <g id="line2d_6">
      <g>
       <use xlink:href="#mfe316c0f32" x="488.286759" y="339.001683" style="stroke: #000000; stroke-width: 0.8"/>
      </g>
     </g>
     <g id="text_6">
      <!-- L -->
      <g transform="translate(476.751881 354.095845) rotate(-45) scale(0.09 -0.09)">
       <use xlink:href="#ArialMT-4c"/>
      </g>
      <!-- STS -->
      <g transform="translate(474.645012 369.664878) rotate(-45) scale(0.09 -0.09)">
       <use xlink:href="#ArialMT-53"/>
       <use xlink:href="#ArialMT-54" transform="translate(66.699219 0)"/>
       <use xlink:href="#ArialMT-53" transform="translate(127.783203 0)"/>
      </g>
     </g>
    </g>
    <g id="xtick_7">
     <g id="line2d_7">
      <g>
       <use xlink:href="#mfe316c0f32" x="560.256053" y="339.001683" style="stroke: #000000; stroke-width: 0.8"/>
      </g>
     </g>
     <g id="text_7">
      <!-- R -->
      <g transform="translate(540.933079 355.15286) rotate(-45) scale(0.09 -0.09)">
       <defs>
        <path id="ArialMT-52" d="M 503 0 
L 503 4581 
L 2534 4581 
Q 3147 4581 3465 4457 
Q 3784 4334 3975 4021 
Q 4166 3709 4166 3331 
Q 4166 2844 3850 2509 
Q 3534 2175 2875 2084 
Q 3116 1969 3241 1856 
Q 3506 1613 3744 1247 
L 4541 0 
L 3778 0 
L 3172 953 
Q 2906 1366 2734 1584 
Q 2563 1803 2427 1890 
Q 2291 1978 2150 2013 
Q 2047 2034 1813 2034 
L 1109 2034 
L 1109 0 
L 503 0 
z
M 1109 2559 
L 2413 2559 
Q 2828 2559 3062 2645 
Q 3297 2731 3419 2920 
Q 3541 3109 3541 3331 
Q 3541 3656 3305 3865 
Q 3069 4075 2559 4075 
L 1109 4075 
L 1109 2559 
z
" transform="scale(0.015625)"/>
       </defs>
       <use xlink:href="#ArialMT-52"/>
      </g>
      <!-- STG -->
      <g transform="translate(539.178217 370.369886) rotate(-45) scale(0.09 -0.09)">
       <use xlink:href="#ArialMT-53"/>
       <use xlink:href="#ArialMT-54" transform="translate(66.699219 0)"/>
       <use xlink:href="#ArialMT-47" transform="translate(127.783203 0)"/>
      </g>
      <!-- posterior -->
      <g transform="translate(534.233419 388.776848) rotate(-45) scale(0.09 -0.09)">
       <use xlink:href="#ArialMT-70"/>
       <use xlink:href="#ArialMT-6f" transform="translate(55.615234 0)"/>
       <use xlink:href="#ArialMT-73" transform="translate(111.230469 0)"/>
       <use xlink:href="#ArialMT-74" transform="translate(161.230469 0)"/>
       <use xlink:href="#ArialMT-65" transform="translate(189.013672 0)"/>
       <use xlink:href="#ArialMT-72" transform="translate(244.628906 0)"/>
       <use xlink:href="#ArialMT-69" transform="translate(277.929688 0)"/>
       <use xlink:href="#ArialMT-6f" transform="translate(300.146484 0)"/>
       <use xlink:href="#ArialMT-72" transform="translate(355.761719 0)"/>
      </g>
     </g>
    </g>
    <g id="xtick_8">
     <g id="line2d_8">
      <g>
       <use xlink:href="#mfe316c0f32" x="632.225347" y="339.001683" style="stroke: #000000; stroke-width: 0.8"/>
      </g>
     </g>
     <g id="text_8">
      <!-- R -->
      <g transform="translate(612.902373 355.15286) rotate(-45) scale(0.09 -0.09)">
       <use xlink:href="#ArialMT-52"/>
      </g>
      <!-- STG -->
      <g transform="translate(611.147511 370.369886) rotate(-45) scale(0.09 -0.09)">
       <use xlink:href="#ArialMT-53"/>
       <use xlink:href="#ArialMT-54" transform="translate(66.699219 0)"/>
       <use xlink:href="#ArialMT-47" transform="translate(127.783203 0)"/>
      </g>
      <!-- anterior -->
      <g transform="translate(609.384693 385.594867) rotate(-45) scale(0.09 -0.09)">
       <use xlink:href="#ArialMT-61"/>
       <use xlink:href="#ArialMT-6e" transform="translate(55.615234 0)"/>
       <use xlink:href="#ArialMT-74" transform="translate(111.230469 0)"/>
       <use xlink:href="#ArialMT-65" transform="translate(139.013672 0)"/>
       <use xlink:href="#ArialMT-72" transform="translate(194.628906 0)"/>
       <use xlink:href="#ArialMT-69" transform="translate(227.929688 0)"/>
       <use xlink:href="#ArialMT-6f" transform="translate(250.146484 0)"/>
       <use xlink:href="#ArialMT-72" transform="translate(305.761719 0)"/>
      </g>
     </g>
    </g>
    <g id="xtick_9">
     <g id="line2d_9">
      <g>
       <use xlink:href="#mfe316c0f32" x="704.194641" y="339.001683" style="stroke: #000000; stroke-width: 0.8"/>
      </g>
     </g>
     <g id="text_9">
      <!-- R -->
      <g transform="translate(691.602749 355.15286) rotate(-45) scale(0.09 -0.09)">
       <use xlink:href="#ArialMT-52"/>
      </g>
      <!-- MTG -->
      <g transform="translate(688.791867 371.425906) rotate(-45) scale(0.09 -0.09)">
       <use xlink:href="#ArialMT-4d"/>
       <use xlink:href="#ArialMT-54" transform="translate(83.300781 0)"/>
       <use xlink:href="#ArialMT-47" transform="translate(144.384766 0)"/>
      </g>
     </g>
    </g>
    <g id="xtick_10">
     <g id="line2d_10">
      <g>
       <use xlink:href="#mfe316c0f32" x="776.163935" y="339.001683" style="stroke: #000000; stroke-width: 0.8"/>
      </g>
     </g>
     <g id="text_10">
      <!-- R -->
      <g transform="translate(763.572043 355.15286) rotate(-45) scale(0.09 -0.09)">
       <use xlink:href="#ArialMT-52"/>
      </g>
      <!-- IFG -->
      <g transform="translate(764.294154 367.892913) rotate(-45) scale(0.09 -0.09)">
       <use xlink:href="#ArialMT-49"/>
       <use xlink:href="#ArialMT-46" transform="translate(27.783203 0)"/>
       <use xlink:href="#ArialMT-47" transform="translate(88.867188 0)"/>
      </g>
     </g>
    </g>
    <g id="xtick_11">
     <g id="line2d_11">
      <g>
       <use xlink:href="#mfe316c0f32" x="848.133229" y="339.001683" style="stroke: #000000; stroke-width: 0.8"/>
      </g>
     </g>
     <g id="text_11">
      <!-- L -->
      <g transform="translate(836.598351 354.095845) rotate(-45) scale(0.09 -0.09)">
       <use xlink:href="#ArialMT-4c"/>
      </g>
      <!-- Heschl -->
      <g transform="translate(827.416547 376.739813) rotate(-45) scale(0.09 -0.09)">
       <defs>
        <path id="ArialMT-48" d="M 513 0 
L 513 4581 
L 1119 4581 
L 1119 2700 
L 3500 2700 
L 3500 4581 
L 4106 4581 
L 4106 0 
L 3500 0 
L 3500 2159 
L 1119 2159 
L 1119 0 
L 513 0 
z
" transform="scale(0.015625)"/>
        <path id="ArialMT-68" d="M 422 0 
L 422 4581 
L 984 4581 
L 984 2938 
Q 1378 3394 1978 3394 
Q 2347 3394 2619 3248 
Q 2891 3103 3008 2847 
Q 3125 2591 3125 2103 
L 3125 0 
L 2563 0 
L 2563 2103 
Q 2563 2525 2380 2717 
Q 2197 2909 1863 2909 
Q 1613 2909 1392 2779 
Q 1172 2650 1078 2428 
Q 984 2206 984 1816 
L 984 0 
L 422 0 
z
" transform="scale(0.015625)"/>
       </defs>
       <use xlink:href="#ArialMT-48"/>
       <use xlink:href="#ArialMT-65" transform="translate(72.216797 0)"/>
       <use xlink:href="#ArialMT-73" transform="translate(127.832031 0)"/>
       <use xlink:href="#ArialMT-63" transform="translate(177.832031 0)"/>
       <use xlink:href="#ArialMT-68" transform="translate(227.832031 0)"/>
       <use xlink:href="#ArialMT-6c" transform="translate(283.447266 0)"/>
      </g>
     </g>
    </g>
    <g id="xtick_12">
     <g id="line2d_12">
      <g>
       <use xlink:href="#mfe316c0f32" x="920.102523" y="339.001683" style="stroke: #000000; stroke-width: 0.8"/>
      </g>
     </g>
     <g id="text_12">
      <!-- R -->
      <g transform="translate(907.510631 355.15286) rotate(-45) scale(0.09 -0.09)">
       <use xlink:href="#ArialMT-52"/>
      </g>
      <!-- Heschl -->
      <g transform="translate(899.385841 376.739813) rotate(-45) scale(0.09 -0.09)">
       <use xlink:href="#ArialMT-48"/>
       <use xlink:href="#ArialMT-65" transform="translate(72.216797 0)"/>
       <use xlink:href="#ArialMT-73" transform="translate(127.832031 0)"/>
       <use xlink:href="#ArialMT-63" transform="translate(177.832031 0)"/>
       <use xlink:href="#ArialMT-68" transform="translate(227.832031 0)"/>
       <use xlink:href="#ArialMT-6c" transform="translate(283.447266 0)"/>
      </g>
     </g>
    </g>
    <g id="text_13">
     <!-- Region of Interest -->
     <g transform="translate(469.020625 410.674769) scale(0.14 -0.14)">
      <defs>
       <path id="ArialMT-20" transform="scale(0.015625)"/>
       <path id="ArialMT-66" d="M 556 0 
L 556 2881 
L 59 2881 
L 59 3319 
L 556 3319 
L 556 3672 
Q 556 4006 616 4169 
Q 697 4388 901 4523 
Q 1106 4659 1475 4659 
Q 1713 4659 2000 4603 
L 1916 4113 
Q 1741 4144 1584 4144 
Q 1328 4144 1222 4034 
Q 1116 3925 1116 3625 
L 1116 3319 
L 1763 3319 
L 1763 2881 
L 1116 2881 
L 1116 0 
L 556 0 
z
" transform="scale(0.015625)"/>
      </defs>
      <use xlink:href="#ArialMT-52"/>
      <use xlink:href="#ArialMT-65" transform="translate(72.216797 0)"/>
      <use xlink:href="#ArialMT-67" transform="translate(127.832031 0)"/>
      <use xlink:href="#ArialMT-69" transform="translate(183.447266 0)"/>
      <use xlink:href="#ArialMT-6f" transform="translate(205.664062 0)"/>
      <use xlink:href="#ArialMT-6e" transform="translate(261.279297 0)"/>
      <use xlink:href="#ArialMT-20" transform="translate(316.894531 0)"/>
      <use xlink:href="#ArialMT-6f" transform="translate(344.677734 0)"/>
      <use xlink:href="#ArialMT-66" transform="translate(400.292969 0)"/>
      <use xlink:href="#ArialMT-20" transform="translate(428.076172 0)"/>
      <use xlink:href="#ArialMT-49" transform="translate(455.859375 0)"/>
      <use xlink:href="#ArialMT-6e" transform="translate(483.642578 0)"/>
      <use xlink:href="#ArialMT-74" transform="translate(539.257812 0)"/>
      <use xlink:href="#ArialMT-65" transform="translate(567.041016 0)"/>
      <use xlink:href="#ArialMT-72" transform="translate(622.65625 0)"/>
      <use xlink:href="#ArialMT-65" transform="translate(655.957031 0)"/>
      <use xlink:href="#ArialMT-73" transform="translate(711.572266 0)"/>
      <use xlink:href="#ArialMT-74" transform="translate(761.572266 0)"/>
     </g>
    </g>
   </g>
   <g id="matplotlib.axis_2">
    <g id="ytick_1">
     <g id="line2d_13">
      <defs>
       <path id="m007bcf38a8" d="M 0 0 
L -3.5 0 
" style="stroke: #000000; stroke-width: 0.8"/>
      </defs>
      <g>
       <use xlink:href="#m007bcf38a8" x="59.169844" y="303.669732" style="stroke: #000000; stroke-width: 0.8"/>
      </g>
     </g>
     <g id="text_14">
      <!-- −0.10 -->
      <g transform="translate(24.338125 307.606529) scale(0.11 -0.11)">
       <defs>
        <path id="ArialMT-2212" d="M 3381 1997 
L 356 1997 
L 356 2522 
L 3381 2522 
L 3381 1997 
z
" transform="scale(0.015625)"/>
        <path id="ArialMT-30" d="M 266 2259 
Q 266 3072 433 3567 
Q 600 4063 929 4331 
Q 1259 4600 1759 4600 
Q 2128 4600 2406 4451 
Q 2684 4303 2865 4023 
Q 3047 3744 3150 3342 
Q 3253 2941 3253 2259 
Q 3253 1453 3087 958 
Q 2922 463 2592 192 
Q 2263 -78 1759 -78 
Q 1097 -78 719 397 
Q 266 969 266 2259 
z
M 844 2259 
Q 844 1131 1108 757 
Q 1372 384 1759 384 
Q 2147 384 2411 759 
Q 2675 1134 2675 2259 
Q 2675 3391 2411 3762 
Q 2147 4134 1753 4134 
Q 1366 4134 1134 3806 
Q 844 3388 844 2259 
z
" transform="scale(0.015625)"/>
        <path id="ArialMT-2e" d="M 581 0 
L 581 641 
L 1222 641 
L 1222 0 
L 581 0 
z
" transform="scale(0.015625)"/>
        <path id="ArialMT-31" d="M 2384 0 
L 1822 0 
L 1822 3584 
Q 1619 3391 1289 3197 
Q 959 3003 697 2906 
L 697 3450 
Q 1169 3672 1522 3987 
Q 1875 4303 2022 4600 
L 2384 4600 
L 2384 0 
z
" transform="scale(0.015625)"/>
       </defs>
       <use xlink:href="#ArialMT-2212"/>
       <use xlink:href="#ArialMT-30" transform="translate(58.398438 0)"/>
       <use xlink:href="#ArialMT-2e" transform="translate(114.013672 0)"/>
       <use xlink:href="#ArialMT-31" transform="translate(141.796875 0)"/>
       <use xlink:href="#ArialMT-30" transform="translate(197.412109 0)"/>
      </g>
     </g>
    </g>
    <g id="ytick_2">
     <g id="line2d_14">
      <g>
       <use xlink:href="#m007bcf38a8" x="59.169844" y="254.500125" style="stroke: #000000; stroke-width: 0.8"/>
      </g>
     </g>
     <g id="text_15">
      <!-- −0.05 -->
      <g transform="translate(24.338125 258.436922) scale(0.11 -0.11)">
       <defs>
        <path id="ArialMT-35" d="M 266 1200 
L 856 1250 
Q 922 819 1161 601 
Q 1400 384 1738 384 
Q 2144 384 2425 690 
Q 2706 997 2706 1503 
Q 2706 1984 2436 2262 
Q 2166 2541 1728 2541 
Q 1456 2541 1237 2417 
Q 1019 2294 894 2097 
L 366 2166 
L 809 4519 
L 3088 4519 
L 3088 3981 
L 1259 3981 
L 1013 2750 
Q 1425 3038 1878 3038 
Q 2478 3038 2890 2622 
Q 3303 2206 3303 1553 
Q 3303 931 2941 478 
Q 2500 -78 1738 -78 
Q 1113 -78 717 272 
Q 322 622 266 1200 
z
" transform="scale(0.015625)"/>
       </defs>
       <use xlink:href="#ArialMT-2212"/>
       <use xlink:href="#ArialMT-30" transform="translate(58.398438 0)"/>
       <use xlink:href="#ArialMT-2e" transform="translate(114.013672 0)"/>
       <use xlink:href="#ArialMT-30" transform="translate(141.796875 0)"/>
       <use xlink:href="#ArialMT-35" transform="translate(197.412109 0)"/>
      </g>
     </g>
    </g>
    <g id="ytick_3">
     <g id="line2d_15">
      <g>
       <use xlink:href="#m007bcf38a8" x="59.169844" y="205.330518" style="stroke: #000000; stroke-width: 0.8"/>
      </g>
     </g>
     <g id="text_16">
      <!-- 0.00 -->
      <g transform="translate(30.762813 209.267315) scale(0.11 -0.11)">
       <use xlink:href="#ArialMT-30"/>
       <use xlink:href="#ArialMT-2e" transform="translate(55.615234 0)"/>
       <use xlink:href="#ArialMT-30" transform="translate(83.398438 0)"/>
       <use xlink:href="#ArialMT-30" transform="translate(139.013672 0)"/>
      </g>
     </g>
    </g>
    <g id="ytick_4">
     <g id="line2d_16">
      <g>
       <use xlink:href="#m007bcf38a8" x="59.169844" y="156.160912" style="stroke: #000000; stroke-width: 0.8"/>
      </g>
     </g>
     <g id="text_17">
      <!-- 0.05 -->
      <g transform="translate(30.762813 160.097708) scale(0.11 -0.11)">
       <use xlink:href="#ArialMT-30"/>
       <use xlink:href="#ArialMT-2e" transform="translate(55.615234 0)"/>
       <use xlink:href="#ArialMT-30" transform="translate(83.398438 0)"/>
       <use xlink:href="#ArialMT-35" transform="translate(139.013672 0)"/>
      </g>
     </g>
    </g>
    <g id="ytick_5">
     <g id="line2d_17">
      <g>
       <use xlink:href="#m007bcf38a8" x="59.169844" y="106.991305" style="stroke: #000000; stroke-width: 0.8"/>
      </g>
     </g>
     <g id="text_18">
      <!-- 0.10 -->
      <g transform="translate(30.762813 110.928102) scale(0.11 -0.11)">
       <use xlink:href="#ArialMT-30"/>
       <use xlink:href="#ArialMT-2e" transform="translate(55.615234 0)"/>
       <use xlink:href="#ArialMT-31" transform="translate(83.398438 0)"/>
       <use xlink:href="#ArialMT-30" transform="translate(139.013672 0)"/>
      </g>
     </g>
    </g>
    <g id="ytick_6">
     <g id="line2d_18">
      <g>
       <use xlink:href="#m007bcf38a8" x="59.169844" y="57.821698" style="stroke: #000000; stroke-width: 0.8"/>
      </g>
     </g>
     <g id="text_19">
      <!-- 0.15 -->
      <g transform="translate(30.762813 61.758495) scale(0.11 -0.11)">
       <use xlink:href="#ArialMT-30"/>
       <use xlink:href="#ArialMT-2e" transform="translate(55.615234 0)"/>
       <use xlink:href="#ArialMT-31" transform="translate(83.398438 0)"/>
       <use xlink:href="#ArialMT-35" transform="translate(139.013672 0)"/>
      </g>
     </g>
    </g>
    <g id="text_20">
     <!-- Mean Activation (β) -->
     <g transform="translate(17.391562 241.87506) rotate(-90) scale(0.14 -0.14)">
      <defs>
       <path id="ArialMT-41" d="M -9 0 
L 1750 4581 
L 2403 4581 
L 4278 0 
L 3588 0 
L 3053 1388 
L 1138 1388 
L 634 0 
L -9 0 
z
M 1313 1881 
L 2866 1881 
L 2388 3150 
Q 2169 3728 2063 4100 
Q 1975 3659 1816 3225 
L 1313 1881 
z
" transform="scale(0.015625)"/>
       <path id="ArialMT-76" d="M 1344 0 
L 81 3319 
L 675 3319 
L 1388 1331 
Q 1503 1009 1600 663 
Q 1675 925 1809 1294 
L 2547 3319 
L 3125 3319 
L 1869 0 
L 1344 0 
z
" transform="scale(0.015625)"/>
       <path id="ArialMT-28" d="M 1497 -1347 
Q 1031 -759 709 28 
Q 388 816 388 1659 
Q 388 2403 628 3084 
Q 909 3875 1497 4659 
L 1900 4659 
Q 1522 4009 1400 3731 
Q 1209 3300 1100 2831 
Q 966 2247 966 1656 
Q 966 153 1900 -1347 
L 1497 -1347 
z
" transform="scale(0.015625)"/>
       <path id="ArialMT-3b2" d="M 997 422 
L 997 -1272 
L 438 -1272 
L 438 3144 
Q 438 3672 580 3970 
Q 722 4269 1069 4464 
Q 1416 4659 1841 4659 
Q 2469 4659 2792 4298 
Q 3116 3938 3116 3509 
Q 3116 3091 2855 2834 
Q 2594 2578 2256 2519 
Q 2800 2466 3095 2128 
Q 3391 1791 3391 1297 
Q 3391 766 3042 345 
Q 2694 -75 2034 -75 
Q 1359 -75 997 422 
z
M 1494 2700 
Q 2069 2700 2331 2900 
Q 2594 3100 2594 3478 
Q 2594 3784 2370 3990 
Q 2147 4197 1813 4197 
Q 1522 4197 1308 4044 
Q 1094 3891 1045 3703 
Q 997 3516 997 3047 
L 997 1788 
Q 997 1250 1072 997 
Q 1147 744 1394 541 
Q 1641 338 1963 338 
Q 2353 338 2579 605 
Q 2806 872 2806 1266 
Q 2806 1591 2639 1848 
Q 2472 2106 2226 2198 
Q 1981 2291 1575 2291 
L 1494 2291 
L 1494 2700 
z
" transform="scale(0.015625)"/>
       <path id="ArialMT-29" d="M 791 -1347 
L 388 -1347 
Q 1322 153 1322 1656 
Q 1322 2244 1188 2822 
Q 1081 3291 891 3722 
Q 769 4003 388 4659 
L 791 4659 
Q 1378 3875 1659 3084 
Q 1900 2403 1900 1659 
Q 1900 816 1576 28 
Q 1253 -759 791 -1347 
z
" transform="scale(0.015625)"/>
      </defs>
      <use xlink:href="#ArialMT-4d"/>
      <use xlink:href="#ArialMT-65" transform="translate(83.300781 0)"/>
      <use xlink:href="#ArialMT-61" transform="translate(138.916016 0)"/>
      <use xlink:href="#ArialMT-6e" transform="translate(194.53125 0)"/>
      <use xlink:href="#ArialMT-20" transform="translate(250.146484 0)"/>
      <use xlink:href="#ArialMT-41" transform="translate(272.429688 0)"/>
      <use xlink:href="#ArialMT-63" transform="translate(339.128906 0)"/>
      <use xlink:href="#ArialMT-74" transform="translate(389.128906 0)"/>
      <use xlink:href="#ArialMT-69" transform="translate(416.912109 0)"/>
      <use xlink:href="#ArialMT-76" transform="translate(439.128906 0)"/>
      <use xlink:href="#ArialMT-61" transform="translate(489.128906 0)"/>
      <use xlink:href="#ArialMT-74" transform="translate(544.744141 0)"/>
      <use xlink:href="#ArialMT-69" transform="translate(572.527344 0)"/>
      <use xlink:href="#ArialMT-6f" transform="translate(594.744141 0)"/>
      <use xlink:href="#ArialMT-6e" transform="translate(650.359375 0)"/>
      <use xlink:href="#ArialMT-20" transform="translate(705.974609 0)"/>
      <use xlink:href="#ArialMT-28" transform="translate(733.757812 0)"/>
      <use xlink:href="#ArialMT-3b2" transform="translate(767.058594 0)"/>
      <use xlink:href="#ArialMT-29" transform="translate(824.578125 0)"/>
     </g>
    </g>
   </g>
   <g id="LineCollection_1">
    <path d="M 110.447966 317.631952 
L 110.447966 239.826579 
" clip-path="url(#p4e9e3048e7)" style="fill: none; stroke: #000000; stroke-width: 1.5"/>
    <path d="M 182.41726 239.993329 
L 182.41726 184.994452 
" clip-path="url(#p4e9e3048e7)" style="fill: none; stroke: #000000; stroke-width: 1.5"/>
    <path d="M 254.386554 201.399801 
L 254.386554 141.764147 
" clip-path="url(#p4e9e3048e7)" style="fill: none; stroke: #000000; stroke-width: 1.5"/>
    <path d="M 326.355848 203.334542 
L 326.355848 169.513151 
" clip-path="url(#p4e9e3048e7)" style="fill: none; stroke: #000000; stroke-width: 1.5"/>
    <path d="M 398.325142 210.426933 
L 398.325142 172.558949 
" clip-path="url(#p4e9e3048e7)" style="fill: none; stroke: #000000; stroke-width: 1.5"/>
    <path d="M 470.294436 214.437375 
L 470.294436 160.772873 
" clip-path="url(#p4e9e3048e7)" style="fill: none; stroke: #000000; stroke-width: 1.5"/>
    <path d="M 542.26373 324.713083 
L 542.26373 278.675588 
" clip-path="url(#p4e9e3048e7)" style="fill: none; stroke: #000000; stroke-width: 1.5"/>
    <path d="M 614.233024 261.005931 
L 614.233024 212.998791 
" clip-path="url(#p4e9e3048e7)" style="fill: none; stroke: #000000; stroke-width: 1.5"/>
    <path d="M 686.202318 260.122697 
L 686.202318 206.223393 
" clip-path="url(#p4e9e3048e7)" style="fill: none; stroke: #000000; stroke-width: 1.5"/>
    <path d="M 758.171612 231.248872 
L 758.171612 193.531319 
" clip-path="url(#p4e9e3048e7)" style="fill: none; stroke: #000000; stroke-width: 1.5"/>
    <path d="M 830.140906 288.913643 
L 830.140906 231.056491 
" clip-path="url(#p4e9e3048e7)" style="fill: none; stroke: #000000; stroke-width: 1.5"/>
    <path d="M 902.1102 318.519112 
L 902.1102 266.42687 
" clip-path="url(#p4e9e3048e7)" style="fill: none; stroke: #000000; stroke-width: 1.5"/>
   </g>
   <g id="line2d_19">
    <defs>
     <path id="m297bdc6e2f" d="M 2 0 
L -2 -0 
" style="stroke: #000000"/>
    </defs>
    <g clip-path="url(#p4e9e3048e7)">
     <use xlink:href="#m297bdc6e2f" x="110.447966" y="317.631952" style="fill: #1f77b4; stroke: #000000"/>
     <use xlink:href="#m297bdc6e2f" x="182.41726" y="239.993329" style="fill: #1f77b4; stroke: #000000"/>
     <use xlink:href="#m297bdc6e2f" x="254.386554" y="201.399801" style="fill: #1f77b4; stroke: #000000"/>
     <use xlink:href="#m297bdc6e2f" x="326.355848" y="203.334542" style="fill: #1f77b4; stroke: #000000"/>
     <use xlink:href="#m297bdc6e2f" x="398.325142" y="210.426933" style="fill: #1f77b4; stroke: #000000"/>
     <use xlink:href="#m297bdc6e2f" x="470.294436" y="214.437375" style="fill: #1f77b4; stroke: #000000"/>
     <use xlink:href="#m297bdc6e2f" x="542.26373" y="324.713083" style="fill: #1f77b4; stroke: #000000"/>
     <use xlink:href="#m297bdc6e2f" x="614.233024" y="261.005931" style="fill: #1f77b4; stroke: #000000"/>
     <use xlink:href="#m297bdc6e2f" x="686.202318" y="260.122697" style="fill: #1f77b4; stroke: #000000"/>
     <use xlink:href="#m297bdc6e2f" x="758.171612" y="231.248872" style="fill: #1f77b4; stroke: #000000"/>
     <use xlink:href="#m297bdc6e2f" x="830.140906" y="288.913643" style="fill: #1f77b4; stroke: #000000"/>
     <use xlink:href="#m297bdc6e2f" x="902.1102" y="318.519112" style="fill: #1f77b4; stroke: #000000"/>
    </g>
   </g>
   <g id="line2d_20">
    <g clip-path="url(#p4e9e3048e7)">
     <use xlink:href="#m297bdc6e2f" x="110.447966" y="239.826579" style="fill: #1f77b4; stroke: #000000"/>
     <use xlink:href="#m297bdc6e2f" x="182.41726" y="184.994452" style="fill: #1f77b4; stroke: #000000"/>
     <use xlink:href="#m297bdc6e2f" x="254.386554" y="141.764147" style="fill: #1f77b4; stroke: #000000"/>
     <use xlink:href="#m297bdc6e2f" x="326.355848" y="169.513151" style="fill: #1f77b4; stroke: #000000"/>
     <use xlink:href="#m297bdc6e2f" x="398.325142" y="172.558949" style="fill: #1f77b4; stroke: #000000"/>
     <use xlink:href="#m297bdc6e2f" x="470.294436" y="160.772873" style="fill: #1f77b4; stroke: #000000"/>
     <use xlink:href="#m297bdc6e2f" x="542.26373" y="278.675588" style="fill: #1f77b4; stroke: #000000"/>
     <use xlink:href="#m297bdc6e2f" x="614.233024" y="212.998791" style="fill: #1f77b4; stroke: #000000"/>
     <use xlink:href="#m297bdc6e2f" x="686.202318" y="206.223393" style="fill: #1f77b4; stroke: #000000"/>
     <use xlink:href="#m297bdc6e2f" x="758.171612" y="193.531319" style="fill: #1f77b4; stroke: #000000"/>
     <use xlink:href="#m297bdc6e2f" x="830.140906" y="231.056491" style="fill: #1f77b4; stroke: #000000"/>
     <use xlink:href="#m297bdc6e2f" x="902.1102" y="266.42687" style="fill: #1f77b4; stroke: #000000"/>
    </g>
   </g>
   <g id="LineCollection_2">
    <path d="M 128.440289 310.497372 
L 128.440289 268.026563 
" clip-path="url(#p4e9e3048e7)" style="fill: none; stroke: #000000; stroke-width: 1.5"/>
    <path d="M 200.409583 287.542772 
L 200.409583 235.079577 
" clip-path="url(#p4e9e3048e7)" style="fill: none; stroke: #000000; stroke-width: 1.5"/>
    <path d="M 272.378877 263.142694 
L 272.378877 195.665874 
" clip-path="url(#p4e9e3048e7)" style="fill: none; stroke: #000000; stroke-width: 1.5"/>
    <path d="M 344.348171 232.445264 
L 344.348171 170.031441 
" clip-path="url(#p4e9e3048e7)" style="fill: none; stroke: #000000; stroke-width: 1.5"/>
    <path d="M 416.317465 203.309766 
L 416.317465 175.236487 
" clip-path="url(#p4e9e3048e7)" style="fill: none; stroke: #000000; stroke-width: 1.5"/>
    <path d="M 488.286759 292.828598 
L 488.286759 241.500866 
" clip-path="url(#p4e9e3048e7)" style="fill: none; stroke: #000000; stroke-width: 1.5"/>
    <path d="M 560.256053 301.474346 
L 560.256053 241.198685 
" clip-path="url(#p4e9e3048e7)" style="fill: none; stroke: #000000; stroke-width: 1.5"/>
    <path d="M 632.225347 253.109691 
L 632.225347 218.62459 
" clip-path="url(#p4e9e3048e7)" style="fill: none; stroke: #000000; stroke-width: 1.5"/>
    <path d="M 704.194641 273.142921 
L 704.194641 218.398813 
" clip-path="url(#p4e9e3048e7)" style="fill: none; stroke: #000000; stroke-width: 1.5"/>
    <path d="M 776.163935 250.216773 
L 776.163935 210.64944 
" clip-path="url(#p4e9e3048e7)" style="fill: none; stroke: #000000; stroke-width: 1.5"/>
    <path d="M 848.133229 258.696289 
L 848.133229 212.436789 
" clip-path="url(#p4e9e3048e7)" style="fill: none; stroke: #000000; stroke-width: 1.5"/>
    <path d="M 920.102523 272.237904 
L 920.102523 228.843469 
" clip-path="url(#p4e9e3048e7)" style="fill: none; stroke: #000000; stroke-width: 1.5"/>
   </g>
   <g id="line2d_21">
    <g clip-path="url(#p4e9e3048e7)">
     <use xlink:href="#m297bdc6e2f" x="128.440289" y="310.497372" style="fill: #1f77b4; stroke: #000000"/>
     <use xlink:href="#m297bdc6e2f" x="200.409583" y="287.542772" style="fill: #1f77b4; stroke: #000000"/>
     <use xlink:href="#m297bdc6e2f" x="272.378877" y="263.142694" style="fill: #1f77b4; stroke: #000000"/>
     <use xlink:href="#m297bdc6e2f" x="344.348171" y="232.445264" style="fill: #1f77b4; stroke: #000000"/>
     <use xlink:href="#m297bdc6e2f" x="416.317465" y="203.309766" style="fill: #1f77b4; stroke: #000000"/>
     <use xlink:href="#m297bdc6e2f" x="488.286759" y="292.828598" style="fill: #1f77b4; stroke: #000000"/>
     <use xlink:href="#m297bdc6e2f" x="560.256053" y="301.474346" style="fill: #1f77b4; stroke: #000000"/>
     <use xlink:href="#m297bdc6e2f" x="632.225347" y="253.109691" style="fill: #1f77b4; stroke: #000000"/>
     <use xlink:href="#m297bdc6e2f" x="704.194641" y="273.142921" style="fill: #1f77b4; stroke: #000000"/>
     <use xlink:href="#m297bdc6e2f" x="776.163935" y="250.216773" style="fill: #1f77b4; stroke: #000000"/>
     <use xlink:href="#m297bdc6e2f" x="848.133229" y="258.696289" style="fill: #1f77b4; stroke: #000000"/>
     <use xlink:href="#m297bdc6e2f" x="920.102523" y="272.237904" style="fill: #1f77b4; stroke: #000000"/>
    </g>
   </g>
   <g id="line2d_22">
    <g clip-path="url(#p4e9e3048e7)">
     <use xlink:href="#m297bdc6e2f" x="128.440289" y="268.026563" style="fill: #1f77b4; stroke: #000000"/>
     <use xlink:href="#m297bdc6e2f" x="200.409583" y="235.079577" style="fill: #1f77b4; stroke: #000000"/>
     <use xlink:href="#m297bdc6e2f" x="272.378877" y="195.665874" style="fill: #1f77b4; stroke: #000000"/>
     <use xlink:href="#m297bdc6e2f" x="344.348171" y="170.031441" style="fill: #1f77b4; stroke: #000000"/>
     <use xlink:href="#m297bdc6e2f" x="416.317465" y="175.236487" style="fill: #1f77b4; stroke: #000000"/>
     <use xlink:href="#m297bdc6e2f" x="488.286759" y="241.500866" style="fill: #1f77b4; stroke: #000000"/>
     <use xlink:href="#m297bdc6e2f" x="560.256053" y="241.198685" style="fill: #1f77b4; stroke: #000000"/>
     <use xlink:href="#m297bdc6e2f" x="632.225347" y="218.62459" style="fill: #1f77b4; stroke: #000000"/>
     <use xlink:href="#m297bdc6e2f" x="704.194641" y="218.398813" style="fill: #1f77b4; stroke: #000000"/>
     <use xlink:href="#m297bdc6e2f" x="776.163935" y="210.64944" style="fill: #1f77b4; stroke: #000000"/>
     <use xlink:href="#m297bdc6e2f" x="848.133229" y="212.436789" style="fill: #1f77b4; stroke: #000000"/>
     <use xlink:href="#m297bdc6e2f" x="920.102523" y="228.843469" style="fill: #1f77b4; stroke: #000000"/>
    </g>
   </g>
   <g id="LineCollection_3">
    <path d="M 146.432613 259.629603 
L 146.432613 213.489128 
" clip-path="url(#p4e9e3048e7)" style="fill: none; stroke: #000000; stroke-width: 1.5"/>
    <path d="M 218.401907 199.862993 
L 218.401907 141.614645 
" clip-path="url(#p4e9e3048e7)" style="fill: none; stroke: #000000; stroke-width: 1.5"/>
    <path d="M 290.371201 114.56844 
L 290.371201 38.941099 
" clip-path="url(#p4e9e3048e7)" style="fill: none; stroke: #000000; stroke-width: 1.5"/>
    <path d="M 362.340495 178.232835 
L 362.340495 139.95391 
" clip-path="url(#p4e9e3048e7)" style="fill: none; stroke: #000000; stroke-width: 1.5"/>
    <path d="M 434.309789 193.248879 
L 434.309789 153.722156 
" clip-path="url(#p4e9e3048e7)" style="fill: none; stroke: #000000; stroke-width: 1.5"/>
    <path d="M 506.279083 177.630676 
L 506.279083 122.624745 
" clip-path="url(#p4e9e3048e7)" style="fill: none; stroke: #000000; stroke-width: 1.5"/>
    <path d="M 578.248377 283.252083 
L 578.248377 211.432837 
" clip-path="url(#p4e9e3048e7)" style="fill: none; stroke: #000000; stroke-width: 1.5"/>
    <path d="M 650.217671 234.371341 
L 650.217671 199.179093 
" clip-path="url(#p4e9e3048e7)" style="fill: none; stroke: #000000; stroke-width: 1.5"/>
    <path d="M 722.186965 207.375167 
L 722.186965 156.911948 
" clip-path="url(#p4e9e3048e7)" style="fill: none; stroke: #000000; stroke-width: 1.5"/>
    <path d="M 794.156259 220.183628 
L 794.156259 174.141969 
" clip-path="url(#p4e9e3048e7)" style="fill: none; stroke: #000000; stroke-width: 1.5"/>
    <path d="M 866.125553 259.556388 
L 866.125553 197.869566 
" clip-path="url(#p4e9e3048e7)" style="fill: none; stroke: #000000; stroke-width: 1.5"/>
    <path d="M 938.094847 278.349992 
L 938.094847 231.645694 
" clip-path="url(#p4e9e3048e7)" style="fill: none; stroke: #000000; stroke-width: 1.5"/>
   </g>
   <g id="line2d_23">
    <g clip-path="url(#p4e9e3048e7)">
     <use xlink:href="#m297bdc6e2f" x="146.432613" y="259.629603" style="fill: #1f77b4; stroke: #000000"/>
     <use xlink:href="#m297bdc6e2f" x="218.401907" y="199.862993" style="fill: #1f77b4; stroke: #000000"/>
     <use xlink:href="#m297bdc6e2f" x="290.371201" y="114.56844" style="fill: #1f77b4; stroke: #000000"/>
     <use xlink:href="#m297bdc6e2f" x="362.340495" y="178.232835" style="fill: #1f77b4; stroke: #000000"/>
     <use xlink:href="#m297bdc6e2f" x="434.309789" y="193.248879" style="fill: #1f77b4; stroke: #000000"/>
     <use xlink:href="#m297bdc6e2f" x="506.279083" y="177.630676" style="fill: #1f77b4; stroke: #000000"/>
     <use xlink:href="#m297bdc6e2f" x="578.248377" y="283.252083" style="fill: #1f77b4; stroke: #000000"/>
     <use xlink:href="#m297bdc6e2f" x="650.217671" y="234.371341" style="fill: #1f77b4; stroke: #000000"/>
     <use xlink:href="#m297bdc6e2f" x="722.186965" y="207.375167" style="fill: #1f77b4; stroke: #000000"/>
     <use xlink:href="#m297bdc6e2f" x="794.156259" y="220.183628" style="fill: #1f77b4; stroke: #000000"/>
     <use xlink:href="#m297bdc6e2f" x="866.125553" y="259.556388" style="fill: #1f77b4; stroke: #000000"/>
     <use xlink:href="#m297bdc6e2f" x="938.094847" y="278.349992" style="fill: #1f77b4; stroke: #000000"/>
    </g>
   </g>
   <g id="line2d_24">
    <g clip-path="url(#p4e9e3048e7)">
     <use xlink:href="#m297bdc6e2f" x="146.432613" y="213.489128" style="fill: #1f77b4; stroke: #000000"/>
     <use xlink:href="#m297bdc6e2f" x="218.401907" y="141.614645" style="fill: #1f77b4; stroke: #000000"/>
     <use xlink:href="#m297bdc6e2f" x="290.371201" y="38.941099" style="fill: #1f77b4; stroke: #000000"/>
     <use xlink:href="#m297bdc6e2f" x="362.340495" y="139.95391" style="fill: #1f77b4; stroke: #000000"/>
     <use xlink:href="#m297bdc6e2f" x="434.309789" y="153.722156" style="fill: #1f77b4; stroke: #000000"/>
     <use xlink:href="#m297bdc6e2f" x="506.279083" y="122.624745" style="fill: #1f77b4; stroke: #000000"/>
     <use xlink:href="#m297bdc6e2f" x="578.248377" y="211.432837" style="fill: #1f77b4; stroke: #000000"/>
     <use xlink:href="#m297bdc6e2f" x="650.217671" y="199.179093" style="fill: #1f77b4; stroke: #000000"/>
     <use xlink:href="#m297bdc6e2f" x="722.186965" y="156.911948" style="fill: #1f77b4; stroke: #000000"/>
     <use xlink:href="#m297bdc6e2f" x="794.156259" y="174.141969" style="fill: #1f77b4; stroke: #000000"/>
     <use xlink:href="#m297bdc6e2f" x="866.125553" y="197.869566" style="fill: #1f77b4; stroke: #000000"/>
     <use xlink:href="#m297bdc6e2f" x="938.094847" y="231.645694" style="fill: #1f77b4; stroke: #000000"/>
    </g>
   </g>
   <g id="line2d_25">
    <path d="M 59.169844 205.330518 
L 989.372969 205.330518 
" clip-path="url(#p4e9e3048e7)" style="fill: none; stroke: #808080; stroke-width: 0.5; stroke-linecap: square"/>
   </g>
   <g id="patch_39">
    <path d="M 59.169844 339.001683 
L 59.169844 24.6525 
" style="fill: none; stroke: #000000; stroke-width: 0.8; stroke-linejoin: miter; stroke-linecap: square"/>
   </g>
   <g id="patch_40">
    <path d="M 59.169844 339.001683 
L 989.372969 339.001683 
" style="fill: none; stroke: #000000; stroke-width: 0.8; stroke-linejoin: miter; stroke-linecap: square"/>
   </g>
   <g id="text_21">
    <!-- Sentences Vs Reversed -->
    <g transform="translate(438.451406 18.6525) scale(0.16 -0.16)">
     <defs>
      <path id="ArialMT-56" d="M 1803 0 
L 28 4581 
L 684 4581 
L 1875 1253 
Q 2019 853 2116 503 
Q 2222 878 2363 1253 
L 3600 4581 
L 4219 4581 
L 2425 0 
L 1803 0 
z
" transform="scale(0.015625)"/>
      <path id="ArialMT-64" d="M 2575 0 
L 2575 419 
Q 2259 -75 1647 -75 
Q 1250 -75 917 144 
Q 584 363 401 755 
Q 219 1147 219 1656 
Q 219 2153 384 2558 
Q 550 2963 881 3178 
Q 1213 3394 1622 3394 
Q 1922 3394 2156 3267 
Q 2391 3141 2538 2938 
L 2538 4581 
L 3097 4581 
L 3097 0 
L 2575 0 
z
M 797 1656 
Q 797 1019 1065 703 
Q 1334 388 1700 388 
Q 2069 388 2326 689 
Q 2584 991 2584 1609 
Q 2584 2291 2321 2609 
Q 2059 2928 1675 2928 
Q 1300 2928 1048 2622 
Q 797 2316 797 1656 
z
" transform="scale(0.015625)"/>
     </defs>
     <use xlink:href="#ArialMT-53"/>
     <use xlink:href="#ArialMT-65" transform="translate(66.699219 0)"/>
     <use xlink:href="#ArialMT-6e" transform="translate(122.314453 0)"/>
     <use xlink:href="#ArialMT-74" transform="translate(177.929688 0)"/>
     <use xlink:href="#ArialMT-65" transform="translate(205.712891 0)"/>
     <use xlink:href="#ArialMT-6e" transform="translate(261.328125 0)"/>
     <use xlink:href="#ArialMT-63" transform="translate(316.943359 0)"/>
     <use xlink:href="#ArialMT-65" transform="translate(366.943359 0)"/>
     <use xlink:href="#ArialMT-73" transform="translate(422.558594 0)"/>
     <use xlink:href="#ArialMT-20" transform="translate(472.558594 0)"/>
     <use xlink:href="#ArialMT-56" transform="translate(500.341797 0)"/>
     <use xlink:href="#ArialMT-73" transform="translate(567.041016 0)"/>
     <use xlink:href="#ArialMT-20" transform="translate(617.041016 0)"/>
     <use xlink:href="#ArialMT-52" transform="translate(644.824219 0)"/>
     <use xlink:href="#ArialMT-65" transform="translate(717.041016 0)"/>
     <use xlink:href="#ArialMT-76" transform="translate(772.65625 0)"/>
     <use xlink:href="#ArialMT-65" transform="translate(822.65625 0)"/>
     <use xlink:href="#ArialMT-72" transform="translate(878.271484 0)"/>
     <use xlink:href="#ArialMT-73" transform="translate(911.572266 0)"/>
     <use xlink:href="#ArialMT-65" transform="translate(961.572266 0)"/>
     <use xlink:href="#ArialMT-64" transform="translate(1017.1875 0)"/>
    </g>
   </g>
   <g id="legend_1">
    <g id="patch_41">
     <path d="M 918.240781 96.752656 
L 981.672969 96.752656 
Q 983.872969 96.752656 983.872969 94.552656 
L 983.872969 32.3525 
Q 983.872969 30.1525 981.672969 30.1525 
L 918.240781 30.1525 
Q 916.040781 30.1525 916.040781 32.3525 
L 916.040781 94.552656 
Q 916.040781 96.752656 918.240781 96.752656 
z
" style="fill: #ffffff; opacity: 0.8; stroke: #cccccc; stroke-linejoin: miter"/>
    </g>
    <g id="text_22">
     <!-- Group -->
     <g transform="translate(933.2825 43.288125) scale(0.12 -0.12)">
      <use xlink:href="#ArialMT-47"/>
      <use xlink:href="#ArialMT-72" transform="translate(77.783203 0)"/>
      <use xlink:href="#ArialMT-6f" transform="translate(111.083984 0)"/>
      <use xlink:href="#ArialMT-75" transform="translate(166.699219 0)"/>
      <use xlink:href="#ArialMT-70" transform="translate(222.314453 0)"/>
     </g>
    </g>
    <g id="patch_42">
     <path d="M 920.440781 59.046719 
L 942.440781 59.046719 
L 942.440781 51.346719 
L 920.440781 51.346719 
z
" style="fill: #3498db; opacity: 0.8; stroke: #ffffff; stroke-width: 0.5; stroke-linejoin: miter"/>
    </g>
    <g id="text_23">
     <!-- HC -->
     <g transform="translate(951.240781 59.046719) scale(0.11 -0.11)">
      <defs>
       <path id="ArialMT-43" d="M 3763 1606 
L 4369 1453 
Q 4178 706 3683 314 
Q 3188 -78 2472 -78 
Q 1731 -78 1267 223 
Q 803 525 561 1097 
Q 319 1669 319 2325 
Q 319 3041 592 3573 
Q 866 4106 1370 4382 
Q 1875 4659 2481 4659 
Q 3169 4659 3637 4309 
Q 4106 3959 4291 3325 
L 3694 3184 
Q 3534 3684 3231 3912 
Q 2928 4141 2469 4141 
Q 1941 4141 1586 3887 
Q 1231 3634 1087 3207 
Q 944 2781 944 2328 
Q 944 1744 1114 1308 
Q 1284 872 1643 656 
Q 2003 441 2422 441 
Q 2931 441 3284 734 
Q 3638 1028 3763 1606 
z
" transform="scale(0.015625)"/>
      </defs>
      <use xlink:href="#ArialMT-48"/>
      <use xlink:href="#ArialMT-43" transform="translate(72.216797 0)"/>
     </g>
    </g>
    <g id="patch_43">
     <path d="M 920.440781 74.606562 
L 942.440781 74.606562 
L 942.440781 66.906562 
L 920.440781 66.906562 
z
" style="fill: #e67e22; opacity: 0.8; stroke: #ffffff; stroke-width: 0.5; stroke-linejoin: miter"/>
    </g>
    <g id="text_24">
     <!-- AVH- -->
     <g transform="translate(951.240781 74.606562) scale(0.11 -0.11)">
      <defs>
       <path id="ArialMT-2d" d="M 203 1375 
L 203 1941 
L 1931 1941 
L 1931 1375 
L 203 1375 
z
" transform="scale(0.015625)"/>
      </defs>
      <use xlink:href="#ArialMT-41"/>
      <use xlink:href="#ArialMT-56" transform="translate(59.324219 0)"/>
      <use xlink:href="#ArialMT-48" transform="translate(126.023438 0)"/>
      <use xlink:href="#ArialMT-2d" transform="translate(198.240234 0)"/>
     </g>
    </g>
    <g id="patch_44">
     <path d="M 920.440781 90.166406 
L 942.440781 90.166406 
L 942.440781 82.466406 
L 920.440781 82.466406 
z
" style="fill: #e74c3c; opacity: 0.8; stroke: #ffffff; stroke-width: 0.5; stroke-linejoin: miter"/>
    </g>
    <g id="text_25">
     <!-- AVH+ -->
     <g transform="translate(951.240781 90.166406) scale(0.11 -0.11)">
      <defs>
       <path id="ArialMT-2b" d="M 1603 741 
L 1603 1997 
L 356 1997 
L 356 2522 
L 1603 2522 
L 1603 3769 
L 2134 3769 
L 2134 2522 
L 3381 2522 
L 3381 1997 
L 2134 1997 
L 2134 741 
L 1603 741 
z
" transform="scale(0.015625)"/>
      </defs>
      <use xlink:href="#ArialMT-41"/>
      <use xlink:href="#ArialMT-56" transform="translate(59.324219 0)"/>
      <use xlink:href="#ArialMT-48" transform="translate(126.023438 0)"/>
      <use xlink:href="#ArialMT-2b" transform="translate(198.240234 0)"/>
     </g>
    </g>
   </g>
  </g>
 </g>
 <defs>
  <clipPath id="p4e9e3048e7">
   <rect x="59.169844" y="24.6525" width="930.203125" height="314.349183"/>
  </clipPath>
 </defs>
</svg>
