<?xml version="1.0" encoding="utf-8" standalone="no"?>
<!DOCTYPE svg PUBLIC "-//W3C//DTD SVG 1.1//EN"
  "http://www.w3.org/Graphics/SVG/1.1/DTD/svg11.dtd">
<svg xmlns:xlink="http://www.w3.org/1999/xlink" width="996.617969pt" height="420.821332pt" viewBox="0 0 996.617969 420.821332" xmlns="http://www.w3.org/2000/svg" version="1.1">
 <metadata>
  <rdf:RDF xmlns:dc="http://purl.org/dc/elements/1.1/" xmlns:cc="http://creativecommons.org/ns#" xmlns:rdf="http://www.w3.org/1999/02/22-rdf-syntax-ns#">
   <cc:Work>
    <dc:type rdf:resource="http://purl.org/dc/dcmitype/StillImage"/>
    <dc:date>2026-01-10T17:11:56.693897</dc:date>
    <dc:format>image/svg+xml</dc:format>
    <dc:creator>
     <cc:Agent>
      <dc:title>Matplotlib v3.10.8, https://matplotlib.org/</dc:title>
     </cc:Agent>
    </dc:creator>
   </cc:Work>
  </rdf:RDF>
 </metadata>
 <defs>
  <style type="text/css">*{stroke-linejoin: round; stroke-linecap: butt}</style>
 </defs>
 <g id="figure_1">
  <g id="patch_1">
   <path d="M 0 420.821332 
L 996.617969 420.821332 
L 996.617969 0 
L 0 0 
z
" style="fill: #ffffff"/>
  </g>
  <g id="axes_1">
   <g id="patch_2">
    <path d="M 59.169844 339.001683 
L 989.417969 339.001683 
L 989.417969 24.6525 
L 59.169844 24.6525 
z
" style="fill: #ffffff"/>
   </g>
   <g id="patch_3">
    <path d="M 101.453849 232.915361 
L 119.447043 232.915361 
L 119.447043 89.480075 
L 101.453849 89.480075 
z
" clip-path="url(#p18de6a02f2)" style="fill: #3498db; opacity: 0.8; stroke: #ffffff; stroke-width: 0.5; stroke-linejoin: miter"/>
   </g>
   <g id="patch_4">
    <path d="M 173.426625 232.915361 
L 191.419819 232.915361 
L 191.419819 284.574449 
L 173.426625 284.574449 
z
" clip-path="url(#p18de6a02f2)" style="fill: #3498db; opacity: 0.8; stroke: #ffffff; stroke-width: 0.5; stroke-linejoin: miter"/>
   </g>
   <g id="patch_5">
    <path d="M 245.399401 232.915361 
L 263.392595 232.915361 
L 263.392595 95.208334 
L 245.399401 95.208334 
z
" clip-path="url(#p18de6a02f2)" style="fill: #3498db; opacity: 0.8; stroke: #ffffff; stroke-width: 0.5; stroke-linejoin: miter"/>
   </g>
   <g id="patch_6">
    <path d="M 317.372176 232.915361 
L 335.36537 232.915361 
L 335.36537 201.604598 
L 317.372176 201.604598 
z
" clip-path="url(#p18de6a02f2)" style="fill: #3498db; opacity: 0.8; stroke: #ffffff; stroke-width: 0.5; stroke-linejoin: miter"/>
   </g>
   <g id="patch_7">
    <path d="M 389.344952 232.915361 
L 407.338146 232.915361 
L 407.338146 252.290316 
L 389.344952 252.290316 
z
" clip-path="url(#p18de6a02f2)" style="fill: #3498db; opacity: 0.8; stroke: #ffffff; stroke-width: 0.5; stroke-linejoin: miter"/>
   </g>
   <g id="patch_8">
    <path d="M 461.317728 232.915361 
L 479.310921 232.915361 
L 479.310921 74.564745 
L 461.317728 74.564745 
z
" clip-path="url(#p18de6a02f2)" style="fill: #3498db; opacity: 0.8; stroke: #ffffff; stroke-width: 0.5; stroke-linejoin: miter"/>
   </g>
   <g id="patch_9">
    <path d="M 533.290503 232.915361 
L 551.283697 232.915361 
L 551.283697 155.432935 
L 533.290503 155.432935 
z
" clip-path="url(#p18de6a02f2)" style="fill: #3498db; opacity: 0.8; stroke: #ffffff; stroke-width: 0.5; stroke-linejoin: miter"/>
   </g>
   <g id="patch_10">
    <path d="M 605.263279 232.915361 
L 623.256473 232.915361 
L 623.256473 237.532153 
L 605.263279 237.532153 
z
" clip-path="url(#p18de6a02f2)" style="fill: #3498db; opacity: 0.8; stroke: #ffffff; stroke-width: 0.5; stroke-linejoin: miter"/>
   </g>
   <g id="patch_11">
    <path d="M 677.236054 232.915361 
L 695.229248 232.915361 
L 695.229248 141.035192 
L 677.236054 141.035192 
z
" clip-path="url(#p18de6a02f2)" style="fill: #3498db; opacity: 0.8; stroke: #ffffff; stroke-width: 0.5; stroke-linejoin: miter"/>
   </g>
   <g id="patch_12">
    <path d="M 749.20883 232.915361 
L 767.202024 232.915361 
L 767.202024 178.847748 
L 749.20883 178.847748 
z
" clip-path="url(#p18de6a02f2)" style="fill: #3498db; opacity: 0.8; stroke: #ffffff; stroke-width: 0.5; stroke-linejoin: miter"/>
   </g>
   <g id="patch_13">
    <path d="M 821.181606 232.915361 
L 839.1748 232.915361 
L 839.1748 193.353735 
L 821.181606 193.353735 
z
" clip-path="url(#p18de6a02f2)" style="fill: #3498db; opacity: 0.8; stroke: #ffffff; stroke-width: 0.5; stroke-linejoin: miter"/>
   </g>
   <g id="patch_14">
    <path d="M 893.154381 232.915361 
L 911.147575 232.915361 
L 911.147575 143.428101 
L 893.154381 143.428101 
z
" clip-path="url(#p18de6a02f2)" style="fill: #3498db; opacity: 0.8; stroke: #ffffff; stroke-width: 0.5; stroke-linejoin: miter"/>
   </g>
   <g id="patch_15">
    <path d="M 119.447043 232.915361 
L 137.440237 232.915361 
L 137.440237 132.136712 
L 119.447043 132.136712 
z
" clip-path="url(#p18de6a02f2)" style="fill: #e67e22; opacity: 0.8; stroke: #ffffff; stroke-width: 0.5; stroke-linejoin: miter"/>
   </g>
   <g id="patch_16">
    <path d="M 191.419819 232.915361 
L 209.413013 232.915361 
L 209.413013 224.955994 
L 191.419819 224.955994 
z
" clip-path="url(#p18de6a02f2)" style="fill: #e67e22; opacity: 0.8; stroke: #ffffff; stroke-width: 0.5; stroke-linejoin: miter"/>
   </g>
   <g id="patch_17">
    <path d="M 263.392595 232.915361 
L 281.385789 232.915361 
L 281.385789 102.390744 
L 263.392595 102.390744 
z
" clip-path="url(#p18de6a02f2)" style="fill: #e67e22; opacity: 0.8; stroke: #ffffff; stroke-width: 0.5; stroke-linejoin: miter"/>
   </g>
   <g id="patch_18">
    <path d="M 335.36537 232.915361 
L 353.358564 232.915361 
L 353.358564 233.361736 
L 335.36537 233.361736 
z
" clip-path="url(#p18de6a02f2)" style="fill: #e67e22; opacity: 0.8; stroke: #ffffff; stroke-width: 0.5; stroke-linejoin: miter"/>
   </g>
   <g id="patch_19">
    <path d="M 407.338146 232.915361 
L 425.33134 232.915361 
L 425.33134 203.370663 
L 407.338146 203.370663 
z
" clip-path="url(#p18de6a02f2)" style="fill: #e67e22; opacity: 0.8; stroke: #ffffff; stroke-width: 0.5; stroke-linejoin: miter"/>
   </g>
   <g id="patch_20">
    <path d="M 479.310921 232.915361 
L 497.304115 232.915361 
L 497.304115 127.120244 
L 479.310921 127.120244 
z
" clip-path="url(#p18de6a02f2)" style="fill: #e67e22; opacity: 0.8; stroke: #ffffff; stroke-width: 0.5; stroke-linejoin: miter"/>
   </g>
   <g id="patch_21">
    <path d="M 551.283697 232.915361 
L 569.276891 232.915361 
L 569.276891 155.958762 
L 551.283697 155.958762 
z
" clip-path="url(#p18de6a02f2)" style="fill: #e67e22; opacity: 0.8; stroke: #ffffff; stroke-width: 0.5; stroke-linejoin: miter"/>
   </g>
   <g id="patch_22">
    <path d="M 623.256473 232.915361 
L 641.249667 232.915361 
L 641.249667 254.414631 
L 623.256473 254.414631 
z
" clip-path="url(#p18de6a02f2)" style="fill: #e67e22; opacity: 0.8; stroke: #ffffff; stroke-width: 0.5; stroke-linejoin: miter"/>
   </g>
   <g id="patch_23">
    <path d="M 695.229248 232.915361 
L 713.222442 232.915361 
L 713.222442 121.486179 
L 695.229248 121.486179 
z
" clip-path="url(#p18de6a02f2)" style="fill: #e67e22; opacity: 0.8; stroke: #ffffff; stroke-width: 0.5; stroke-linejoin: miter"/>
   </g>
   <g id="patch_24">
    <path d="M 767.202024 232.915361 
L 785.195218 232.915361 
L 785.195218 210.887076 
L 767.202024 210.887076 
z
" clip-path="url(#p18de6a02f2)" style="fill: #e67e22; opacity: 0.8; stroke: #ffffff; stroke-width: 0.5; stroke-linejoin: miter"/>
   </g>
   <g id="patch_25">
    <path d="M 839.1748 232.915361 
L 857.167994 232.915361 
L 857.167994 170.927935 
L 839.1748 170.927935 
z
" clip-path="url(#p18de6a02f2)" style="fill: #e67e22; opacity: 0.8; stroke: #ffffff; stroke-width: 0.5; stroke-linejoin: miter"/>
   </g>
   <g id="patch_26">
    <path d="M 911.147575 232.915361 
L 929.140769 232.915361 
L 929.140769 155.751714 
L 911.147575 155.751714 
z
" clip-path="url(#p18de6a02f2)" style="fill: #e67e22; opacity: 0.8; stroke: #ffffff; stroke-width: 0.5; stroke-linejoin: miter"/>
   </g>
   <g id="patch_27">
    <path d="M 137.440237 232.915361 
L 155.433431 232.915361 
L 155.433431 174.109993 
L 137.440237 174.109993 
z
" clip-path="url(#p18de6a02f2)" style="fill: #e74c3c; opacity: 0.8; stroke: #ffffff; stroke-width: 0.5; stroke-linejoin: miter"/>
   </g>
   <g id="patch_28">
    <path d="M 209.413013 232.915361 
L 227.406207 232.915361 
L 227.406207 195.62187 
L 209.413013 195.62187 
z
" clip-path="url(#p18de6a02f2)" style="fill: #e74c3c; opacity: 0.8; stroke: #ffffff; stroke-width: 0.5; stroke-linejoin: miter"/>
   </g>
   <g id="patch_29">
    <path d="M 281.385789 232.915361 
L 299.378982 232.915361 
L 299.378982 159.570198 
L 281.385789 159.570198 
z
" clip-path="url(#p18de6a02f2)" style="fill: #e74c3c; opacity: 0.8; stroke: #ffffff; stroke-width: 0.5; stroke-linejoin: miter"/>
   </g>
   <g id="patch_30">
    <path d="M 353.358564 232.915361 
L 371.351758 232.915361 
L 371.351758 231.259012 
L 353.358564 231.259012 
z
" clip-path="url(#p18de6a02f2)" style="fill: #e74c3c; opacity: 0.8; stroke: #ffffff; stroke-width: 0.5; stroke-linejoin: miter"/>
   </g>
   <g id="patch_31">
    <path d="M 425.33134 232.915361 
L 443.324534 232.915361 
L 443.324534 264.291492 
L 425.33134 264.291492 
z
" clip-path="url(#p18de6a02f2)" style="fill: #e74c3c; opacity: 0.8; stroke: #ffffff; stroke-width: 0.5; stroke-linejoin: miter"/>
   </g>
   <g id="patch_32">
    <path d="M 497.304115 232.915361 
L 515.297309 232.915361 
L 515.297309 151.279883 
L 497.304115 151.279883 
z
" clip-path="url(#p18de6a02f2)" style="fill: #e74c3c; opacity: 0.8; stroke: #ffffff; stroke-width: 0.5; stroke-linejoin: miter"/>
   </g>
   <g id="patch_33">
    <path d="M 569.276891 232.915361 
L 587.270085 232.915361 
L 587.270085 166.08678 
L 569.276891 166.08678 
z
" clip-path="url(#p18de6a02f2)" style="fill: #e74c3c; opacity: 0.8; stroke: #ffffff; stroke-width: 0.5; stroke-linejoin: miter"/>
   </g>
   <g id="patch_34">
    <path d="M 641.249667 232.915361 
L 659.242861 232.915361 
L 659.242861 207.916594 
L 641.249667 207.916594 
z
" clip-path="url(#p18de6a02f2)" style="fill: #e74c3c; opacity: 0.8; stroke: #ffffff; stroke-width: 0.5; stroke-linejoin: miter"/>
   </g>
   <g id="patch_35">
    <path d="M 713.222442 232.915361 
L 731.215636 232.915361 
L 731.215636 179.862411 
L 713.222442 179.862411 
z
" clip-path="url(#p18de6a02f2)" style="fill: #e74c3c; opacity: 0.8; stroke: #ffffff; stroke-width: 0.5; stroke-linejoin: miter"/>
   </g>
   <g id="patch_36">
    <path d="M 785.195218 232.915361 
L 803.188412 232.915361 
L 803.188412 202.519743 
L 785.195218 202.519743 
z
" clip-path="url(#p18de6a02f2)" style="fill: #e74c3c; opacity: 0.8; stroke: #ffffff; stroke-width: 0.5; stroke-linejoin: miter"/>
   </g>
   <g id="patch_37">
    <path d="M 857.167994 232.915361 
L 875.161187 232.915361 
L 875.161187 162.63329 
L 857.167994 162.63329 
z
" clip-path="url(#p18de6a02f2)" style="fill: #e74c3c; opacity: 0.8; stroke: #ffffff; stroke-width: 0.5; stroke-linejoin: miter"/>
   </g>
   <g id="patch_38">
    <path d="M 929.140769 232.915361 
L 947.133963 232.915361 
L 947.133963 185.026542 
L 929.140769 185.026542 
z
" clip-path="url(#p18de6a02f2)" style="fill: #e74c3c; opacity: 0.8; stroke: #ffffff; stroke-width: 0.5; stroke-linejoin: miter"/>
   </g>
   <g id="matplotlib.axis_1">
    <g id="xtick_1">
     <g id="line2d_1">
      <defs>
       <path id="m9fc32e008a" d="M 0 0 
L 0 3.5 
" style="stroke: #000000; stroke-width: 0.8"/>
      </defs>
      <g>
       <use xlink:href="#m9fc32e008a" x="128.44364" y="339.001683" style="stroke: #000000; stroke-width: 0.8"/>
      </g>
     </g>
     <g id="text_1">
      <!-- L -->
      <g transform="translate(110.17768 354.095845) rotate(-45) scale(0.09 -0.09)">
       <defs>
        <path id="ArialMT-4c" d="M 469 0 
L 469 4581 
L 1075 4581 
L 1075 541 
L 3331 541 
L 3331 0 
L 469 0 
z
" transform="scale(0.015625)"/>
       </defs>
       <use xlink:href="#ArialMT-4c"/>
      </g>
      <!-- STG -->
      <g transform="translate(107.365804 370.369886) rotate(-45) scale(0.09 -0.09)">
       <defs>
        <path id="ArialMT-53" d="M 288 1472 
L 859 1522 
Q 900 1178 1048 958 
Q 1197 738 1509 602 
Q 1822 466 2213 466 
Q 2559 466 2825 569 
Q 3091 672 3220 851 
Q 3350 1031 3350 1244 
Q 3350 1459 3225 1620 
Q 3100 1781 2813 1891 
Q 2628 1963 1997 2114 
Q 1366 2266 1113 2400 
Q 784 2572 623 2826 
Q 463 3081 463 3397 
Q 463 3744 659 4045 
Q 856 4347 1234 4503 
Q 1613 4659 2075 4659 
Q 2584 4659 2973 4495 
Q 3363 4331 3572 4012 
Q 3781 3694 3797 3291 
L 3216 3247 
Q 3169 3681 2898 3903 
Q 2628 4125 2100 4125 
Q 1550 4125 1298 3923 
Q 1047 3722 1047 3438 
Q 1047 3191 1225 3031 
Q 1400 2872 2139 2705 
Q 2878 2538 3153 2413 
Q 3553 2228 3743 1945 
Q 3934 1663 3934 1294 
Q 3934 928 3725 604 
Q 3516 281 3123 101 
Q 2731 -78 2241 -78 
Q 1619 -78 1198 103 
Q 778 284 539 648 
Q 300 1013 288 1472 
z
" transform="scale(0.015625)"/>
        <path id="ArialMT-54" d="M 1659 0 
L 1659 4041 
L 150 4041 
L 150 4581 
L 3781 4581 
L 3781 4041 
L 2266 4041 
L 2266 0 
L 1659 0 
z
" transform="scale(0.015625)"/>
        <path id="ArialMT-47" d="M 2638 1797 
L 2638 2334 
L 4578 2338 
L 4578 638 
Q 4131 281 3656 101 
Q 3181 -78 2681 -78 
Q 2006 -78 1454 211 
Q 903 500 622 1047 
Q 341 1594 341 2269 
Q 341 2938 620 3517 
Q 900 4097 1425 4378 
Q 1950 4659 2634 4659 
Q 3131 4659 3532 4498 
Q 3934 4338 4162 4050 
Q 4391 3763 4509 3300 
L 3963 3150 
Q 3859 3500 3706 3700 
Q 3553 3900 3268 4020 
Q 2984 4141 2638 4141 
Q 2222 4141 1919 4014 
Q 1616 3888 1430 3681 
Q 1244 3475 1141 3228 
Q 966 2803 966 2306 
Q 966 1694 1177 1281 
Q 1388 869 1791 669 
Q 2194 469 2647 469 
Q 3041 469 3416 620 
Q 3791 772 3984 944 
L 3984 1797 
L 2638 1797 
z
" transform="scale(0.015625)"/>
       </defs>
       <use xlink:href="#ArialMT-53"/>
       <use xlink:href="#ArialMT-54" transform="translate(66.699219 0)"/>
       <use xlink:href="#ArialMT-47" transform="translate(127.783203 0)"/>
      </g>
      <!-- posterior -->
      <g transform="translate(102.421006 388.776848) rotate(-45) scale(0.09 -0.09)">
       <defs>
        <path id="ArialMT-70" d="M 422 -1272 
L 422 3319 
L 934 3319 
L 934 2888 
Q 1116 3141 1344 3267 
Q 1572 3394 1897 3394 
Q 2322 3394 2647 3175 
Q 2972 2956 3137 2557 
Q 3303 2159 3303 1684 
Q 3303 1175 3120 767 
Q 2938 359 2589 142 
Q 2241 -75 1856 -75 
Q 1575 -75 1351 44 
Q 1128 163 984 344 
L 984 -1272 
L 422 -1272 
z
M 931 1641 
Q 931 1000 1190 694 
Q 1450 388 1819 388 
Q 2194 388 2461 705 
Q 2728 1022 2728 1688 
Q 2728 2322 2467 2637 
Q 2206 2953 1844 2953 
Q 1484 2953 1207 2617 
Q 931 2281 931 1641 
z
" transform="scale(0.015625)"/>
        <path id="ArialMT-6f" d="M 213 1659 
Q 213 2581 725 3025 
Q 1153 3394 1769 3394 
Q 2453 3394 2887 2945 
Q 3322 2497 3322 1706 
Q 3322 1066 3130 698 
Q 2938 331 2570 128 
Q 2203 -75 1769 -75 
Q 1072 -75 642 372 
Q 213 819 213 1659 
z
M 791 1659 
Q 791 1022 1069 705 
Q 1347 388 1769 388 
Q 2188 388 2466 706 
Q 2744 1025 2744 1678 
Q 2744 2294 2464 2611 
Q 2184 2928 1769 2928 
Q 1347 2928 1069 2612 
Q 791 2297 791 1659 
z
" transform="scale(0.015625)"/>
        <path id="ArialMT-73" d="M 197 991 
L 753 1078 
Q 800 744 1014 566 
Q 1228 388 1613 388 
Q 2000 388 2187 545 
Q 2375 703 2375 916 
Q 2375 1106 2209 1216 
Q 2094 1291 1634 1406 
Q 1016 1563 777 1677 
Q 538 1791 414 1992 
Q 291 2194 291 2438 
Q 291 2659 392 2848 
Q 494 3038 669 3163 
Q 800 3259 1026 3326 
Q 1253 3394 1513 3394 
Q 1903 3394 2198 3281 
Q 2494 3169 2634 2976 
Q 2775 2784 2828 2463 
L 2278 2388 
Q 2241 2644 2061 2787 
Q 1881 2931 1553 2931 
Q 1166 2931 1000 2803 
Q 834 2675 834 2503 
Q 834 2394 903 2306 
Q 972 2216 1119 2156 
Q 1203 2125 1616 2013 
Q 2213 1853 2448 1751 
Q 2684 1650 2818 1456 
Q 2953 1263 2953 975 
Q 2953 694 2789 445 
Q 2625 197 2315 61 
Q 2006 -75 1616 -75 
Q 969 -75 630 194 
Q 291 463 197 991 
z
" transform="scale(0.015625)"/>
        <path id="ArialMT-74" d="M 1650 503 
L 1731 6 
Q 1494 -44 1306 -44 
Q 1000 -44 831 53 
Q 663 150 594 308 
Q 525 466 525 972 
L 525 2881 
L 113 2881 
L 113 3319 
L 525 3319 
L 525 4141 
L 1084 4478 
L 1084 3319 
L 1650 3319 
L 1650 2881 
L 1084 2881 
L 1084 941 
Q 1084 700 1114 631 
Q 1144 563 1211 522 
Q 1278 481 1403 481 
Q 1497 481 1650 503 
z
" transform="scale(0.015625)"/>
        <path id="ArialMT-65" d="M 2694 1069 
L 3275 997 
Q 3138 488 2766 206 
Q 2394 -75 1816 -75 
Q 1088 -75 661 373 
Q 234 822 234 1631 
Q 234 2469 665 2931 
Q 1097 3394 1784 3394 
Q 2450 3394 2872 2941 
Q 3294 2488 3294 1666 
Q 3294 1616 3291 1516 
L 816 1516 
Q 847 969 1125 678 
Q 1403 388 1819 388 
Q 2128 388 2347 550 
Q 2566 713 2694 1069 
z
M 847 1978 
L 2700 1978 
Q 2663 2397 2488 2606 
Q 2219 2931 1791 2931 
Q 1403 2931 1139 2672 
Q 875 2413 847 1978 
z
" transform="scale(0.015625)"/>
        <path id="ArialMT-72" d="M 416 0 
L 416 3319 
L 922 3319 
L 922 2816 
Q 1116 3169 1280 3281 
Q 1444 3394 1641 3394 
Q 1925 3394 2219 3213 
L 2025 2691 
Q 1819 2813 1613 2813 
Q 1428 2813 1281 2702 
Q 1134 2591 1072 2394 
Q 978 2094 978 1738 
L 978 0 
L 416 0 
z
" transform="scale(0.015625)"/>
        <path id="ArialMT-69" d="M 425 3934 
L 425 4581 
L 988 4581 
L 988 3934 
L 425 3934 
z
M 425 0 
L 425 3319 
L 988 3319 
L 988 0 
L 425 0 
z
" transform="scale(0.015625)"/>
       </defs>
       <use xlink:href="#ArialMT-70"/>
       <use xlink:href="#ArialMT-6f" transform="translate(55.615234 0)"/>
       <use xlink:href="#ArialMT-73" transform="translate(111.230469 0)"/>
       <use xlink:href="#ArialMT-74" transform="translate(161.230469 0)"/>
       <use xlink:href="#ArialMT-65" transform="translate(189.013672 0)"/>
       <use xlink:href="#ArialMT-72" transform="translate(244.628906 0)"/>
       <use xlink:href="#ArialMT-69" transform="translate(277.929688 0)"/>
       <use xlink:href="#ArialMT-6f" transform="translate(300.146484 0)"/>
       <use xlink:href="#ArialMT-72" transform="translate(355.761719 0)"/>
      </g>
     </g>
    </g>
    <g id="xtick_2">
     <g id="line2d_2">
      <g>
       <use xlink:href="#m9fc32e008a" x="200.416416" y="339.001683" style="stroke: #000000; stroke-width: 0.8"/>
      </g>
     </g>
     <g id="text_2">
      <!-- L -->
      <g transform="translate(182.150456 354.095845) rotate(-45) scale(0.09 -0.09)">
       <use xlink:href="#ArialMT-4c"/>
      </g>
      <!-- STG -->
      <g transform="translate(179.338579 370.369886) rotate(-45) scale(0.09 -0.09)">
       <use xlink:href="#ArialMT-53"/>
       <use xlink:href="#ArialMT-54" transform="translate(66.699219 0)"/>
       <use xlink:href="#ArialMT-47" transform="translate(127.783203 0)"/>
      </g>
      <!-- anterior -->
      <g transform="translate(177.575762 385.594867) rotate(-45) scale(0.09 -0.09)">
       <defs>
        <path id="ArialMT-61" d="M 2588 409 
Q 2275 144 1986 34 
Q 1697 -75 1366 -75 
Q 819 -75 525 192 
Q 231 459 231 875 
Q 231 1119 342 1320 
Q 453 1522 633 1644 
Q 813 1766 1038 1828 
Q 1203 1872 1538 1913 
Q 2219 1994 2541 2106 
Q 2544 2222 2544 2253 
Q 2544 2597 2384 2738 
Q 2169 2928 1744 2928 
Q 1347 2928 1158 2789 
Q 969 2650 878 2297 
L 328 2372 
Q 403 2725 575 2942 
Q 747 3159 1072 3276 
Q 1397 3394 1825 3394 
Q 2250 3394 2515 3294 
Q 2781 3194 2906 3042 
Q 3031 2891 3081 2659 
Q 3109 2516 3109 2141 
L 3109 1391 
Q 3109 606 3145 398 
Q 3181 191 3288 0 
L 2700 0 
Q 2613 175 2588 409 
z
M 2541 1666 
Q 2234 1541 1622 1453 
Q 1275 1403 1131 1340 
Q 988 1278 909 1158 
Q 831 1038 831 891 
Q 831 666 1001 516 
Q 1172 366 1500 366 
Q 1825 366 2078 508 
Q 2331 650 2450 897 
Q 2541 1088 2541 1459 
L 2541 1666 
z
" transform="scale(0.015625)"/>
        <path id="ArialMT-6e" d="M 422 0 
L 422 3319 
L 928 3319 
L 928 2847 
Q 1294 3394 1984 3394 
Q 2284 3394 2536 3286 
Q 2788 3178 2913 3003 
Q 3038 2828 3088 2588 
Q 3119 2431 3119 2041 
L 3119 0 
L 2556 0 
L 2556 2019 
Q 2556 2363 2490 2533 
Q 2425 2703 2258 2804 
Q 2091 2906 1866 2906 
Q 1506 2906 1245 2678 
Q 984 2450 984 1813 
L 984 0 
L 422 0 
z
" transform="scale(0.015625)"/>
       </defs>
       <use xlink:href="#ArialMT-61"/>
       <use xlink:href="#ArialMT-6e" transform="translate(55.615234 0)"/>
       <use xlink:href="#ArialMT-74" transform="translate(111.230469 0)"/>
       <use xlink:href="#ArialMT-65" transform="translate(139.013672 0)"/>
       <use xlink:href="#ArialMT-72" transform="translate(194.628906 0)"/>
       <use xlink:href="#ArialMT-69" transform="translate(227.929688 0)"/>
       <use xlink:href="#ArialMT-6f" transform="translate(250.146484 0)"/>
       <use xlink:href="#ArialMT-72" transform="translate(305.761719 0)"/>
      </g>
     </g>
    </g>
    <g id="xtick_3">
     <g id="line2d_3">
      <g>
       <use xlink:href="#m9fc32e008a" x="272.389192" y="339.001683" style="stroke: #000000; stroke-width: 0.8"/>
      </g>
     </g>
     <g id="text_3">
      <!-- L -->
      <g transform="translate(260.854313 354.095845) rotate(-45) scale(0.09 -0.09)">
       <use xlink:href="#ArialMT-4c"/>
      </g>
      <!-- MTG -->
      <g transform="translate(256.986417 371.425906) rotate(-45) scale(0.09 -0.09)">
       <defs>
        <path id="ArialMT-4d" d="M 475 0 
L 475 4581 
L 1388 4581 
L 2472 1338 
Q 2622 884 2691 659 
Q 2769 909 2934 1394 
L 4031 4581 
L 4847 4581 
L 4847 0 
L 4263 0 
L 4263 3834 
L 2931 0 
L 2384 0 
L 1059 3900 
L 1059 0 
L 475 0 
z
" transform="scale(0.015625)"/>
       </defs>
       <use xlink:href="#ArialMT-4d"/>
       <use xlink:href="#ArialMT-54" transform="translate(83.300781 0)"/>
       <use xlink:href="#ArialMT-47" transform="translate(144.384766 0)"/>
      </g>
     </g>
    </g>
    <g id="xtick_4">
     <g id="line2d_4">
      <g>
       <use xlink:href="#m9fc32e008a" x="344.361967" y="339.001683" style="stroke: #000000; stroke-width: 0.8"/>
      </g>
     </g>
     <g id="text_4">
      <!-- L -->
      <g transform="translate(326.021429 354.095845) rotate(-45) scale(0.09 -0.09)">
       <use xlink:href="#ArialMT-4c"/>
      </g>
      <!-- IFG -->
      <g transform="translate(325.686526 367.892913) rotate(-45) scale(0.09 -0.09)">
       <defs>
        <path id="ArialMT-49" d="M 597 0 
L 597 4581 
L 1203 4581 
L 1203 0 
L 597 0 
z
" transform="scale(0.015625)"/>
        <path id="ArialMT-46" d="M 525 0 
L 525 4581 
L 3616 4581 
L 3616 4041 
L 1131 4041 
L 1131 2622 
L 3281 2622 
L 3281 2081 
L 1131 2081 
L 1131 0 
L 525 0 
z
" transform="scale(0.015625)"/>
       </defs>
       <use xlink:href="#ArialMT-49"/>
       <use xlink:href="#ArialMT-46" transform="translate(27.783203 0)"/>
       <use xlink:href="#ArialMT-47" transform="translate(88.867188 0)"/>
      </g>
      <!-- triangularis -->
      <g transform="translate(311.897811 395.143792) rotate(-45) scale(0.09 -0.09)">
       <defs>
        <path id="ArialMT-67" d="M 319 -275 
L 866 -356 
Q 900 -609 1056 -725 
Q 1266 -881 1628 -881 
Q 2019 -881 2231 -725 
Q 2444 -569 2519 -288 
Q 2563 -116 2559 434 
Q 2191 0 1641 0 
Q 956 0 581 494 
Q 206 988 206 1678 
Q 206 2153 378 2554 
Q 550 2956 876 3175 
Q 1203 3394 1644 3394 
Q 2231 3394 2613 2919 
L 2613 3319 
L 3131 3319 
L 3131 450 
Q 3131 -325 2973 -648 
Q 2816 -972 2473 -1159 
Q 2131 -1347 1631 -1347 
Q 1038 -1347 672 -1080 
Q 306 -813 319 -275 
z
M 784 1719 
Q 784 1066 1043 766 
Q 1303 466 1694 466 
Q 2081 466 2343 764 
Q 2606 1063 2606 1700 
Q 2606 2309 2336 2618 
Q 2066 2928 1684 2928 
Q 1309 2928 1046 2623 
Q 784 2319 784 1719 
z
" transform="scale(0.015625)"/>
        <path id="ArialMT-75" d="M 2597 0 
L 2597 488 
Q 2209 -75 1544 -75 
Q 1250 -75 995 37 
Q 741 150 617 320 
Q 494 491 444 738 
Q 409 903 409 1263 
L 409 3319 
L 972 3319 
L 972 1478 
Q 972 1038 1006 884 
Q 1059 663 1231 536 
Q 1403 409 1656 409 
Q 1909 409 2131 539 
Q 2353 669 2445 892 
Q 2538 1116 2538 1541 
L 2538 3319 
L 3100 3319 
L 3100 0 
L 2597 0 
z
" transform="scale(0.015625)"/>
        <path id="ArialMT-6c" d="M 409 0 
L 409 4581 
L 972 4581 
L 972 0 
L 409 0 
z
" transform="scale(0.015625)"/>
       </defs>
       <use xlink:href="#ArialMT-74"/>
       <use xlink:href="#ArialMT-72" transform="translate(27.783203 0)"/>
       <use xlink:href="#ArialMT-69" transform="translate(61.083984 0)"/>
       <use xlink:href="#ArialMT-61" transform="translate(83.300781 0)"/>
       <use xlink:href="#ArialMT-6e" transform="translate(138.916016 0)"/>
       <use xlink:href="#ArialMT-67" transform="translate(194.53125 0)"/>
       <use xlink:href="#ArialMT-75" transform="translate(250.146484 0)"/>
       <use xlink:href="#ArialMT-6c" transform="translate(305.761719 0)"/>
       <use xlink:href="#ArialMT-61" transform="translate(327.978516 0)"/>
       <use xlink:href="#ArialMT-72" transform="translate(383.59375 0)"/>
       <use xlink:href="#ArialMT-69" transform="translate(416.894531 0)"/>
       <use xlink:href="#ArialMT-73" transform="translate(439.111328 0)"/>
      </g>
     </g>
    </g>
    <g id="xtick_5">
     <g id="line2d_5">
      <g>
       <use xlink:href="#m9fc32e008a" x="416.334743" y="339.001683" style="stroke: #000000; stroke-width: 0.8"/>
      </g>
     </g>
     <g id="text_5">
      <!-- L -->
      <g transform="translate(398.068783 354.095845) rotate(-45) scale(0.09 -0.09)">
       <use xlink:href="#ArialMT-4c"/>
      </g>
      <!-- IFG -->
      <g transform="translate(397.733879 367.892913) rotate(-45) scale(0.09 -0.09)">
       <use xlink:href="#ArialMT-49"/>
       <use xlink:href="#ArialMT-46" transform="translate(27.783203 0)"/>
       <use xlink:href="#ArialMT-47" transform="translate(88.867188 0)"/>
      </g>
      <!-- opercularis -->
      <g transform="translate(383.945164 395.143792) rotate(-45) scale(0.09 -0.09)">
       <defs>
        <path id="ArialMT-63" d="M 2588 1216 
L 3141 1144 
Q 3050 572 2676 248 
Q 2303 -75 1759 -75 
Q 1078 -75 664 370 
Q 250 816 250 1647 
Q 250 2184 428 2587 
Q 606 2991 970 3192 
Q 1334 3394 1763 3394 
Q 2303 3394 2647 3120 
Q 2991 2847 3088 2344 
L 2541 2259 
Q 2463 2594 2264 2762 
Q 2066 2931 1784 2931 
Q 1359 2931 1093 2626 
Q 828 2322 828 1663 
Q 828 994 1084 691 
Q 1341 388 1753 388 
Q 2084 388 2306 591 
Q 2528 794 2588 1216 
z
" transform="scale(0.015625)"/>
       </defs>
       <use xlink:href="#ArialMT-6f"/>
       <use xlink:href="#ArialMT-70" transform="translate(55.615234 0)"/>
       <use xlink:href="#ArialMT-65" transform="translate(111.230469 0)"/>
       <use xlink:href="#ArialMT-72" transform="translate(166.845703 0)"/>
       <use xlink:href="#ArialMT-63" transform="translate(200.146484 0)"/>
       <use xlink:href="#ArialMT-75" transform="translate(250.146484 0)"/>
       <use xlink:href="#ArialMT-6c" transform="translate(305.761719 0)"/>
       <use xlink:href="#ArialMT-61" transform="translate(327.978516 0)"/>
       <use xlink:href="#ArialMT-72" transform="translate(383.59375 0)"/>
       <use xlink:href="#ArialMT-69" transform="translate(416.894531 0)"/>
       <use xlink:href="#ArialMT-73" transform="translate(439.111328 0)"/>
      </g>
     </g>
    </g>
    <g id="xtick_6">
     <g id="line2d_6">
      <g>
       <use xlink:href="#m9fc32e008a" x="488.307518" y="339.001683" style="stroke: #000000; stroke-width: 0.8"/>
      </g>
     </g>
     <g id="text_6">
      <!-- L -->
      <g transform="translate(476.77264 354.095845) rotate(-45) scale(0.09 -0.09)">
       <use xlink:href="#ArialMT-4c"/>
      </g>
      <!-- STS -->
      <g transform="translate(474.665771 369.664878) rotate(-45) scale(0.09 -0.09)">
       <use xlink:href="#ArialMT-53"/>
       <use xlink:href="#ArialMT-54" transform="translate(66.699219 0)"/>
       <use xlink:href="#ArialMT-53" transform="translate(127.783203 0)"/>
      </g>
     </g>
    </g>
    <g id="xtick_7">
     <g id="line2d_7">
      <g>
       <use xlink:href="#m9fc32e008a" x="560.280294" y="339.001683" style="stroke: #000000; stroke-width: 0.8"/>
      </g>
     </g>
     <g id="text_7">
      <!-- R -->
      <g transform="translate(540.95732 355.15286) rotate(-45) scale(0.09 -0.09)">
       <defs>
        <path id="ArialMT-52" d="M 503 0 
L 503 4581 
L 2534 4581 
Q 3147 4581 3465 4457 
Q 3784 4334 3975 4021 
Q 4166 3709 4166 3331 
Q 4166 2844 3850 2509 
Q 3534 2175 2875 2084 
Q 3116 1969 3241 1856 
Q 3506 1613 3744 1247 
L 4541 0 
L 3778 0 
L 3172 953 
Q 2906 1366 2734 1584 
Q 2563 1803 2427 1890 
Q 2291 1978 2150 2013 
Q 2047 2034 1813 2034 
L 1109 2034 
L 1109 0 
L 503 0 
z
M 1109 2559 
L 2413 2559 
Q 2828 2559 3062 2645 
Q 3297 2731 3419 2920 
Q 3541 3109 3541 3331 
Q 3541 3656 3305 3865 
Q 3069 4075 2559 4075 
L 1109 4075 
L 1109 2559 
z
" transform="scale(0.015625)"/>
       </defs>
       <use xlink:href="#ArialMT-52"/>
      </g>
      <!-- STG -->
      <g transform="translate(539.202457 370.369886) rotate(-45) scale(0.09 -0.09)">
       <use xlink:href="#ArialMT-53"/>
       <use xlink:href="#ArialMT-54" transform="translate(66.699219 0)"/>
       <use xlink:href="#ArialMT-47" transform="translate(127.783203 0)"/>
      </g>
      <!-- posterior -->
      <g transform="translate(534.25766 388.776848) rotate(-45) scale(0.09 -0.09)">
       <use xlink:href="#ArialMT-70"/>
       <use xlink:href="#ArialMT-6f" transform="translate(55.615234 0)"/>
       <use xlink:href="#ArialMT-73" transform="translate(111.230469 0)"/>
       <use xlink:href="#ArialMT-74" transform="translate(161.230469 0)"/>
       <use xlink:href="#ArialMT-65" transform="translate(189.013672 0)"/>
       <use xlink:href="#ArialMT-72" transform="translate(244.628906 0)"/>
       <use xlink:href="#ArialMT-69" transform="translate(277.929688 0)"/>
       <use xlink:href="#ArialMT-6f" transform="translate(300.146484 0)"/>
       <use xlink:href="#ArialMT-72" transform="translate(355.761719 0)"/>
      </g>
     </g>
    </g>
    <g id="xtick_8">
     <g id="line2d_8">
      <g>
       <use xlink:href="#m9fc32e008a" x="632.25307" y="339.001683" style="stroke: #000000; stroke-width: 0.8"/>
      </g>
     </g>
     <g id="text_8">
      <!-- R -->
      <g transform="translate(612.930095 355.15286) rotate(-45) scale(0.09 -0.09)">
       <use xlink:href="#ArialMT-52"/>
      </g>
      <!-- STG -->
      <g transform="translate(611.175233 370.369886) rotate(-45) scale(0.09 -0.09)">
       <use xlink:href="#ArialMT-53"/>
       <use xlink:href="#ArialMT-54" transform="translate(66.699219 0)"/>
       <use xlink:href="#ArialMT-47" transform="translate(127.783203 0)"/>
      </g>
      <!-- anterior -->
      <g transform="translate(609.412416 385.594867) rotate(-45) scale(0.09 -0.09)">
       <use xlink:href="#ArialMT-61"/>
       <use xlink:href="#ArialMT-6e" transform="translate(55.615234 0)"/>
       <use xlink:href="#ArialMT-74" transform="translate(111.230469 0)"/>
       <use xlink:href="#ArialMT-65" transform="translate(139.013672 0)"/>
       <use xlink:href="#ArialMT-72" transform="translate(194.628906 0)"/>
       <use xlink:href="#ArialMT-69" transform="translate(227.929688 0)"/>
       <use xlink:href="#ArialMT-6f" transform="translate(250.146484 0)"/>
       <use xlink:href="#ArialMT-72" transform="translate(305.761719 0)"/>
      </g>
     </g>
    </g>
    <g id="xtick_9">
     <g id="line2d_9">
      <g>
       <use xlink:href="#m9fc32e008a" x="704.225845" y="339.001683" style="stroke: #000000; stroke-width: 0.8"/>
      </g>
     </g>
     <g id="text_9">
      <!-- R -->
      <g transform="translate(691.633953 355.15286) rotate(-45) scale(0.09 -0.09)">
       <use xlink:href="#ArialMT-52"/>
      </g>
      <!-- MTG -->
      <g transform="translate(688.823071 371.425906) rotate(-45) scale(0.09 -0.09)">
       <use xlink:href="#ArialMT-4d"/>
       <use xlink:href="#ArialMT-54" transform="translate(83.300781 0)"/>
       <use xlink:href="#ArialMT-47" transform="translate(144.384766 0)"/>
      </g>
     </g>
    </g>
    <g id="xtick_10">
     <g id="line2d_10">
      <g>
       <use xlink:href="#m9fc32e008a" x="776.198621" y="339.001683" style="stroke: #000000; stroke-width: 0.8"/>
      </g>
     </g>
     <g id="text_10">
      <!-- R -->
      <g transform="translate(763.606729 355.15286) rotate(-45) scale(0.09 -0.09)">
       <use xlink:href="#ArialMT-52"/>
      </g>
      <!-- IFG -->
      <g transform="translate(764.328839 367.892913) rotate(-45) scale(0.09 -0.09)">
       <use xlink:href="#ArialMT-49"/>
       <use xlink:href="#ArialMT-46" transform="translate(27.783203 0)"/>
       <use xlink:href="#ArialMT-47" transform="translate(88.867188 0)"/>
      </g>
     </g>
    </g>
    <g id="xtick_11">
     <g id="line2d_11">
      <g>
       <use xlink:href="#m9fc32e008a" x="848.171397" y="339.001683" style="stroke: #000000; stroke-width: 0.8"/>
      </g>
     </g>
     <g id="text_11">
      <!-- L -->
      <g transform="translate(836.636518 354.095845) rotate(-45) scale(0.09 -0.09)">
       <use xlink:href="#ArialMT-4c"/>
      </g>
      <!-- Heschl -->
      <g transform="translate(827.454715 376.739813) rotate(-45) scale(0.09 -0.09)">
       <defs>
        <path id="ArialMT-48" d="M 513 0 
L 513 4581 
L 1119 4581 
L 1119 2700 
L 3500 2700 
L 3500 4581 
L 4106 4581 
L 4106 0 
L 3500 0 
L 3500 2159 
L 1119 2159 
L 1119 0 
L 513 0 
z
" transform="scale(0.015625)"/>
        <path id="ArialMT-68" d="M 422 0 
L 422 4581 
L 984 4581 
L 984 2938 
Q 1378 3394 1978 3394 
Q 2347 3394 2619 3248 
Q 2891 3103 3008 2847 
Q 3125 2591 3125 2103 
L 3125 0 
L 2563 0 
L 2563 2103 
Q 2563 2525 2380 2717 
Q 2197 2909 1863 2909 
Q 1613 2909 1392 2779 
Q 1172 2650 1078 2428 
Q 984 2206 984 1816 
L 984 0 
L 422 0 
z
" transform="scale(0.015625)"/>
       </defs>
       <use xlink:href="#ArialMT-48"/>
       <use xlink:href="#ArialMT-65" transform="translate(72.216797 0)"/>
       <use xlink:href="#ArialMT-73" transform="translate(127.832031 0)"/>
       <use xlink:href="#ArialMT-63" transform="translate(177.832031 0)"/>
       <use xlink:href="#ArialMT-68" transform="translate(227.832031 0)"/>
       <use xlink:href="#ArialMT-6c" transform="translate(283.447266 0)"/>
      </g>
     </g>
    </g>
    <g id="xtick_12">
     <g id="line2d_12">
      <g>
       <use xlink:href="#m9fc32e008a" x="920.144172" y="339.001683" style="stroke: #000000; stroke-width: 0.8"/>
      </g>
     </g>
     <g id="text_12">
      <!-- R -->
      <g transform="translate(907.55228 355.15286) rotate(-45) scale(0.09 -0.09)">
       <use xlink:href="#ArialMT-52"/>
      </g>
      <!-- Heschl -->
      <g transform="translate(899.42749 376.739813) rotate(-45) scale(0.09 -0.09)">
       <use xlink:href="#ArialMT-48"/>
       <use xlink:href="#ArialMT-65" transform="translate(72.216797 0)"/>
       <use xlink:href="#ArialMT-73" transform="translate(127.832031 0)"/>
       <use xlink:href="#ArialMT-63" transform="translate(177.832031 0)"/>
       <use xlink:href="#ArialMT-68" transform="translate(227.832031 0)"/>
       <use xlink:href="#ArialMT-6c" transform="translate(283.447266 0)"/>
      </g>
     </g>
    </g>
    <g id="text_13">
     <!-- Region of Interest -->
     <g transform="translate(469.043125 410.674769) scale(0.14 -0.14)">
      <defs>
       <path id="ArialMT-20" transform="scale(0.015625)"/>
       <path id="ArialMT-66" d="M 556 0 
L 556 2881 
L 59 2881 
L 59 3319 
L 556 3319 
L 556 3672 
Q 556 4006 616 4169 
Q 697 4388 901 4523 
Q 1106 4659 1475 4659 
Q 1713 4659 2000 4603 
L 1916 4113 
Q 1741 4144 1584 4144 
Q 1328 4144 1222 4034 
Q 1116 3925 1116 3625 
L 1116 3319 
L 1763 3319 
L 1763 2881 
L 1116 2881 
L 1116 0 
L 556 0 
z
" transform="scale(0.015625)"/>
      </defs>
      <use xlink:href="#ArialMT-52"/>
      <use xlink:href="#ArialMT-65" transform="translate(72.216797 0)"/>
      <use xlink:href="#ArialMT-67" transform="translate(127.832031 0)"/>
      <use xlink:href="#ArialMT-69" transform="translate(183.447266 0)"/>
      <use xlink:href="#ArialMT-6f" transform="translate(205.664062 0)"/>
      <use xlink:href="#ArialMT-6e" transform="translate(261.279297 0)"/>
      <use xlink:href="#ArialMT-20" transform="translate(316.894531 0)"/>
      <use xlink:href="#ArialMT-6f" transform="translate(344.677734 0)"/>
      <use xlink:href="#ArialMT-66" transform="translate(400.292969 0)"/>
      <use xlink:href="#ArialMT-20" transform="translate(428.076172 0)"/>
      <use xlink:href="#ArialMT-49" transform="translate(455.859375 0)"/>
      <use xlink:href="#ArialMT-6e" transform="translate(483.642578 0)"/>
      <use xlink:href="#ArialMT-74" transform="translate(539.257812 0)"/>
      <use xlink:href="#ArialMT-65" transform="translate(567.041016 0)"/>
      <use xlink:href="#ArialMT-72" transform="translate(622.65625 0)"/>
      <use xlink:href="#ArialMT-65" transform="translate(655.957031 0)"/>
      <use xlink:href="#ArialMT-73" transform="translate(711.572266 0)"/>
      <use xlink:href="#ArialMT-74" transform="translate(761.572266 0)"/>
     </g>
    </g>
   </g>
   <g id="matplotlib.axis_2">
    <g id="ytick_1">
     <g id="line2d_13">
      <defs>
       <path id="m377959a421" d="M 0 0 
L -3.5 0 
" style="stroke: #000000; stroke-width: 0.8"/>
      </defs>
      <g>
       <use xlink:href="#m377959a421" x="59.169844" y="289.364172" style="stroke: #000000; stroke-width: 0.8"/>
      </g>
     </g>
     <g id="text_14">
      <!-- −0.05 -->
      <g transform="translate(24.338125 293.300968) scale(0.11 -0.11)">
       <defs>
        <path id="ArialMT-2212" d="M 3381 1997 
L 356 1997 
L 356 2522 
L 3381 2522 
L 3381 1997 
z
" transform="scale(0.015625)"/>
        <path id="ArialMT-30" d="M 266 2259 
Q 266 3072 433 3567 
Q 600 4063 929 4331 
Q 1259 4600 1759 4600 
Q 2128 4600 2406 4451 
Q 2684 4303 2865 4023 
Q 3047 3744 3150 3342 
Q 3253 2941 3253 2259 
Q 3253 1453 3087 958 
Q 2922 463 2592 192 
Q 2263 -78 1759 -78 
Q 1097 -78 719 397 
Q 266 969 266 2259 
z
M 844 2259 
Q 844 1131 1108 757 
Q 1372 384 1759 384 
Q 2147 384 2411 759 
Q 2675 1134 2675 2259 
Q 2675 3391 2411 3762 
Q 2147 4134 1753 4134 
Q 1366 4134 1134 3806 
Q 844 3388 844 2259 
z
" transform="scale(0.015625)"/>
        <path id="ArialMT-2e" d="M 581 0 
L 581 641 
L 1222 641 
L 1222 0 
L 581 0 
z
" transform="scale(0.015625)"/>
        <path id="ArialMT-35" d="M 266 1200 
L 856 1250 
Q 922 819 1161 601 
Q 1400 384 1738 384 
Q 2144 384 2425 690 
Q 2706 997 2706 1503 
Q 2706 1984 2436 2262 
Q 2166 2541 1728 2541 
Q 1456 2541 1237 2417 
Q 1019 2294 894 2097 
L 366 2166 
L 809 4519 
L 3088 4519 
L 3088 3981 
L 1259 3981 
L 1013 2750 
Q 1425 3038 1878 3038 
Q 2478 3038 2890 2622 
Q 3303 2206 3303 1553 
Q 3303 931 2941 478 
Q 2500 -78 1738 -78 
Q 1113 -78 717 272 
Q 322 622 266 1200 
z
" transform="scale(0.015625)"/>
       </defs>
       <use xlink:href="#ArialMT-2212"/>
       <use xlink:href="#ArialMT-30" transform="translate(58.398438 0)"/>
       <use xlink:href="#ArialMT-2e" transform="translate(114.013672 0)"/>
       <use xlink:href="#ArialMT-30" transform="translate(141.796875 0)"/>
       <use xlink:href="#ArialMT-35" transform="translate(197.412109 0)"/>
      </g>
     </g>
    </g>
    <g id="ytick_2">
     <g id="line2d_14">
      <g>
       <use xlink:href="#m377959a421" x="59.169844" y="232.915361" style="stroke: #000000; stroke-width: 0.8"/>
      </g>
     </g>
     <g id="text_15">
      <!-- 0.00 -->
      <g transform="translate(30.762813 236.852158) scale(0.11 -0.11)">
       <use xlink:href="#ArialMT-30"/>
       <use xlink:href="#ArialMT-2e" transform="translate(55.615234 0)"/>
       <use xlink:href="#ArialMT-30" transform="translate(83.398438 0)"/>
       <use xlink:href="#ArialMT-30" transform="translate(139.013672 0)"/>
      </g>
     </g>
    </g>
    <g id="ytick_3">
     <g id="line2d_15">
      <g>
       <use xlink:href="#m377959a421" x="59.169844" y="176.46655" style="stroke: #000000; stroke-width: 0.8"/>
      </g>
     </g>
     <g id="text_16">
      <!-- 0.05 -->
      <g transform="translate(30.762813 180.403347) scale(0.11 -0.11)">
       <use xlink:href="#ArialMT-30"/>
       <use xlink:href="#ArialMT-2e" transform="translate(55.615234 0)"/>
       <use xlink:href="#ArialMT-30" transform="translate(83.398438 0)"/>
       <use xlink:href="#ArialMT-35" transform="translate(139.013672 0)"/>
      </g>
     </g>
    </g>
    <g id="ytick_4">
     <g id="line2d_16">
      <g>
       <use xlink:href="#m377959a421" x="59.169844" y="120.017739" style="stroke: #000000; stroke-width: 0.8"/>
      </g>
     </g>
     <g id="text_17">
      <!-- 0.10 -->
      <g transform="translate(30.762813 123.954536) scale(0.11 -0.11)">
       <defs>
        <path id="ArialMT-31" d="M 2384 0 
L 1822 0 
L 1822 3584 
Q 1619 3391 1289 3197 
Q 959 3003 697 2906 
L 697 3450 
Q 1169 3672 1522 3987 
Q 1875 4303 2022 4600 
L 2384 4600 
L 2384 0 
z
" transform="scale(0.015625)"/>
       </defs>
       <use xlink:href="#ArialMT-30"/>
       <use xlink:href="#ArialMT-2e" transform="translate(55.615234 0)"/>
       <use xlink:href="#ArialMT-31" transform="translate(83.398438 0)"/>
       <use xlink:href="#ArialMT-30" transform="translate(139.013672 0)"/>
      </g>
     </g>
    </g>
    <g id="ytick_5">
     <g id="line2d_17">
      <g>
       <use xlink:href="#m377959a421" x="59.169844" y="63.568928" style="stroke: #000000; stroke-width: 0.8"/>
      </g>
     </g>
     <g id="text_18">
      <!-- 0.15 -->
      <g transform="translate(30.762813 67.505725) scale(0.11 -0.11)">
       <use xlink:href="#ArialMT-30"/>
       <use xlink:href="#ArialMT-2e" transform="translate(55.615234 0)"/>
       <use xlink:href="#ArialMT-31" transform="translate(83.398438 0)"/>
       <use xlink:href="#ArialMT-35" transform="translate(139.013672 0)"/>
      </g>
     </g>
    </g>
    <g id="text_19">
     <!-- Mean Activation (β) -->
     <g transform="translate(17.391562 241.87506) rotate(-90) scale(0.14 -0.14)">
      <defs>
       <path id="ArialMT-41" d="M -9 0 
L 1750 4581 
L 2403 4581 
L 4278 0 
L 3588 0 
L 3053 1388 
L 1138 1388 
L 634 0 
L -9 0 
z
M 1313 1881 
L 2866 1881 
L 2388 3150 
Q 2169 3728 2063 4100 
Q 1975 3659 1816 3225 
L 1313 1881 
z
" transform="scale(0.015625)"/>
       <path id="ArialMT-76" d="M 1344 0 
L 81 3319 
L 675 3319 
L 1388 1331 
Q 1503 1009 1600 663 
Q 1675 925 1809 1294 
L 2547 3319 
L 3125 3319 
L 1869 0 
L 1344 0 
z
" transform="scale(0.015625)"/>
       <path id="ArialMT-28" d="M 1497 -1347 
Q 1031 -759 709 28 
Q 388 816 388 1659 
Q 388 2403 628 3084 
Q 909 3875 1497 4659 
L 1900 4659 
Q 1522 4009 1400 3731 
Q 1209 3300 1100 2831 
Q 966 2247 966 1656 
Q 966 153 1900 -1347 
L 1497 -1347 
z
" transform="scale(0.015625)"/>
       <path id="ArialMT-3b2" d="M 997 422 
L 997 -1272 
L 438 -1272 
L 438 3144 
Q 438 3672 580 3970 
Q 722 4269 1069 4464 
Q 1416 4659 1841 4659 
Q 2469 4659 2792 4298 
Q 3116 3938 3116 3509 
Q 3116 3091 2855 2834 
Q 2594 2578 2256 2519 
Q 2800 2466 3095 2128 
Q 3391 1791 3391 1297 
Q 3391 766 3042 345 
Q 2694 -75 2034 -75 
Q 1359 -75 997 422 
z
M 1494 2700 
Q 2069 2700 2331 2900 
Q 2594 3100 2594 3478 
Q 2594 3784 2370 3990 
Q 2147 4197 1813 4197 
Q 1522 4197 1308 4044 
Q 1094 3891 1045 3703 
Q 997 3516 997 3047 
L 997 1788 
Q 997 1250 1072 997 
Q 1147 744 1394 541 
Q 1641 338 1963 338 
Q 2353 338 2579 605 
Q 2806 872 2806 1266 
Q 2806 1591 2639 1848 
Q 2472 2106 2226 2198 
Q 1981 2291 1575 2291 
L 1494 2291 
L 1494 2700 
z
" transform="scale(0.015625)"/>
       <path id="ArialMT-29" d="M 791 -1347 
L 388 -1347 
Q 1322 153 1322 1656 
Q 1322 2244 1188 2822 
Q 1081 3291 891 3722 
Q 769 4003 388 4659 
L 791 4659 
Q 1378 3875 1659 3084 
Q 1900 2403 1900 1659 
Q 1900 816 1576 28 
Q 1253 -759 791 -1347 
z
" transform="scale(0.015625)"/>
      </defs>
      <use xlink:href="#ArialMT-4d"/>
      <use xlink:href="#ArialMT-65" transform="translate(83.300781 0)"/>
      <use xlink:href="#ArialMT-61" transform="translate(138.916016 0)"/>
      <use xlink:href="#ArialMT-6e" transform="translate(194.53125 0)"/>
      <use xlink:href="#ArialMT-20" transform="translate(250.146484 0)"/>
      <use xlink:href="#ArialMT-41" transform="translate(272.429688 0)"/>
      <use xlink:href="#ArialMT-63" transform="translate(339.128906 0)"/>
      <use xlink:href="#ArialMT-74" transform="translate(389.128906 0)"/>
      <use xlink:href="#ArialMT-69" transform="translate(416.912109 0)"/>
      <use xlink:href="#ArialMT-76" transform="translate(439.128906 0)"/>
      <use xlink:href="#ArialMT-61" transform="translate(489.128906 0)"/>
      <use xlink:href="#ArialMT-74" transform="translate(544.744141 0)"/>
      <use xlink:href="#ArialMT-69" transform="translate(572.527344 0)"/>
      <use xlink:href="#ArialMT-6f" transform="translate(594.744141 0)"/>
      <use xlink:href="#ArialMT-6e" transform="translate(650.359375 0)"/>
      <use xlink:href="#ArialMT-20" transform="translate(705.974609 0)"/>
      <use xlink:href="#ArialMT-28" transform="translate(733.757812 0)"/>
      <use xlink:href="#ArialMT-3b2" transform="translate(767.058594 0)"/>
      <use xlink:href="#ArialMT-29" transform="translate(824.578125 0)"/>
     </g>
    </g>
   </g>
   <g id="LineCollection_1">
    <path d="M 110.450446 140.01905 
L 110.450446 38.941099 
" clip-path="url(#p18de6a02f2)" style="fill: none; stroke: #000000; stroke-width: 1.5"/>
    <path d="M 182.423222 324.713083 
L 182.423222 244.435814 
" clip-path="url(#p18de6a02f2)" style="fill: none; stroke: #000000; stroke-width: 1.5"/>
    <path d="M 254.395998 137.295997 
L 254.395998 53.120672 
" clip-path="url(#p18de6a02f2)" style="fill: none; stroke: #000000; stroke-width: 1.5"/>
    <path d="M 326.368773 232.787413 
L 326.368773 170.421784 
" clip-path="url(#p18de6a02f2)" style="fill: none; stroke: #000000; stroke-width: 1.5"/>
    <path d="M 398.341549 274.523889 
L 398.341549 230.056742 
" clip-path="url(#p18de6a02f2)" style="fill: none; stroke: #000000; stroke-width: 1.5"/>
    <path d="M 470.314325 109.269057 
L 470.314325 39.860432 
" clip-path="url(#p18de6a02f2)" style="fill: none; stroke: #000000; stroke-width: 1.5"/>
    <path d="M 542.2871 198.296191 
L 542.2871 112.569678 
" clip-path="url(#p18de6a02f2)" style="fill: none; stroke: #000000; stroke-width: 1.5"/>
    <path d="M 614.259876 259.196014 
L 614.259876 215.868292 
" clip-path="url(#p18de6a02f2)" style="fill: none; stroke: #000000; stroke-width: 1.5"/>
    <path d="M 686.232651 173.93791 
L 686.232651 108.132473 
" clip-path="url(#p18de6a02f2)" style="fill: none; stroke: #000000; stroke-width: 1.5"/>
    <path d="M 758.205427 203.461263 
L 758.205427 154.234233 
" clip-path="url(#p18de6a02f2)" style="fill: none; stroke: #000000; stroke-width: 1.5"/>
    <path d="M 830.178203 239.000101 
L 830.178203 147.707369 
" clip-path="url(#p18de6a02f2)" style="fill: none; stroke: #000000; stroke-width: 1.5"/>
    <path d="M 902.150978 171.551842 
L 902.150978 115.304361 
" clip-path="url(#p18de6a02f2)" style="fill: none; stroke: #000000; stroke-width: 1.5"/>
   </g>
   <g id="line2d_18">
    <defs>
     <path id="m1e3cfe79fd" d="M 2 0 
L -2 -0 
" style="stroke: #000000"/>
    </defs>
    <g clip-path="url(#p18de6a02f2)">
     <use xlink:href="#m1e3cfe79fd" x="110.450446" y="140.01905" style="fill: #1f77b4; stroke: #000000"/>
     <use xlink:href="#m1e3cfe79fd" x="182.423222" y="324.713083" style="fill: #1f77b4; stroke: #000000"/>
     <use xlink:href="#m1e3cfe79fd" x="254.395998" y="137.295997" style="fill: #1f77b4; stroke: #000000"/>
     <use xlink:href="#m1e3cfe79fd" x="326.368773" y="232.787413" style="fill: #1f77b4; stroke: #000000"/>
     <use xlink:href="#m1e3cfe79fd" x="398.341549" y="274.523889" style="fill: #1f77b4; stroke: #000000"/>
     <use xlink:href="#m1e3cfe79fd" x="470.314325" y="109.269057" style="fill: #1f77b4; stroke: #000000"/>
     <use xlink:href="#m1e3cfe79fd" x="542.2871" y="198.296191" style="fill: #1f77b4; stroke: #000000"/>
     <use xlink:href="#m1e3cfe79fd" x="614.259876" y="259.196014" style="fill: #1f77b4; stroke: #000000"/>
     <use xlink:href="#m1e3cfe79fd" x="686.232651" y="173.93791" style="fill: #1f77b4; stroke: #000000"/>
     <use xlink:href="#m1e3cfe79fd" x="758.205427" y="203.461263" style="fill: #1f77b4; stroke: #000000"/>
     <use xlink:href="#m1e3cfe79fd" x="830.178203" y="239.000101" style="fill: #1f77b4; stroke: #000000"/>
     <use xlink:href="#m1e3cfe79fd" x="902.150978" y="171.551842" style="fill: #1f77b4; stroke: #000000"/>
    </g>
   </g>
   <g id="line2d_19">
    <g clip-path="url(#p18de6a02f2)">
     <use xlink:href="#m1e3cfe79fd" x="110.450446" y="38.941099" style="fill: #1f77b4; stroke: #000000"/>
     <use xlink:href="#m1e3cfe79fd" x="182.423222" y="244.435814" style="fill: #1f77b4; stroke: #000000"/>
     <use xlink:href="#m1e3cfe79fd" x="254.395998" y="53.120672" style="fill: #1f77b4; stroke: #000000"/>
     <use xlink:href="#m1e3cfe79fd" x="326.368773" y="170.421784" style="fill: #1f77b4; stroke: #000000"/>
     <use xlink:href="#m1e3cfe79fd" x="398.341549" y="230.056742" style="fill: #1f77b4; stroke: #000000"/>
     <use xlink:href="#m1e3cfe79fd" x="470.314325" y="39.860432" style="fill: #1f77b4; stroke: #000000"/>
     <use xlink:href="#m1e3cfe79fd" x="542.2871" y="112.569678" style="fill: #1f77b4; stroke: #000000"/>
     <use xlink:href="#m1e3cfe79fd" x="614.259876" y="215.868292" style="fill: #1f77b4; stroke: #000000"/>
     <use xlink:href="#m1e3cfe79fd" x="686.232651" y="108.132473" style="fill: #1f77b4; stroke: #000000"/>
     <use xlink:href="#m1e3cfe79fd" x="758.205427" y="154.234233" style="fill: #1f77b4; stroke: #000000"/>
     <use xlink:href="#m1e3cfe79fd" x="830.178203" y="147.707369" style="fill: #1f77b4; stroke: #000000"/>
     <use xlink:href="#m1e3cfe79fd" x="902.150978" y="115.304361" style="fill: #1f77b4; stroke: #000000"/>
    </g>
   </g>
   <g id="LineCollection_2">
    <path d="M 128.44364 176.753314 
L 128.44364 87.520111 
" clip-path="url(#p18de6a02f2)" style="fill: none; stroke: #000000; stroke-width: 1.5"/>
    <path d="M 200.416416 271.334995 
L 200.416416 178.576994 
" clip-path="url(#p18de6a02f2)" style="fill: none; stroke: #000000; stroke-width: 1.5"/>
    <path d="M 272.389192 155.441416 
L 272.389192 49.340071 
" clip-path="url(#p18de6a02f2)" style="fill: none; stroke: #000000; stroke-width: 1.5"/>
    <path d="M 344.361967 276.614297 
L 344.361967 190.109176 
" clip-path="url(#p18de6a02f2)" style="fill: none; stroke: #000000; stroke-width: 1.5"/>
    <path d="M 416.334743 238.11486 
L 416.334743 168.626466 
" clip-path="url(#p18de6a02f2)" style="fill: none; stroke: #000000; stroke-width: 1.5"/>
    <path d="M 488.307518 175.139078 
L 488.307518 79.10141 
" clip-path="url(#p18de6a02f2)" style="fill: none; stroke: #000000; stroke-width: 1.5"/>
    <path d="M 560.280294 205.204653 
L 560.280294 106.712871 
" clip-path="url(#p18de6a02f2)" style="fill: none; stroke: #000000; stroke-width: 1.5"/>
    <path d="M 632.25307 296.993143 
L 632.25307 211.836118 
" clip-path="url(#p18de6a02f2)" style="fill: none; stroke: #000000; stroke-width: 1.5"/>
    <path d="M 704.225845 168.529539 
L 704.225845 74.442819 
" clip-path="url(#p18de6a02f2)" style="fill: none; stroke: #000000; stroke-width: 1.5"/>
    <path d="M 776.198621 253.197242 
L 776.198621 168.576911 
" clip-path="url(#p18de6a02f2)" style="fill: none; stroke: #000000; stroke-width: 1.5"/>
    <path d="M 848.171397 209.081593 
L 848.171397 132.774277 
" clip-path="url(#p18de6a02f2)" style="fill: none; stroke: #000000; stroke-width: 1.5"/>
    <path d="M 920.144172 197.892263 
L 920.144172 113.611164 
" clip-path="url(#p18de6a02f2)" style="fill: none; stroke: #000000; stroke-width: 1.5"/>
   </g>
   <g id="line2d_20">
    <g clip-path="url(#p18de6a02f2)">
     <use xlink:href="#m1e3cfe79fd" x="128.44364" y="176.753314" style="fill: #1f77b4; stroke: #000000"/>
     <use xlink:href="#m1e3cfe79fd" x="200.416416" y="271.334995" style="fill: #1f77b4; stroke: #000000"/>
     <use xlink:href="#m1e3cfe79fd" x="272.389192" y="155.441416" style="fill: #1f77b4; stroke: #000000"/>
     <use xlink:href="#m1e3cfe79fd" x="344.361967" y="276.614297" style="fill: #1f77b4; stroke: #000000"/>
     <use xlink:href="#m1e3cfe79fd" x="416.334743" y="238.11486" style="fill: #1f77b4; stroke: #000000"/>
     <use xlink:href="#m1e3cfe79fd" x="488.307518" y="175.139078" style="fill: #1f77b4; stroke: #000000"/>
     <use xlink:href="#m1e3cfe79fd" x="560.280294" y="205.204653" style="fill: #1f77b4; stroke: #000000"/>
     <use xlink:href="#m1e3cfe79fd" x="632.25307" y="296.993143" style="fill: #1f77b4; stroke: #000000"/>
     <use xlink:href="#m1e3cfe79fd" x="704.225845" y="168.529539" style="fill: #1f77b4; stroke: #000000"/>
     <use xlink:href="#m1e3cfe79fd" x="776.198621" y="253.197242" style="fill: #1f77b4; stroke: #000000"/>
     <use xlink:href="#m1e3cfe79fd" x="848.171397" y="209.081593" style="fill: #1f77b4; stroke: #000000"/>
     <use xlink:href="#m1e3cfe79fd" x="920.144172" y="197.892263" style="fill: #1f77b4; stroke: #000000"/>
    </g>
   </g>
   <g id="line2d_21">
    <g clip-path="url(#p18de6a02f2)">
     <use xlink:href="#m1e3cfe79fd" x="128.44364" y="87.520111" style="fill: #1f77b4; stroke: #000000"/>
     <use xlink:href="#m1e3cfe79fd" x="200.416416" y="178.576994" style="fill: #1f77b4; stroke: #000000"/>
     <use xlink:href="#m1e3cfe79fd" x="272.389192" y="49.340071" style="fill: #1f77b4; stroke: #000000"/>
     <use xlink:href="#m1e3cfe79fd" x="344.361967" y="190.109176" style="fill: #1f77b4; stroke: #000000"/>
     <use xlink:href="#m1e3cfe79fd" x="416.334743" y="168.626466" style="fill: #1f77b4; stroke: #000000"/>
     <use xlink:href="#m1e3cfe79fd" x="488.307518" y="79.10141" style="fill: #1f77b4; stroke: #000000"/>
     <use xlink:href="#m1e3cfe79fd" x="560.280294" y="106.712871" style="fill: #1f77b4; stroke: #000000"/>
     <use xlink:href="#m1e3cfe79fd" x="632.25307" y="211.836118" style="fill: #1f77b4; stroke: #000000"/>
     <use xlink:href="#m1e3cfe79fd" x="704.225845" y="74.442819" style="fill: #1f77b4; stroke: #000000"/>
     <use xlink:href="#m1e3cfe79fd" x="776.198621" y="168.576911" style="fill: #1f77b4; stroke: #000000"/>
     <use xlink:href="#m1e3cfe79fd" x="848.171397" y="132.774277" style="fill: #1f77b4; stroke: #000000"/>
     <use xlink:href="#m1e3cfe79fd" x="920.144172" y="113.611164" style="fill: #1f77b4; stroke: #000000"/>
    </g>
   </g>
   <g id="LineCollection_3">
    <path d="M 146.436834 205.867394 
L 146.436834 142.352592 
" clip-path="url(#p18de6a02f2)" style="fill: none; stroke: #000000; stroke-width: 1.5"/>
    <path d="M 218.40961 228.053092 
L 218.40961 163.190648 
" clip-path="url(#p18de6a02f2)" style="fill: none; stroke: #000000; stroke-width: 1.5"/>
    <path d="M 290.382385 202.753136 
L 290.382385 116.38726 
" clip-path="url(#p18de6a02f2)" style="fill: none; stroke: #000000; stroke-width: 1.5"/>
    <path d="M 362.355161 253.225811 
L 362.355161 209.292212 
" clip-path="url(#p18de6a02f2)" style="fill: none; stroke: #000000; stroke-width: 1.5"/>
    <path d="M 434.327937 286.395203 
L 434.327937 242.187781 
" clip-path="url(#p18de6a02f2)" style="fill: none; stroke: #000000; stroke-width: 1.5"/>
    <path d="M 506.300712 190.209041 
L 506.300712 112.350726 
" clip-path="url(#p18de6a02f2)" style="fill: none; stroke: #000000; stroke-width: 1.5"/>
    <path d="M 578.273488 211.626275 
L 578.273488 120.547285 
" clip-path="url(#p18de6a02f2)" style="fill: none; stroke: #000000; stroke-width: 1.5"/>
    <path d="M 650.246264 242.668662 
L 650.246264 173.164526 
" clip-path="url(#p18de6a02f2)" style="fill: none; stroke: #000000; stroke-width: 1.5"/>
    <path d="M 722.219039 209.402186 
L 722.219039 150.322636 
" clip-path="url(#p18de6a02f2)" style="fill: none; stroke: #000000; stroke-width: 1.5"/>
    <path d="M 794.191815 230.579123 
L 794.191815 174.460362 
" clip-path="url(#p18de6a02f2)" style="fill: none; stroke: #000000; stroke-width: 1.5"/>
    <path d="M 866.16459 192.044487 
L 866.16459 133.222093 
" clip-path="url(#p18de6a02f2)" style="fill: none; stroke: #000000; stroke-width: 1.5"/>
    <path d="M 938.137366 214.533451 
L 938.137366 155.519633 
" clip-path="url(#p18de6a02f2)" style="fill: none; stroke: #000000; stroke-width: 1.5"/>
   </g>
   <g id="line2d_22">
    <g clip-path="url(#p18de6a02f2)">
     <use xlink:href="#m1e3cfe79fd" x="146.436834" y="205.867394" style="fill: #1f77b4; stroke: #000000"/>
     <use xlink:href="#m1e3cfe79fd" x="218.40961" y="228.053092" style="fill: #1f77b4; stroke: #000000"/>
     <use xlink:href="#m1e3cfe79fd" x="290.382385" y="202.753136" style="fill: #1f77b4; stroke: #000000"/>
     <use xlink:href="#m1e3cfe79fd" x="362.355161" y="253.225811" style="fill: #1f77b4; stroke: #000000"/>
     <use xlink:href="#m1e3cfe79fd" x="434.327937" y="286.395203" style="fill: #1f77b4; stroke: #000000"/>
     <use xlink:href="#m1e3cfe79fd" x="506.300712" y="190.209041" style="fill: #1f77b4; stroke: #000000"/>
     <use xlink:href="#m1e3cfe79fd" x="578.273488" y="211.626275" style="fill: #1f77b4; stroke: #000000"/>
     <use xlink:href="#m1e3cfe79fd" x="650.246264" y="242.668662" style="fill: #1f77b4; stroke: #000000"/>
     <use xlink:href="#m1e3cfe79fd" x="722.219039" y="209.402186" style="fill: #1f77b4; stroke: #000000"/>
     <use xlink:href="#m1e3cfe79fd" x="794.191815" y="230.579123" style="fill: #1f77b4; stroke: #000000"/>
     <use xlink:href="#m1e3cfe79fd" x="866.16459" y="192.044487" style="fill: #1f77b4; stroke: #000000"/>
     <use xlink:href="#m1e3cfe79fd" x="938.137366" y="214.533451" style="fill: #1f77b4; stroke: #000000"/>
    </g>
   </g>
   <g id="line2d_23">
    <g clip-path="url(#p18de6a02f2)">
     <use xlink:href="#m1e3cfe79fd" x="146.436834" y="142.352592" style="fill: #1f77b4; stroke: #000000"/>
     <use xlink:href="#m1e3cfe79fd" x="218.40961" y="163.190648" style="fill: #1f77b4; stroke: #000000"/>
     <use xlink:href="#m1e3cfe79fd" x="290.382385" y="116.38726" style="fill: #1f77b4; stroke: #000000"/>
     <use xlink:href="#m1e3cfe79fd" x="362.355161" y="209.292212" style="fill: #1f77b4; stroke: #000000"/>
     <use xlink:href="#m1e3cfe79fd" x="434.327937" y="242.187781" style="fill: #1f77b4; stroke: #000000"/>
     <use xlink:href="#m1e3cfe79fd" x="506.300712" y="112.350726" style="fill: #1f77b4; stroke: #000000"/>
     <use xlink:href="#m1e3cfe79fd" x="578.273488" y="120.547285" style="fill: #1f77b4; stroke: #000000"/>
     <use xlink:href="#m1e3cfe79fd" x="650.246264" y="173.164526" style="fill: #1f77b4; stroke: #000000"/>
     <use xlink:href="#m1e3cfe79fd" x="722.219039" y="150.322636" style="fill: #1f77b4; stroke: #000000"/>
     <use xlink:href="#m1e3cfe79fd" x="794.191815" y="174.460362" style="fill: #1f77b4; stroke: #000000"/>
     <use xlink:href="#m1e3cfe79fd" x="866.16459" y="133.222093" style="fill: #1f77b4; stroke: #000000"/>
     <use xlink:href="#m1e3cfe79fd" x="938.137366" y="155.519633" style="fill: #1f77b4; stroke: #000000"/>
    </g>
   </g>
   <g id="line2d_24">
    <path d="M 59.169844 232.915361 
L 989.417969 232.915361 
" clip-path="url(#p18de6a02f2)" style="fill: none; stroke: #808080; stroke-width: 0.5; stroke-linecap: square"/>
   </g>
   <g id="patch_39">
    <path d="M 59.169844 339.001683 
L 59.169844 24.6525 
" style="fill: none; stroke: #000000; stroke-width: 0.8; stroke-linejoin: miter; stroke-linecap: square"/>
   </g>
   <g id="patch_40">
    <path d="M 59.169844 339.001683 
L 989.417969 339.001683 
" style="fill: none; stroke: #000000; stroke-width: 0.8; stroke-linejoin: miter; stroke-linecap: square"/>
   </g>
   <g id="text_20">
    <!-- Words Vs Baseline -->
    <g transform="translate(456.853906 18.6525) scale(0.16 -0.16)">
     <defs>
      <path id="ArialMT-57" d="M 1294 0 
L 78 4581 
L 700 4581 
L 1397 1578 
Q 1509 1106 1591 641 
Q 1766 1375 1797 1488 
L 2669 4581 
L 3400 4581 
L 4056 2263 
Q 4303 1400 4413 641 
Q 4500 1075 4641 1638 
L 5359 4581 
L 5969 4581 
L 4713 0 
L 4128 0 
L 3163 3491 
Q 3041 3928 3019 4028 
Q 2947 3713 2884 3491 
L 1913 0 
L 1294 0 
z
" transform="scale(0.015625)"/>
      <path id="ArialMT-64" d="M 2575 0 
L 2575 419 
Q 2259 -75 1647 -75 
Q 1250 -75 917 144 
Q 584 363 401 755 
Q 219 1147 219 1656 
Q 219 2153 384 2558 
Q 550 2963 881 3178 
Q 1213 3394 1622 3394 
Q 1922 3394 2156 3267 
Q 2391 3141 2538 2938 
L 2538 4581 
L 3097 4581 
L 3097 0 
L 2575 0 
z
M 797 1656 
Q 797 1019 1065 703 
Q 1334 388 1700 388 
Q 2069 388 2326 689 
Q 2584 991 2584 1609 
Q 2584 2291 2321 2609 
Q 2059 2928 1675 2928 
Q 1300 2928 1048 2622 
Q 797 2316 797 1656 
z
" transform="scale(0.015625)"/>
      <path id="ArialMT-56" d="M 1803 0 
L 28 4581 
L 684 4581 
L 1875 1253 
Q 2019 853 2116 503 
Q 2222 878 2363 1253 
L 3600 4581 
L 4219 4581 
L 2425 0 
L 1803 0 
z
" transform="scale(0.015625)"/>
      <path id="ArialMT-42" d="M 469 0 
L 469 4581 
L 2188 4581 
Q 2713 4581 3030 4442 
Q 3347 4303 3526 4014 
Q 3706 3725 3706 3409 
Q 3706 3116 3547 2856 
Q 3388 2597 3066 2438 
Q 3481 2316 3704 2022 
Q 3928 1728 3928 1328 
Q 3928 1006 3792 729 
Q 3656 453 3456 303 
Q 3256 153 2954 76 
Q 2653 0 2216 0 
L 469 0 
z
M 1075 2656 
L 2066 2656 
Q 2469 2656 2644 2709 
Q 2875 2778 2992 2937 
Q 3109 3097 3109 3338 
Q 3109 3566 3000 3739 
Q 2891 3913 2687 3977 
Q 2484 4041 1991 4041 
L 1075 4041 
L 1075 2656 
z
M 1075 541 
L 2216 541 
Q 2509 541 2628 563 
Q 2838 600 2978 687 
Q 3119 775 3209 942 
Q 3300 1109 3300 1328 
Q 3300 1584 3169 1773 
Q 3038 1963 2805 2039 
Q 2572 2116 2134 2116 
L 1075 2116 
L 1075 541 
z
" transform="scale(0.015625)"/>
     </defs>
     <use xlink:href="#ArialMT-57"/>
     <use xlink:href="#ArialMT-6f" transform="translate(92.634766 0)"/>
     <use xlink:href="#ArialMT-72" transform="translate(148.25 0)"/>
     <use xlink:href="#ArialMT-64" transform="translate(181.550781 0)"/>
     <use xlink:href="#ArialMT-73" transform="translate(237.166016 0)"/>
     <use xlink:href="#ArialMT-20" transform="translate(287.166016 0)"/>
     <use xlink:href="#ArialMT-56" transform="translate(314.949219 0)"/>
     <use xlink:href="#ArialMT-73" transform="translate(381.648438 0)"/>
     <use xlink:href="#ArialMT-20" transform="translate(431.648438 0)"/>
     <use xlink:href="#ArialMT-42" transform="translate(459.431641 0)"/>
     <use xlink:href="#ArialMT-61" transform="translate(526.130859 0)"/>
     <use xlink:href="#ArialMT-73" transform="translate(581.746094 0)"/>
     <use xlink:href="#ArialMT-65" transform="translate(631.746094 0)"/>
     <use xlink:href="#ArialMT-6c" transform="translate(687.361328 0)"/>
     <use xlink:href="#ArialMT-69" transform="translate(709.578125 0)"/>
     <use xlink:href="#ArialMT-6e" transform="translate(731.794922 0)"/>
     <use xlink:href="#ArialMT-65" transform="translate(787.410156 0)"/>
    </g>
   </g>
   <g id="legend_1">
    <g id="patch_41">
     <path d="M 918.285781 96.752656 
L 981.717969 96.752656 
Q 983.917969 96.752656 983.917969 94.552656 
L 983.917969 32.3525 
Q 983.917969 30.1525 981.717969 30.1525 
L 918.285781 30.1525 
Q 916.085781 30.1525 916.085781 32.3525 
L 916.085781 94.552656 
Q 916.085781 96.752656 918.285781 96.752656 
z
" style="fill: #ffffff; opacity: 0.8; stroke: #cccccc; stroke-linejoin: miter"/>
    </g>
    <g id="text_21">
     <!-- Group -->
     <g transform="translate(933.3275 43.288125) scale(0.12 -0.12)">
      <use xlink:href="#ArialMT-47"/>
      <use xlink:href="#ArialMT-72" transform="translate(77.783203 0)"/>
      <use xlink:href="#ArialMT-6f" transform="translate(111.083984 0)"/>
      <use xlink:href="#ArialMT-75" transform="translate(166.699219 0)"/>
      <use xlink:href="#ArialMT-70" transform="translate(222.314453 0)"/>
     </g>
    </g>
    <g id="patch_42">
     <path d="M 920.485781 59.046719 
L 942.485781 59.046719 
L 942.485781 51.346719 
L 920.485781 51.346719 
z
" style="fill: #3498db; opacity: 0.8; stroke: #ffffff; stroke-width: 0.5; stroke-linejoin: miter"/>
    </g>
    <g id="text_22">
     <!-- HC -->
     <g transform="translate(951.285781 59.046719) scale(0.11 -0.11)">
      <defs>
       <path id="ArialMT-43" d="M 3763 1606 
L 4369 1453 
Q 4178 706 3683 314 
Q 3188 -78 2472 -78 
Q 1731 -78 1267 223 
Q 803 525 561 1097 
Q 319 1669 319 2325 
Q 319 3041 592 3573 
Q 866 4106 1370 4382 
Q 1875 4659 2481 4659 
Q 3169 4659 3637 4309 
Q 4106 3959 4291 3325 
L 3694 3184 
Q 3534 3684 3231 3912 
Q 2928 4141 2469 4141 
Q 1941 4141 1586 3887 
Q 1231 3634 1087 3207 
Q 944 2781 944 2328 
Q 944 1744 1114 1308 
Q 1284 872 1643 656 
Q 2003 441 2422 441 
Q 2931 441 3284 734 
Q 3638 1028 3763 1606 
z
" transform="scale(0.015625)"/>
      </defs>
      <use xlink:href="#ArialMT-48"/>
      <use xlink:href="#ArialMT-43" transform="translate(72.216797 0)"/>
     </g>
    </g>
    <g id="patch_43">
     <path d="M 920.485781 74.606562 
L 942.485781 74.606562 
L 942.485781 66.906562 
L 920.485781 66.906562 
z
" style="fill: #e67e22; opacity: 0.8; stroke: #ffffff; stroke-width: 0.5; stroke-linejoin: miter"/>
    </g>
    <g id="text_23">
     <!-- AVH- -->
     <g transform="translate(951.285781 74.606562) scale(0.11 -0.11)">
      <defs>
       <path id="ArialMT-2d" d="M 203 1375 
L 203 1941 
L 1931 1941 
L 1931 1375 
L 203 1375 
z
" transform="scale(0.015625)"/>
      </defs>
      <use xlink:href="#ArialMT-41"/>
      <use xlink:href="#ArialMT-56" transform="translate(59.324219 0)"/>
      <use xlink:href="#ArialMT-48" transform="translate(126.023438 0)"/>
      <use xlink:href="#ArialMT-2d" transform="translate(198.240234 0)"/>
     </g>
    </g>
    <g id="patch_44">
     <path d="M 920.485781 90.166406 
L 942.485781 90.166406 
L 942.485781 82.466406 
L 920.485781 82.466406 
z
" style="fill: #e74c3c; opacity: 0.8; stroke: #ffffff; stroke-width: 0.5; stroke-linejoin: miter"/>
    </g>
    <g id="text_24">
     <!-- AVH+ -->
     <g transform="translate(951.285781 90.166406) scale(0.11 -0.11)">
      <defs>
       <path id="ArialMT-2b" d="M 1603 741 
L 1603 1997 
L 356 1997 
L 356 2522 
L 1603 2522 
L 1603 3769 
L 2134 3769 
L 2134 2522 
L 3381 2522 
L 3381 1997 
L 2134 1997 
L 2134 741 
L 1603 741 
z
" transform="scale(0.015625)"/>
      </defs>
      <use xlink:href="#ArialMT-41"/>
      <use xlink:href="#ArialMT-56" transform="translate(59.324219 0)"/>
      <use xlink:href="#ArialMT-48" transform="translate(126.023438 0)"/>
      <use xlink:href="#ArialMT-2b" transform="translate(198.240234 0)"/>
     </g>
    </g>
   </g>
  </g>
 </g>
 <defs>
  <clipPath id="p18de6a02f2">
   <rect x="59.169844" y="24.6525" width="930.248125" height="314.349183"/>
  </clipPath>
 </defs>
</svg>
