<?xml version="1.0" encoding="utf-8" standalone="no"?>
<!DOCTYPE svg PUBLIC "-//W3C//DTD SVG 1.1//EN"
  "http://www.w3.org/Graphics/SVG/1.1/DTD/svg11.dtd">
<svg xmlns:xlink="http://www.w3.org/1999/xlink" width="564.652187pt" height="420.407344pt" viewBox="0 0 564.652187 420.407344" xmlns="http://www.w3.org/2000/svg" version="1.1">
 <metadata>
  <rdf:RDF xmlns:dc="http://purl.org/dc/elements/1.1/" xmlns:cc="http://creativecommons.org/ns#" xmlns:rdf="http://www.w3.org/1999/02/22-rdf-syntax-ns#">
   <cc:Work>
    <dc:type rdf:resource="http://purl.org/dc/dcmitype/StillImage"/>
    <dc:date>2026-01-10T17:11:46.695062</dc:date>
    <dc:format>image/svg+xml</dc:format>
    <dc:creator>
     <cc:Agent>
      <dc:title>Matplotlib v3.10.8, https://matplotlib.org/</dc:title>
     </cc:Agent>
    </dc:creator>
   </cc:Work>
  </rdf:RDF>
 </metadata>
 <defs>
  <style type="text/css">*{stroke-linejoin: round; stroke-linecap: butt}</style>
 </defs>
 <g id="figure_1">
  <g id="patch_1">
   <path d="M 0 420.407344 
L 564.652187 420.407344 
L 564.652187 0 
L 0 0 
z
" style="fill: #ffffff"/>
  </g>
  <g id="axes_1">
   <g id="patch_2">
    <path d="M 43.572188 396.1475 
L 557.452187 396.1475 
L 557.452187 24.8475 
L 43.572188 24.8475 
z
" style="fill: #ffffff"/>
   </g>
   <g id="FillBetweenPolyCollection_1">
    <path d="M 149.526986 372.088409 
L 77.76648 372.088409 
L 76.654675 368.89649 
L 75.59655 365.704571 
L 74.595751 362.512652 
L 73.655288 359.320732 
L 72.777517 356.128813 
L 71.964126 352.936894 
L 71.216144 349.744975 
L 70.533954 346.553056 
L 69.917325 343.361136 
L 69.365445 340.169217 
L 68.876977 336.977298 
L 68.450109 333.785379 
L 68.08262 330.59346 
L 67.771942 327.40154 
L 67.515231 324.209621 
L 67.309432 321.017702 
L 67.151346 317.825783 
L 67.03769 314.633864 
L 66.965155 311.441944 
L 66.930455 308.250025 
L 66.930369 305.058106 
L 66.961775 301.866187 
L 67.021673 298.674268 
L 67.107202 295.482348 
L 67.215648 292.290429 
L 67.344441 289.09851 
L 67.49115 285.906591 
L 67.653466 282.714672 
L 67.829184 279.522753 
L 68.016182 276.330833 
L 68.212395 273.138914 
L 68.415792 269.946995 
L 68.624352 266.755076 
L 68.836042 263.563157 
L 69.048802 260.371237 
L 69.260534 257.179318 
L 69.469091 253.987399 
L 69.672283 250.79548 
L 69.867883 247.603561 
L 70.053639 244.411641 
L 70.227301 241.219722 
L 70.386642 238.027803 
L 70.5295 234.835884 
L 70.65381 231.643965 
L 70.757654 228.452045 
L 70.839301 225.260126 
L 70.897259 222.068207 
L 70.930321 218.876288 
L 70.93761 215.684369 
L 70.918623 212.492449 
L 70.873271 209.30053 
L 70.801909 206.108611 
L 70.705363 202.916692 
L 70.584952 199.724773 
L 70.442493 196.532854 
L 70.2803 193.340934 
L 70.101179 190.149015 
L 69.908408 186.957096 
L 69.705702 183.765177 
L 69.497182 180.573258 
L 69.287321 177.381338 
L 69.080894 174.189419 
L 68.882912 170.9975 
L 68.698558 167.805581 
L 68.53311 164.613662 
L 68.391872 161.421742 
L 68.280093 158.229823 
L 68.202894 155.037904 
L 68.165191 151.845985 
L 68.171627 148.654066 
L 68.226503 145.462146 
L 68.33372 142.270227 
L 68.496721 139.078308 
L 68.718448 135.886389 
L 69.001304 132.69447 
L 69.347123 129.502551 
L 69.75715 126.310631 
L 70.232034 123.118712 
L 70.771821 119.926793 
L 71.375968 116.734874 
L 72.043352 113.542955 
L 72.7723 110.351035 
L 73.560616 107.159116 
L 74.405615 103.967197 
L 75.30417 100.775278 
L 76.252754 97.583359 
L 77.247489 94.391439 
L 78.284195 91.19952 
L 79.358449 88.007601 
L 80.465629 84.815682 
L 81.600971 81.623763 
L 82.759619 78.431843 
L 83.936674 75.239924 
L 85.127242 72.048005 
L 86.326474 68.856086 
L 87.529614 65.664167 
L 88.732029 62.472247 
L 89.92925 59.280328 
L 91.116998 56.088409 
L 136.176468 56.088409 
L 136.176468 56.088409 
L 137.364216 59.280328 
L 138.561437 62.472247 
L 139.763852 65.664167 
L 140.966992 68.856086 
L 142.166224 72.048005 
L 143.356792 75.239924 
L 144.533847 78.431843 
L 145.692495 81.623763 
L 146.827837 84.815682 
L 147.935017 88.007601 
L 149.009271 91.19952 
L 150.045977 94.391439 
L 151.040712 97.583359 
L 151.989296 100.775278 
L 152.887851 103.967197 
L 153.73285 107.159116 
L 154.521166 110.351035 
L 155.250114 113.542955 
L 155.917498 116.734874 
L 156.521645 119.926793 
L 157.061432 123.118712 
L 157.536316 126.310631 
L 157.946343 129.502551 
L 158.292162 132.69447 
L 158.575018 135.886389 
L 158.796745 139.078308 
L 158.959746 142.270227 
L 159.066963 145.462146 
L 159.121839 148.654066 
L 159.128275 151.845985 
L 159.090572 155.037904 
L 159.013373 158.229823 
L 158.901594 161.421742 
L 158.760356 164.613662 
L 158.594908 167.805581 
L 158.410554 170.9975 
L 158.212572 174.189419 
L 158.006145 177.381338 
L 157.796284 180.573258 
L 157.587764 183.765177 
L 157.385058 186.957096 
L 157.192287 190.149015 
L 157.013166 193.340934 
L 156.850973 196.532854 
L 156.708513 199.724773 
L 156.588103 202.916692 
L 156.491557 206.108611 
L 156.420195 209.30053 
L 156.374843 212.492449 
L 156.355856 215.684369 
L 156.363145 218.876288 
L 156.396207 222.068207 
L 156.454165 225.260126 
L 156.535812 228.452045 
L 156.639656 231.643965 
L 156.763966 234.835884 
L 156.906823 238.027803 
L 157.066165 241.219722 
L 157.239826 244.411641 
L 157.425583 247.603561 
L 157.621183 250.79548 
L 157.824375 253.987399 
L 158.032932 257.179318 
L 158.244664 260.371237 
L 158.457424 263.563157 
L 158.669114 266.755076 
L 158.877674 269.946995 
L 159.081071 273.138914 
L 159.277284 276.330833 
L 159.464282 279.522753 
L 159.64 282.714672 
L 159.802316 285.906591 
L 159.949025 289.09851 
L 160.077818 292.290429 
L 160.186264 295.482348 
L 160.271793 298.674268 
L 160.331691 301.866187 
L 160.363097 305.058106 
L 160.363011 308.250025 
L 160.328311 311.441944 
L 160.255776 314.633864 
L 160.14212 317.825783 
L 159.984033 321.017702 
L 159.778234 324.209621 
L 159.521524 327.40154 
L 159.210846 330.59346 
L 158.843357 333.785379 
L 158.416489 336.977298 
L 157.928021 340.169217 
L 157.376141 343.361136 
L 156.759511 346.553056 
L 156.077322 349.744975 
L 155.32934 352.936894 
L 154.515949 356.128813 
L 153.638178 359.320732 
L 152.697715 362.512652 
L 151.696915 365.704571 
L 150.638791 368.89649 
L 149.526986 372.088409 
z
" clip-path="url(#p3b8e2fcefb)" style="fill: #3498db; fill-opacity: 0.7"/>
   </g>
   <g id="FillBetweenPolyCollection_2">
    <path d="M 310.588938 293.088409 
L 290.435437 293.088409 
L 289.710652 290.912101 
L 288.951308 288.735792 
L 288.156334 286.559483 
L 287.324761 284.383175 
L 286.455764 282.206866 
L 285.548721 280.030558 
L 284.603263 277.854249 
L 283.619328 275.677941 
L 282.597217 273.501632 
L 281.537631 271.325324 
L 280.441726 269.149015 
L 279.311141 266.972707 
L 278.148033 264.796398 
L 276.9551 262.62009 
L 275.735595 260.443781 
L 274.493337 258.267472 
L 273.232703 256.091164 
L 271.958626 253.914855 
L 270.676566 251.738547 
L 269.392487 249.562238 
L 268.112808 247.38593 
L 266.84436 245.209621 
L 265.594314 243.033313 
L 264.370109 240.857004 
L 263.17937 238.680696 
L 262.029803 236.504387 
L 260.929097 234.328079 
L 259.884805 232.15177 
L 258.904227 229.975461 
L 257.994286 227.799153 
L 257.161407 225.622844 
L 256.4114 223.446536 
L 255.749348 221.270227 
L 255.179508 219.093919 
L 254.705228 216.91761 
L 254.328882 214.741302 
L 254.051826 212.564993 
L 253.874379 210.388685 
L 253.795824 208.212376 
L 253.814442 206.036067 
L 253.927563 203.859759 
L 254.13164 201.68345 
L 254.422348 199.507142 
L 254.79469 197.330833 
L 255.243124 195.154525 
L 255.76169 192.978216 
L 256.344142 190.801908 
L 256.984077 188.625599 
L 257.675062 186.449291 
L 258.41074 184.272982 
L 259.184933 182.096674 
L 259.991725 179.920365 
L 260.825522 177.744056 
L 261.681106 175.567748 
L 262.553662 173.391439 
L 263.438787 171.215131 
L 264.332496 169.038822 
L 265.231201 166.862514 
L 266.131692 164.686205 
L 267.031103 162.509897 
L 267.926878 160.333588 
L 268.816732 158.15728 
L 269.69862 155.980971 
L 270.570698 153.804663 
L 271.431294 151.628354 
L 272.278889 149.452045 
L 273.112097 147.275737 
L 273.92965 145.099428 
L 274.730401 142.92312 
L 275.513316 140.746811 
L 276.277488 138.570503 
L 277.02214 136.394194 
L 277.746641 134.217886 
L 278.450517 132.041577 
L 279.13347 129.865269 
L 279.795386 127.68896 
L 280.43635 125.512652 
L 281.056654 123.336343 
L 281.656799 121.160034 
L 282.237498 118.983726 
L 282.799672 116.807417 
L 283.344433 114.631109 
L 283.873074 112.4548 
L 284.387045 110.278492 
L 284.887924 108.102183 
L 285.377386 105.925875 
L 285.857165 103.749566 
L 286.329016 101.573258 
L 286.794672 99.396949 
L 287.255797 97.22064 
L 287.713947 95.044332 
L 288.170526 92.868023 
L 288.626746 90.691715 
L 289.083594 88.515406 
L 289.541801 86.339098 
L 290.001823 84.162789 
L 290.463821 81.986481 
L 290.92766 79.810172 
L 291.392905 77.633864 
L 309.63147 77.633864 
L 309.63147 77.633864 
L 310.096715 79.810172 
L 310.560554 81.986481 
L 311.022552 84.162789 
L 311.482574 86.339098 
L 311.940781 88.515406 
L 312.397629 90.691715 
L 312.853849 92.868023 
L 313.310428 95.044332 
L 313.768578 97.22064 
L 314.229703 99.396949 
L 314.695359 101.573258 
L 315.16721 103.749566 
L 315.646989 105.925875 
L 316.136451 108.102183 
L 316.63733 110.278492 
L 317.151301 112.4548 
L 317.679942 114.631109 
L 318.224703 116.807417 
L 318.786877 118.983726 
L 319.367576 121.160034 
L 319.967721 123.336343 
L 320.588025 125.512652 
L 321.228989 127.68896 
L 321.890905 129.865269 
L 322.573858 132.041577 
L 323.277734 134.217886 
L 324.002235 136.394194 
L 324.746887 138.570503 
L 325.511059 140.746811 
L 326.293974 142.92312 
L 327.094725 145.099428 
L 327.912278 147.275737 
L 328.745486 149.452045 
L 329.593081 151.628354 
L 330.453677 153.804663 
L 331.325755 155.980971 
L 332.207643 158.15728 
L 333.097497 160.333588 
L 333.993272 162.509897 
L 334.892683 164.686205 
L 335.793174 166.862514 
L 336.691879 169.038822 
L 337.585588 171.215131 
L 338.470713 173.391439 
L 339.343269 175.567748 
L 340.198853 177.744056 
L 341.03265 179.920365 
L 341.839442 182.096674 
L 342.613635 184.272982 
L 343.349313 186.449291 
L 344.040298 188.625599 
L 344.680233 190.801908 
L 345.262685 192.978216 
L 345.781251 195.154525 
L 346.229685 197.330833 
L 346.602027 199.507142 
L 346.892735 201.68345 
L 347.096812 203.859759 
L 347.209933 206.036067 
L 347.228551 208.212376 
L 347.149996 210.388685 
L 346.972549 212.564993 
L 346.695493 214.741302 
L 346.319147 216.91761 
L 345.844867 219.093919 
L 345.275027 221.270227 
L 344.612975 223.446536 
L 343.862968 225.622844 
L 343.030089 227.799153 
L 342.120148 229.975461 
L 341.13957 232.15177 
L 340.095278 234.328079 
L 338.994572 236.504387 
L 337.845005 238.680696 
L 336.654266 240.857004 
L 335.430061 243.033313 
L 334.180015 245.209621 
L 332.911567 247.38593 
L 331.631888 249.562238 
L 330.347809 251.738547 
L 329.065749 253.914855 
L 327.791672 256.091164 
L 326.531038 258.267472 
L 325.28878 260.443781 
L 324.069275 262.62009 
L 322.876342 264.796398 
L 321.713234 266.972707 
L 320.582649 269.149015 
L 319.486744 271.325324 
L 318.427158 273.501632 
L 317.405047 275.677941 
L 316.421112 277.854249 
L 315.475654 280.030558 
L 314.568611 282.206866 
L 313.699614 284.383175 
L 312.868041 286.559483 
L 312.073067 288.735792 
L 311.313723 290.912101 
L 310.588938 293.088409 
z
" clip-path="url(#p3b8e2fcefb)" style="fill: #e67e22; fill-opacity: 0.7"/>
   </g>
   <g id="FillBetweenPolyCollection_3">
    <path d="M 505.442886 379.270227 
L 469.312398 379.270227 
L 468.438523 375.860677 
L 467.563277 372.451127 
L 466.687756 369.041577 
L 465.812811 365.632027 
L 464.93906 362.222477 
L 464.066906 358.812927 
L 463.196571 355.403377 
L 462.32813 351.993827 
L 461.461555 348.584277 
L 460.596761 345.174727 
L 459.733653 341.765177 
L 458.872175 338.355627 
L 458.012357 334.946077 
L 457.154357 331.536527 
L 456.2985 328.126977 
L 455.445311 324.717427 
L 454.595535 321.307876 
L 453.75016 317.898326 
L 452.910424 314.488776 
L 452.077817 311.079226 
L 451.254075 307.669676 
L 450.441171 304.260126 
L 449.641297 300.850576 
L 448.856845 297.441026 
L 448.090381 294.031476 
L 447.344626 290.621926 
L 446.622423 287.212376 
L 445.926719 283.802826 
L 445.260533 280.393276 
L 444.62694 276.983726 
L 444.029044 273.574176 
L 443.469958 270.164626 
L 442.952783 266.755076 
L 442.480589 263.345526 
L 442.056391 259.935976 
L 441.683128 256.526426 
L 441.363639 253.116876 
L 441.100633 249.707326 
L 440.896657 246.297775 
L 440.754068 242.888225 
L 440.67499 239.478675 
L 440.661278 236.069125 
L 440.714475 232.659575 
L 440.835771 229.250025 
L 441.025962 225.840475 
L 441.285408 222.430925 
L 441.614001 219.021375 
L 442.011133 215.611825 
L 442.475668 212.202275 
L 443.005932 208.792725 
L 443.599701 205.383175 
L 444.254205 201.973625 
L 444.966141 198.564075 
L 445.731695 195.154525 
L 446.546576 191.744975 
L 447.40606 188.335425 
L 448.30504 184.925875 
L 449.238087 181.516325 
L 450.199513 178.106775 
L 451.183446 174.697225 
L 452.1839 171.287674 
L 453.194853 167.878124 
L 454.210323 164.468574 
L 455.224445 161.059024 
L 456.231539 157.649474 
L 457.226186 154.239924 
L 458.203289 150.830374 
L 459.158132 147.420824 
L 460.086439 144.011274 
L 460.984417 140.601724 
L 461.848798 137.192174 
L 462.676874 133.782624 
L 463.466518 130.373074 
L 464.216206 126.963524 
L 464.925026 123.553974 
L 465.592675 120.144424 
L 466.219455 116.734874 
L 466.806254 113.325324 
L 467.354522 109.915774 
L 467.866235 106.506224 
L 468.343853 103.096674 
L 468.79027 99.687124 
L 469.208751 96.277573 
L 469.602869 92.868023 
L 469.976436 89.458473 
L 470.33342 86.048923 
L 470.67787 82.639373 
L 471.013835 79.229823 
L 471.345279 75.820273 
L 471.676007 72.410723 
L 472.009584 69.001173 
L 472.349269 65.591623 
L 472.697952 62.182073 
L 473.058099 58.772523 
L 473.431709 55.362973 
L 473.820286 51.953423 
L 474.224813 48.543873 
L 474.645748 45.134323 
L 475.08303 41.724773 
L 499.672254 41.724773 
L 499.672254 41.724773 
L 500.109536 45.134323 
L 500.530471 48.543873 
L 500.934998 51.953423 
L 501.323575 55.362973 
L 501.697186 58.772523 
L 502.057332 62.182073 
L 502.406015 65.591623 
L 502.7457 69.001173 
L 503.079277 72.410723 
L 503.410005 75.820273 
L 503.741449 79.229823 
L 504.077414 82.639373 
L 504.421864 86.048923 
L 504.778848 89.458473 
L 505.152415 92.868023 
L 505.546534 96.277573 
L 505.965014 99.687124 
L 506.411431 103.096674 
L 506.889049 106.506224 
L 507.400762 109.915774 
L 507.94903 113.325324 
L 508.535829 116.734874 
L 509.162609 120.144424 
L 509.830258 123.553974 
L 510.539078 126.963524 
L 511.288766 130.373074 
L 512.07841 133.782624 
L 512.906486 137.192174 
L 513.770867 140.601724 
L 514.668845 144.011274 
L 515.597152 147.420824 
L 516.551996 150.830374 
L 517.529098 154.239924 
L 518.523745 157.649474 
L 519.530839 161.059024 
L 520.544961 164.468574 
L 521.560431 167.878124 
L 522.571384 171.287674 
L 523.571838 174.697225 
L 524.555771 178.106775 
L 525.517197 181.516325 
L 526.450244 184.925875 
L 527.349224 188.335425 
L 528.208708 191.744975 
L 529.023589 195.154525 
L 529.789143 198.564075 
L 530.501079 201.973625 
L 531.155583 205.383175 
L 531.749352 208.792725 
L 532.279616 212.202275 
L 532.744151 215.611825 
L 533.141283 219.021375 
L 533.469876 222.430925 
L 533.729322 225.840475 
L 533.919513 229.250025 
L 534.040809 232.659575 
L 534.094006 236.069125 
L 534.080294 239.478675 
L 534.001216 242.888225 
L 533.858627 246.297775 
L 533.654651 249.707326 
L 533.391645 253.116876 
L 533.072156 256.526426 
L 532.698894 259.935976 
L 532.274696 263.345526 
L 531.802501 266.755076 
L 531.285326 270.164626 
L 530.72624 273.574176 
L 530.128344 276.983726 
L 529.494751 280.393276 
L 528.828565 283.802826 
L 528.132861 287.212376 
L 527.410658 290.621926 
L 526.664903 294.031476 
L 525.89844 297.441026 
L 525.113987 300.850576 
L 524.314113 304.260126 
L 523.501209 307.669676 
L 522.677467 311.079226 
L 521.84486 314.488776 
L 521.005124 317.898326 
L 520.159749 321.307876 
L 519.309973 324.717427 
L 518.456784 328.126977 
L 517.600927 331.536527 
L 516.742927 334.946077 
L 515.883109 338.355627 
L 515.021631 341.765177 
L 514.158523 345.174727 
L 513.293729 348.584277 
L 512.427154 351.993827 
L 511.558713 355.403377 
L 510.688378 358.812927 
L 509.816224 362.222477 
L 508.942473 365.632027 
L 508.067528 369.041577 
L 507.192007 372.451127 
L 506.316761 375.860677 
L 505.442886 379.270227 
z
" clip-path="url(#p3b8e2fcefb)" style="fill: #e74c3c; fill-opacity: 0.7"/>
   </g>
   <g id="PathCollection_1">
    <defs>
     <path id="m83aa2e671c" d="M 0 2.738613 
C 0.726289 2.738613 1.422928 2.450055 1.936492 1.936492 
C 2.450055 1.422928 2.738613 0.726289 2.738613 0 
C 2.738613 -0.726289 2.450055 -1.422928 1.936492 -1.936492 
C 1.422928 -2.450055 0.726289 -2.738613 0 -2.738613 
C -0.726289 -2.738613 -1.422928 -2.450055 -1.936492 -1.936492 
C -2.450055 -1.422928 -2.738613 -0.726289 -2.738613 0 
C -2.738613 0.726289 -2.450055 1.422928 -1.936492 1.936492 
C -1.422928 2.450055 -0.726289 2.738613 0 2.738613 
z
" style="stroke: #ffffff; stroke-opacity: 0.6; stroke-width: 0.5"/>
    </defs>
    <g clip-path="url(#p3b8e2fcefb)">
     <use xlink:href="#m83aa2e671c" x="110.928836" y="178.179318" style="fill: #3498db; fill-opacity: 0.6; stroke: #ffffff; stroke-opacity: 0.6; stroke-width: 0.5"/>
     <use xlink:href="#m83aa2e671c" x="118.385963" y="257.179318" style="fill: #3498db; fill-opacity: 0.6; stroke: #ffffff; stroke-opacity: 0.6; stroke-width: 0.5"/>
     <use xlink:href="#m83aa2e671c" x="120.945897" y="206.906591" style="fill: #3498db; fill-opacity: 0.6; stroke: #ffffff; stroke-opacity: 0.6; stroke-width: 0.5"/>
     <use xlink:href="#m83aa2e671c" x="112.027335" y="336.179318" style="fill: #3498db; fill-opacity: 0.6; stroke: #ffffff; stroke-opacity: 0.6; stroke-width: 0.5"/>
     <use xlink:href="#m83aa2e671c" x="101.259576" y="142.270227" style="fill: #3498db; fill-opacity: 0.6; stroke: #ffffff; stroke-opacity: 0.6; stroke-width: 0.5"/>
     <use xlink:href="#m83aa2e671c" x="120.08396" y="350.542955" style="fill: #3498db; fill-opacity: 0.6; stroke: #ffffff; stroke-opacity: 0.6; stroke-width: 0.5"/>
     <use xlink:href="#m83aa2e671c" x="108.342284" y="242.815682" style="fill: #3498db; fill-opacity: 0.6; stroke: #ffffff; stroke-opacity: 0.6; stroke-width: 0.5"/>
     <use xlink:href="#m83aa2e671c" x="115.812413" y="357.724773" style="fill: #3498db; fill-opacity: 0.6; stroke: #ffffff; stroke-opacity: 0.6; stroke-width: 0.5"/>
     <use xlink:href="#m83aa2e671c" x="114.827027" y="106.361136" style="fill: #3498db; fill-opacity: 0.6; stroke: #ffffff; stroke-opacity: 0.6; stroke-width: 0.5"/>
     <use xlink:href="#m83aa2e671c" x="132.548875" y="257.179318" style="fill: #3498db; fill-opacity: 0.6; stroke: #ffffff; stroke-opacity: 0.6; stroke-width: 0.5"/>
     <use xlink:href="#m83aa2e671c" x="102.178683" y="285.906591" style="fill: #3498db; fill-opacity: 0.6; stroke: #ffffff; stroke-opacity: 0.6; stroke-width: 0.5"/>
     <use xlink:href="#m83aa2e671c" x="117.108627" y="149.452045" style="fill: #3498db; fill-opacity: 0.6; stroke: #ffffff; stroke-opacity: 0.6; stroke-width: 0.5"/>
     <use xlink:href="#m83aa2e671c" x="107.866237" y="364.906591" style="fill: #3498db; fill-opacity: 0.6; stroke: #ffffff; stroke-opacity: 0.6; stroke-width: 0.5"/>
     <use xlink:href="#m83aa2e671c" x="107.206895" y="328.9975" style="fill: #3498db; fill-opacity: 0.6; stroke: #ffffff; stroke-opacity: 0.6; stroke-width: 0.5"/>
     <use xlink:href="#m83aa2e671c" x="115.921978" y="364.906591" style="fill: #3498db; fill-opacity: 0.6; stroke: #ffffff; stroke-opacity: 0.6; stroke-width: 0.5"/>
     <use xlink:href="#m83aa2e671c" x="132.239583" y="372.088409" style="fill: #3498db; fill-opacity: 0.6; stroke: #ffffff; stroke-opacity: 0.6; stroke-width: 0.5"/>
     <use xlink:href="#m83aa2e671c" x="123.047412" y="149.452045" style="fill: #3498db; fill-opacity: 0.6; stroke: #ffffff; stroke-opacity: 0.6; stroke-width: 0.5"/>
     <use xlink:href="#m83aa2e671c" x="99.388732" y="293.088409" style="fill: #3498db; fill-opacity: 0.6; stroke: #ffffff; stroke-opacity: 0.6; stroke-width: 0.5"/>
     <use xlink:href="#m83aa2e671c" x="132.128637" y="84.815682" style="fill: #3498db; fill-opacity: 0.6; stroke: #ffffff; stroke-opacity: 0.6; stroke-width: 0.5"/>
     <use xlink:href="#m83aa2e671c" x="120.089272" y="135.088409" style="fill: #3498db; fill-opacity: 0.6; stroke: #ffffff; stroke-opacity: 0.6; stroke-width: 0.5"/>
     <use xlink:href="#m83aa2e671c" x="117.478559" y="214.088409" style="fill: #3498db; fill-opacity: 0.6; stroke: #ffffff; stroke-opacity: 0.6; stroke-width: 0.5"/>
     <use xlink:href="#m83aa2e671c" x="110.097944" y="99.179318" style="fill: #3498db; fill-opacity: 0.6; stroke: #ffffff; stroke-opacity: 0.6; stroke-width: 0.5"/>
     <use xlink:href="#m83aa2e671c" x="106.837597" y="278.724773" style="fill: #3498db; fill-opacity: 0.6; stroke: #ffffff; stroke-opacity: 0.6; stroke-width: 0.5"/>
     <use xlink:href="#m83aa2e671c" x="104.182072" y="56.088409" style="fill: #3498db; fill-opacity: 0.6; stroke: #ffffff; stroke-opacity: 0.6; stroke-width: 0.5"/>
     <use xlink:href="#m83aa2e671c" x="111.002055" y="135.088409" style="fill: #3498db; fill-opacity: 0.6; stroke: #ffffff; stroke-opacity: 0.6; stroke-width: 0.5"/>
    </g>
   </g>
   <g id="PathCollection_2">
    <defs>
     <path id="mc568405c56" d="M 0 2.738613 
C 0.726289 2.738613 1.422928 2.450055 1.936492 1.936492 
C 2.450055 1.422928 2.738613 0.726289 2.738613 0 
C 2.738613 -0.726289 2.450055 -1.422928 1.936492 -1.936492 
C 1.422928 -2.450055 0.726289 -2.738613 0 -2.738613 
C -0.726289 -2.738613 -1.422928 -2.450055 -1.936492 -1.936492 
C -2.450055 -1.422928 -2.738613 -0.726289 -2.738613 0 
C -2.738613 0.726289 -2.450055 1.422928 -1.936492 1.936492 
C -1.422928 2.450055 -0.726289 2.738613 0 2.738613 
z
" style="stroke: #ffffff; stroke-opacity: 0.6; stroke-width: 0.5"/>
    </defs>
    <g clip-path="url(#p3b8e2fcefb)">
     <use xlink:href="#mc568405c56" x="299.091369" y="242.815682" style="fill: #e67e22; fill-opacity: 0.6; stroke: #ffffff; stroke-opacity: 0.6; stroke-width: 0.5"/>
     <use xlink:href="#mc568405c56" x="294.155283" y="293.088409" style="fill: #e67e22; fill-opacity: 0.6; stroke: #ffffff; stroke-opacity: 0.6; stroke-width: 0.5"/>
     <use xlink:href="#mc568405c56" x="284.115989" y="206.906591" style="fill: #e67e22; fill-opacity: 0.6; stroke: #ffffff; stroke-opacity: 0.6; stroke-width: 0.5"/>
     <use xlink:href="#mc568405c56" x="285.970841" y="242.815682" style="fill: #e67e22; fill-opacity: 0.6; stroke: #ffffff; stroke-opacity: 0.6; stroke-width: 0.5"/>
     <use xlink:href="#mc568405c56" x="302.789402" y="192.542955" style="fill: #e67e22; fill-opacity: 0.6; stroke: #ffffff; stroke-opacity: 0.6; stroke-width: 0.5"/>
     <use xlink:href="#mc568405c56" x="291.869845" y="206.906591" style="fill: #e67e22; fill-opacity: 0.6; stroke: #ffffff; stroke-opacity: 0.6; stroke-width: 0.5"/>
     <use xlink:href="#mc568405c56" x="303.261899" y="120.724773" style="fill: #e67e22; fill-opacity: 0.6; stroke: #ffffff; stroke-opacity: 0.6; stroke-width: 0.5"/>
     <use xlink:href="#mc568405c56" x="289.962724" y="221.270227" style="fill: #e67e22; fill-opacity: 0.6; stroke: #ffffff; stroke-opacity: 0.6; stroke-width: 0.5"/>
     <use xlink:href="#mc568405c56" x="314.397463" y="149.452045" style="fill: #e67e22; fill-opacity: 0.6; stroke: #ffffff; stroke-opacity: 0.6; stroke-width: 0.5"/>
     <use xlink:href="#mc568405c56" x="297.951054" y="170.9975" style="fill: #e67e22; fill-opacity: 0.6; stroke: #ffffff; stroke-opacity: 0.6; stroke-width: 0.5"/>
     <use xlink:href="#mc568405c56" x="290.960928" y="214.088409" style="fill: #e67e22; fill-opacity: 0.6; stroke: #ffffff; stroke-opacity: 0.6; stroke-width: 0.5"/>
     <use xlink:href="#mc568405c56" x="298.339633" y="221.270227" style="fill: #e67e22; fill-opacity: 0.6; stroke: #ffffff; stroke-opacity: 0.6; stroke-width: 0.5"/>
     <use xlink:href="#mc568405c56" x="302.994236" y="192.542955" style="fill: #e67e22; fill-opacity: 0.6; stroke: #ffffff; stroke-opacity: 0.6; stroke-width: 0.5"/>
     <use xlink:href="#mc568405c56" x="298.739871" y="221.270227" style="fill: #e67e22; fill-opacity: 0.6; stroke: #ffffff; stroke-opacity: 0.6; stroke-width: 0.5"/>
     <use xlink:href="#mc568405c56" x="300.696198" y="156.633864" style="fill: #e67e22; fill-opacity: 0.6; stroke: #ffffff; stroke-opacity: 0.6; stroke-width: 0.5"/>
     <use xlink:href="#mc568405c56" x="290.547341" y="77.633864" style="fill: #e67e22; fill-opacity: 0.6; stroke: #ffffff; stroke-opacity: 0.6; stroke-width: 0.5"/>
     <use xlink:href="#mc568405c56" x="303.626029" y="206.906591" style="fill: #e67e22; fill-opacity: 0.6; stroke: #ffffff; stroke-opacity: 0.6; stroke-width: 0.5"/>
     <use xlink:href="#mc568405c56" x="299.196065" y="99.179318" style="fill: #e67e22; fill-opacity: 0.6; stroke: #ffffff; stroke-opacity: 0.6; stroke-width: 0.5"/>
     <use xlink:href="#mc568405c56" x="296.622953" y="178.179318" style="fill: #e67e22; fill-opacity: 0.6; stroke: #ffffff; stroke-opacity: 0.6; stroke-width: 0.5"/>
     <use xlink:href="#mc568405c56" x="297.856076" y="249.9975" style="fill: #e67e22; fill-opacity: 0.6; stroke: #ffffff; stroke-opacity: 0.6; stroke-width: 0.5"/>
     <use xlink:href="#mc568405c56" x="306.521971" y="135.088409" style="fill: #e67e22; fill-opacity: 0.6; stroke: #ffffff; stroke-opacity: 0.6; stroke-width: 0.5"/>
     <use xlink:href="#mc568405c56" x="308.467608" y="170.9975" style="fill: #e67e22; fill-opacity: 0.6; stroke: #ffffff; stroke-opacity: 0.6; stroke-width: 0.5"/>
     <use xlink:href="#mc568405c56" x="285.770902" y="264.361136" style="fill: #e67e22; fill-opacity: 0.6; stroke: #ffffff; stroke-opacity: 0.6; stroke-width: 0.5"/>
    </g>
   </g>
   <g id="PathCollection_3">
    <defs>
     <path id="m9d5c39022c" d="M 0 2.738613 
C 0.726289 2.738613 1.422928 2.450055 1.936492 1.936492 
C 2.450055 1.422928 2.738613 0.726289 2.738613 0 
C 2.738613 -0.726289 2.450055 -1.422928 1.936492 -1.936492 
C 1.422928 -2.450055 0.726289 -2.738613 0 -2.738613 
C -0.726289 -2.738613 -1.422928 -2.450055 -1.936492 -1.936492 
C -2.450055 -1.422928 -2.738613 -0.726289 -2.738613 0 
C -2.738613 0.726289 -2.450055 1.422928 -1.936492 1.936492 
C -1.422928 2.450055 -0.726289 2.738613 0 2.738613 
z
" style="stroke: #ffffff; stroke-opacity: 0.6; stroke-width: 0.5"/>
    </defs>
    <g clip-path="url(#p3b8e2fcefb)">
     <use xlink:href="#m9d5c39022c" x="474.809655" y="199.724773" style="fill: #e74c3c; fill-opacity: 0.6; stroke: #ffffff; stroke-opacity: 0.6; stroke-width: 0.5"/>
     <use xlink:href="#m9d5c39022c" x="473.050895" y="249.9975" style="fill: #e74c3c; fill-opacity: 0.6; stroke: #ffffff; stroke-opacity: 0.6; stroke-width: 0.5"/>
     <use xlink:href="#m9d5c39022c" x="485.254322" y="228.452045" style="fill: #e74c3c; fill-opacity: 0.6; stroke: #ffffff; stroke-opacity: 0.6; stroke-width: 0.5"/>
     <use xlink:href="#m9d5c39022c" x="498.854106" y="285.906591" style="fill: #e74c3c; fill-opacity: 0.6; stroke: #ffffff; stroke-opacity: 0.6; stroke-width: 0.5"/>
     <use xlink:href="#m9d5c39022c" x="495.60418" y="336.179318" style="fill: #e74c3c; fill-opacity: 0.6; stroke: #ffffff; stroke-opacity: 0.6; stroke-width: 0.5"/>
     <use xlink:href="#m9d5c39022c" x="476.87204" y="285.906591" style="fill: #e74c3c; fill-opacity: 0.6; stroke: #ffffff; stroke-opacity: 0.6; stroke-width: 0.5"/>
     <use xlink:href="#m9d5c39022c" x="481.061204" y="293.088409" style="fill: #e74c3c; fill-opacity: 0.6; stroke: #ffffff; stroke-opacity: 0.6; stroke-width: 0.5"/>
     <use xlink:href="#m9d5c39022c" x="486.653066" y="142.270227" style="fill: #e74c3c; fill-opacity: 0.6; stroke: #ffffff; stroke-opacity: 0.6; stroke-width: 0.5"/>
     <use xlink:href="#m9d5c39022c" x="481.994206" y="379.270227" style="fill: #e74c3c; fill-opacity: 0.6; stroke: #ffffff; stroke-opacity: 0.6; stroke-width: 0.5"/>
     <use xlink:href="#m9d5c39022c" x="498.800794" y="271.542955" style="fill: #e74c3c; fill-opacity: 0.6; stroke: #ffffff; stroke-opacity: 0.6; stroke-width: 0.5"/>
     <use xlink:href="#m9d5c39022c" x="488.384502" y="84.815682" style="fill: #e74c3c; fill-opacity: 0.6; stroke: #ffffff; stroke-opacity: 0.6; stroke-width: 0.5"/>
     <use xlink:href="#m9d5c39022c" x="485.49133" y="199.724773" style="fill: #e74c3c; fill-opacity: 0.6; stroke: #ffffff; stroke-opacity: 0.6; stroke-width: 0.5"/>
     <use xlink:href="#m9d5c39022c" x="486.906604" y="142.270227" style="fill: #e74c3c; fill-opacity: 0.6; stroke: #ffffff; stroke-opacity: 0.6; stroke-width: 0.5"/>
     <use xlink:href="#m9d5c39022c" x="484.817976" y="343.361136" style="fill: #e74c3c; fill-opacity: 0.6; stroke: #ffffff; stroke-opacity: 0.6; stroke-width: 0.5"/>
     <use xlink:href="#m9d5c39022c" x="475.082862" y="170.9975" style="fill: #e74c3c; fill-opacity: 0.6; stroke: #ffffff; stroke-opacity: 0.6; stroke-width: 0.5"/>
     <use xlink:href="#m9d5c39022c" x="490.41643" y="199.724773" style="fill: #e74c3c; fill-opacity: 0.6; stroke: #ffffff; stroke-opacity: 0.6; stroke-width: 0.5"/>
     <use xlink:href="#m9d5c39022c" x="486.95915" y="41.724773" style="fill: #e74c3c; fill-opacity: 0.6; stroke: #ffffff; stroke-opacity: 0.6; stroke-width: 0.5"/>
     <use xlink:href="#m9d5c39022c" x="474.685264" y="56.088409" style="fill: #e74c3c; fill-opacity: 0.6; stroke: #ffffff; stroke-opacity: 0.6; stroke-width: 0.5"/>
     <use xlink:href="#m9d5c39022c" x="480.54772" y="372.088409" style="fill: #e74c3c; fill-opacity: 0.6; stroke: #ffffff; stroke-opacity: 0.6; stroke-width: 0.5"/>
     <use xlink:href="#m9d5c39022c" x="498.440765" y="214.088409" style="fill: #e74c3c; fill-opacity: 0.6; stroke: #ffffff; stroke-opacity: 0.6; stroke-width: 0.5"/>
     <use xlink:href="#m9d5c39022c" x="479.217541" y="285.906591" style="fill: #e74c3c; fill-opacity: 0.6; stroke: #ffffff; stroke-opacity: 0.6; stroke-width: 0.5"/>
     <use xlink:href="#m9d5c39022c" x="490.160092" y="235.633864" style="fill: #e74c3c; fill-opacity: 0.6; stroke: #ffffff; stroke-opacity: 0.6; stroke-width: 0.5"/>
     <use xlink:href="#m9d5c39022c" x="493.246669" y="221.270227" style="fill: #e74c3c; fill-opacity: 0.6; stroke: #ffffff; stroke-opacity: 0.6; stroke-width: 0.5"/>
    </g>
   </g>
   <g id="matplotlib.axis_1">
    <g id="xtick_1">
     <g id="line2d_1">
      <defs>
       <path id="m07a45a932e" d="M 0 0 
L 0 3.5 
" style="stroke: #000000; stroke-width: 0.8"/>
      </defs>
      <g>
       <use xlink:href="#m07a45a932e" x="113.646733" y="396.1475" style="stroke: #000000; stroke-width: 0.8"/>
      </g>
     </g>
     <g id="text_1">
      <!-- HC -->
      <g transform="translate(105.70267 411.021094) scale(0.11 -0.11)">
       <defs>
        <path id="ArialMT-48" d="M 513 0 
L 513 4581 
L 1119 4581 
L 1119 2700 
L 3500 2700 
L 3500 4581 
L 4106 4581 
L 4106 0 
L 3500 0 
L 3500 2159 
L 1119 2159 
L 1119 0 
L 513 0 
z
" transform="scale(0.015625)"/>
        <path id="ArialMT-43" d="M 3763 1606 
L 4369 1453 
Q 4178 706 3683 314 
Q 3188 -78 2472 -78 
Q 1731 -78 1267 223 
Q 803 525 561 1097 
Q 319 1669 319 2325 
Q 319 3041 592 3573 
Q 866 4106 1370 4382 
Q 1875 4659 2481 4659 
Q 3169 4659 3637 4309 
Q 4106 3959 4291 3325 
L 3694 3184 
Q 3534 3684 3231 3912 
Q 2928 4141 2469 4141 
Q 1941 4141 1586 3887 
Q 1231 3634 1087 3207 
Q 944 2781 944 2328 
Q 944 1744 1114 1308 
Q 1284 872 1643 656 
Q 2003 441 2422 441 
Q 2931 441 3284 734 
Q 3638 1028 3763 1606 
z
" transform="scale(0.015625)"/>
       </defs>
       <use xlink:href="#ArialMT-48"/>
       <use xlink:href="#ArialMT-43" transform="translate(72.216797 0)"/>
      </g>
     </g>
    </g>
    <g id="xtick_2">
     <g id="line2d_2">
      <g>
       <use xlink:href="#m07a45a932e" x="300.512187" y="396.1475" style="stroke: #000000; stroke-width: 0.8"/>
      </g>
     </g>
     <g id="text_2">
      <!-- AVH- -->
      <g transform="translate(287.777109 411.021094) scale(0.11 -0.11)">
       <defs>
        <path id="ArialMT-41" d="M -9 0 
L 1750 4581 
L 2403 4581 
L 4278 0 
L 3588 0 
L 3053 1388 
L 1138 1388 
L 634 0 
L -9 0 
z
M 1313 1881 
L 2866 1881 
L 2388 3150 
Q 2169 3728 2063 4100 
Q 1975 3659 1816 3225 
L 1313 1881 
z
" transform="scale(0.015625)"/>
        <path id="ArialMT-56" d="M 1803 0 
L 28 4581 
L 684 4581 
L 1875 1253 
Q 2019 853 2116 503 
Q 2222 878 2363 1253 
L 3600 4581 
L 4219 4581 
L 2425 0 
L 1803 0 
z
" transform="scale(0.015625)"/>
        <path id="ArialMT-2d" d="M 203 1375 
L 203 1941 
L 1931 1941 
L 1931 1375 
L 203 1375 
z
" transform="scale(0.015625)"/>
       </defs>
       <use xlink:href="#ArialMT-41"/>
       <use xlink:href="#ArialMT-56" transform="translate(59.324219 0)"/>
       <use xlink:href="#ArialMT-48" transform="translate(126.023438 0)"/>
       <use xlink:href="#ArialMT-2d" transform="translate(198.240234 0)"/>
      </g>
     </g>
    </g>
    <g id="xtick_3">
     <g id="line2d_3">
      <g>
       <use xlink:href="#m07a45a932e" x="487.377642" y="396.1475" style="stroke: #000000; stroke-width: 0.8"/>
      </g>
     </g>
     <g id="text_3">
      <!-- AVH+ -->
      <g transform="translate(473.261548 411.021094) scale(0.11 -0.11)">
       <defs>
        <path id="ArialMT-2b" d="M 1603 741 
L 1603 1997 
L 356 1997 
L 356 2522 
L 1603 2522 
L 1603 3769 
L 2134 3769 
L 2134 2522 
L 3381 2522 
L 3381 1997 
L 2134 1997 
L 2134 741 
L 1603 741 
z
" transform="scale(0.015625)"/>
       </defs>
       <use xlink:href="#ArialMT-41"/>
       <use xlink:href="#ArialMT-56" transform="translate(59.324219 0)"/>
       <use xlink:href="#ArialMT-48" transform="translate(126.023438 0)"/>
       <use xlink:href="#ArialMT-2b" transform="translate(198.240234 0)"/>
      </g>
     </g>
    </g>
   </g>
   <g id="matplotlib.axis_2">
    <g id="ytick_1">
     <g id="line2d_4">
      <defs>
       <path id="mdad5f4d408" d="M 0 0 
L -3.5 0 
" style="stroke: #000000; stroke-width: 0.8"/>
      </defs>
      <g>
       <use xlink:href="#mdad5f4d408" x="43.572188" y="372.088409" style="stroke: #000000; stroke-width: 0.8"/>
      </g>
     </g>
     <g id="text_4">
      <!-- 20 -->
      <g transform="translate(24.338125 376.025206) scale(0.11 -0.11)">
       <defs>
        <path id="ArialMT-32" d="M 3222 541 
L 3222 0 
L 194 0 
Q 188 203 259 391 
Q 375 700 629 1000 
Q 884 1300 1366 1694 
Q 2113 2306 2375 2664 
Q 2638 3022 2638 3341 
Q 2638 3675 2398 3904 
Q 2159 4134 1775 4134 
Q 1369 4134 1125 3890 
Q 881 3647 878 3216 
L 300 3275 
Q 359 3922 746 4261 
Q 1134 4600 1788 4600 
Q 2447 4600 2831 4234 
Q 3216 3869 3216 3328 
Q 3216 3053 3103 2787 
Q 2991 2522 2730 2228 
Q 2469 1934 1863 1422 
Q 1356 997 1212 845 
Q 1069 694 975 541 
L 3222 541 
z
" transform="scale(0.015625)"/>
        <path id="ArialMT-30" d="M 266 2259 
Q 266 3072 433 3567 
Q 600 4063 929 4331 
Q 1259 4600 1759 4600 
Q 2128 4600 2406 4451 
Q 2684 4303 2865 4023 
Q 3047 3744 3150 3342 
Q 3253 2941 3253 2259 
Q 3253 1453 3087 958 
Q 2922 463 2592 192 
Q 2263 -78 1759 -78 
Q 1097 -78 719 397 
Q 266 969 266 2259 
z
M 844 2259 
Q 844 1131 1108 757 
Q 1372 384 1759 384 
Q 2147 384 2411 759 
Q 2675 1134 2675 2259 
Q 2675 3391 2411 3762 
Q 2147 4134 1753 4134 
Q 1366 4134 1134 3806 
Q 844 3388 844 2259 
z
" transform="scale(0.015625)"/>
       </defs>
       <use xlink:href="#ArialMT-32"/>
       <use xlink:href="#ArialMT-30" transform="translate(55.615234 0)"/>
      </g>
     </g>
    </g>
    <g id="ytick_2">
     <g id="line2d_5">
      <g>
       <use xlink:href="#mdad5f4d408" x="43.572188" y="300.270227" style="stroke: #000000; stroke-width: 0.8"/>
      </g>
     </g>
     <g id="text_5">
      <!-- 30 -->
      <g transform="translate(24.338125 304.207024) scale(0.11 -0.11)">
       <defs>
        <path id="ArialMT-33" d="M 269 1209 
L 831 1284 
Q 928 806 1161 595 
Q 1394 384 1728 384 
Q 2125 384 2398 659 
Q 2672 934 2672 1341 
Q 2672 1728 2419 1979 
Q 2166 2231 1775 2231 
Q 1616 2231 1378 2169 
L 1441 2663 
Q 1497 2656 1531 2656 
Q 1891 2656 2178 2843 
Q 2466 3031 2466 3422 
Q 2466 3731 2256 3934 
Q 2047 4138 1716 4138 
Q 1388 4138 1169 3931 
Q 950 3725 888 3313 
L 325 3413 
Q 428 3978 793 4289 
Q 1159 4600 1703 4600 
Q 2078 4600 2393 4439 
Q 2709 4278 2876 4000 
Q 3044 3722 3044 3409 
Q 3044 3113 2884 2869 
Q 2725 2625 2413 2481 
Q 2819 2388 3044 2092 
Q 3269 1797 3269 1353 
Q 3269 753 2831 336 
Q 2394 -81 1725 -81 
Q 1122 -81 723 278 
Q 325 638 269 1209 
z
" transform="scale(0.015625)"/>
       </defs>
       <use xlink:href="#ArialMT-33"/>
       <use xlink:href="#ArialMT-30" transform="translate(55.615234 0)"/>
      </g>
     </g>
    </g>
    <g id="ytick_3">
     <g id="line2d_6">
      <g>
       <use xlink:href="#mdad5f4d408" x="43.572188" y="228.452045" style="stroke: #000000; stroke-width: 0.8"/>
      </g>
     </g>
     <g id="text_6">
      <!-- 40 -->
      <g transform="translate(24.338125 232.388842) scale(0.11 -0.11)">
       <defs>
        <path id="ArialMT-34" d="M 2069 0 
L 2069 1097 
L 81 1097 
L 81 1613 
L 2172 4581 
L 2631 4581 
L 2631 1613 
L 3250 1613 
L 3250 1097 
L 2631 1097 
L 2631 0 
L 2069 0 
z
M 2069 1613 
L 2069 3678 
L 634 1613 
L 2069 1613 
z
" transform="scale(0.015625)"/>
       </defs>
       <use xlink:href="#ArialMT-34"/>
       <use xlink:href="#ArialMT-30" transform="translate(55.615234 0)"/>
      </g>
     </g>
    </g>
    <g id="ytick_4">
     <g id="line2d_7">
      <g>
       <use xlink:href="#mdad5f4d408" x="43.572188" y="156.633864" style="stroke: #000000; stroke-width: 0.8"/>
      </g>
     </g>
     <g id="text_7">
      <!-- 50 -->
      <g transform="translate(24.338125 160.570661) scale(0.11 -0.11)">
       <defs>
        <path id="ArialMT-35" d="M 266 1200 
L 856 1250 
Q 922 819 1161 601 
Q 1400 384 1738 384 
Q 2144 384 2425 690 
Q 2706 997 2706 1503 
Q 2706 1984 2436 2262 
Q 2166 2541 1728 2541 
Q 1456 2541 1237 2417 
Q 1019 2294 894 2097 
L 366 2166 
L 809 4519 
L 3088 4519 
L 3088 3981 
L 1259 3981 
L 1013 2750 
Q 1425 3038 1878 3038 
Q 2478 3038 2890 2622 
Q 3303 2206 3303 1553 
Q 3303 931 2941 478 
Q 2500 -78 1738 -78 
Q 1113 -78 717 272 
Q 322 622 266 1200 
z
" transform="scale(0.015625)"/>
       </defs>
       <use xlink:href="#ArialMT-35"/>
       <use xlink:href="#ArialMT-30" transform="translate(55.615234 0)"/>
      </g>
     </g>
    </g>
    <g id="ytick_5">
     <g id="line2d_8">
      <g>
       <use xlink:href="#mdad5f4d408" x="43.572188" y="84.815682" style="stroke: #000000; stroke-width: 0.8"/>
      </g>
     </g>
     <g id="text_8">
      <!-- 60 -->
      <g transform="translate(24.338125 88.752479) scale(0.11 -0.11)">
       <defs>
        <path id="ArialMT-36" d="M 3184 3459 
L 2625 3416 
Q 2550 3747 2413 3897 
Q 2184 4138 1850 4138 
Q 1581 4138 1378 3988 
Q 1113 3794 959 3422 
Q 806 3050 800 2363 
Q 1003 2672 1297 2822 
Q 1591 2972 1913 2972 
Q 2475 2972 2870 2558 
Q 3266 2144 3266 1488 
Q 3266 1056 3080 686 
Q 2894 316 2569 119 
Q 2244 -78 1831 -78 
Q 1128 -78 684 439 
Q 241 956 241 2144 
Q 241 3472 731 4075 
Q 1159 4600 1884 4600 
Q 2425 4600 2770 4297 
Q 3116 3994 3184 3459 
z
M 888 1484 
Q 888 1194 1011 928 
Q 1134 663 1356 523 
Q 1578 384 1822 384 
Q 2178 384 2434 671 
Q 2691 959 2691 1453 
Q 2691 1928 2437 2201 
Q 2184 2475 1800 2475 
Q 1419 2475 1153 2201 
Q 888 1928 888 1484 
z
" transform="scale(0.015625)"/>
       </defs>
       <use xlink:href="#ArialMT-36"/>
       <use xlink:href="#ArialMT-30" transform="translate(55.615234 0)"/>
      </g>
     </g>
    </g>
    <g id="text_9">
     <!-- Age (years) -->
     <g transform="translate(17.391563 246.674375) rotate(-90) scale(0.14 -0.14)">
      <defs>
       <path id="ArialMT-67" d="M 319 -275 
L 866 -356 
Q 900 -609 1056 -725 
Q 1266 -881 1628 -881 
Q 2019 -881 2231 -725 
Q 2444 -569 2519 -288 
Q 2563 -116 2559 434 
Q 2191 0 1641 0 
Q 956 0 581 494 
Q 206 988 206 1678 
Q 206 2153 378 2554 
Q 550 2956 876 3175 
Q 1203 3394 1644 3394 
Q 2231 3394 2613 2919 
L 2613 3319 
L 3131 3319 
L 3131 450 
Q 3131 -325 2973 -648 
Q 2816 -972 2473 -1159 
Q 2131 -1347 1631 -1347 
Q 1038 -1347 672 -1080 
Q 306 -813 319 -275 
z
M 784 1719 
Q 784 1066 1043 766 
Q 1303 466 1694 466 
Q 2081 466 2343 764 
Q 2606 1063 2606 1700 
Q 2606 2309 2336 2618 
Q 2066 2928 1684 2928 
Q 1309 2928 1046 2623 
Q 784 2319 784 1719 
z
" transform="scale(0.015625)"/>
       <path id="ArialMT-65" d="M 2694 1069 
L 3275 997 
Q 3138 488 2766 206 
Q 2394 -75 1816 -75 
Q 1088 -75 661 373 
Q 234 822 234 1631 
Q 234 2469 665 2931 
Q 1097 3394 1784 3394 
Q 2450 3394 2872 2941 
Q 3294 2488 3294 1666 
Q 3294 1616 3291 1516 
L 816 1516 
Q 847 969 1125 678 
Q 1403 388 1819 388 
Q 2128 388 2347 550 
Q 2566 713 2694 1069 
z
M 847 1978 
L 2700 1978 
Q 2663 2397 2488 2606 
Q 2219 2931 1791 2931 
Q 1403 2931 1139 2672 
Q 875 2413 847 1978 
z
" transform="scale(0.015625)"/>
       <path id="ArialMT-20" transform="scale(0.015625)"/>
       <path id="ArialMT-28" d="M 1497 -1347 
Q 1031 -759 709 28 
Q 388 816 388 1659 
Q 388 2403 628 3084 
Q 909 3875 1497 4659 
L 1900 4659 
Q 1522 4009 1400 3731 
Q 1209 3300 1100 2831 
Q 966 2247 966 1656 
Q 966 153 1900 -1347 
L 1497 -1347 
z
" transform="scale(0.015625)"/>
       <path id="ArialMT-79" d="M 397 -1278 
L 334 -750 
Q 519 -800 656 -800 
Q 844 -800 956 -737 
Q 1069 -675 1141 -563 
Q 1194 -478 1313 -144 
Q 1328 -97 1363 -6 
L 103 3319 
L 709 3319 
L 1400 1397 
Q 1534 1031 1641 628 
Q 1738 1016 1872 1384 
L 2581 3319 
L 3144 3319 
L 1881 -56 
Q 1678 -603 1566 -809 
Q 1416 -1088 1222 -1217 
Q 1028 -1347 759 -1347 
Q 597 -1347 397 -1278 
z
" transform="scale(0.015625)"/>
       <path id="ArialMT-61" d="M 2588 409 
Q 2275 144 1986 34 
Q 1697 -75 1366 -75 
Q 819 -75 525 192 
Q 231 459 231 875 
Q 231 1119 342 1320 
Q 453 1522 633 1644 
Q 813 1766 1038 1828 
Q 1203 1872 1538 1913 
Q 2219 1994 2541 2106 
Q 2544 2222 2544 2253 
Q 2544 2597 2384 2738 
Q 2169 2928 1744 2928 
Q 1347 2928 1158 2789 
Q 969 2650 878 2297 
L 328 2372 
Q 403 2725 575 2942 
Q 747 3159 1072 3276 
Q 1397 3394 1825 3394 
Q 2250 3394 2515 3294 
Q 2781 3194 2906 3042 
Q 3031 2891 3081 2659 
Q 3109 2516 3109 2141 
L 3109 1391 
Q 3109 606 3145 398 
Q 3181 191 3288 0 
L 2700 0 
Q 2613 175 2588 409 
z
M 2541 1666 
Q 2234 1541 1622 1453 
Q 1275 1403 1131 1340 
Q 988 1278 909 1158 
Q 831 1038 831 891 
Q 831 666 1001 516 
Q 1172 366 1500 366 
Q 1825 366 2078 508 
Q 2331 650 2450 897 
Q 2541 1088 2541 1459 
L 2541 1666 
z
" transform="scale(0.015625)"/>
       <path id="ArialMT-72" d="M 416 0 
L 416 3319 
L 922 3319 
L 922 2816 
Q 1116 3169 1280 3281 
Q 1444 3394 1641 3394 
Q 1925 3394 2219 3213 
L 2025 2691 
Q 1819 2813 1613 2813 
Q 1428 2813 1281 2702 
Q 1134 2591 1072 2394 
Q 978 2094 978 1738 
L 978 0 
L 416 0 
z
" transform="scale(0.015625)"/>
       <path id="ArialMT-73" d="M 197 991 
L 753 1078 
Q 800 744 1014 566 
Q 1228 388 1613 388 
Q 2000 388 2187 545 
Q 2375 703 2375 916 
Q 2375 1106 2209 1216 
Q 2094 1291 1634 1406 
Q 1016 1563 777 1677 
Q 538 1791 414 1992 
Q 291 2194 291 2438 
Q 291 2659 392 2848 
Q 494 3038 669 3163 
Q 800 3259 1026 3326 
Q 1253 3394 1513 3394 
Q 1903 3394 2198 3281 
Q 2494 3169 2634 2976 
Q 2775 2784 2828 2463 
L 2278 2388 
Q 2241 2644 2061 2787 
Q 1881 2931 1553 2931 
Q 1166 2931 1000 2803 
Q 834 2675 834 2503 
Q 834 2394 903 2306 
Q 972 2216 1119 2156 
Q 1203 2125 1616 2013 
Q 2213 1853 2448 1751 
Q 2684 1650 2818 1456 
Q 2953 1263 2953 975 
Q 2953 694 2789 445 
Q 2625 197 2315 61 
Q 2006 -75 1616 -75 
Q 969 -75 630 194 
Q 291 463 197 991 
z
" transform="scale(0.015625)"/>
       <path id="ArialMT-29" d="M 791 -1347 
L 388 -1347 
Q 1322 153 1322 1656 
Q 1322 2244 1188 2822 
Q 1081 3291 891 3722 
Q 769 4003 388 4659 
L 791 4659 
Q 1378 3875 1659 3084 
Q 1900 2403 1900 1659 
Q 1900 816 1576 28 
Q 1253 -759 791 -1347 
z
" transform="scale(0.015625)"/>
      </defs>
      <use xlink:href="#ArialMT-41"/>
      <use xlink:href="#ArialMT-67" transform="translate(66.699219 0)"/>
      <use xlink:href="#ArialMT-65" transform="translate(122.314453 0)"/>
      <use xlink:href="#ArialMT-20" transform="translate(177.929688 0)"/>
      <use xlink:href="#ArialMT-28" transform="translate(205.712891 0)"/>
      <use xlink:href="#ArialMT-79" transform="translate(239.013672 0)"/>
      <use xlink:href="#ArialMT-65" transform="translate(289.013672 0)"/>
      <use xlink:href="#ArialMT-61" transform="translate(344.628906 0)"/>
      <use xlink:href="#ArialMT-72" transform="translate(400.244141 0)"/>
      <use xlink:href="#ArialMT-73" transform="translate(433.544922 0)"/>
      <use xlink:href="#ArialMT-29" transform="translate(483.544922 0)"/>
     </g>
    </g>
   </g>
   <g id="LineCollection_1">
    <path d="M 90.288551 229.888409 
L 137.004915 229.888409 
" clip-path="url(#p3b8e2fcefb)" style="fill: none; stroke: #1f77b4; stroke-width: 1.5"/>
    <path d="M 277.154006 192.855208 
L 323.870369 192.855208 
" clip-path="url(#p3b8e2fcefb)" style="fill: none; stroke: #1f77b4; stroke-width: 1.5"/>
    <path d="M 464.01946 227.82754 
L 510.735824 227.82754 
" clip-path="url(#p3b8e2fcefb)" style="fill: none; stroke: #1f77b4; stroke-width: 1.5"/>
   </g>
   <g id="LineCollection_2">
    <path d="M 90.288551 56.088409 
L 137.004915 56.088409 
" clip-path="url(#p3b8e2fcefb)" style="fill: none; stroke: #1f77b4; stroke-width: 1.5"/>
    <path d="M 277.154006 77.633864 
L 323.870369 77.633864 
" clip-path="url(#p3b8e2fcefb)" style="fill: none; stroke: #1f77b4; stroke-width: 1.5"/>
    <path d="M 464.01946 41.724773 
L 510.735824 41.724773 
" clip-path="url(#p3b8e2fcefb)" style="fill: none; stroke: #1f77b4; stroke-width: 1.5"/>
   </g>
   <g id="LineCollection_3">
    <path d="M 90.288551 372.088409 
L 137.004915 372.088409 
" clip-path="url(#p3b8e2fcefb)" style="fill: none; stroke: #1f77b4; stroke-width: 1.5"/>
    <path d="M 277.154006 293.088409 
L 323.870369 293.088409 
" clip-path="url(#p3b8e2fcefb)" style="fill: none; stroke: #1f77b4; stroke-width: 1.5"/>
    <path d="M 464.01946 379.270227 
L 510.735824 379.270227 
" clip-path="url(#p3b8e2fcefb)" style="fill: none; stroke: #1f77b4; stroke-width: 1.5"/>
   </g>
   <g id="LineCollection_4">
    <path d="M 113.646733 372.088409 
L 113.646733 56.088409 
" clip-path="url(#p3b8e2fcefb)" style="fill: none; stroke: #1f77b4; stroke-width: 1.5"/>
    <path d="M 300.512187 293.088409 
L 300.512187 77.633864 
" clip-path="url(#p3b8e2fcefb)" style="fill: none; stroke: #1f77b4; stroke-width: 1.5"/>
    <path d="M 487.377642 379.270227 
L 487.377642 41.724773 
" clip-path="url(#p3b8e2fcefb)" style="fill: none; stroke: #1f77b4; stroke-width: 1.5"/>
   </g>
   <g id="LineCollection_5">
    <path d="M 90.288551 242.815682 
L 137.004915 242.815682 
" clip-path="url(#p3b8e2fcefb)" style="fill: none; stroke: #1f77b4; stroke-width: 1.5"/>
    <path d="M 277.154006 206.906591 
L 323.870369 206.906591 
" clip-path="url(#p3b8e2fcefb)" style="fill: none; stroke: #1f77b4; stroke-width: 1.5"/>
    <path d="M 464.01946 228.452045 
L 510.735824 228.452045 
" clip-path="url(#p3b8e2fcefb)" style="fill: none; stroke: #1f77b4; stroke-width: 1.5"/>
   </g>
   <g id="patch_3">
    <path d="M 43.572188 396.1475 
L 43.572188 24.8475 
" style="fill: none; stroke: #000000; stroke-width: 0.8; stroke-linejoin: miter; stroke-linecap: square"/>
   </g>
   <g id="patch_4">
    <path d="M 43.572187 396.1475 
L 557.452187 396.1475 
" style="fill: none; stroke: #000000; stroke-width: 0.8; stroke-linejoin: miter; stroke-linecap: square"/>
   </g>
   <g id="text_10">
    <!-- n=25 -->
    <g transform="translate(102.385014 410.511136) scale(0.1 -0.1)">
     <defs>
      <path id="ArialMT-6e" d="M 422 0 
L 422 3319 
L 928 3319 
L 928 2847 
Q 1294 3394 1984 3394 
Q 2284 3394 2536 3286 
Q 2788 3178 2913 3003 
Q 3038 2828 3088 2588 
Q 3119 2431 3119 2041 
L 3119 0 
L 2556 0 
L 2556 2019 
Q 2556 2363 2490 2533 
Q 2425 2703 2258 2804 
Q 2091 2906 1866 2906 
Q 1506 2906 1245 2678 
Q 984 2450 984 1813 
L 984 0 
L 422 0 
z
" transform="scale(0.015625)"/>
      <path id="ArialMT-3d" d="M 3381 2694 
L 356 2694 
L 356 3219 
L 3381 3219 
L 3381 2694 
z
M 3381 1303 
L 356 1303 
L 356 1828 
L 3381 1828 
L 3381 1303 
z
" transform="scale(0.015625)"/>
     </defs>
     <use xlink:href="#ArialMT-6e"/>
     <use xlink:href="#ArialMT-3d" transform="translate(55.615234 0)"/>
     <use xlink:href="#ArialMT-32" transform="translate(114.013672 0)"/>
     <use xlink:href="#ArialMT-35" transform="translate(169.628906 0)"/>
    </g>
   </g>
   <g id="text_11">
    <!-- n=23 -->
    <g transform="translate(289.250469 410.511136) scale(0.1 -0.1)">
     <use xlink:href="#ArialMT-6e"/>
     <use xlink:href="#ArialMT-3d" transform="translate(55.615234 0)"/>
     <use xlink:href="#ArialMT-32" transform="translate(114.013672 0)"/>
     <use xlink:href="#ArialMT-33" transform="translate(169.628906 0)"/>
    </g>
   </g>
   <g id="text_12">
    <!-- n=23 -->
    <g transform="translate(476.115923 410.511136) scale(0.1 -0.1)">
     <use xlink:href="#ArialMT-6e"/>
     <use xlink:href="#ArialMT-3d" transform="translate(55.615234 0)"/>
     <use xlink:href="#ArialMT-32" transform="translate(114.013672 0)"/>
     <use xlink:href="#ArialMT-33" transform="translate(169.628906 0)"/>
    </g>
   </g>
   <g id="text_13">
    <!-- Age Distribution by Group -->
    <g transform="translate(208.915937 18.8475) scale(0.16 -0.16)">
     <defs>
      <path id="ArialMT-44" d="M 494 0 
L 494 4581 
L 2072 4581 
Q 2606 4581 2888 4516 
Q 3281 4425 3559 4188 
Q 3922 3881 4101 3404 
Q 4281 2928 4281 2316 
Q 4281 1794 4159 1391 
Q 4038 988 3847 723 
Q 3656 459 3429 307 
Q 3203 156 2883 78 
Q 2563 0 2147 0 
L 494 0 
z
M 1100 541 
L 2078 541 
Q 2531 541 2789 625 
Q 3047 709 3200 863 
Q 3416 1078 3536 1442 
Q 3656 1806 3656 2325 
Q 3656 3044 3420 3430 
Q 3184 3816 2847 3947 
Q 2603 4041 2063 4041 
L 1100 4041 
L 1100 541 
z
" transform="scale(0.015625)"/>
      <path id="ArialMT-69" d="M 425 3934 
L 425 4581 
L 988 4581 
L 988 3934 
L 425 3934 
z
M 425 0 
L 425 3319 
L 988 3319 
L 988 0 
L 425 0 
z
" transform="scale(0.015625)"/>
      <path id="ArialMT-74" d="M 1650 503 
L 1731 6 
Q 1494 -44 1306 -44 
Q 1000 -44 831 53 
Q 663 150 594 308 
Q 525 466 525 972 
L 525 2881 
L 113 2881 
L 113 3319 
L 525 3319 
L 525 4141 
L 1084 4478 
L 1084 3319 
L 1650 3319 
L 1650 2881 
L 1084 2881 
L 1084 941 
Q 1084 700 1114 631 
Q 1144 563 1211 522 
Q 1278 481 1403 481 
Q 1497 481 1650 503 
z
" transform="scale(0.015625)"/>
      <path id="ArialMT-62" d="M 941 0 
L 419 0 
L 419 4581 
L 981 4581 
L 981 2947 
Q 1338 3394 1891 3394 
Q 2197 3394 2470 3270 
Q 2744 3147 2920 2923 
Q 3097 2700 3197 2384 
Q 3297 2069 3297 1709 
Q 3297 856 2875 390 
Q 2453 -75 1863 -75 
Q 1275 -75 941 416 
L 941 0 
z
M 934 1684 
Q 934 1088 1097 822 
Q 1363 388 1816 388 
Q 2184 388 2453 708 
Q 2722 1028 2722 1663 
Q 2722 2313 2464 2622 
Q 2206 2931 1841 2931 
Q 1472 2931 1203 2611 
Q 934 2291 934 1684 
z
" transform="scale(0.015625)"/>
      <path id="ArialMT-75" d="M 2597 0 
L 2597 488 
Q 2209 -75 1544 -75 
Q 1250 -75 995 37 
Q 741 150 617 320 
Q 494 491 444 738 
Q 409 903 409 1263 
L 409 3319 
L 972 3319 
L 972 1478 
Q 972 1038 1006 884 
Q 1059 663 1231 536 
Q 1403 409 1656 409 
Q 1909 409 2131 539 
Q 2353 669 2445 892 
Q 2538 1116 2538 1541 
L 2538 3319 
L 3100 3319 
L 3100 0 
L 2597 0 
z
" transform="scale(0.015625)"/>
      <path id="ArialMT-6f" d="M 213 1659 
Q 213 2581 725 3025 
Q 1153 3394 1769 3394 
Q 2453 3394 2887 2945 
Q 3322 2497 3322 1706 
Q 3322 1066 3130 698 
Q 2938 331 2570 128 
Q 2203 -75 1769 -75 
Q 1072 -75 642 372 
Q 213 819 213 1659 
z
M 791 1659 
Q 791 1022 1069 705 
Q 1347 388 1769 388 
Q 2188 388 2466 706 
Q 2744 1025 2744 1678 
Q 2744 2294 2464 2611 
Q 2184 2928 1769 2928 
Q 1347 2928 1069 2612 
Q 791 2297 791 1659 
z
" transform="scale(0.015625)"/>
      <path id="ArialMT-47" d="M 2638 1797 
L 2638 2334 
L 4578 2338 
L 4578 638 
Q 4131 281 3656 101 
Q 3181 -78 2681 -78 
Q 2006 -78 1454 211 
Q 903 500 622 1047 
Q 341 1594 341 2269 
Q 341 2938 620 3517 
Q 900 4097 1425 4378 
Q 1950 4659 2634 4659 
Q 3131 4659 3532 4498 
Q 3934 4338 4162 4050 
Q 4391 3763 4509 3300 
L 3963 3150 
Q 3859 3500 3706 3700 
Q 3553 3900 3268 4020 
Q 2984 4141 2638 4141 
Q 2222 4141 1919 4014 
Q 1616 3888 1430 3681 
Q 1244 3475 1141 3228 
Q 966 2803 966 2306 
Q 966 1694 1177 1281 
Q 1388 869 1791 669 
Q 2194 469 2647 469 
Q 3041 469 3416 620 
Q 3791 772 3984 944 
L 3984 1797 
L 2638 1797 
z
" transform="scale(0.015625)"/>
      <path id="ArialMT-70" d="M 422 -1272 
L 422 3319 
L 934 3319 
L 934 2888 
Q 1116 3141 1344 3267 
Q 1572 3394 1897 3394 
Q 2322 3394 2647 3175 
Q 2972 2956 3137 2557 
Q 3303 2159 3303 1684 
Q 3303 1175 3120 767 
Q 2938 359 2589 142 
Q 2241 -75 1856 -75 
Q 1575 -75 1351 44 
Q 1128 163 984 344 
L 984 -1272 
L 422 -1272 
z
M 931 1641 
Q 931 1000 1190 694 
Q 1450 388 1819 388 
Q 2194 388 2461 705 
Q 2728 1022 2728 1688 
Q 2728 2322 2467 2637 
Q 2206 2953 1844 2953 
Q 1484 2953 1207 2617 
Q 931 2281 931 1641 
z
" transform="scale(0.015625)"/>
     </defs>
     <use xlink:href="#ArialMT-41"/>
     <use xlink:href="#ArialMT-67" transform="translate(66.699219 0)"/>
     <use xlink:href="#ArialMT-65" transform="translate(122.314453 0)"/>
     <use xlink:href="#ArialMT-20" transform="translate(177.929688 0)"/>
     <use xlink:href="#ArialMT-44" transform="translate(205.712891 0)"/>
     <use xlink:href="#ArialMT-69" transform="translate(277.929688 0)"/>
     <use xlink:href="#ArialMT-73" transform="translate(300.146484 0)"/>
     <use xlink:href="#ArialMT-74" transform="translate(350.146484 0)"/>
     <use xlink:href="#ArialMT-72" transform="translate(377.929688 0)"/>
     <use xlink:href="#ArialMT-69" transform="translate(411.230469 0)"/>
     <use xlink:href="#ArialMT-62" transform="translate(433.447266 0)"/>
     <use xlink:href="#ArialMT-75" transform="translate(489.0625 0)"/>
     <use xlink:href="#ArialMT-74" transform="translate(544.677734 0)"/>
     <use xlink:href="#ArialMT-69" transform="translate(572.460938 0)"/>
     <use xlink:href="#ArialMT-6f" transform="translate(594.677734 0)"/>
     <use xlink:href="#ArialMT-6e" transform="translate(650.292969 0)"/>
     <use xlink:href="#ArialMT-20" transform="translate(705.908203 0)"/>
     <use xlink:href="#ArialMT-62" transform="translate(733.691406 0)"/>
     <use xlink:href="#ArialMT-79" transform="translate(789.306641 0)"/>
     <use xlink:href="#ArialMT-20" transform="translate(839.306641 0)"/>
     <use xlink:href="#ArialMT-47" transform="translate(867.089844 0)"/>
     <use xlink:href="#ArialMT-72" transform="translate(944.873047 0)"/>
     <use xlink:href="#ArialMT-6f" transform="translate(978.173828 0)"/>
     <use xlink:href="#ArialMT-75" transform="translate(1033.789062 0)"/>
     <use xlink:href="#ArialMT-70" transform="translate(1089.404297 0)"/>
    </g>
   </g>
  </g>
 </g>
 <defs>
  <clipPath id="p3b8e2fcefb">
   <rect x="43.572188" y="24.8475" width="513.88" height="371.3"/>
  </clipPath>
 </defs>
</svg>
