<?xml version="1.0" encoding="utf-8" standalone="no"?>
<!DOCTYPE svg PUBLIC "-//W3C//DTD SVG 1.1//EN"
  "http://www.w3.org/Graphics/SVG/1.1/DTD/svg11.dtd">
<svg xmlns:xlink="http://www.w3.org/1999/xlink" width="564.58625pt" height="420.407344pt" viewBox="0 0 564.58625 420.407344" xmlns="http://www.w3.org/2000/svg" version="1.1">
 <metadata>
  <rdf:RDF xmlns:dc="http://purl.org/dc/elements/1.1/" xmlns:cc="http://creativecommons.org/ns#" xmlns:rdf="http://www.w3.org/1999/02/22-rdf-syntax-ns#">
   <cc:Work>
    <dc:type rdf:resource="http://purl.org/dc/dcmitype/StillImage"/>
    <dc:date>2026-01-10T17:11:46.287111</dc:date>
    <dc:format>image/svg+xml</dc:format>
    <dc:creator>
     <cc:Agent>
      <dc:title>Matplotlib v3.10.8, https://matplotlib.org/</dc:title>
     </cc:Agent>
    </dc:creator>
   </cc:Work>
  </rdf:RDF>
 </metadata>
 <defs>
  <style type="text/css">*{stroke-linejoin: round; stroke-linecap: butt}</style>
 </defs>
 <g id="figure_1">
  <g id="patch_1">
   <path d="M 0 420.407344 
L 564.58625 420.407344 
L 564.58625 0 
L 0 0 
z
" style="fill: #ffffff"/>
  </g>
  <g id="axes_1">
   <g id="patch_2">
    <path d="M 46.628125 396.1475 
L 557.38625 396.1475 
L 557.38625 24.8475 
L 46.628125 24.8475 
z
" style="fill: #ffffff"/>
   </g>
   <g id="FillBetweenPolyCollection_1">
    <path d="M 142.698024 379.270227 
L 89.855896 379.270227 
L 88.251129 376.881962 
L 86.65125 374.493697 
L 85.067023 372.105432 
L 83.509459 369.717167 
L 81.989666 367.328902 
L 80.518696 364.940637 
L 79.107385 362.552372 
L 77.766193 360.164107 
L 76.505055 357.775842 
L 75.333225 355.387577 
L 74.259145 352.999312 
L 73.290313 350.611047 
L 72.433175 348.222781 
L 71.693029 345.834516 
L 71.073948 343.446251 
L 70.578727 341.057986 
L 70.208847 338.669721 
L 69.964461 336.281456 
L 69.844403 333.893191 
L 69.846216 331.504926 
L 69.966199 329.116661 
L 70.19948 326.728396 
L 70.540098 324.340131 
L 70.981106 321.951866 
L 71.51469 319.563601 
L 72.132293 317.175336 
L 72.824756 314.787071 
L 73.582464 312.398806 
L 74.395497 310.01054 
L 75.253779 307.622275 
L 76.147238 305.23401 
L 77.06595 302.845745 
L 78.000283 300.45748 
L 78.941039 298.069215 
L 79.879573 295.68095 
L 80.807914 293.292685 
L 81.718856 290.90442 
L 82.606047 288.516155 
L 83.464051 286.12789 
L 84.288396 283.739625 
L 85.075605 281.35136 
L 85.823202 278.963095 
L 86.529702 276.57483 
L 87.194587 274.186565 
L 87.818256 271.7983 
L 88.40197 269.410034 
L 88.94777 267.021769 
L 89.458396 264.633504 
L 89.937186 262.245239 
L 90.387971 259.856974 
L 90.814961 257.468709 
L 91.222637 255.080444 
L 91.615625 252.692179 
L 91.998592 250.303914 
L 92.376125 247.915649 
L 92.752632 245.527384 
L 93.132237 243.139119 
L 93.518695 240.750854 
L 93.915312 238.362589 
L 94.324871 235.974324 
L 94.749588 233.586059 
L 95.19106 231.197793 
L 95.650245 228.809528 
L 96.127449 226.421263 
L 96.622328 224.032998 
L 97.133906 221.644733 
L 97.660609 219.256468 
L 98.200307 216.868203 
L 98.75038 214.479938 
L 99.307781 212.091673 
L 99.869121 209.703408 
L 100.430756 207.315143 
L 100.98888 204.926878 
L 101.539627 202.538613 
L 102.079168 200.150348 
L 102.603808 197.762083 
L 103.110084 195.373818 
L 103.594856 192.985552 
L 104.05538 190.597287 
L 104.489384 188.209022 
L 104.895124 185.820757 
L 105.271424 183.432492 
L 105.617706 181.044227 
L 105.934001 178.655962 
L 106.220942 176.267697 
L 106.479746 173.879432 
L 106.712171 171.491167 
L 106.92047 169.102902 
L 107.107325 166.714637 
L 107.275768 164.326372 
L 107.429102 161.938107 
L 107.57081 159.549842 
L 107.704461 157.161577 
L 107.833617 154.773312 
L 107.961742 152.385046 
L 108.09212 149.996781 
L 108.22777 147.608516 
L 108.371384 145.220251 
L 108.525266 142.831986 
L 124.028655 142.831986 
L 124.028655 142.831986 
L 124.182536 145.220251 
L 124.32615 147.608516 
L 124.4618 149.996781 
L 124.592178 152.385046 
L 124.720304 154.773312 
L 124.849459 157.161577 
L 124.98311 159.549842 
L 125.124818 161.938107 
L 125.278153 164.326372 
L 125.446596 166.714637 
L 125.63345 169.102902 
L 125.841749 171.491167 
L 126.074175 173.879432 
L 126.332978 176.267697 
L 126.61992 178.655962 
L 126.936214 181.044227 
L 127.282496 183.432492 
L 127.658796 185.820757 
L 128.064536 188.209022 
L 128.49854 190.597287 
L 128.959064 192.985552 
L 129.443836 195.373818 
L 129.950113 197.762083 
L 130.474753 200.150348 
L 131.014293 202.538613 
L 131.56504 204.926878 
L 132.123165 207.315143 
L 132.684799 209.703408 
L 133.246139 212.091673 
L 133.803541 214.479938 
L 134.353613 216.868203 
L 134.893312 219.256468 
L 135.420014 221.644733 
L 135.931592 224.032998 
L 136.426471 226.421263 
L 136.903675 228.809528 
L 137.362861 231.197793 
L 137.804333 233.586059 
L 138.229049 235.974324 
L 138.638609 238.362589 
L 139.035225 240.750854 
L 139.421684 243.139119 
L 139.801289 245.527384 
L 140.177795 247.915649 
L 140.555328 250.303914 
L 140.938295 252.692179 
L 141.331284 255.080444 
L 141.738959 257.468709 
L 142.16595 259.856974 
L 142.616734 262.245239 
L 143.095524 264.633504 
L 143.60615 267.021769 
L 144.151951 269.410034 
L 144.735664 271.7983 
L 145.359334 274.186565 
L 146.024218 276.57483 
L 146.730718 278.963095 
L 147.478315 281.35136 
L 148.265524 283.739625 
L 149.08987 286.12789 
L 149.947873 288.516155 
L 150.835064 290.90442 
L 151.746006 293.292685 
L 152.674347 295.68095 
L 153.612882 298.069215 
L 154.553638 300.45748 
L 155.487971 302.845745 
L 156.406682 305.23401 
L 157.300141 307.622275 
L 158.158424 310.01054 
L 158.971456 312.398806 
L 159.729165 314.787071 
L 160.421628 317.175336 
L 161.039231 319.563601 
L 161.572814 321.951866 
L 162.013823 324.340131 
L 162.354441 326.728396 
L 162.587722 329.116661 
L 162.707705 331.504926 
L 162.709517 333.893191 
L 162.589459 336.281456 
L 162.345074 338.669721 
L 161.975194 341.057986 
L 161.479973 343.446251 
L 160.860892 345.834516 
L 160.120745 348.222781 
L 159.263607 350.611047 
L 158.294775 352.999312 
L 157.220695 355.387577 
L 156.048866 357.775842 
L 154.787727 360.164107 
L 153.446535 362.552372 
L 152.035224 364.940637 
L 150.564254 367.328902 
L 149.044462 369.717167 
L 147.486898 372.105432 
L 145.902671 374.493697 
L 144.302791 376.881962 
L 142.698024 379.270227 
z
" clip-path="url(#p66d8448be9)" style="fill: #3498db; fill-opacity: 0.7"/>
   </g>
   <g id="FillBetweenPolyCollection_2">
    <path d="M 333.857825 371.210684 
L 270.15655 371.210684 
L 268.639997 368.238754 
L 267.165319 365.266824 
L 265.742891 362.294895 
L 264.382776 359.322965 
L 263.094569 356.351035 
L 261.887259 353.379106 
L 260.769087 350.407176 
L 259.74743 347.435246 
L 258.828684 344.463317 
L 258.01818 341.491387 
L 257.320104 338.519457 
L 256.737451 335.547528 
L 256.271989 332.575598 
L 255.924251 329.603668 
L 255.693551 326.631739 
L 255.578014 323.659809 
L 255.574631 320.687879 
L 255.679328 317.71595 
L 255.88706 314.74402 
L 256.191905 311.77209 
L 256.587183 308.800161 
L 257.065576 305.828231 
L 257.61925 302.856301 
L 258.239993 299.884372 
L 258.919342 296.912442 
L 259.64871 293.940512 
L 260.419513 290.968583 
L 261.223288 287.996653 
L 262.051802 285.024723 
L 262.897158 282.052794 
L 263.751879 279.080864 
L 264.608997 276.108934 
L 265.462114 273.137005 
L 266.305467 270.165075 
L 267.133969 267.193145 
L 267.943245 264.221216 
L 268.729653 261.249286 
L 269.490297 258.277356 
L 270.223028 255.305427 
L 270.926429 252.333497 
L 271.599798 249.361568 
L 272.243118 246.389638 
L 272.857014 243.417708 
L 273.442702 240.445779 
L 274.001939 237.473849 
L 274.53695 234.501919 
L 275.05036 231.52999 
L 275.545115 228.55806 
L 276.024403 225.58613 
L 276.491563 222.614201 
L 276.950003 219.642271 
L 277.403108 216.670341 
L 277.854158 213.698412 
L 278.306243 210.726482 
L 278.762186 207.754552 
L 279.224469 204.782623 
L 279.695176 201.810693 
L 280.175939 198.838763 
L 280.667892 195.866834 
L 281.17165 192.894904 
L 281.687289 189.922974 
L 282.214346 186.951045 
L 282.751831 183.979115 
L 283.298255 181.007185 
L 283.851667 178.035256 
L 284.409706 175.063326 
L 284.969664 172.091396 
L 285.528555 169.119467 
L 286.083196 166.147537 
L 286.630288 163.175607 
L 287.166505 160.203678 
L 287.688579 157.231748 
L 288.193385 154.259818 
L 288.678026 151.287889 
L 289.139904 148.315959 
L 289.57679 145.344029 
L 289.986879 142.3721 
L 290.36884 139.40017 
L 290.721845 136.42824 
L 291.045595 133.456311 
L 291.340321 130.484381 
L 291.60678 127.512451 
L 291.846237 124.540522 
L 292.060429 121.568592 
L 292.251521 118.596663 
L 292.422051 115.624733 
L 292.574871 112.652803 
L 292.71307 109.680874 
L 292.839904 106.708944 
L 292.958715 103.737014 
L 293.072858 100.765085 
L 293.185615 97.793155 
L 293.300132 94.821225 
L 293.419342 91.849296 
L 293.545911 88.877366 
L 293.682182 85.905436 
L 293.830134 82.933507 
L 293.991346 79.961577 
L 294.166984 76.989647 
L 309.847391 76.989647 
L 309.847391 76.989647 
L 310.023029 79.961577 
L 310.184241 82.933507 
L 310.332193 85.905436 
L 310.468464 88.877366 
L 310.595033 91.849296 
L 310.714243 94.821225 
L 310.82876 97.793155 
L 310.941517 100.765085 
L 311.05566 103.737014 
L 311.174471 106.708944 
L 311.301305 109.680874 
L 311.439504 112.652803 
L 311.592324 115.624733 
L 311.762854 118.596663 
L 311.953946 121.568592 
L 312.168138 124.540522 
L 312.407595 127.512451 
L 312.674054 130.484381 
L 312.96878 133.456311 
L 313.29253 136.42824 
L 313.645535 139.40017 
L 314.027496 142.3721 
L 314.437585 145.344029 
L 314.874471 148.315959 
L 315.336349 151.287889 
L 315.82099 154.259818 
L 316.325796 157.231748 
L 316.84787 160.203678 
L 317.384087 163.175607 
L 317.931179 166.147537 
L 318.48582 169.119467 
L 319.044711 172.091396 
L 319.604669 175.063326 
L 320.162708 178.035256 
L 320.71612 181.007185 
L 321.262544 183.979115 
L 321.800029 186.951045 
L 322.327086 189.922974 
L 322.842725 192.894904 
L 323.346483 195.866834 
L 323.838436 198.838763 
L 324.319199 201.810693 
L 324.789906 204.782623 
L 325.252189 207.754552 
L 325.708132 210.726482 
L 326.160217 213.698412 
L 326.611267 216.670341 
L 327.064372 219.642271 
L 327.522812 222.614201 
L 327.989972 225.58613 
L 328.46926 228.55806 
L 328.964015 231.52999 
L 329.477425 234.501919 
L 330.012436 237.473849 
L 330.571673 240.445779 
L 331.157361 243.417708 
L 331.771257 246.389638 
L 332.414577 249.361568 
L 333.087946 252.333497 
L 333.791347 255.305427 
L 334.524078 258.277356 
L 335.284722 261.249286 
L 336.07113 264.221216 
L 336.880406 267.193145 
L 337.708908 270.165075 
L 338.552261 273.137005 
L 339.405378 276.108934 
L 340.262496 279.080864 
L 341.117217 282.052794 
L 341.962573 285.024723 
L 342.791087 287.996653 
L 343.594862 290.968583 
L 344.365665 293.940512 
L 345.095033 296.912442 
L 345.774382 299.884372 
L 346.395125 302.856301 
L 346.948799 305.828231 
L 347.427192 308.800161 
L 347.82247 311.77209 
L 348.127315 314.74402 
L 348.335047 317.71595 
L 348.439744 320.687879 
L 348.436361 323.659809 
L 348.320824 326.631739 
L 348.090124 329.603668 
L 347.742386 332.575598 
L 347.276924 335.547528 
L 346.694271 338.519457 
L 345.996195 341.491387 
L 345.185691 344.463317 
L 344.266945 347.435246 
L 343.245288 350.407176 
L 342.127116 353.379106 
L 340.919806 356.351035 
L 339.631599 359.322965 
L 338.271484 362.294895 
L 336.849056 365.266824 
L 335.374378 368.238754 
L 333.857825 371.210684 
z
" clip-path="url(#p66d8448be9)" style="fill: #e67e22; fill-opacity: 0.7"/>
   </g>
   <g id="FillBetweenPolyCollection_3">
    <path d="M 509.070232 356.236986 
L 466.404597 356.236986 
L 464.952272 354.421532 
L 463.473987 352.606077 
L 461.976962 350.790622 
L 460.468993 348.975167 
L 458.958382 347.159712 
L 457.453865 345.344258 
L 455.964523 343.528803 
L 454.499682 341.713348 
L 453.068816 339.897893 
L 451.681433 338.082438 
L 450.346966 336.266984 
L 449.074654 334.451529 
L 447.873435 332.636074 
L 446.751829 330.820619 
L 445.717838 329.005164 
L 444.778841 327.18971 
L 443.941504 325.374255 
L 443.211702 323.5588 
L 442.594443 321.743345 
L 442.093815 319.92789 
L 441.712936 318.112436 
L 441.453924 316.296981 
L 441.317874 314.481526 
L 441.304858 312.666071 
L 441.413924 310.850616 
L 441.643119 309.035162 
L 441.989521 307.219707 
L 442.449274 305.404252 
L 443.017644 303.588797 
L 443.689076 301.773342 
L 444.457263 299.957888 
L 445.315219 298.142433 
L 446.255358 296.326978 
L 447.269582 294.511523 
L 448.349369 292.696068 
L 449.485862 290.880614 
L 450.669965 289.065159 
L 451.892439 287.249704 
L 453.143996 285.434249 
L 454.415393 283.618794 
L 455.697528 281.80334 
L 456.981528 279.987885 
L 458.258834 278.17243 
L 459.521291 276.356975 
L 460.761218 274.54152 
L 461.971482 272.726066 
L 463.145561 270.910611 
L 464.277599 269.095156 
L 465.36245 267.279701 
L 466.395718 265.464246 
L 467.373776 263.648792 
L 468.293787 261.833337 
L 469.153702 260.017882 
L 469.952251 258.202427 
L 470.688925 256.386972 
L 471.363946 254.571518 
L 471.978222 252.756063 
L 472.533296 250.940608 
L 473.03129 249.125153 
L 473.474834 247.309698 
L 473.866995 245.494244 
L 474.2112 243.678789 
L 474.511154 241.863334 
L 474.770763 240.047879 
L 474.994049 238.232424 
L 475.185081 236.41697 
L 475.347894 234.601515 
L 475.486429 232.78606 
L 475.604468 230.970605 
L 475.705593 229.15515 
L 475.793134 227.339696 
L 475.870146 225.524241 
L 475.939388 223.708786 
L 476.003309 221.893331 
L 476.064052 220.077876 
L 476.123463 218.262422 
L 476.183109 216.446967 
L 476.244302 214.631512 
L 476.308131 212.816057 
L 476.375499 211.000602 
L 476.447154 209.185148 
L 476.523735 207.369693 
L 476.605802 205.554238 
L 476.693872 203.738783 
L 476.78845 201.923328 
L 476.890048 200.107874 
L 476.999209 198.292419 
L 477.11651 196.476964 
L 477.242569 194.661509 
L 477.378039 192.846054 
L 477.523598 191.0306 
L 477.679926 189.215145 
L 477.84769 187.39969 
L 478.027509 185.584235 
L 478.219932 183.76878 
L 478.425403 181.953326 
L 478.644232 180.137871 
L 478.87657 178.322416 
L 479.122386 176.506961 
L 496.352444 176.506961 
L 496.352444 176.506961 
L 496.598259 178.322416 
L 496.830598 180.137871 
L 497.049427 181.953326 
L 497.254897 183.76878 
L 497.44732 185.584235 
L 497.62714 187.39969 
L 497.794903 189.215145 
L 497.951232 191.0306 
L 498.09679 192.846054 
L 498.232261 194.661509 
L 498.35832 196.476964 
L 498.475621 198.292419 
L 498.584781 200.107874 
L 498.68638 201.923328 
L 498.780957 203.738783 
L 498.869028 205.554238 
L 498.951095 207.369693 
L 499.027675 209.185148 
L 499.099331 211.000602 
L 499.166698 212.816057 
L 499.230528 214.631512 
L 499.291721 216.446967 
L 499.351367 218.262422 
L 499.410778 220.077876 
L 499.471521 221.893331 
L 499.535441 223.708786 
L 499.604683 225.524241 
L 499.681696 227.339696 
L 499.769237 229.15515 
L 499.870361 230.970605 
L 499.988401 232.78606 
L 500.126935 234.601515 
L 500.289748 236.41697 
L 500.48078 238.232424 
L 500.704067 240.047879 
L 500.963676 241.863334 
L 501.26363 243.678789 
L 501.607835 245.494244 
L 501.999996 247.309698 
L 502.44354 249.125153 
L 502.941534 250.940608 
L 503.496608 252.756063 
L 504.110883 254.571518 
L 504.785904 256.386972 
L 505.522579 258.202427 
L 506.321128 260.017882 
L 507.181042 261.833337 
L 508.101053 263.648792 
L 509.079112 265.464246 
L 510.112379 267.279701 
L 511.197231 269.095156 
L 512.329268 270.910611 
L 513.503347 272.726066 
L 514.713611 274.54152 
L 515.953538 276.356975 
L 517.215995 278.17243 
L 518.493302 279.987885 
L 519.777301 281.80334 
L 521.059436 283.618794 
L 522.330834 285.434249 
L 523.582391 287.249704 
L 524.804865 289.065159 
L 525.988968 290.880614 
L 527.125461 292.696068 
L 528.205247 294.511523 
L 529.219472 296.326978 
L 530.159611 298.142433 
L 531.017567 299.957888 
L 531.785754 301.773342 
L 532.457186 303.588797 
L 533.025556 305.404252 
L 533.485309 307.219707 
L 533.83171 309.035162 
L 534.060906 310.850616 
L 534.169972 312.666071 
L 534.156955 314.481526 
L 534.020906 316.296981 
L 533.761893 318.112436 
L 533.381014 319.92789 
L 532.880386 321.743345 
L 532.263128 323.5588 
L 531.533325 325.374255 
L 530.695989 327.18971 
L 529.756991 329.005164 
L 528.723 330.820619 
L 527.601395 332.636074 
L 526.400176 334.451529 
L 525.127864 336.266984 
L 523.793396 338.082438 
L 522.406013 339.897893 
L 520.975148 341.713348 
L 519.510307 343.528803 
L 518.020964 345.344258 
L 516.516448 347.159712 
L 515.005837 348.975167 
L 513.497867 350.790622 
L 512.000843 352.606077 
L 510.522558 354.421532 
L 509.070232 356.236986 
z
" clip-path="url(#p66d8448be9)" style="fill: #e74c3c; fill-opacity: 0.7"/>
   </g>
   <g id="PathCollection_1">
    <defs>
     <path id="m057660c31c" d="M 0 2.738613 
C 0.726289 2.738613 1.422928 2.450055 1.936492 1.936492 
C 2.450055 1.422928 2.738613 0.726289 2.738613 0 
C 2.738613 -0.726289 2.450055 -1.422928 1.936492 -1.936492 
C 1.422928 -2.450055 0.726289 -2.738613 0 -2.738613 
C -0.726289 -2.738613 -1.422928 -2.450055 -1.936492 -1.936492 
C -2.450055 -1.422928 -2.738613 -0.726289 -2.738613 0 
C -2.738613 0.726289 -2.450055 1.422928 -1.936492 1.936492 
C -1.422928 2.450055 -0.726289 2.738613 0 2.738613 
z
" style="stroke: #ffffff; stroke-opacity: 0.6; stroke-width: 0.5"/>
    </defs>
    <g clip-path="url(#p66d8448be9)">
     <use xlink:href="#m057660c31c" x="123.075733" y="216.512985" style="fill: #3498db; fill-opacity: 0.6; stroke: #ffffff; stroke-opacity: 0.6; stroke-width: 0.5"/>
     <use xlink:href="#m057660c31c" x="105.753852" y="143.017169" style="fill: #3498db; fill-opacity: 0.6; stroke: #ffffff; stroke-opacity: 0.6; stroke-width: 0.5"/>
     <use xlink:href="#m057660c31c" x="126.948446" y="348.840702" style="fill: #3498db; fill-opacity: 0.6; stroke: #ffffff; stroke-opacity: 0.6; stroke-width: 0.5"/>
     <use xlink:href="#m057660c31c" x="118.702949" y="322.262507" style="fill: #3498db; fill-opacity: 0.6; stroke: #ffffff; stroke-opacity: 0.6; stroke-width: 0.5"/>
     <use xlink:href="#m057660c31c" x="113.694224" y="337.073597" style="fill: #3498db; fill-opacity: 0.6; stroke: #ffffff; stroke-opacity: 0.6; stroke-width: 0.5"/>
     <use xlink:href="#m057660c31c" x="121.945541" y="350.318386" style="fill: #3498db; fill-opacity: 0.6; stroke: #ffffff; stroke-opacity: 0.6; stroke-width: 0.5"/>
     <use xlink:href="#m057660c31c" x="114.583494" y="355.927018" style="fill: #3498db; fill-opacity: 0.6; stroke: #ffffff; stroke-opacity: 0.6; stroke-width: 0.5"/>
     <use xlink:href="#m057660c31c" x="114.242772" y="355.543784" style="fill: #3498db; fill-opacity: 0.6; stroke: #ffffff; stroke-opacity: 0.6; stroke-width: 0.5"/>
     <use xlink:href="#m057660c31c" x="113.088134" y="324.396615" style="fill: #3498db; fill-opacity: 0.6; stroke: #ffffff; stroke-opacity: 0.6; stroke-width: 0.5"/>
     <use xlink:href="#m057660c31c" x="135.041896" y="212.52217" style="fill: #3498db; fill-opacity: 0.6; stroke: #ffffff; stroke-opacity: 0.6; stroke-width: 0.5"/>
     <use xlink:href="#m057660c31c" x="122.400052" y="355.660833" style="fill: #3498db; fill-opacity: 0.6; stroke: #ffffff; stroke-opacity: 0.6; stroke-width: 0.5"/>
     <use xlink:href="#m057660c31c" x="113.699569" y="312.125483" style="fill: #3498db; fill-opacity: 0.6; stroke: #ffffff; stroke-opacity: 0.6; stroke-width: 0.5"/>
     <use xlink:href="#m057660c31c" x="121.013795" y="379.270227" style="fill: #3498db; fill-opacity: 0.6; stroke: #ffffff; stroke-opacity: 0.6; stroke-width: 0.5"/>
     <use xlink:href="#m057660c31c" x="124.686376" y="299.009429" style="fill: #3498db; fill-opacity: 0.6; stroke: #ffffff; stroke-opacity: 0.6; stroke-width: 0.5"/>
     <use xlink:href="#m057660c31c" x="103.762706" y="345.893404" style="fill: #3498db; fill-opacity: 0.6; stroke: #ffffff; stroke-opacity: 0.6; stroke-width: 0.5"/>
     <use xlink:href="#m057660c31c" x="117.672502" y="310.777242" style="fill: #3498db; fill-opacity: 0.6; stroke: #ffffff; stroke-opacity: 0.6; stroke-width: 0.5"/>
     <use xlink:href="#m057660c31c" x="114.828992" y="349.816543" style="fill: #3498db; fill-opacity: 0.6; stroke: #ffffff; stroke-opacity: 0.6; stroke-width: 0.5"/>
     <use xlink:href="#m057660c31c" x="105.254892" y="318.799855" style="fill: #3498db; fill-opacity: 0.6; stroke: #ffffff; stroke-opacity: 0.6; stroke-width: 0.5"/>
     <use xlink:href="#m057660c31c" x="111.714763" y="255.639239" style="fill: #3498db; fill-opacity: 0.6; stroke: #ffffff; stroke-opacity: 0.6; stroke-width: 0.5"/>
     <use xlink:href="#m057660c31c" x="118.568886" y="264.956568" style="fill: #3498db; fill-opacity: 0.6; stroke: #ffffff; stroke-opacity: 0.6; stroke-width: 0.5"/>
     <use xlink:href="#m057660c31c" x="121.963151" y="233.947974" style="fill: #3498db; fill-opacity: 0.6; stroke: #ffffff; stroke-opacity: 0.6; stroke-width: 0.5"/>
     <use xlink:href="#m057660c31c" x="130.822295" y="142.831986" style="fill: #3498db; fill-opacity: 0.6; stroke: #ffffff; stroke-opacity: 0.6; stroke-width: 0.5"/>
     <use xlink:href="#m057660c31c" x="118.9131" y="313.531024" style="fill: #3498db; fill-opacity: 0.6; stroke: #ffffff; stroke-opacity: 0.6; stroke-width: 0.5"/>
     <use xlink:href="#m057660c31c" x="115.489591" y="233.451574" style="fill: #3498db; fill-opacity: 0.6; stroke: #ffffff; stroke-opacity: 0.6; stroke-width: 0.5"/>
     <use xlink:href="#m057660c31c" x="105.23225" y="268.635855" style="fill: #3498db; fill-opacity: 0.6; stroke: #ffffff; stroke-opacity: 0.6; stroke-width: 0.5"/>
    </g>
   </g>
   <g id="PathCollection_2">
    <defs>
     <path id="me9bd8d6117" d="M 0 2.738613 
C 0.726289 2.738613 1.422928 2.450055 1.936492 1.936492 
C 2.450055 1.422928 2.738613 0.726289 2.738613 0 
C 2.738613 -0.726289 2.450055 -1.422928 1.936492 -1.936492 
C 1.422928 -2.450055 0.726289 -2.738613 0 -2.738613 
C -0.726289 -2.738613 -1.422928 -2.450055 -1.936492 -1.936492 
C -2.450055 -1.422928 -2.738613 -0.726289 -2.738613 0 
C -2.738613 0.726289 -2.450055 1.422928 -1.936492 1.936492 
C -1.422928 2.450055 -0.726289 2.738613 0 2.738613 
z
" style="stroke: #ffffff; stroke-opacity: 0.6; stroke-width: 0.5"/>
    </defs>
    <g clip-path="url(#p66d8448be9)">
     <use xlink:href="#me9bd8d6117" x="323.856455" y="224.371083" style="fill: #e67e22; fill-opacity: 0.6; stroke: #ffffff; stroke-opacity: 0.6; stroke-width: 0.5"/>
     <use xlink:href="#me9bd8d6117" x="295.366619" y="194.459189" style="fill: #e67e22; fill-opacity: 0.6; stroke: #ffffff; stroke-opacity: 0.6; stroke-width: 0.5"/>
     <use xlink:href="#me9bd8d6117" x="300.849924" y="167.313292" style="fill: #e67e22; fill-opacity: 0.6; stroke: #ffffff; stroke-opacity: 0.6; stroke-width: 0.5"/>
     <use xlink:href="#me9bd8d6117" x="307.015392" y="315.092839" style="fill: #e67e22; fill-opacity: 0.6; stroke: #ffffff; stroke-opacity: 0.6; stroke-width: 0.5"/>
     <use xlink:href="#me9bd8d6117" x="301.948085" y="323.100647" style="fill: #e67e22; fill-opacity: 0.6; stroke: #ffffff; stroke-opacity: 0.6; stroke-width: 0.5"/>
     <use xlink:href="#me9bd8d6117" x="291.768321" y="358.256606" style="fill: #e67e22; fill-opacity: 0.6; stroke: #ffffff; stroke-opacity: 0.6; stroke-width: 0.5"/>
     <use xlink:href="#me9bd8d6117" x="305.058534" y="199.4768" style="fill: #e67e22; fill-opacity: 0.6; stroke: #ffffff; stroke-opacity: 0.6; stroke-width: 0.5"/>
     <use xlink:href="#me9bd8d6117" x="296.078898" y="76.989647" style="fill: #e67e22; fill-opacity: 0.6; stroke: #ffffff; stroke-opacity: 0.6; stroke-width: 0.5"/>
     <use xlink:href="#me9bd8d6117" x="291.565168" y="341.024935" style="fill: #e67e22; fill-opacity: 0.6; stroke: #ffffff; stroke-opacity: 0.6; stroke-width: 0.5"/>
     <use xlink:href="#me9bd8d6117" x="314.725477" y="325.715932" style="fill: #e67e22; fill-opacity: 0.6; stroke: #ffffff; stroke-opacity: 0.6; stroke-width: 0.5"/>
     <use xlink:href="#me9bd8d6117" x="303.402881" y="202.607497" style="fill: #e67e22; fill-opacity: 0.6; stroke: #ffffff; stroke-opacity: 0.6; stroke-width: 0.5"/>
     <use xlink:href="#me9bd8d6117" x="311.835223" y="259.132649" style="fill: #e67e22; fill-opacity: 0.6; stroke: #ffffff; stroke-opacity: 0.6; stroke-width: 0.5"/>
     <use xlink:href="#me9bd8d6117" x="305.924398" y="353.6463" style="fill: #e67e22; fill-opacity: 0.6; stroke: #ffffff; stroke-opacity: 0.6; stroke-width: 0.5"/>
     <use xlink:href="#me9bd8d6117" x="302.730486" y="276.72567" style="fill: #e67e22; fill-opacity: 0.6; stroke: #ffffff; stroke-opacity: 0.6; stroke-width: 0.5"/>
     <use xlink:href="#me9bd8d6117" x="308.745968" y="264.386299" style="fill: #e67e22; fill-opacity: 0.6; stroke: #ffffff; stroke-opacity: 0.6; stroke-width: 0.5"/>
     <use xlink:href="#me9bd8d6117" x="303.006174" y="90.090698" style="fill: #e67e22; fill-opacity: 0.6; stroke: #ffffff; stroke-opacity: 0.6; stroke-width: 0.5"/>
     <use xlink:href="#me9bd8d6117" x="295.955079" y="281.105743" style="fill: #e67e22; fill-opacity: 0.6; stroke: #ffffff; stroke-opacity: 0.6; stroke-width: 0.5"/>
     <use xlink:href="#me9bd8d6117" x="303.187952" y="350.202064" style="fill: #e67e22; fill-opacity: 0.6; stroke: #ffffff; stroke-opacity: 0.6; stroke-width: 0.5"/>
     <use xlink:href="#me9bd8d6117" x="304.704774" y="309.796469" style="fill: #e67e22; fill-opacity: 0.6; stroke: #ffffff; stroke-opacity: 0.6; stroke-width: 0.5"/>
     <use xlink:href="#me9bd8d6117" x="292.184325" y="314.525426" style="fill: #e67e22; fill-opacity: 0.6; stroke: #ffffff; stroke-opacity: 0.6; stroke-width: 0.5"/>
     <use xlink:href="#me9bd8d6117" x="297.667882" y="341.47617" style="fill: #e67e22; fill-opacity: 0.6; stroke: #ffffff; stroke-opacity: 0.6; stroke-width: 0.5"/>
     <use xlink:href="#me9bd8d6117" x="301.069405" y="328.40216" style="fill: #e67e22; fill-opacity: 0.6; stroke: #ffffff; stroke-opacity: 0.6; stroke-width: 0.5"/>
     <use xlink:href="#me9bd8d6117" x="285.73071" y="371.210684" style="fill: #e67e22; fill-opacity: 0.6; stroke: #ffffff; stroke-opacity: 0.6; stroke-width: 0.5"/>
    </g>
   </g>
   <g id="PathCollection_3">
    <defs>
     <path id="me4ef0a4b9e" d="M 0 2.738613 
C 0.726289 2.738613 1.422928 2.450055 1.936492 1.936492 
C 2.450055 1.422928 2.738613 0.726289 2.738613 0 
C 2.738613 -0.726289 2.450055 -1.422928 1.936492 -1.936492 
C 1.422928 -2.450055 0.726289 -2.738613 0 -2.738613 
C -0.726289 -2.738613 -1.422928 -2.450055 -1.936492 -1.936492 
C -2.450055 -1.422928 -2.738613 -0.726289 -2.738613 0 
C -2.738613 0.726289 -2.450055 1.422928 -1.936492 1.936492 
C -1.422928 2.450055 -0.726289 2.738613 0 2.738613 
z
" style="stroke: #ffffff; stroke-opacity: 0.6; stroke-width: 0.5"/>
    </defs>
    <g clip-path="url(#p66d8448be9)">
     <use xlink:href="#me4ef0a4b9e" x="481.809036" y="280.666992" style="fill: #e74c3c; fill-opacity: 0.6; stroke: #ffffff; stroke-opacity: 0.6; stroke-width: 0.5"/>
     <use xlink:href="#me4ef0a4b9e" x="482.631946" y="303.574799" style="fill: #e74c3c; fill-opacity: 0.6; stroke: #ffffff; stroke-opacity: 0.6; stroke-width: 0.5"/>
     <use xlink:href="#me4ef0a4b9e" x="472.868816" y="291.484403" style="fill: #e74c3c; fill-opacity: 0.6; stroke: #ffffff; stroke-opacity: 0.6; stroke-width: 0.5"/>
     <use xlink:href="#me4ef0a4b9e" x="490.111619" y="337.078719" style="fill: #e74c3c; fill-opacity: 0.6; stroke: #ffffff; stroke-opacity: 0.6; stroke-width: 0.5"/>
     <use xlink:href="#me4ef0a4b9e" x="500.36813" y="337.475881" style="fill: #e74c3c; fill-opacity: 0.6; stroke: #ffffff; stroke-opacity: 0.6; stroke-width: 0.5"/>
     <use xlink:href="#me4ef0a4b9e" x="495.812901" y="322.000468" style="fill: #e74c3c; fill-opacity: 0.6; stroke: #ffffff; stroke-opacity: 0.6; stroke-width: 0.5"/>
     <use xlink:href="#me4ef0a4b9e" x="490.59634" y="329.171604" style="fill: #e74c3c; fill-opacity: 0.6; stroke: #ffffff; stroke-opacity: 0.6; stroke-width: 0.5"/>
     <use xlink:href="#me4ef0a4b9e" x="492.904034" y="295.12304" style="fill: #e74c3c; fill-opacity: 0.6; stroke: #ffffff; stroke-opacity: 0.6; stroke-width: 0.5"/>
     <use xlink:href="#me4ef0a4b9e" x="493.457717" y="356.236986" style="fill: #e74c3c; fill-opacity: 0.6; stroke: #ffffff; stroke-opacity: 0.6; stroke-width: 0.5"/>
     <use xlink:href="#me4ef0a4b9e" x="482.845711" y="327.460693" style="fill: #e74c3c; fill-opacity: 0.6; stroke: #ffffff; stroke-opacity: 0.6; stroke-width: 0.5"/>
     <use xlink:href="#me4ef0a4b9e" x="466.670468" y="304.794958" style="fill: #e74c3c; fill-opacity: 0.6; stroke: #ffffff; stroke-opacity: 0.6; stroke-width: 0.5"/>
     <use xlink:href="#me4ef0a4b9e" x="480.971003" y="314.23376" style="fill: #e74c3c; fill-opacity: 0.6; stroke: #ffffff; stroke-opacity: 0.6; stroke-width: 0.5"/>
     <use xlink:href="#me4ef0a4b9e" x="488.245088" y="276.291285" style="fill: #e74c3c; fill-opacity: 0.6; stroke: #ffffff; stroke-opacity: 0.6; stroke-width: 0.5"/>
     <use xlink:href="#me4ef0a4b9e" x="498.292798" y="314.51382" style="fill: #e74c3c; fill-opacity: 0.6; stroke: #ffffff; stroke-opacity: 0.6; stroke-width: 0.5"/>
     <use xlink:href="#me4ef0a4b9e" x="483.804874" y="176.506961" style="fill: #e74c3c; fill-opacity: 0.6; stroke: #ffffff; stroke-opacity: 0.6; stroke-width: 0.5"/>
     <use xlink:href="#me4ef0a4b9e" x="494.591758" y="293.692316" style="fill: #e74c3c; fill-opacity: 0.6; stroke: #ffffff; stroke-opacity: 0.6; stroke-width: 0.5"/>
     <use xlink:href="#me4ef0a4b9e" x="479.808289" y="308.100654" style="fill: #e74c3c; fill-opacity: 0.6; stroke: #ffffff; stroke-opacity: 0.6; stroke-width: 0.5"/>
     <use xlink:href="#me4ef0a4b9e" x="492.308282" y="329.834387" style="fill: #e74c3c; fill-opacity: 0.6; stroke: #ffffff; stroke-opacity: 0.6; stroke-width: 0.5"/>
     <use xlink:href="#me4ef0a4b9e" x="490.501481" y="220.322618" style="fill: #e74c3c; fill-opacity: 0.6; stroke: #ffffff; stroke-opacity: 0.6; stroke-width: 0.5"/>
     <use xlink:href="#me4ef0a4b9e" x="486.200753" y="243.073175" style="fill: #e74c3c; fill-opacity: 0.6; stroke: #ffffff; stroke-opacity: 0.6; stroke-width: 0.5"/>
     <use xlink:href="#me4ef0a4b9e" x="496.546227" y="320.232114" style="fill: #e74c3c; fill-opacity: 0.6; stroke: #ffffff; stroke-opacity: 0.6; stroke-width: 0.5"/>
     <use xlink:href="#me4ef0a4b9e" x="482.894288" y="217.244866" style="fill: #e74c3c; fill-opacity: 0.6; stroke: #ffffff; stroke-opacity: 0.6; stroke-width: 0.5"/>
     <use xlink:href="#me4ef0a4b9e" x="481.516582" y="179.329615" style="fill: #e74c3c; fill-opacity: 0.6; stroke: #ffffff; stroke-opacity: 0.6; stroke-width: 0.5"/>
    </g>
   </g>
   <g id="matplotlib.axis_1">
    <g id="xtick_1">
     <g id="line2d_1">
      <defs>
       <path id="m22279b9141" d="M 0 0 
L 0 3.5 
" style="stroke: #000000; stroke-width: 0.8"/>
      </defs>
      <g>
       <use xlink:href="#m22279b9141" x="116.27696" y="396.1475" style="stroke: #000000; stroke-width: 0.8"/>
      </g>
     </g>
     <g id="text_1">
      <!-- HC -->
      <g transform="translate(108.332898 411.021094) scale(0.11 -0.11)">
       <defs>
        <path id="ArialMT-48" d="M 513 0 
L 513 4581 
L 1119 4581 
L 1119 2700 
L 3500 2700 
L 3500 4581 
L 4106 4581 
L 4106 0 
L 3500 0 
L 3500 2159 
L 1119 2159 
L 1119 0 
L 513 0 
z
" transform="scale(0.015625)"/>
        <path id="ArialMT-43" d="M 3763 1606 
L 4369 1453 
Q 4178 706 3683 314 
Q 3188 -78 2472 -78 
Q 1731 -78 1267 223 
Q 803 525 561 1097 
Q 319 1669 319 2325 
Q 319 3041 592 3573 
Q 866 4106 1370 4382 
Q 1875 4659 2481 4659 
Q 3169 4659 3637 4309 
Q 4106 3959 4291 3325 
L 3694 3184 
Q 3534 3684 3231 3912 
Q 2928 4141 2469 4141 
Q 1941 4141 1586 3887 
Q 1231 3634 1087 3207 
Q 944 2781 944 2328 
Q 944 1744 1114 1308 
Q 1284 872 1643 656 
Q 2003 441 2422 441 
Q 2931 441 3284 734 
Q 3638 1028 3763 1606 
z
" transform="scale(0.015625)"/>
       </defs>
       <use xlink:href="#ArialMT-48"/>
       <use xlink:href="#ArialMT-43" transform="translate(72.216797 0)"/>
      </g>
     </g>
    </g>
    <g id="xtick_2">
     <g id="line2d_2">
      <g>
       <use xlink:href="#m22279b9141" x="302.007187" y="396.1475" style="stroke: #000000; stroke-width: 0.8"/>
      </g>
     </g>
     <g id="text_2">
      <!-- AVH- -->
      <g transform="translate(289.272109 411.021094) scale(0.11 -0.11)">
       <defs>
        <path id="ArialMT-41" d="M -9 0 
L 1750 4581 
L 2403 4581 
L 4278 0 
L 3588 0 
L 3053 1388 
L 1138 1388 
L 634 0 
L -9 0 
z
M 1313 1881 
L 2866 1881 
L 2388 3150 
Q 2169 3728 2063 4100 
Q 1975 3659 1816 3225 
L 1313 1881 
z
" transform="scale(0.015625)"/>
        <path id="ArialMT-56" d="M 1803 0 
L 28 4581 
L 684 4581 
L 1875 1253 
Q 2019 853 2116 503 
Q 2222 878 2363 1253 
L 3600 4581 
L 4219 4581 
L 2425 0 
L 1803 0 
z
" transform="scale(0.015625)"/>
        <path id="ArialMT-2d" d="M 203 1375 
L 203 1941 
L 1931 1941 
L 1931 1375 
L 203 1375 
z
" transform="scale(0.015625)"/>
       </defs>
       <use xlink:href="#ArialMT-41"/>
       <use xlink:href="#ArialMT-56" transform="translate(59.324219 0)"/>
       <use xlink:href="#ArialMT-48" transform="translate(126.023438 0)"/>
       <use xlink:href="#ArialMT-2d" transform="translate(198.240234 0)"/>
      </g>
     </g>
    </g>
    <g id="xtick_3">
     <g id="line2d_3">
      <g>
       <use xlink:href="#m22279b9141" x="487.737415" y="396.1475" style="stroke: #000000; stroke-width: 0.8"/>
      </g>
     </g>
     <g id="text_3">
      <!-- AVH+ -->
      <g transform="translate(473.621321 411.021094) scale(0.11 -0.11)">
       <defs>
        <path id="ArialMT-2b" d="M 1603 741 
L 1603 1997 
L 356 1997 
L 356 2522 
L 1603 2522 
L 1603 3769 
L 2134 3769 
L 2134 2522 
L 3381 2522 
L 3381 1997 
L 2134 1997 
L 2134 741 
L 1603 741 
z
" transform="scale(0.015625)"/>
       </defs>
       <use xlink:href="#ArialMT-41"/>
       <use xlink:href="#ArialMT-56" transform="translate(59.324219 0)"/>
       <use xlink:href="#ArialMT-48" transform="translate(126.023438 0)"/>
       <use xlink:href="#ArialMT-2b" transform="translate(198.240234 0)"/>
      </g>
     </g>
    </g>
   </g>
   <g id="matplotlib.axis_2">
    <g id="ytick_1">
     <g id="line2d_4">
      <defs>
       <path id="mde90bc1888" d="M 0 0 
L -3.5 0 
" style="stroke: #000000; stroke-width: 0.8"/>
      </defs>
      <g>
       <use xlink:href="#mde90bc1888" x="46.628125" y="355.325133" style="stroke: #000000; stroke-width: 0.8"/>
      </g>
     </g>
     <g id="text_4">
      <!-- 0.1 -->
      <g transform="translate(24.338125 359.26193) scale(0.11 -0.11)">
       <defs>
        <path id="ArialMT-30" d="M 266 2259 
Q 266 3072 433 3567 
Q 600 4063 929 4331 
Q 1259 4600 1759 4600 
Q 2128 4600 2406 4451 
Q 2684 4303 2865 4023 
Q 3047 3744 3150 3342 
Q 3253 2941 3253 2259 
Q 3253 1453 3087 958 
Q 2922 463 2592 192 
Q 2263 -78 1759 -78 
Q 1097 -78 719 397 
Q 266 969 266 2259 
z
M 844 2259 
Q 844 1131 1108 757 
Q 1372 384 1759 384 
Q 2147 384 2411 759 
Q 2675 1134 2675 2259 
Q 2675 3391 2411 3762 
Q 2147 4134 1753 4134 
Q 1366 4134 1134 3806 
Q 844 3388 844 2259 
z
" transform="scale(0.015625)"/>
        <path id="ArialMT-2e" d="M 581 0 
L 581 641 
L 1222 641 
L 1222 0 
L 581 0 
z
" transform="scale(0.015625)"/>
        <path id="ArialMT-31" d="M 2384 0 
L 1822 0 
L 1822 3584 
Q 1619 3391 1289 3197 
Q 959 3003 697 2906 
L 697 3450 
Q 1169 3672 1522 3987 
Q 1875 4303 2022 4600 
L 2384 4600 
L 2384 0 
z
" transform="scale(0.015625)"/>
       </defs>
       <use xlink:href="#ArialMT-30"/>
       <use xlink:href="#ArialMT-2e" transform="translate(55.615234 0)"/>
       <use xlink:href="#ArialMT-31" transform="translate(83.398438 0)"/>
      </g>
     </g>
    </g>
    <g id="ytick_2">
     <g id="line2d_5">
      <g>
       <use xlink:href="#mde90bc1888" x="46.628125" y="276.925043" style="stroke: #000000; stroke-width: 0.8"/>
      </g>
     </g>
     <g id="text_5">
      <!-- 0.2 -->
      <g transform="translate(24.338125 280.86184) scale(0.11 -0.11)">
       <defs>
        <path id="ArialMT-32" d="M 3222 541 
L 3222 0 
L 194 0 
Q 188 203 259 391 
Q 375 700 629 1000 
Q 884 1300 1366 1694 
Q 2113 2306 2375 2664 
Q 2638 3022 2638 3341 
Q 2638 3675 2398 3904 
Q 2159 4134 1775 4134 
Q 1369 4134 1125 3890 
Q 881 3647 878 3216 
L 300 3275 
Q 359 3922 746 4261 
Q 1134 4600 1788 4600 
Q 2447 4600 2831 4234 
Q 3216 3869 3216 3328 
Q 3216 3053 3103 2787 
Q 2991 2522 2730 2228 
Q 2469 1934 1863 1422 
Q 1356 997 1212 845 
Q 1069 694 975 541 
L 3222 541 
z
" transform="scale(0.015625)"/>
       </defs>
       <use xlink:href="#ArialMT-30"/>
       <use xlink:href="#ArialMT-2e" transform="translate(55.615234 0)"/>
       <use xlink:href="#ArialMT-32" transform="translate(83.398438 0)"/>
      </g>
     </g>
    </g>
    <g id="ytick_3">
     <g id="line2d_6">
      <g>
       <use xlink:href="#mde90bc1888" x="46.628125" y="198.524953" style="stroke: #000000; stroke-width: 0.8"/>
      </g>
     </g>
     <g id="text_6">
      <!-- 0.3 -->
      <g transform="translate(24.338125 202.46175) scale(0.11 -0.11)">
       <defs>
        <path id="ArialMT-33" d="M 269 1209 
L 831 1284 
Q 928 806 1161 595 
Q 1394 384 1728 384 
Q 2125 384 2398 659 
Q 2672 934 2672 1341 
Q 2672 1728 2419 1979 
Q 2166 2231 1775 2231 
Q 1616 2231 1378 2169 
L 1441 2663 
Q 1497 2656 1531 2656 
Q 1891 2656 2178 2843 
Q 2466 3031 2466 3422 
Q 2466 3731 2256 3934 
Q 2047 4138 1716 4138 
Q 1388 4138 1169 3931 
Q 950 3725 888 3313 
L 325 3413 
Q 428 3978 793 4289 
Q 1159 4600 1703 4600 
Q 2078 4600 2393 4439 
Q 2709 4278 2876 4000 
Q 3044 3722 3044 3409 
Q 3044 3113 2884 2869 
Q 2725 2625 2413 2481 
Q 2819 2388 3044 2092 
Q 3269 1797 3269 1353 
Q 3269 753 2831 336 
Q 2394 -81 1725 -81 
Q 1122 -81 723 278 
Q 325 638 269 1209 
z
" transform="scale(0.015625)"/>
       </defs>
       <use xlink:href="#ArialMT-30"/>
       <use xlink:href="#ArialMT-2e" transform="translate(55.615234 0)"/>
       <use xlink:href="#ArialMT-33" transform="translate(83.398438 0)"/>
      </g>
     </g>
    </g>
    <g id="ytick_4">
     <g id="line2d_7">
      <g>
       <use xlink:href="#mde90bc1888" x="46.628125" y="120.124863" style="stroke: #000000; stroke-width: 0.8"/>
      </g>
     </g>
     <g id="text_7">
      <!-- 0.4 -->
      <g transform="translate(24.338125 124.06166) scale(0.11 -0.11)">
       <defs>
        <path id="ArialMT-34" d="M 2069 0 
L 2069 1097 
L 81 1097 
L 81 1613 
L 2172 4581 
L 2631 4581 
L 2631 1613 
L 3250 1613 
L 3250 1097 
L 2631 1097 
L 2631 0 
L 2069 0 
z
M 2069 1613 
L 2069 3678 
L 634 1613 
L 2069 1613 
z
" transform="scale(0.015625)"/>
       </defs>
       <use xlink:href="#ArialMT-30"/>
       <use xlink:href="#ArialMT-2e" transform="translate(55.615234 0)"/>
       <use xlink:href="#ArialMT-34" transform="translate(83.398438 0)"/>
      </g>
     </g>
    </g>
    <g id="ytick_5">
     <g id="line2d_8">
      <g>
       <use xlink:href="#mde90bc1888" x="46.628125" y="41.724773" style="stroke: #000000; stroke-width: 0.8"/>
      </g>
     </g>
     <g id="text_8">
      <!-- 0.5 -->
      <g transform="translate(24.338125 45.66157) scale(0.11 -0.11)">
       <defs>
        <path id="ArialMT-35" d="M 266 1200 
L 856 1250 
Q 922 819 1161 601 
Q 1400 384 1738 384 
Q 2144 384 2425 690 
Q 2706 997 2706 1503 
Q 2706 1984 2436 2262 
Q 2166 2541 1728 2541 
Q 1456 2541 1237 2417 
Q 1019 2294 894 2097 
L 366 2166 
L 809 4519 
L 3088 4519 
L 3088 3981 
L 1259 3981 
L 1013 2750 
Q 1425 3038 1878 3038 
Q 2478 3038 2890 2622 
Q 3303 2206 3303 1553 
Q 3303 931 2941 478 
Q 2500 -78 1738 -78 
Q 1113 -78 717 272 
Q 322 622 266 1200 
z
" transform="scale(0.015625)"/>
       </defs>
       <use xlink:href="#ArialMT-30"/>
       <use xlink:href="#ArialMT-2e" transform="translate(55.615234 0)"/>
       <use xlink:href="#ArialMT-35" transform="translate(83.398438 0)"/>
      </g>
     </g>
    </g>
    <g id="text_9">
     <!-- Mean Framewise Displacement (mm) -->
     <g transform="translate(17.391562 326.79375) rotate(-90) scale(0.14 -0.14)">
      <defs>
       <path id="ArialMT-4d" d="M 475 0 
L 475 4581 
L 1388 4581 
L 2472 1338 
Q 2622 884 2691 659 
Q 2769 909 2934 1394 
L 4031 4581 
L 4847 4581 
L 4847 0 
L 4263 0 
L 4263 3834 
L 2931 0 
L 2384 0 
L 1059 3900 
L 1059 0 
L 475 0 
z
" transform="scale(0.015625)"/>
       <path id="ArialMT-65" d="M 2694 1069 
L 3275 997 
Q 3138 488 2766 206 
Q 2394 -75 1816 -75 
Q 1088 -75 661 373 
Q 234 822 234 1631 
Q 234 2469 665 2931 
Q 1097 3394 1784 3394 
Q 2450 3394 2872 2941 
Q 3294 2488 3294 1666 
Q 3294 1616 3291 1516 
L 816 1516 
Q 847 969 1125 678 
Q 1403 388 1819 388 
Q 2128 388 2347 550 
Q 2566 713 2694 1069 
z
M 847 1978 
L 2700 1978 
Q 2663 2397 2488 2606 
Q 2219 2931 1791 2931 
Q 1403 2931 1139 2672 
Q 875 2413 847 1978 
z
" transform="scale(0.015625)"/>
       <path id="ArialMT-61" d="M 2588 409 
Q 2275 144 1986 34 
Q 1697 -75 1366 -75 
Q 819 -75 525 192 
Q 231 459 231 875 
Q 231 1119 342 1320 
Q 453 1522 633 1644 
Q 813 1766 1038 1828 
Q 1203 1872 1538 1913 
Q 2219 1994 2541 2106 
Q 2544 2222 2544 2253 
Q 2544 2597 2384 2738 
Q 2169 2928 1744 2928 
Q 1347 2928 1158 2789 
Q 969 2650 878 2297 
L 328 2372 
Q 403 2725 575 2942 
Q 747 3159 1072 3276 
Q 1397 3394 1825 3394 
Q 2250 3394 2515 3294 
Q 2781 3194 2906 3042 
Q 3031 2891 3081 2659 
Q 3109 2516 3109 2141 
L 3109 1391 
Q 3109 606 3145 398 
Q 3181 191 3288 0 
L 2700 0 
Q 2613 175 2588 409 
z
M 2541 1666 
Q 2234 1541 1622 1453 
Q 1275 1403 1131 1340 
Q 988 1278 909 1158 
Q 831 1038 831 891 
Q 831 666 1001 516 
Q 1172 366 1500 366 
Q 1825 366 2078 508 
Q 2331 650 2450 897 
Q 2541 1088 2541 1459 
L 2541 1666 
z
" transform="scale(0.015625)"/>
       <path id="ArialMT-6e" d="M 422 0 
L 422 3319 
L 928 3319 
L 928 2847 
Q 1294 3394 1984 3394 
Q 2284 3394 2536 3286 
Q 2788 3178 2913 3003 
Q 3038 2828 3088 2588 
Q 3119 2431 3119 2041 
L 3119 0 
L 2556 0 
L 2556 2019 
Q 2556 2363 2490 2533 
Q 2425 2703 2258 2804 
Q 2091 2906 1866 2906 
Q 1506 2906 1245 2678 
Q 984 2450 984 1813 
L 984 0 
L 422 0 
z
" transform="scale(0.015625)"/>
       <path id="ArialMT-20" transform="scale(0.015625)"/>
       <path id="ArialMT-46" d="M 525 0 
L 525 4581 
L 3616 4581 
L 3616 4041 
L 1131 4041 
L 1131 2622 
L 3281 2622 
L 3281 2081 
L 1131 2081 
L 1131 0 
L 525 0 
z
" transform="scale(0.015625)"/>
       <path id="ArialMT-72" d="M 416 0 
L 416 3319 
L 922 3319 
L 922 2816 
Q 1116 3169 1280 3281 
Q 1444 3394 1641 3394 
Q 1925 3394 2219 3213 
L 2025 2691 
Q 1819 2813 1613 2813 
Q 1428 2813 1281 2702 
Q 1134 2591 1072 2394 
Q 978 2094 978 1738 
L 978 0 
L 416 0 
z
" transform="scale(0.015625)"/>
       <path id="ArialMT-6d" d="M 422 0 
L 422 3319 
L 925 3319 
L 925 2853 
Q 1081 3097 1340 3245 
Q 1600 3394 1931 3394 
Q 2300 3394 2536 3241 
Q 2772 3088 2869 2813 
Q 3263 3394 3894 3394 
Q 4388 3394 4653 3120 
Q 4919 2847 4919 2278 
L 4919 0 
L 4359 0 
L 4359 2091 
Q 4359 2428 4304 2576 
Q 4250 2725 4106 2815 
Q 3963 2906 3769 2906 
Q 3419 2906 3187 2673 
Q 2956 2441 2956 1928 
L 2956 0 
L 2394 0 
L 2394 2156 
Q 2394 2531 2256 2718 
Q 2119 2906 1806 2906 
Q 1569 2906 1367 2781 
Q 1166 2656 1075 2415 
Q 984 2175 984 1722 
L 984 0 
L 422 0 
z
" transform="scale(0.015625)"/>
       <path id="ArialMT-77" d="M 1034 0 
L 19 3319 
L 600 3319 
L 1128 1403 
L 1325 691 
Q 1338 744 1497 1375 
L 2025 3319 
L 2603 3319 
L 3100 1394 
L 3266 759 
L 3456 1400 
L 4025 3319 
L 4572 3319 
L 3534 0 
L 2950 0 
L 2422 1988 
L 2294 2553 
L 1622 0 
L 1034 0 
z
" transform="scale(0.015625)"/>
       <path id="ArialMT-69" d="M 425 3934 
L 425 4581 
L 988 4581 
L 988 3934 
L 425 3934 
z
M 425 0 
L 425 3319 
L 988 3319 
L 988 0 
L 425 0 
z
" transform="scale(0.015625)"/>
       <path id="ArialMT-73" d="M 197 991 
L 753 1078 
Q 800 744 1014 566 
Q 1228 388 1613 388 
Q 2000 388 2187 545 
Q 2375 703 2375 916 
Q 2375 1106 2209 1216 
Q 2094 1291 1634 1406 
Q 1016 1563 777 1677 
Q 538 1791 414 1992 
Q 291 2194 291 2438 
Q 291 2659 392 2848 
Q 494 3038 669 3163 
Q 800 3259 1026 3326 
Q 1253 3394 1513 3394 
Q 1903 3394 2198 3281 
Q 2494 3169 2634 2976 
Q 2775 2784 2828 2463 
L 2278 2388 
Q 2241 2644 2061 2787 
Q 1881 2931 1553 2931 
Q 1166 2931 1000 2803 
Q 834 2675 834 2503 
Q 834 2394 903 2306 
Q 972 2216 1119 2156 
Q 1203 2125 1616 2013 
Q 2213 1853 2448 1751 
Q 2684 1650 2818 1456 
Q 2953 1263 2953 975 
Q 2953 694 2789 445 
Q 2625 197 2315 61 
Q 2006 -75 1616 -75 
Q 969 -75 630 194 
Q 291 463 197 991 
z
" transform="scale(0.015625)"/>
       <path id="ArialMT-44" d="M 494 0 
L 494 4581 
L 2072 4581 
Q 2606 4581 2888 4516 
Q 3281 4425 3559 4188 
Q 3922 3881 4101 3404 
Q 4281 2928 4281 2316 
Q 4281 1794 4159 1391 
Q 4038 988 3847 723 
Q 3656 459 3429 307 
Q 3203 156 2883 78 
Q 2563 0 2147 0 
L 494 0 
z
M 1100 541 
L 2078 541 
Q 2531 541 2789 625 
Q 3047 709 3200 863 
Q 3416 1078 3536 1442 
Q 3656 1806 3656 2325 
Q 3656 3044 3420 3430 
Q 3184 3816 2847 3947 
Q 2603 4041 2063 4041 
L 1100 4041 
L 1100 541 
z
" transform="scale(0.015625)"/>
       <path id="ArialMT-70" d="M 422 -1272 
L 422 3319 
L 934 3319 
L 934 2888 
Q 1116 3141 1344 3267 
Q 1572 3394 1897 3394 
Q 2322 3394 2647 3175 
Q 2972 2956 3137 2557 
Q 3303 2159 3303 1684 
Q 3303 1175 3120 767 
Q 2938 359 2589 142 
Q 2241 -75 1856 -75 
Q 1575 -75 1351 44 
Q 1128 163 984 344 
L 984 -1272 
L 422 -1272 
z
M 931 1641 
Q 931 1000 1190 694 
Q 1450 388 1819 388 
Q 2194 388 2461 705 
Q 2728 1022 2728 1688 
Q 2728 2322 2467 2637 
Q 2206 2953 1844 2953 
Q 1484 2953 1207 2617 
Q 931 2281 931 1641 
z
" transform="scale(0.015625)"/>
       <path id="ArialMT-6c" d="M 409 0 
L 409 4581 
L 972 4581 
L 972 0 
L 409 0 
z
" transform="scale(0.015625)"/>
       <path id="ArialMT-63" d="M 2588 1216 
L 3141 1144 
Q 3050 572 2676 248 
Q 2303 -75 1759 -75 
Q 1078 -75 664 370 
Q 250 816 250 1647 
Q 250 2184 428 2587 
Q 606 2991 970 3192 
Q 1334 3394 1763 3394 
Q 2303 3394 2647 3120 
Q 2991 2847 3088 2344 
L 2541 2259 
Q 2463 2594 2264 2762 
Q 2066 2931 1784 2931 
Q 1359 2931 1093 2626 
Q 828 2322 828 1663 
Q 828 994 1084 691 
Q 1341 388 1753 388 
Q 2084 388 2306 591 
Q 2528 794 2588 1216 
z
" transform="scale(0.015625)"/>
       <path id="ArialMT-74" d="M 1650 503 
L 1731 6 
Q 1494 -44 1306 -44 
Q 1000 -44 831 53 
Q 663 150 594 308 
Q 525 466 525 972 
L 525 2881 
L 113 2881 
L 113 3319 
L 525 3319 
L 525 4141 
L 1084 4478 
L 1084 3319 
L 1650 3319 
L 1650 2881 
L 1084 2881 
L 1084 941 
Q 1084 700 1114 631 
Q 1144 563 1211 522 
Q 1278 481 1403 481 
Q 1497 481 1650 503 
z
" transform="scale(0.015625)"/>
       <path id="ArialMT-28" d="M 1497 -1347 
Q 1031 -759 709 28 
Q 388 816 388 1659 
Q 388 2403 628 3084 
Q 909 3875 1497 4659 
L 1900 4659 
Q 1522 4009 1400 3731 
Q 1209 3300 1100 2831 
Q 966 2247 966 1656 
Q 966 153 1900 -1347 
L 1497 -1347 
z
" transform="scale(0.015625)"/>
       <path id="ArialMT-29" d="M 791 -1347 
L 388 -1347 
Q 1322 153 1322 1656 
Q 1322 2244 1188 2822 
Q 1081 3291 891 3722 
Q 769 4003 388 4659 
L 791 4659 
Q 1378 3875 1659 3084 
Q 1900 2403 1900 1659 
Q 1900 816 1576 28 
Q 1253 -759 791 -1347 
z
" transform="scale(0.015625)"/>
      </defs>
      <use xlink:href="#ArialMT-4d"/>
      <use xlink:href="#ArialMT-65" transform="translate(83.300781 0)"/>
      <use xlink:href="#ArialMT-61" transform="translate(138.916016 0)"/>
      <use xlink:href="#ArialMT-6e" transform="translate(194.53125 0)"/>
      <use xlink:href="#ArialMT-20" transform="translate(250.146484 0)"/>
      <use xlink:href="#ArialMT-46" transform="translate(277.929688 0)"/>
      <use xlink:href="#ArialMT-72" transform="translate(339.013672 0)"/>
      <use xlink:href="#ArialMT-61" transform="translate(372.314453 0)"/>
      <use xlink:href="#ArialMT-6d" transform="translate(427.929688 0)"/>
      <use xlink:href="#ArialMT-65" transform="translate(511.230469 0)"/>
      <use xlink:href="#ArialMT-77" transform="translate(566.845703 0)"/>
      <use xlink:href="#ArialMT-69" transform="translate(639.0625 0)"/>
      <use xlink:href="#ArialMT-73" transform="translate(661.279297 0)"/>
      <use xlink:href="#ArialMT-65" transform="translate(711.279297 0)"/>
      <use xlink:href="#ArialMT-20" transform="translate(766.894531 0)"/>
      <use xlink:href="#ArialMT-44" transform="translate(794.677734 0)"/>
      <use xlink:href="#ArialMT-69" transform="translate(866.894531 0)"/>
      <use xlink:href="#ArialMT-73" transform="translate(889.111328 0)"/>
      <use xlink:href="#ArialMT-70" transform="translate(939.111328 0)"/>
      <use xlink:href="#ArialMT-6c" transform="translate(994.726562 0)"/>
      <use xlink:href="#ArialMT-61" transform="translate(1016.943359 0)"/>
      <use xlink:href="#ArialMT-63" transform="translate(1072.558594 0)"/>
      <use xlink:href="#ArialMT-65" transform="translate(1122.558594 0)"/>
      <use xlink:href="#ArialMT-6d" transform="translate(1178.173828 0)"/>
      <use xlink:href="#ArialMT-65" transform="translate(1261.474609 0)"/>
      <use xlink:href="#ArialMT-6e" transform="translate(1317.089844 0)"/>
      <use xlink:href="#ArialMT-74" transform="translate(1372.705078 0)"/>
      <use xlink:href="#ArialMT-20" transform="translate(1400.488281 0)"/>
      <use xlink:href="#ArialMT-28" transform="translate(1428.271484 0)"/>
      <use xlink:href="#ArialMT-6d" transform="translate(1461.572266 0)"/>
      <use xlink:href="#ArialMT-6d" transform="translate(1544.873047 0)"/>
      <use xlink:href="#ArialMT-29" transform="translate(1628.173828 0)"/>
     </g>
    </g>
   </g>
   <g id="LineCollection_1">
    <path d="M 93.060682 294.030487 
L 139.493239 294.030487 
" clip-path="url(#p66d8448be9)" style="fill: none; stroke: #1f77b4; stroke-width: 1.5"/>
    <path d="M 278.790909 272.569948 
L 325.223466 272.569948 
" clip-path="url(#p66d8448be9)" style="fill: none; stroke: #1f77b4; stroke-width: 1.5"/>
    <path d="M 464.521136 290.367135 
L 510.953693 290.367135 
" clip-path="url(#p66d8448be9)" style="fill: none; stroke: #1f77b4; stroke-width: 1.5"/>
   </g>
   <g id="LineCollection_2">
    <path d="M 93.060682 142.831986 
L 139.493239 142.831986 
" clip-path="url(#p66d8448be9)" style="fill: none; stroke: #1f77b4; stroke-width: 1.5"/>
    <path d="M 278.790909 76.989647 
L 325.223466 76.989647 
" clip-path="url(#p66d8448be9)" style="fill: none; stroke: #1f77b4; stroke-width: 1.5"/>
    <path d="M 464.521136 176.506961 
L 510.953693 176.506961 
" clip-path="url(#p66d8448be9)" style="fill: none; stroke: #1f77b4; stroke-width: 1.5"/>
   </g>
   <g id="LineCollection_3">
    <path d="M 93.060682 379.270227 
L 139.493239 379.270227 
" clip-path="url(#p66d8448be9)" style="fill: none; stroke: #1f77b4; stroke-width: 1.5"/>
    <path d="M 278.790909 371.210684 
L 325.223466 371.210684 
" clip-path="url(#p66d8448be9)" style="fill: none; stroke: #1f77b4; stroke-width: 1.5"/>
    <path d="M 464.521136 356.236986 
L 510.953693 356.236986 
" clip-path="url(#p66d8448be9)" style="fill: none; stroke: #1f77b4; stroke-width: 1.5"/>
   </g>
   <g id="LineCollection_4">
    <path d="M 116.27696 379.270227 
L 116.27696 142.831986 
" clip-path="url(#p66d8448be9)" style="fill: none; stroke: #1f77b4; stroke-width: 1.5"/>
    <path d="M 302.007187 371.210684 
L 302.007187 76.989647 
" clip-path="url(#p66d8448be9)" style="fill: none; stroke: #1f77b4; stroke-width: 1.5"/>
    <path d="M 487.737415 356.236986 
L 487.737415 176.506961 
" clip-path="url(#p66d8448be9)" style="fill: none; stroke: #1f77b4; stroke-width: 1.5"/>
   </g>
   <g id="LineCollection_5">
    <path d="M 93.060682 313.531024 
L 139.493239 313.531024 
" clip-path="url(#p66d8448be9)" style="fill: none; stroke: #1f77b4; stroke-width: 1.5"/>
    <path d="M 278.790909 309.796469 
L 325.223466 309.796469 
" clip-path="url(#p66d8448be9)" style="fill: none; stroke: #1f77b4; stroke-width: 1.5"/>
    <path d="M 464.521136 304.794958 
L 510.953693 304.794958 
" clip-path="url(#p66d8448be9)" style="fill: none; stroke: #1f77b4; stroke-width: 1.5"/>
   </g>
   <g id="line2d_9">
    <path d="M 46.628125 41.724773 
L 557.38625 41.724773 
" clip-path="url(#p66d8448be9)" style="fill: none; stroke-dasharray: 5.55,2.4; stroke-dashoffset: 0; stroke: #ff0000; stroke-opacity: 0.5; stroke-width: 1.5"/>
   </g>
   <g id="patch_3">
    <path d="M 46.628125 396.1475 
L 46.628125 24.8475 
" style="fill: none; stroke: #000000; stroke-width: 0.8; stroke-linejoin: miter; stroke-linecap: square"/>
   </g>
   <g id="patch_4">
    <path d="M 46.628125 396.1475 
L 557.38625 396.1475 
" style="fill: none; stroke: #000000; stroke-width: 0.8; stroke-linejoin: miter; stroke-linecap: square"/>
   </g>
   <g id="text_10">
    <!-- Head Motion by Group -->
    <g transform="translate(221.524687 18.8475) scale(0.16 -0.16)">
     <defs>
      <path id="ArialMT-64" d="M 2575 0 
L 2575 419 
Q 2259 -75 1647 -75 
Q 1250 -75 917 144 
Q 584 363 401 755 
Q 219 1147 219 1656 
Q 219 2153 384 2558 
Q 550 2963 881 3178 
Q 1213 3394 1622 3394 
Q 1922 3394 2156 3267 
Q 2391 3141 2538 2938 
L 2538 4581 
L 3097 4581 
L 3097 0 
L 2575 0 
z
M 797 1656 
Q 797 1019 1065 703 
Q 1334 388 1700 388 
Q 2069 388 2326 689 
Q 2584 991 2584 1609 
Q 2584 2291 2321 2609 
Q 2059 2928 1675 2928 
Q 1300 2928 1048 2622 
Q 797 2316 797 1656 
z
" transform="scale(0.015625)"/>
      <path id="ArialMT-6f" d="M 213 1659 
Q 213 2581 725 3025 
Q 1153 3394 1769 3394 
Q 2453 3394 2887 2945 
Q 3322 2497 3322 1706 
Q 3322 1066 3130 698 
Q 2938 331 2570 128 
Q 2203 -75 1769 -75 
Q 1072 -75 642 372 
Q 213 819 213 1659 
z
M 791 1659 
Q 791 1022 1069 705 
Q 1347 388 1769 388 
Q 2188 388 2466 706 
Q 2744 1025 2744 1678 
Q 2744 2294 2464 2611 
Q 2184 2928 1769 2928 
Q 1347 2928 1069 2612 
Q 791 2297 791 1659 
z
" transform="scale(0.015625)"/>
      <path id="ArialMT-62" d="M 941 0 
L 419 0 
L 419 4581 
L 981 4581 
L 981 2947 
Q 1338 3394 1891 3394 
Q 2197 3394 2470 3270 
Q 2744 3147 2920 2923 
Q 3097 2700 3197 2384 
Q 3297 2069 3297 1709 
Q 3297 856 2875 390 
Q 2453 -75 1863 -75 
Q 1275 -75 941 416 
L 941 0 
z
M 934 1684 
Q 934 1088 1097 822 
Q 1363 388 1816 388 
Q 2184 388 2453 708 
Q 2722 1028 2722 1663 
Q 2722 2313 2464 2622 
Q 2206 2931 1841 2931 
Q 1472 2931 1203 2611 
Q 934 2291 934 1684 
z
" transform="scale(0.015625)"/>
      <path id="ArialMT-79" d="M 397 -1278 
L 334 -750 
Q 519 -800 656 -800 
Q 844 -800 956 -737 
Q 1069 -675 1141 -563 
Q 1194 -478 1313 -144 
Q 1328 -97 1363 -6 
L 103 3319 
L 709 3319 
L 1400 1397 
Q 1534 1031 1641 628 
Q 1738 1016 1872 1384 
L 2581 3319 
L 3144 3319 
L 1881 -56 
Q 1678 -603 1566 -809 
Q 1416 -1088 1222 -1217 
Q 1028 -1347 759 -1347 
Q 597 -1347 397 -1278 
z
" transform="scale(0.015625)"/>
      <path id="ArialMT-47" d="M 2638 1797 
L 2638 2334 
L 4578 2338 
L 4578 638 
Q 4131 281 3656 101 
Q 3181 -78 2681 -78 
Q 2006 -78 1454 211 
Q 903 500 622 1047 
Q 341 1594 341 2269 
Q 341 2938 620 3517 
Q 900 4097 1425 4378 
Q 1950 4659 2634 4659 
Q 3131 4659 3532 4498 
Q 3934 4338 4162 4050 
Q 4391 3763 4509 3300 
L 3963 3150 
Q 3859 3500 3706 3700 
Q 3553 3900 3268 4020 
Q 2984 4141 2638 4141 
Q 2222 4141 1919 4014 
Q 1616 3888 1430 3681 
Q 1244 3475 1141 3228 
Q 966 2803 966 2306 
Q 966 1694 1177 1281 
Q 1388 869 1791 669 
Q 2194 469 2647 469 
Q 3041 469 3416 620 
Q 3791 772 3984 944 
L 3984 1797 
L 2638 1797 
z
" transform="scale(0.015625)"/>
      <path id="ArialMT-75" d="M 2597 0 
L 2597 488 
Q 2209 -75 1544 -75 
Q 1250 -75 995 37 
Q 741 150 617 320 
Q 494 491 444 738 
Q 409 903 409 1263 
L 409 3319 
L 972 3319 
L 972 1478 
Q 972 1038 1006 884 
Q 1059 663 1231 536 
Q 1403 409 1656 409 
Q 1909 409 2131 539 
Q 2353 669 2445 892 
Q 2538 1116 2538 1541 
L 2538 3319 
L 3100 3319 
L 3100 0 
L 2597 0 
z
" transform="scale(0.015625)"/>
     </defs>
     <use xlink:href="#ArialMT-48"/>
     <use xlink:href="#ArialMT-65" transform="translate(72.216797 0)"/>
     <use xlink:href="#ArialMT-61" transform="translate(127.832031 0)"/>
     <use xlink:href="#ArialMT-64" transform="translate(183.447266 0)"/>
     <use xlink:href="#ArialMT-20" transform="translate(239.0625 0)"/>
     <use xlink:href="#ArialMT-4d" transform="translate(266.845703 0)"/>
     <use xlink:href="#ArialMT-6f" transform="translate(350.146484 0)"/>
     <use xlink:href="#ArialMT-74" transform="translate(405.761719 0)"/>
     <use xlink:href="#ArialMT-69" transform="translate(433.544922 0)"/>
     <use xlink:href="#ArialMT-6f" transform="translate(455.761719 0)"/>
     <use xlink:href="#ArialMT-6e" transform="translate(511.376953 0)"/>
     <use xlink:href="#ArialMT-20" transform="translate(566.992188 0)"/>
     <use xlink:href="#ArialMT-62" transform="translate(594.775391 0)"/>
     <use xlink:href="#ArialMT-79" transform="translate(650.390625 0)"/>
     <use xlink:href="#ArialMT-20" transform="translate(700.390625 0)"/>
     <use xlink:href="#ArialMT-47" transform="translate(728.173828 0)"/>
     <use xlink:href="#ArialMT-72" transform="translate(805.957031 0)"/>
     <use xlink:href="#ArialMT-6f" transform="translate(839.257812 0)"/>
     <use xlink:href="#ArialMT-75" transform="translate(894.873047 0)"/>
     <use xlink:href="#ArialMT-70" transform="translate(950.488281 0)"/>
    </g>
   </g>
   <g id="legend_1">
    <g id="patch_5">
     <path d="M 431.946719 390.6475 
L 549.68625 390.6475 
Q 551.88625 390.6475 551.88625 388.4475 
L 551.88625 373.85875 
Q 551.88625 371.65875 549.68625 371.65875 
L 431.946719 371.65875 
Q 429.746719 371.65875 429.746719 373.85875 
L 429.746719 388.4475 
Q 429.746719 390.6475 431.946719 390.6475 
z
" style="fill: #ffffff; opacity: 0.8; stroke: #cccccc; stroke-linejoin: miter"/>
    </g>
    <g id="line2d_10">
     <path d="M 434.146719 380.082344 
L 445.146719 380.082344 
L 456.146719 380.082344 
" style="fill: none; stroke-dasharray: 5.55,2.4; stroke-dashoffset: 0; stroke: #ff0000; stroke-opacity: 0.5; stroke-width: 1.5"/>
    </g>
    <g id="text_11">
     <!-- Typical threshold -->
     <g transform="translate(464.946719 383.932344) scale(0.11 -0.11)">
      <defs>
       <path id="ArialMT-54" d="M 1659 0 
L 1659 4041 
L 150 4041 
L 150 4581 
L 3781 4581 
L 3781 4041 
L 2266 4041 
L 2266 0 
L 1659 0 
z
" transform="scale(0.015625)"/>
       <path id="ArialMT-68" d="M 422 0 
L 422 4581 
L 984 4581 
L 984 2938 
Q 1378 3394 1978 3394 
Q 2347 3394 2619 3248 
Q 2891 3103 3008 2847 
Q 3125 2591 3125 2103 
L 3125 0 
L 2563 0 
L 2563 2103 
Q 2563 2525 2380 2717 
Q 2197 2909 1863 2909 
Q 1613 2909 1392 2779 
Q 1172 2650 1078 2428 
Q 984 2206 984 1816 
L 984 0 
L 422 0 
z
" transform="scale(0.015625)"/>
      </defs>
      <use xlink:href="#ArialMT-54"/>
      <use xlink:href="#ArialMT-79" transform="translate(55.583984 0)"/>
      <use xlink:href="#ArialMT-70" transform="translate(105.583984 0)"/>
      <use xlink:href="#ArialMT-69" transform="translate(161.199219 0)"/>
      <use xlink:href="#ArialMT-63" transform="translate(183.416016 0)"/>
      <use xlink:href="#ArialMT-61" transform="translate(233.416016 0)"/>
      <use xlink:href="#ArialMT-6c" transform="translate(289.03125 0)"/>
      <use xlink:href="#ArialMT-20" transform="translate(311.248047 0)"/>
      <use xlink:href="#ArialMT-74" transform="translate(339.03125 0)"/>
      <use xlink:href="#ArialMT-68" transform="translate(366.814453 0)"/>
      <use xlink:href="#ArialMT-72" transform="translate(422.429688 0)"/>
      <use xlink:href="#ArialMT-65" transform="translate(455.730469 0)"/>
      <use xlink:href="#ArialMT-73" transform="translate(511.345703 0)"/>
      <use xlink:href="#ArialMT-68" transform="translate(561.345703 0)"/>
      <use xlink:href="#ArialMT-6f" transform="translate(616.960938 0)"/>
      <use xlink:href="#ArialMT-6c" transform="translate(672.576172 0)"/>
      <use xlink:href="#ArialMT-64" transform="translate(694.792969 0)"/>
     </g>
    </g>
   </g>
  </g>
 </g>
 <defs>
  <clipPath id="p66d8448be9">
   <rect x="46.628125" y="24.8475" width="510.758125" height="371.3"/>
  </clipPath>
 </defs>
</svg>
